# Created by Metasequoia

mtllib KAD03A.mtl

v 1.198156 0.780737 -0.082567
v 1.217946 0.835912 -0.078527
v 1.193141 0.815194 -0.078821
v 1.378652 0.859302 -0.078527
v 1.295988 0.863593 -0.078245
v 1.429588 0.818476 -0.081151
v 1.426782 0.837758 -0.079015
v 1.427608 0.475048 -0.434549
v 1.278560 0.454489 -0.434420
v 1.355946 0.451496 -0.455416
v 1.273767 0.462518 -0.415087
v 1.260116 0.459745 -0.415774
v 1.439420 0.487337 -0.410364
v 1.447524 0.487330 -0.413973
v 1.269607 0.484480 -0.357717
v 1.244059 0.465342 -0.350805
v 1.436249 0.506790 -0.356630
v 1.457405 0.495714 -0.351038
v 1.450508 0.543105 -0.111959
v 1.458195 0.490286 -0.112886
v 1.237259 0.512068 -0.111959
v 1.244765 0.460495 -0.056333
v 1.475358 0.504002 -0.112695
v 1.469763 0.542445 -0.108431
v 1.216643 0.845661 -0.644137
v 1.294557 0.873314 -0.643854
v 1.299822 0.837143 -0.644491
v 1.177081 0.774061 -0.645270
v 1.155217 0.790369 -0.644934
v 1.119724 0.715739 -0.646128
v 1.151600 0.638454 -0.647535
v 1.115417 0.633187 -0.647535
v 1.143078 0.555281 -0.648943
v 1.214679 0.515736 -0.649805
v 1.198370 0.493872 -0.650141
v 1.273009 0.458384 -0.650934
v 1.350309 0.490258 -0.650580
v 1.355573 0.454086 -0.651217
v 1.433488 0.481740 -0.650934
v 1.473050 0.553340 -0.649805
v 1.494913 0.537032 -0.650141
v 1.530403 0.611655 -0.648943
v 1.498531 0.688947 -0.647535
v 1.534710 0.694213 -0.647535
v 1.507051 0.772111 -0.646128
v 1.435452 0.811665 -0.645270
v 1.451760 0.833529 -0.644934
v 1.377122 0.869018 -0.644137
v 1.475127 0.505587 -0.056135
v 1.469628 0.542580 -0.000745
v 1.473350 0.517009 0.007781
v 1.468235 0.552146 0.062686
v 1.460486 0.605387 0.100413
v 1.451205 0.669161 0.086726
v 1.451273 0.668693 0.114089
v 1.441995 0.732436 0.102645
v 1.436054 0.773258 0.052661
v 1.434061 0.786946 0.066809
v 1.428693 0.823835 0.013167
v 1.426806 0.837592 -0.050306
v 1.193201 0.815149 -0.050103
v 1.195438 0.800572 0.017836
v 1.204728 0.736745 0.049918
v 1.201189 0.761063 0.075473
v 1.209659 0.702861 0.113036
v 1.219463 0.635502 0.082690
v 1.219571 0.634762 0.125750
v 1.229420 0.567092 0.110652
v 1.237705 0.510167 0.071067
v 1.243147 0.472780 0.012080
v 1.496515 0.526826 -0.055822
v 1.532117 0.601472 -0.054628
v 1.494896 0.537152 0.001342
v 1.536311 0.684007 -0.053220
v 1.508764 0.761930 -0.051809
v 1.531079 0.607019 -0.024019
v 1.489571 0.573739 0.055377
v 1.484375 0.609442 0.080233
v 1.528196 0.626822 0.005492
v 1.453360 0.823331 -0.050615
v 1.475200 0.672484 0.096144
v 1.525382 0.646157 0.018843
v 1.520416 0.680275 0.027518
v 1.465947 0.736053 0.082453
v 1.455037 0.811016 0.006152
v 1.460630 0.772587 0.058867
v 1.509502 0.755268 -0.021417
v 1.512535 0.734430 0.007380
v 1.515409 0.714680 0.020045
v 1.156591 0.780138 -0.050615
v 1.121101 0.705508 -0.051809
v 1.116795 0.622949 -0.053220
v 1.122176 0.698895 -0.021417
v 1.144455 0.545051 -0.054628
v 1.158603 0.767872 0.006152
v 1.164197 0.729443 0.058867
v 1.199745 0.483633 -0.055822
v 1.143753 0.550646 -0.024019
v 1.125209 0.678057 0.007380
v 1.128083 0.658307 0.020045
v 1.169514 0.692909 0.082453
v 1.178766 0.629340 0.096144
v 1.133090 0.623902 0.027518
v 1.187941 0.566298 0.080233
v 1.138056 0.589784 0.018843
v 1.193138 0.530595 0.055377
v 1.140870 0.570449 0.005492
v 1.198462 0.494008 0.001342
v 1.454981 0.581711 0.095450
v 1.463931 0.520217 0.031108
v 1.442775 0.489599 0.004725
v 1.426239 0.603217 0.123599
v 1.408001 0.465340 -0.012151
v 1.386394 0.613793 0.143172
v 1.364854 0.451212 -0.016996
v 1.341470 0.611881 0.151107
v 1.298347 0.597725 0.146258
v 1.319950 0.449295 -0.009038
v 1.280112 0.459818 0.010508
v 1.263568 0.573489 0.129439
v 1.251367 0.481324 0.038657
v 1.242408 0.542877 0.103057
v 1.265275 0.453511 -0.056474
v 1.263027 0.468958 -0.128607
v 1.308208 0.462034 -0.134390
v 1.242745 0.475566 -0.124517
v 1.256963 0.510626 -0.189177
v 1.237027 0.514848 -0.181875
v 1.310632 0.445379 -0.056726
v 1.356753 0.446194 -0.056829
v 1.248035 0.571968 -0.229151
v 1.228565 0.572997 -0.219553
v 1.411285 0.462981 -0.057073
v 1.301680 0.506888 -0.199671
v 1.237573 0.643850 -0.242247
v 1.218679 0.640916 -0.232042
v 1.354259 0.463332 -0.136728
v 1.347547 0.509446 -0.203894
v 1.292056 0.573009 -0.242704
v 1.227185 0.715227 -0.226637
v 1.208853 0.708426 -0.217173
v 1.454602 0.488545 -0.056344
v 1.408880 0.479508 -0.133783
v 1.337647 0.577470 -0.248125
v 1.280793 0.650395 -0.256826
v 1.218461 0.775165 -0.184530
v 1.200593 0.765186 -0.177477
v 1.195165 0.802475 -0.118776
v 1.212703 0.814726 -0.122534
v 1.260206 0.791849 -0.194666
v 1.402450 0.523682 -0.198290
v 1.326059 0.657084 -0.262655
v 1.269608 0.727245 -0.239996
v 1.304878 0.802615 -0.198744
v 1.314551 0.736153 -0.245340
v 1.392942 0.589011 -0.240664
v 1.381815 0.665461 -0.254686
v 1.254008 0.834430 -0.127851
v 1.251974 0.848405 -0.049650
v 1.370767 0.741367 -0.237989
v 1.210817 0.827682 -0.049905
v 1.213065 0.812235 0.022231
v 1.219130 0.770567 0.082801
v 1.298507 0.846389 -0.130003
v 1.254398 0.831750 0.028018
v 1.228059 0.709217 0.122779
v 1.238520 0.637343 0.135871
v 1.247625 0.574784 0.123667
v 1.250373 0.693337 0.137366
v 1.278186 0.647865 0.150088
v 1.264091 0.744707 0.124194
v 1.331218 0.635014 0.155120
v 1.378414 0.662190 0.149184
v 1.260926 0.786897 0.093295
v 1.311277 0.772021 0.118491
v 1.428893 0.665181 0.128470
v 1.392151 0.713632 0.136016
v 1.305620 0.797518 0.097518
v 1.298908 0.843633 0.030352
v 1.362189 0.800309 0.091143
v 1.364320 0.759025 0.123179
v 1.418845 0.734217 0.115775
v 1.433988 0.630180 0.124381
v 1.296415 0.860763 -0.049550
v 1.410268 0.793151 0.077437
v 1.404452 0.833113 0.019252
v 1.402275 0.848069 -0.050031
v 1.355759 0.844490 0.026637
v 1.353354 0.861017 -0.050081
v 1.404104 0.835506 -0.119799
v 1.428422 0.825692 -0.114530
v 1.409625 0.797568 -0.179354
v 1.433519 0.790676 -0.169436
v 1.441245 0.737593 -0.206709
v 1.355374 0.847133 -0.127325
v 1.361477 0.805201 -0.193346
v 1.418005 0.739993 -0.219736
v 1.427984 0.671432 -0.234846
v 1.450436 0.674446 -0.220495
v 1.438032 0.602389 -0.222151
v 1.459689 0.610868 -0.208937
v 1.446610 0.543455 -0.183813
v 1.467597 0.556532 -0.173548
v 1.472965 0.519651 -0.119905
v 1.452426 0.503494 -0.125627
v 1.430149 0.813831 -0.050691
v 1.436716 0.768713 -0.148005
v 1.450493 0.674045 -0.196947
v 1.464510 0.577740 -0.151358
v 1.471560 0.529307 -0.055688
v 1.464985 0.574478 0.041571
v 1.451213 0.669101 0.090571
v 1.437198 0.765399 0.044982
v 1.196774 0.791422 -0.050493
v 1.204383 0.739139 0.052798
v 1.219514 0.635178 0.102008
v 1.234508 0.532923 0.049231
v 1.241479 0.484264 -0.055887
v 1.233870 0.536546 -0.159170
v 1.218737 0.640515 -0.208384
v 1.203862 0.742718 -0.155550
v 1.289683 0.906806 -2.592400
v 1.211769 0.879144 -2.592682
v 1.150343 0.823861 -2.593480
v 1.114857 0.749177 -2.594674
v 1.110535 0.666732 -2.596081
v 1.138211 0.588720 -2.597489
v 1.193488 0.527415 -2.598683
v 1.268142 0.491822 -2.599480
v 1.350675 0.487744 -2.599759
v 1.428621 0.515179 -2.599480
v 1.490031 0.570576 -2.598683
v 1.525537 0.645093 -2.597489
v 1.529828 0.727757 -2.596081
v 1.502183 0.805550 -2.594674
v 1.446886 0.867021 -2.593480
v 1.372249 0.902501 -2.592682
v 1.243943 0.829982 -2.963316
v 1.201280 0.791584 -2.963869
v 1.176529 0.739711 -2.964701
v 1.173538 0.682393 -2.965677
v 1.192744 0.628305 -2.966658
v 1.231255 0.585632 -2.967485
v 1.283124 0.560777 -2.968042
v 1.340448 0.558010 -2.968237
v 1.298069 0.849185 -2.963121
v 1.394605 0.577002 -2.968042
v 1.437241 0.615612 -2.967485
v 1.461987 0.667492 -2.966658
v 1.464978 0.724810 -2.965677
v 1.445772 0.778898 -2.964701
v 1.407266 0.821564 -2.963869
v 1.355424 0.846207 -2.963316
v 1.299025 0.842617 -0.644476
v 1.172374 0.777609 -0.645277
v 1.146046 0.637684 -0.647616
v 1.211183 0.510963 -0.649958
v 1.351094 0.484867 -0.650759
v 1.477765 0.549763 -0.649958
v 1.504075 0.689793 -0.647616
v 1.438956 0.816408 -0.645277
v 1.266331 1.055104 -2.275913
v 1.289720 0.894398 -2.406288
v 1.223084 1.046990 -2.212055
v 1.246731 0.884517 -2.214866
v 1.226055 1.026575 -1.024462
v 1.249833 0.863204 -0.988574
v 1.269949 1.030242 -0.872832
v 1.293855 0.865988 -0.750811
v 1.336844 0.875868 -0.988574
v 1.333743 0.897182 -2.214866
v 1.313067 1.039239 -1.024462
v 1.310096 1.059654 -2.212055
v 1.302971 0.957241 -1.768180
v 1.322247 0.886141 -1.775397
v 1.265699 0.877911 -1.775397
v 1.263908 0.951556 -1.768180
v 1.266738 0.870769 -1.359709
v 1.323286 0.878999 -1.359709
v 1.303982 0.950296 -1.364268
v 1.264919 0.944610 -1.364268
v 1.303016 0.956932 -1.750125
v 1.263953 0.951247 -1.750125
v 1.265773 0.877397 -1.745513
v 1.322322 0.885628 -1.745513
v 1.303936 0.950613 -1.382434
v 1.323212 0.879512 -1.389536
v 1.266663 0.871282 -1.389536
v 1.264872 0.944927 -1.382434
# 289 vertices

vt 0.67273 0.59332
vt 0.67114 0.59235
vt 0.67273 0.59546
vt 0.66626 0.59149
vt 0.66138 0.59253
vt 0.65881 0.59430
vt 0.65881 0.59546
vt 0.63306 0.61218
vt 0.63464 0.61676
vt 0.63452 0.60773
vt 0.63586 0.61774
vt 0.63586 0.61694
vt 0.63599 0.60687
vt 0.63574 0.60638
vt 0.74548 0.54800
vt 0.74805 0.55121
vt 0.74805 0.54764
vt 0.74597 0.55515
vt 0.74805 0.55823
vt 0.74805 0.55502
vt 0.74573 0.56531
vt 0.74805 0.56531
vt 0.74805 0.56220
vt 0.74621 0.58160
vt 0.74805 0.58173
vt 0.74805 0.58002
vt 0.65894 0.60309
vt 0.66126 0.60144
vt 0.65955 0.60107
vt 0.65430 0.61871
vt 0.65698 0.62238
vt 0.66101 0.62244
vt 0.68201 0.56641
vt 0.69617 0.57031
vt 0.69995 0.56952
vt 0.71423 0.56818
vt 0.71423 0.56952
vt 0.71765 0.56622
vt 0.71777 0.56805
vt 0.72083 0.55963
vt 0.72156 0.55847
vt 0.71741 0.55646
vt 0.72156 0.55441
vt 0.72083 0.55325
vt 0.71728 0.51700
vt 0.72070 0.52016
vt 0.72144 0.51900
vt 0.72144 0.51497
vt 0.72070 0.51381
vt 0.69995 0.50418
vt 0.71753 0.50724
vt 0.71777 0.50418
vt 0.73791 0.51622
vt 0.73340 0.51314
vt 0.73535 0.51514
vt 0.74341 0.50302
vt 0.74085 0.50195
vt 0.74548 0.50504
vt 0.67370 0.60925
vt 0.67786 0.60803
vt 0.67615 0.60773
vt 0.67822 0.60663
vt 0.67920 0.60290
vt 0.67798 0.60559
vt 0.68542 0.60504
vt 0.68689 0.60638
vt 0.68823 0.60364
vt 0.68713 0.59399
vt 0.68579 0.59601
vt 0.68848 0.59735
vt 0.68054 0.59369
vt 0.67883 0.59418
vt 0.67969 0.59698
vt 0.67725 0.59180
vt 0.67883 0.59161
vt 0.67505 0.59003
vt 0.68213 0.58582
vt 0.68164 0.58722
vt 0.68579 0.58722
vt 0.73865 0.58557
vt 0.73511 0.58722
vt 0.73901 0.58722
vt 0.67651 0.61261
vt 0.67602 0.61408
vt 0.68054 0.61408
vt 0.73865 0.61237
vt 0.73474 0.61408
vt 0.73901 0.61408
vt 0.73523 0.54587
vt 0.73950 0.54587
vt 0.74341 0.54422
vt 0.73132 0.52612
vt 0.73950 0.52451
vt 0.73523 0.52451
vt 0.63965 0.61883
vt 0.63953 0.61688
vt 0.63953 0.60699
vt 0.63965 0.60553
vt 0.65430 0.60565
vt 0.65356 0.60248
vt 0.67383 0.50308
vt 0.67444 0.50195
vt 0.67127 0.50195
vt 0.67151 0.50310
vt 0.74170 0.61798
vt 0.73694 0.61969
vt 0.74597 0.62073
vt 0.74658 0.61798
vt 0.73218 0.61798
vt 0.72803 0.61798
vt 0.72815 0.62079
vt 0.72363 0.61798
vt 0.71887 0.61969
vt 0.71411 0.61798
vt 0.70996 0.61798
vt 0.70996 0.62079
vt 0.70557 0.61798
vt 0.70081 0.61969
vt 0.69604 0.61798
vt 0.69190 0.61798
vt 0.69190 0.62079
vt 0.68750 0.61798
vt 0.68274 0.61975
vt 0.67798 0.61798
vt 0.67334 0.61798
vt 0.67395 0.62091
vt 0.74670 0.57257
vt 0.74805 0.56867
vt 0.74805 0.57617
vt 0.66626 0.60718
vt 0.66504 0.60303
vt 0.66699 0.61352
vt 0.66956 0.61408
vt 0.66956 0.60986
vt 0.66492 0.62085
vt 0.69372 0.57623
vt 0.68201 0.57629
vt 0.68201 0.58124
vt 0.69495 0.58087
vt 0.69495 0.57172
vt 0.68201 0.57135
vt 0.71741 0.56134
vt 0.68201 0.56146
vt 0.68201 0.55652
vt 0.72193 0.56695
vt 0.72119 0.56531
vt 0.71924 0.56088
vt 0.72546 0.56439
vt 0.72449 0.56280
vt 0.71741 0.55158
vt 0.68201 0.55158
vt 0.72778 0.56070
vt 0.72595 0.56046
vt 0.71753 0.54666
vt 0.68201 0.54663
vt 0.72864 0.55646
vt 0.72681 0.55646
vt 0.72778 0.55218
vt 0.72595 0.55243
vt 0.72205 0.55643
vt 0.72546 0.54849
vt 0.72449 0.55011
vt 0.71582 0.54486
vt 0.71582 0.54169
vt 0.68201 0.54169
vt 0.71582 0.53671
vt 0.68201 0.53677
vt 0.72119 0.54761
vt 0.72193 0.54596
vt 0.71777 0.54486
vt 0.71912 0.55200
vt 0.71582 0.53177
vt 0.68201 0.53183
vt 0.71582 0.52982
vt 0.68201 0.52692
vt 0.71753 0.52678
vt 0.71728 0.52187
vt 0.68201 0.52197
vt 0.68201 0.51704
vt 0.71912 0.52142
vt 0.72107 0.52576
vt 0.71728 0.51214
vt 0.68201 0.51209
vt 0.71789 0.52974
vt 0.72241 0.52849
vt 0.72620 0.52568
vt 0.72424 0.52327
vt 0.72876 0.52164
vt 0.72571 0.52095
vt 0.68201 0.50716
vt 0.71912 0.51257
vt 0.72107 0.50820
vt 0.72961 0.51701
vt 0.72656 0.51697
vt 0.72876 0.51233
vt 0.72571 0.51301
vt 0.72180 0.51698
vt 0.72620 0.50828
vt 0.72424 0.51070
vt 0.72241 0.50547
vt 0.69495 0.50197
vt 0.68201 0.50222
vt 0.69604 0.50312
vt 0.74548 0.51312
vt 0.73340 0.50506
vt 0.73230 0.50768
vt 0.74341 0.51513
vt 0.74646 0.51050
vt 0.73535 0.50305
vt 0.74646 0.50766
vt 0.73791 0.50196
vt 0.73889 0.60638
vt 0.73889 0.60773
vt 0.74329 0.60815
vt 0.74317 0.60565
vt 0.74207 0.60297
vt 0.73914 0.60346
vt 0.73425 0.60638
vt 0.73425 0.60773
vt 0.73425 0.60352
vt 0.72949 0.60638
vt 0.72949 0.60773
vt 0.72949 0.60352
vt 0.74158 0.59997
vt 0.73914 0.60059
vt 0.73425 0.60065
vt 0.72473 0.60638
vt 0.72473 0.60773
vt 0.74170 0.59692
vt 0.73889 0.59705
vt 0.72473 0.60352
vt 0.71997 0.60638
vt 0.71997 0.60773
vt 0.73413 0.59717
vt 0.72949 0.60071
vt 0.71997 0.60352
vt 0.71521 0.60638
vt 0.71521 0.60773
vt 0.74243 0.59412
vt 0.73852 0.59393
vt 0.72937 0.59717
vt 0.72473 0.60071
vt 0.71521 0.60352
vt 0.71045 0.60638
vt 0.71045 0.60773
vt 0.70569 0.60638
vt 0.70569 0.60773
vt 0.70093 0.60638
vt 0.70093 0.60773
vt 0.71045 0.60352
vt 0.70569 0.60352
vt 0.72461 0.59717
vt 0.71997 0.60071
vt 0.71521 0.60065
vt 0.71045 0.60071
vt 0.71997 0.59717
vt 0.71521 0.59717
vt 0.70569 0.60065
vt 0.70093 0.60352
vt 0.71045 0.59717
vt 0.69617 0.60638
vt 0.69617 0.60773
vt 0.69617 0.60352
vt 0.69153 0.60638
vt 0.69153 0.60773
vt 0.70105 0.60071
vt 0.69140 0.60352
vt 0.68689 0.60773
vt 0.68225 0.60638
vt 0.68225 0.60773
vt 0.68249 0.60364
vt 0.68128 0.60046
vt 0.67969 0.59997
vt 0.68274 0.59735
vt 0.69140 0.60065
vt 0.68933 0.60053
vt 0.68274 0.59393
vt 0.69617 0.60071
vt 0.69165 0.59711
vt 0.69629 0.59717
vt 0.68726 0.59235
vt 0.68286 0.59235
vt 0.69165 0.59399
vt 0.69177 0.59235
vt 0.69629 0.59399
vt 0.69629 0.59235
vt 0.70105 0.59399
vt 0.70105 0.59235
vt 0.70105 0.59717
vt 0.70581 0.59711
vt 0.70569 0.59399
vt 0.70569 0.59235
vt 0.71045 0.59399
vt 0.71045 0.59235
vt 0.71521 0.59405
vt 0.71521 0.59235
vt 0.71997 0.59399
vt 0.71997 0.59235
vt 0.72461 0.59399
vt 0.72461 0.59235
vt 0.72937 0.59405
vt 0.72937 0.59235
vt 0.73401 0.59405
vt 0.73389 0.59235
vt 0.73828 0.59235
vt 0.74231 0.59149
vt 0.74390 0.59167
vt 0.74610 0.58978
vt 0.73255 0.55560
vt 0.74085 0.55560
vt 0.74085 0.55218
vt 0.73255 0.55218
vt 0.73498 0.55801
vt 0.73840 0.55801
vt 0.68909 0.58722
vt 0.68909 0.58496
vt 0.69251 0.58722
vt 0.69629 0.58575
vt 0.70007 0.58722
vt 0.70325 0.58722
vt 0.70325 0.58496
vt 0.70666 0.58722
vt 0.71045 0.58575
vt 0.71423 0.58722
vt 0.71741 0.58722
vt 0.71741 0.58496
vt 0.72083 0.58722
vt 0.72461 0.58575
vt 0.72839 0.58722
vt 0.73157 0.58722
vt 0.73157 0.58496
vt 0.68420 0.61408
vt 0.68420 0.61169
vt 0.68799 0.61408
vt 0.69202 0.61255
vt 0.69617 0.61408
vt 0.69971 0.61408
vt 0.69971 0.61169
vt 0.70349 0.61408
vt 0.70764 0.61255
vt 0.71179 0.61408
vt 0.71533 0.61408
vt 0.71521 0.61169
vt 0.71912 0.61408
vt 0.72315 0.61255
vt 0.72729 0.61408
vt 0.73084 0.61408
vt 0.73084 0.61169
vt 0.50195 0.50195
vt 0.50195 0.50806
vt 0.64612 0.50806
vt 0.64612 0.50195
vt 0.50195 0.51417
vt 0.64612 0.51417
vt 0.50195 0.52029
vt 0.64612 0.52029
vt 0.50195 0.52640
vt 0.64612 0.52640
vt 0.50195 0.53250
vt 0.64612 0.53250
vt 0.50195 0.53864
vt 0.64612 0.53864
vt 0.50195 0.54474
vt 0.64612 0.54474
vt 0.50195 0.55084
vt 0.64612 0.55084
vt 0.50195 0.55698
vt 0.64612 0.55698
vt 0.50195 0.56305
vt 0.64612 0.56305
vt 0.50195 0.56921
vt 0.64612 0.56921
vt 0.50195 0.57532
vt 0.64612 0.57532
vt 0.50195 0.58142
vt 0.64612 0.58142
vt 0.50195 0.58753
vt 0.64612 0.58753
vt 0.50195 0.59363
vt 0.64612 0.59363
vt 0.50195 0.59973
vt 0.64612 0.59973
vt 0.65003 0.50848
vt 0.67810 0.51336
vt 0.67810 0.50897
vt 0.65003 0.50246
vt 0.65003 0.51428
vt 0.67810 0.51791
vt 0.65003 0.51990
vt 0.67810 0.52261
vt 0.65003 0.52542
vt 0.67786 0.52737
vt 0.65003 0.53084
vt 0.67786 0.53220
vt 0.65003 0.53619
vt 0.67786 0.53705
vt 0.65003 0.54150
vt 0.67786 0.54196
vt 0.65003 0.58514
vt 0.65003 0.59119
vt 0.67786 0.58472
vt 0.67786 0.58032
vt 0.65003 0.54681
vt 0.67786 0.54688
vt 0.65003 0.55209
vt 0.67786 0.55179
vt 0.65003 0.55743
vt 0.67786 0.55667
vt 0.65003 0.56280
vt 0.67786 0.56155
vt 0.65003 0.56818
vt 0.67786 0.56634
vt 0.65003 0.57373
vt 0.67786 0.57111
vt 0.65003 0.57935
vt 0.67786 0.57581
vt 0.74646 0.54123
vt 0.73132 0.54422
vt 0.74805 0.53305
vt 0.72668 0.53729
vt 0.72827 0.54123
vt 0.74805 0.53729
vt 0.74646 0.52913
vt 0.72668 0.53305
vt 0.74341 0.52612
vt 0.72827 0.52913
vt 0.50312 0.60681
vt 0.51430 0.60535
vt 0.50819 0.60370
vt 0.50243 0.60370
vt 0.52588 0.60669
vt 0.52586 0.60370
vt 0.52033 0.60370
vt 0.53717 0.60535
vt 0.53108 0.60370
vt 0.54877 0.60669
vt 0.54874 0.60370
vt 0.54318 0.60370
vt 0.56006 0.60535
vt 0.55396 0.60370
vt 0.57165 0.60669
vt 0.57160 0.60370
vt 0.56610 0.60370
vt 0.58295 0.60535
vt 0.57684 0.60370
vt 0.59430 0.60663
vt 0.59491 0.60370
vt 0.58887 0.60370
vt 0.73730 0.61798
vt 0.71924 0.61798
vt 0.70117 0.61798
vt 0.68298 0.61798
vt 0.74805 0.57275
vt 0.66797 0.60602
vt 0.66797 0.61792
vt 0.73230 0.51051
vt 0.74085 0.51622
vt 0.74499 0.60785
vt 0.74744 0.60944
vt 0.73840 0.54977
vt 0.73498 0.54977
vt 0.69604 0.58722
vt 0.71021 0.58722
vt 0.72436 0.58722
vt 0.69177 0.61408
vt 0.70740 0.61408
vt 0.72290 0.61408
vt 0.51457 0.60370
vt 0.53747 0.60370
vt 0.56033 0.60370
vt 0.58319 0.60370
vt 0.51691 0.54453
vt 0.50905 0.54690
vt 0.51691 0.54926
vt 0.56407 0.54690
vt 0.55771 0.54453
vt 0.55771 0.54926
vt 0.54963 0.54654
vt 0.54963 0.55127
vt 0.55469 0.54899
vt 0.50817 0.54899
vt 0.51033 0.55127
vt 0.51033 0.54654
vt 0.55670 0.54464
vt 0.55408 0.54464
vt 0.55408 0.55379
vt 0.56044 0.55379
vt 0.51477 0.54464
vt 0.51365 0.55379
vt 0.50953 0.54464
vt 0.50541 0.55379
vt 0.55208 0.55258
vt 0.55995 0.55258
vt 0.55582 0.54403
vt 0.55059 0.54403
vt 0.51128 0.55258
vt 0.51128 0.54403
vt 0.50903 0.54342
vt 0.50492 0.55258
vt 0.59271 0.61340
vt 0.59271 0.61047
vt 0.58728 0.60980
vt 0.58728 0.61401
vt 0.62140 0.61584
vt 0.61597 0.61646
vt 0.61597 0.61939
vt 0.62140 0.62006
vt 0.62610 0.61615
vt 0.62537 0.62158
vt 0.62964 0.62158
vt 0.62903 0.61615
vt 0.61120 0.61414
vt 0.60828 0.61414
vt 0.60760 0.61957
vt 0.61188 0.61957
vt 0.62353 0.61035
vt 0.62353 0.61163
vt 0.62903 0.61212
vt 0.62903 0.60986
vt 0.62060 0.61035
vt 0.62060 0.61163
vt 0.61511 0.60986
vt 0.61511 0.61212
vt 0.61865 0.60425
vt 0.61865 0.60559
vt 0.62414 0.60602
vt 0.62414 0.60382
vt 0.61572 0.60425
vt 0.61572 0.60559
vt 0.61029 0.60382
vt 0.61029 0.60602
# 531 texture vertices

vn 0.03867 -0.08310 0.99579
vn 0.02663 -0.06118 0.99777
vn 0.06988 -0.09776 0.99275
vn -0.01066 -0.06728 0.99768
vn 0.00251 -0.01727 0.99985
vn -0.01724 -0.09223 0.99559
vn -0.04187 -0.11602 0.99236
vn 0.28472 -0.92020 0.26864
vn -0.00482 -0.96081 0.27715
vn 0.13813 -0.97403 0.17941
vn 0.20665 -0.90552 0.37057
vn -0.06687 -0.98102 0.18202
vn 0.04679 -0.93882 0.34121
vn 0.34350 -0.92727 0.14893
vn 0.44108 -0.86367 0.24399
vn -0.17952 -0.97876 0.09897
vn -0.22188 -0.95068 0.21675
vn 0.50124 -0.86435 0.04060
vn -0.82500 -0.55842 0.08689
vn 0.62431 -0.78093 -0.01987
vn 0.99916 -0.02510 0.03232
vn 0.99245 -0.11245 0.04896
vn -0.98957 -0.14402 -0.00001
vn -0.98950 -0.14453 -0.00069
vn -0.00251 0.01721 -0.99985
vn -0.00250 0.01721 -0.99985
vn -0.00251 0.01720 -0.99985
vn -0.77819 0.62793 0.01128
vn -0.00252 0.01719 -0.99985
vn -0.00252 0.01718 -0.99985
vn -0.00251 0.01720 -0.99985
vn -0.00251 0.01720 -0.99985
vn -0.55737 -0.83010 -0.01671
vn -0.00250 0.01720 -0.99985
vn -0.00250 0.01718 -0.99985
vn -0.00251 0.01719 -0.99985
vn -0.00250 0.01719 -0.99985
vn 0.76650 -0.64200 -0.01767
vn -0.00250 0.01720 -0.99985
vn -0.00249 0.01718 -0.99985
vn -0.00249 0.01719 -0.99985
vn -0.00250 0.01720 -0.99985
vn 0.57093 0.82092 0.01144
vn -0.00250 0.01721 -0.99985
vn -0.98952 -0.14437 -0.00046
vn -0.98950 -0.14454 -0.00069
vn -0.98957 -0.14403 -0.00001
vn -0.98958 -0.14402 -0.00001
vn -0.98957 -0.14402 -0.00001
vn -0.98957 -0.14402 -0.00001
vn -0.98957 -0.14404 -0.00002
vn -0.98960 -0.14383 -0.00043
vn 0.72196 0.53259 0.44172
vn 0.70486 0.66559 0.24528
vn -0.98962 -0.14371 -0.00062
vn 0.98958 0.14395 -0.00172
vn -0.84866 0.46327 0.25525
vn 0.98959 0.14391 -0.00053
vn -0.82744 0.32314 0.45926
vn 0.98957 0.14402 -0.00000
vn 0.98956 0.14411 -0.00020
vn 0.98957 0.14403 -0.00000
vn -0.70997 -0.37147 0.59829
vn -0.38867 -0.70164 0.59718
vn 0.98971 0.14307 -0.00133
vn 0.79927 -0.59901 0.04843
vn 0.96928 -0.24207 0.04349
vn 0.81231 -0.52280 0.25853
vn 0.98481 0.14157 0.10058
vn 0.86044 0.50640 0.05661
vn 0.94593 -0.27571 0.17088
vn 0.78667 -0.38128 0.48557
vn 0.75737 -0.17498 0.62910
vn 0.95491 -0.13974 0.26196
vn 0.61554 0.78396 0.08072
vn 0.72845 0.09410 0.67860
vn 0.93612 -0.01141 0.35149
vn 0.88831 0.12151 0.44287
vn 0.67929 0.36183 0.63847
vn 0.63054 0.72363 0.28066
vn 0.64764 0.57292 0.50232
vn 0.82918 0.52748 0.18501
vn 0.87679 0.39697 0.27138
vn 0.89581 0.26567 0.35630
vn -0.80836 0.58309 0.08096
vn -0.96904 0.24047 0.05603
vn -0.98436 -0.14501 0.10008
vn -0.94500 0.27009 0.18446
vn -0.86004 -0.50842 0.04286
vn -0.80462 0.52173 0.28354
vn -0.77925 0.36895 0.50660
vn -0.57639 -0.81604 0.04295
vn -0.82797 -0.53433 0.17018
vn -0.95350 0.13120 0.27134
vn -0.93422 -0.00050 0.35669
vn -0.74796 0.15601 0.64514
vn -0.71534 -0.11621 0.68905
vn -0.88578 -0.13672 0.44350
vn -0.66939 -0.38462 0.63559
vn -0.89382 -0.27793 0.35191
vn -0.63964 -0.59278 0.48937
vn -0.87526 -0.40664 0.26184
vn -0.62141 -0.73868 0.26116
vn 0.43037 -0.51984 0.73793
vn 0.34999 -0.70650 0.61511
vn 0.46498 -0.77495 0.42807
vn 0.33474 -0.47227 0.81542
vn 0.30035 -0.85853 0.41559
vn 0.27050 -0.36064 0.89262
vn 0.17172 -0.89435 0.41310
vn 0.10543 -0.44094 0.89132
vn -0.09086 -0.41098 0.90711
vn 0.04400 -0.90208 0.42932
vn -0.13453 -0.88611 0.44352
vn -0.10626 -0.53923 0.83543
vn -0.04068 -0.77873 0.62603
vn -0.17123 -0.63727 0.75138
vn -0.25528 -0.96647 -0.02765
vn -0.26813 -0.89072 -0.36704
vn -0.09155 -0.91679 -0.38874
vn -0.34652 -0.86898 -0.35327
vn -0.29957 -0.68834 -0.66064
vn -0.37882 -0.67401 -0.63420
vn -0.07633 -0.99589 -0.04883
vn 0.16395 -0.98426 -0.06593
vn -0.34332 -0.39022 -0.85432
vn -0.42109 -0.38779 -0.81994
vn 0.40827 -0.91079 -0.06145
vn -0.12280 -0.70228 -0.70123
vn -0.39428 -0.04128 -0.91806
vn -0.47022 -0.05300 -0.88096
vn 0.14409 -0.90573 -0.39861
vn 0.11005 -0.68596 -0.71927
vn -0.16877 -0.38578 -0.90702
vn -0.44442 0.30543 -0.84214
vn -0.51798 0.27985 -0.80832
vn 0.58273 -0.81190 -0.03532
vn 0.39328 -0.83541 -0.38396
vn 0.06115 -0.36141 -0.93040
vn -0.22255 -0.01527 -0.97480
vn -0.48644 0.59682 -0.63810
vn -0.55804 0.55973 -0.61261
vn -0.98922 -0.14646 -0.00041
vn -0.51278 0.78940 -0.33750
vn -0.32135 0.66184 -0.67727
vn 0.36274 -0.62337 -0.69270
vn 0.00453 0.01823 -0.99982
vn -0.27626 0.35263 -0.89405
vn -0.09835 0.71254 -0.69470
vn -0.05162 0.39529 -0.91710
vn 0.31708 -0.31066 -0.89607
vn 0.26376 0.05527 -0.96300
vn -0.35092 0.86550 -0.35744
vn -0.36052 0.93260 0.01693
vn 0.21106 0.41871 -0.88325
vn -0.51888 0.85470 0.01553
vn -0.50780 0.77936 0.36706
vn -0.49184 0.57796 0.65120
vn -0.12820 0.92154 -0.36650
vn -0.34905 0.85267 0.38873
vn -0.45139 0.27762 0.84804
vn -0.42405 -0.07489 0.90254
vn -0.36988 -0.26801 0.88958
vn -0.27444 0.21769 0.93664
vn -0.21690 -0.01150 0.97613
vn -0.21684 0.38713 0.89616
vn 0.00866 0.06593 0.99779
vn 0.19127 0.11302 0.97501
vn -0.33383 0.65581 0.67711
vn -0.05341 0.44015 0.89633
vn 0.47791 0.07767 0.87497
vn 0.24164 0.29665 0.92391
vn -0.09488 0.72026 0.68719
vn -0.12372 0.90876 0.39856
vn 0.17541 0.72257 0.66867
vn 0.17427 0.48349 0.85783
vn 0.40899 0.39490 0.82267
vn 0.48652 -0.12116 0.86523
vn -0.13699 0.99042 0.01734
vn 0.37243 0.68086 0.63065
vn 0.33764 0.87198 0.35447
vn 0.32740 0.94476 0.01514
vn 0.13905 0.91279 0.38403
vn 0.12749 0.99170 0.01675
vn 0.34012 0.88223 -0.32557
vn 0.80333 0.56838 -0.17777
vn 0.36936 0.69693 -0.61471
vn 0.81833 0.46807 -0.33352
vn 0.84067 0.31581 -0.43993
vn 0.13735 0.92547 -0.35304
vn 0.16688 0.72427 -0.66902
vn 0.40982 0.41640 -0.81158
vn 0.45752 0.08208 -0.88540
vn 0.76631 0.12261 -0.63066
vn 0.50511 -0.25508 -0.82450
vn 0.89359 -0.04784 -0.44632
vn 0.54542 -0.54350 -0.63806
vn 0.91613 -0.20367 -0.34529
vn 0.93117 -0.30938 -0.19290
vn 0.57046 -0.74058 -0.35514
vn 0.98991 0.14168 -0.00003
vn 0.98957 0.14403 -0.00000
vn 0.98957 0.14403 0.00002
vn 0.98957 0.14403 0.00001
vn 0.98934 0.14559 0.00003
vn 0.98957 0.14403 0.00001
vn 0.98957 0.14403 -0.00000
vn 0.98957 0.14403 0.00001
vn -0.98921 -0.14649 -0.00006
vn -0.98956 -0.14409 -0.00007
vn -0.98962 -0.14373 -0.00088
vn -0.98981 -0.14237 -0.00163
vn -0.99003 -0.14087 -0.00025
vn -0.98957 -0.14402 0.00000
vn -0.98957 -0.14402 -0.00001
vn -0.98958 -0.14401 -0.00001
vn -0.14368 0.98720 -0.06917
vn -0.50984 0.85738 -0.07048
vn -0.79873 0.59709 -0.07424
vn -0.96596 0.24608 -0.07980
vn -0.98611 -0.14187 -0.08641
vn -0.85609 -0.50836 -0.09310
vn -0.59614 -0.79679 -0.09874
vn -0.24428 -0.96428 -0.10247
vn 0.14325 -0.98424 -0.10367
vn 0.50902 -0.85464 -0.10245
vn 0.79854 -0.59379 -0.09873
vn 0.96549 -0.24323 -0.09310
vn 0.98564 0.14510 -0.08640
vn 0.85575 0.51120 -0.07979
vn 0.59541 0.79999 -0.07424
vn 0.24429 0.96714 -0.07048
vn -0.50431 0.84924 -0.15643
vn -0.78987 0.59200 -0.16015
vn -0.00258 0.01719 -0.99985
vn -0.00272 0.01717 -0.99985
vn -0.58983 -0.78619 -0.18440
vn -0.24166 -0.95196 -0.18808
vn 0.14143 -0.97172 -0.18910
vn -0.14228 0.97759 -0.15514
vn 0.50299 -0.84359 -0.18805
vn 0.78948 -0.58544 -0.18437
vn -0.00243 0.01721 -0.99985
vn -0.00228 0.01723 -0.99985
vn 0.58836 0.79258 -0.16014
vn 0.24130 0.95776 -0.15644
vn 0.00283 -0.01945 0.99981
vn 0.00458 -0.01875 0.99981
vn 0.00475 -0.01685 0.99985
vn 0.00406 -0.01511 0.99988
vn 0.00217 -0.01491 0.99989
vn 0.00042 -0.01564 0.99988
vn 0.00025 -0.01751 0.99985
vn 0.00095 -0.01928 0.99981
vn -0.14397 0.98918 0.02819
vn 0.14401 -0.98940 -0.01873
vn -0.14399 0.98932 0.02278
vn 0.14401 -0.98941 -0.01815
vn -0.14400 0.98942 0.01756
vn 0.14401 -0.98944 -0.01632
vn -0.14400 0.98942 0.01776
vn 0.14401 -0.98946 -0.01508
vn -0.01414 0.09718 -0.99517
vn -0.00894 0.06140 0.99807
vn -0.00904 0.06211 0.99803
vn -0.01392 0.09565 -0.99532
vn -0.98958 -0.14400 -0.00001
vn 0.98954 0.14422 -0.00184
vn 0.68882 -0.72489 -0.00757
vn 0.79791 -0.60214 0.02770
vn -0.56005 -0.82815 0.02272
vn 0.80859 -0.37458 0.45372
vn 0.81089 -0.12106 0.57255
vn 0.69354 0.71933 0.03956
vn -0.85406 0.51861 0.04036
vn 0.13669 -0.98157 0.13354
vn 0.92825 -0.35918 0.09669
vn -0.09078 -0.07638 0.99294
vn -0.98962 -0.14373 -0.00064
vn 0.98960 0.14384 -0.00080
vn 0.98956 0.14416 -0.00030
vn 0.14288 -0.98960 -0.01681
vn -0.23015 -0.97297 -0.01920
vn 0.49550 -0.86837 -0.02044
vn 0.96940 -0.24541 -0.00678
vn 0.98956 0.14409 -0.00014
vn 0.87704 -0.43489 0.20414
vn 0.85927 0.51148 0.00651
vn 0.71304 0.10207 0.69366
vn 0.75135 0.33866 0.56637
vn 0.44439 0.89576 0.01136
vn 0.23985 0.97069 0.01549
vn 0.24265 0.96999 0.01576
vn -0.14399 0.98943 0.01736
vn -0.14400 0.98943 0.01736
vn -0.50354 0.86383 0.01552
vn -0.50755 0.86148 0.01578
vn -0.67218 0.74031 0.01091
vn -0.96941 0.24537 0.00655
vn -0.98958 -0.14396 -0.00009
vn -0.85921 -0.51159 -0.00673
vn -0.79910 0.12129 0.58884
vn -0.67940 -0.10884 0.72565
vn -0.69143 -0.68924 0.21652
vn -0.58175 0.74569 -0.32483
vn -0.99008 -0.14048 0.00007
vn -0.98957 -0.14403 -0.00001
vn -0.98957 -0.14402 -0.00001
vn -0.95529 0.24496 -0.16559
vn -0.97525 -0.13879 -0.17213
vn -0.84661 -0.50128 -0.17882
vn 0.95438 -0.23914 -0.17881
vn 0.97435 0.14497 -0.17212
vn 0.84584 0.50708 -0.16558
vn -0.00254 0.01719 -0.99985
vn -0.00250 0.01720 -0.99985
vn -0.00249 0.01719 -0.99985
vn -0.00252 0.01719 -0.99985
vn -0.00247 0.01720 -0.99985
vn 0.00446 -0.01941 0.99980
vn 0.00518 -0.01844 0.99982
vn 0.00469 -0.01525 0.99987
vn 0.00375 -0.01453 0.99989
vn 0.00055 -0.01499 0.99989
vn -0.00015 -0.01596 0.99987
vn 0.00029 -0.01915 0.99982
vn 0.00125 -0.01987 0.99980
vn -0.00254 0.01721 -0.99985
vn -0.00248 0.01722 -0.99985
vn -0.00253 0.01721 -0.99985
vn -0.00248 0.01722 -0.99985
vn -0.98957 -0.14405 -0.00003
vn 0.98958 0.14401 -0.00001
vn 0.98957 0.14403 -0.00001
vn -0.98957 -0.14403 -0.00001
vn 0.00553 -0.01944 0.99980
vn 0.00471 -0.01423 0.99989
vn -0.00045 -0.01498 0.99989
vn 0.00024 -0.02021 0.99980
vn -0.91546 -0.03817 -0.40059
vn -0.97434 -0.09319 -0.20488
vn -0.98872 -0.09427 0.11642
vn -0.97201 -0.04299 0.23098
vn 0.97457 0.19148 0.11642
vn 0.94394 0.23586 0.23098
vn 0.96048 0.18841 -0.20488
vn 0.88837 0.22436 -0.40059
vn -0.99970 -0.02451 0.00213
vn -0.14402 0.98942 0.01763
vn 0.96521 0.26147 0.00211
vn 0.96521 0.26147 0.00207
vn -0.14400 0.98943 0.01729
vn -0.99970 -0.02451 0.00206
# 353 normal vertices

g JH7A2
usemtl m_b0e8801c-d289-3543-f1d8-2905a
f 1/3/1 2/2/2 3/1/3
f 4/5/4 5/4/5 2/2/2
f 6/7/6 7/6/7 4/5/4
f 8/10/8 9/9/9 10/8/10
f 11/12/11 12/11/12 9/9/9
f 14/14/14 13/13/13 8/10/8
f 23/17/23 49/16/24 24/15/24
f 51/20/46 52/19/47 50/18/45
f 53/23/48 55/22/50 54/21/49
f 60/26/55 7/25/267 6/24/55
f 3/29/268 61/28/56 1/27/56
f 70/32/65 22/31/22 21/30/21
f 18/35/18 14/34/14 41/33/38
f 20/37/20 18/35/18 23/36/269
f 49/39/270 23/36/269 71/38/66
f 74/42/69 82/41/77 79/40/74
f 74/42/69 88/44/83 89/43/84
f 100/47/95 99/46/94 92/45/87
f 107/49/102 105/48/100 92/45/87
f 22/52/271 97/51/92 16/50/16
f 52/55/272 109/54/104 110/53/105
f 121/58/116 122/57/117 69/56/64
f 122/61/117 68/60/63 69/59/64
f 120/64/115 117/63/112 168/62/163
f 171/67/166 166/66/161 169/65/164
f 181/70/176 177/69/172 182/68/177
f 114/73/109 112/72/107 183/71/178
f 52/76/272 53/75/273 109/74/104
f 191/79/186 60/78/274 206/77/201
f 60/82/274 59/81/54 206/80/201
f 62/85/57 61/84/275 214/83/209
f 61/88/275 148/87/143 214/86/209
f 251/91/243 250/90/244 249/89/243
f 241/94/236 240/93/235 242/92/235
f 2/2/2 1/3/1 6/7/6 4/5/4
f 11/12/11 15/96/15 16/95/16 12/11/12
f 11/12/11 13/13/13 17/97/17 15/96/15
f 13/13/13 14/14/14 18/98/18 17/97/17
f 17/97/17 18/98/19 20/100/19 19/99/19
f 17/97/17 19/99/276 21/30/276 15/96/15
f 15/96/15 21/30/21 22/31/22 16/95/277
f 24/104/278 19/103/278 20/102/278 23/101/278
f 26/108/26 27/107/26 28/106/27 25/105/25
f 28/106/27 31/111/30 32/110/30 30/109/29
f 32/110/30 31/111/30 34/113/32 33/112/31
f 34/113/32 37/116/35 38/115/35 36/114/34
f 38/115/35 37/116/35 40/118/37 39/117/36
f 40/118/37 43/121/40 44/120/40 42/119/39
f 44/120/40 43/121/40 46/123/42 45/122/41
f 46/123/42 27/126/26 26/125/26 48/124/44
f 24/15/24 49/16/24 51/20/46 50/18/45
f 52/19/47 53/23/48 54/21/49 50/18/45
f 55/22/50 56/128/51 57/127/52 54/21/49
f 57/127/52 59/129/279 60/26/55 6/24/55
f 61/28/56 62/131/280 63/130/58 1/27/56
f 63/130/58 65/134/60 67/133/62 66/132/61
f 66/132/61 69/135/281 70/32/65 21/30/21
f 9/139/9 36/138/283 38/137/282 10/136/10
f 38/137/282 39/141/284 8/140/8 10/136/10
f 39/141/284 41/33/38 14/34/14 8/140/8
f 41/33/38 42/143/285 72/142/67 71/38/66
f 42/143/285 44/144/286 74/42/69 72/142/67
f 71/38/66 73/146/68 51/145/287 49/39/270
f 71/38/66 72/142/67 76/147/71 73/146/68
f 51/145/287 73/146/68 77/149/72 52/148/272
f 74/42/69 44/144/286 45/151/288 75/150/70
f 72/142/67 74/42/69 79/40/74 76/147/71
f 73/146/68 76/147/71 79/40/74 77/149/72
f 77/149/72 78/153/73 53/152/273 52/148/272
f 77/149/72 79/40/74 82/41/77 78/153/73
f 75/150/70 45/151/288 47/155/43 80/154/75
f 78/153/73 81/157/76 55/156/289 53/152/273
f 55/156/289 81/157/76 84/159/79 56/158/290
f 82/41/77 83/160/78 81/157/76 78/153/73
f 82/41/77 74/42/69 89/43/84 83/160/78
f 81/157/76 83/160/78 89/43/84 84/159/79
f 56/158/290 84/159/79 86/162/81 58/161/53
f 47/155/43 48/165/293 4/164/292 7/163/291
f 4/164/292 48/165/293 26/167/295 5/166/294
f 80/154/75 60/170/274 59/169/54 85/168/80
f 59/169/54 58/161/53 86/162/81 85/168/80
f 80/154/75 85/168/80 87/171/82 75/150/70
f 85/168/80 86/162/81 88/44/83 87/171/82
f 75/150/70 87/171/82 88/44/83 74/42/69
f 86/162/81 84/159/79 89/43/84 88/44/83
f 26/167/295 25/173/297 2/172/296 5/166/294
f 2/172/296 25/173/297 29/175/28 3/174/298
f 29/175/28 30/178/299 91/177/86 90/176/85
f 30/178/299 32/179/300 92/45/87 91/177/86
f 91/177/86 92/45/87 99/46/94 93/180/88
f 91/177/86 93/180/88 95/181/90 90/176/85
f 92/45/87 32/179/300 33/183/301 94/182/89
f 90/176/85 95/181/90 62/185/57 61/184/275
f 62/185/57 95/181/90 96/187/91 64/186/59
f 95/181/90 93/180/88 99/46/94 96/187/91
f 64/186/59 96/187/91 101/189/96 65/188/302
f 94/182/89 33/183/301 35/190/33 97/51/92
f 94/182/89 98/191/93 107/49/102 92/45/87
f 94/182/89 97/51/92 108/192/103 98/191/93
f 99/46/94 100/47/95 101/189/96 96/187/91
f 101/189/96 102/194/97 67/193/303 65/188/302
f 67/193/303 102/194/97 104/196/99 68/195/63
f 100/47/95 103/197/98 102/194/97 101/189/96
f 100/47/95 92/45/87 105/48/100 103/197/98
f 102/194/97 103/197/98 105/48/100 104/196/99
f 104/196/99 106/199/101 69/198/64 68/195/63
f 104/196/99 105/48/100 107/49/102 106/199/101
f 107/49/102 98/191/93 108/192/103 106/199/101
f 106/199/101 108/192/103 70/200/304 69/198/64
f 70/200/304 108/192/103 97/51/92 22/52/271
f 12/203/12 35/190/33 36/202/283 9/201/9
f 113/207/108 114/206/109 116/205/111 115/204/110
f 116/205/111 117/209/112 118/208/113 115/204/110
f 118/208/113 117/209/112 120/211/115 119/210/114
f 119/210/114 120/211/115 122/57/117 121/58/116
f 119/215/114 70/214/304 22/213/271 123/212/118
f 119/215/114 123/212/118 129/217/124 118/216/113
f 123/212/118 22/213/271 126/219/121 124/218/119
f 124/218/119 125/220/120 129/217/124 123/212/118
f 124/218/119 126/219/121 128/222/123 127/221/122
f 124/218/119 127/221/122 134/223/129 125/220/120
f 129/217/124 130/225/125 115/224/110 118/216/113
f 129/217/124 125/220/120 137/226/132 130/225/125
f 127/221/122 128/222/123 132/228/127 131/227/126
f 130/225/125 133/230/128 113/229/108 115/224/110
f 127/221/122 131/227/126 139/231/134 134/223/129
f 131/227/126 132/228/127 136/233/131 135/232/130
f 130/225/125 137/226/132 143/234/138 133/230/128
f 137/226/132 125/220/120 134/223/129 138/235/133
f 131/227/126 135/232/130 145/236/140 139/231/134
f 135/232/130 136/233/131 141/238/136 140/237/135
f 133/230/128 142/240/137 111/239/106 113/229/108
f 137/226/132 138/235/133 151/241/146 143/234/138
f 138/235/133 134/223/129 139/231/134 144/242/139
f 135/232/130 140/237/135 153/243/148 145/236/140
f 140/237/135 141/238/136 147/245/142 146/244/141
f 147/245/142 148/247/305 149/246/144 146/244/141
f 148/247/305 61/249/275 161/248/156 149/246/144
f 146/244/141 150/250/145 153/243/148 140/237/135
f 146/244/141 149/246/144 158/251/153 150/250/145
f 138/235/133 144/242/139 156/252/151 151/241/146
f 144/242/139 139/231/134 145/236/140 152/253/147
f 150/250/145 154/255/149 155/254/150 153/243/148
f 153/243/148 155/254/150 152/253/147 145/236/140
f 144/242/139 152/253/147 157/256/152 156/252/151
f 152/253/147 155/254/150 160/257/155 157/256/152
f 150/250/145 158/251/153 164/258/159 154/255/149
f 158/251/153 149/246/144 161/248/156 159/259/154
f 155/254/150 154/255/149 196/260/191 160/257/155
f 161/248/156 61/249/275 62/262/57 162/261/157
f 161/248/156 162/261/157 165/263/160 159/259/154
f 162/261/157 62/262/57 64/265/59 163/264/158
f 158/251/153 159/259/154 184/266/179 164/258/159
f 162/261/157 163/264/158 174/267/169 165/263/160
f 163/264/158 64/265/59 65/268/302 166/66/161
f 166/66/161 65/268/302 67/270/303 167/269/162
f 167/269/162 67/270/303 68/60/63 168/62/163
f 68/60/63 122/61/117 120/64/115 168/62/163
f 168/62/163 117/63/112 170/271/165 167/269/162
f 166/66/161 167/269/162 170/271/165 169/65/164
f 166/66/161 171/67/166 174/267/169 163/264/158
f 170/271/165 117/63/112 116/273/111 172/272/167
f 116/273/111 114/73/109 173/274/168 172/272/167
f 171/67/166 175/276/170 178/275/173 174/267/169
f 173/274/168 114/73/109 183/71/178 176/277/171
f 174/267/169 178/275/173 179/278/174 165/263/160
f 165/263/160 179/278/174 184/266/179 159/259/154
f 178/275/173 175/276/170 181/70/176 180/279/175
f 178/275/173 180/279/175 188/280/183 179/278/174
f 176/277/171 55/282/289 56/281/290 182/68/177
f 183/71/178 112/72/107 109/74/104 53/75/273
f 53/75/273 55/282/289 176/277/171 183/71/178
f 56/281/290 58/284/53 185/283/180 182/68/177
f 182/68/177 185/283/180 180/279/175 181/70/176
f 58/284/53 59/286/54 186/285/181 185/283/180
f 185/283/180 186/285/181 188/280/183 180/279/175
f 186/285/181 59/286/54 60/288/274 187/287/182
f 186/285/181 187/287/182 189/289/184 188/280/183
f 179/278/174 188/280/183 189/289/184 184/266/179
f 184/266/179 189/289/184 195/290/190 164/258/159
f 187/287/182 60/288/274 191/292/186 190/291/185
f 187/287/182 190/291/185 195/290/190 189/289/184
f 190/291/185 191/292/186 193/294/188 192/293/187
f 193/294/188 194/296/189 197/295/192 192/293/187
f 190/291/185 192/293/187 196/260/191 195/290/190
f 164/258/159 195/290/190 196/260/191 154/255/149
f 196/260/191 192/293/187 197/295/192 160/257/155
f 160/257/155 197/295/192 198/297/193 157/256/152
f 197/295/192 194/296/189 199/298/194 198/297/193
f 157/256/152 198/297/193 200/299/195 156/252/151
f 198/297/193 199/298/194 201/300/196 200/299/195
f 156/252/151 200/299/195 202/301/197 151/241/146
f 200/299/195 201/300/196 203/302/198 202/301/197
f 151/241/146 202/301/197 205/303/200 143/234/138
f 203/302/198 204/304/199 205/303/200 202/301/197
f 143/234/138 205/303/200 142/240/137 133/230/128
f 205/303/200 204/304/199 49/305/270 142/240/137
f 142/240/137 49/305/270 51/306/287 111/239/106
f 111/239/106 51/306/287 52/308/272 110/307/105
f 171/312/166 172/311/167 173/310/168 175/309/170
f 175/309/170 173/310/168 177/314/172 181/313/176
f 206/77/201 207/316/202 193/315/188 191/79/186
f 193/315/188 207/316/202 208/318/203 194/317/189
f 208/318/203 209/321/204 203/320/198 201/319/196
f 203/320/198 209/321/204 210/323/205 204/322/199
f 210/323/205 211/326/206 52/325/272 51/324/287
f 52/325/272 211/326/206 212/328/207 53/327/273
f 212/328/207 213/331/208 58/330/53 56/329/290
f 58/330/53 213/331/208 206/80/201 59/81/54
f 214/83/209 215/333/210 64/332/59 62/85/57
f 64/332/59 215/333/210 216/335/211 65/334/302
f 216/335/211 217/338/212 69/337/212 68/336/63
f 69/337/212 217/338/212 218/340/213 70/339/304
f 218/340/213 219/343/214 128/342/214 126/341/306
f 128/342/214 219/343/214 220/345/215 132/344/307
f 220/345/215 221/348/216 147/347/216 141/346/308
f 147/347/216 221/348/216 214/86/209 148/87/143
f 222/352/217 223/351/218 25/350/297 26/349/295
f 223/351/218 224/354/219 29/353/28 25/350/297
f 224/354/219 225/356/220 30/355/299 29/353/28
f 225/356/220 226/358/221 32/357/300 30/355/299
f 226/358/221 227/360/222 33/359/301 32/357/300
f 33/359/301 227/360/222 228/362/223 35/361/33
f 228/362/223 229/364/224 36/363/283 35/361/33
f 229/364/224 230/366/225 38/365/282 36/363/283
f 230/366/225 231/368/226 39/367/284 38/365/282
f 39/367/284 231/368/226 232/370/227 41/369/38
f 232/370/227 233/372/228 42/371/285 41/369/38
f 233/372/228 234/374/229 44/373/286 42/371/285
f 234/374/229 235/376/230 45/375/288 44/373/286
f 235/376/230 236/378/231 47/377/43 45/375/288
f 236/378/231 237/380/232 48/379/293 47/377/43
f 237/380/232 222/382/217 26/381/295 48/379/293
f 223/386/218 238/385/233 239/384/234 224/383/219
f 224/383/219 239/384/234 240/388/309 225/387/220
f 225/387/220 240/388/309 241/390/310 226/389/221
f 226/389/221 241/390/310 242/392/311 227/391/222
f 227/391/222 242/392/311 243/394/237 228/393/223
f 228/393/223 243/394/237 244/396/238 229/395/224
f 244/396/238 245/398/239 230/397/225 229/395/224
f 246/402/240 238/401/233 223/400/218 222/399/217
f 230/397/225 245/398/239 247/404/241 231/403/226
f 247/404/241 248/406/242 232/405/227 231/403/226
f 248/406/242 249/408/312 233/407/228 232/405/227
f 249/408/312 250/410/313 234/409/229 233/407/228
f 250/410/313 251/412/314 235/411/230 234/409/229
f 251/412/314 252/414/245 236/413/231 235/411/230
f 252/414/245 253/416/246 237/415/232 236/413/231
f 237/415/232 253/416/246 246/402/240 222/399/217
f 249/89/243 248/418/315 252/417/315 251/91/243
f 253/422/317 247/421/317 245/420/316 246/419/316
f 245/420/316 244/424/318 238/423/318 246/419/316
f 244/424/318 243/426/319 239/425/319 238/423/318
f 239/425/319 243/426/319 242/92/235 240/93/235
f 26/430/247 25/429/320 255/428/248 254/427/247
f 255/428/248 30/433/321 32/432/249 256/431/249
f 32/432/249 33/435/322 257/434/250 256/431/249
f 257/434/250 36/438/323 38/437/251 258/436/251
f 38/437/251 39/440/324 259/439/252 258/436/251
f 259/439/252 42/443/325 44/442/253 260/441/253
f 44/442/253 45/445/326 261/444/254 260/441/253
f 261/444/254 48/448/327 26/447/247 254/446/247
f 9/9/9 8/10/8 13/13/13 11/12/11
f 25/105/25 28/106/27 30/109/29 29/449/328
f 33/112/31 34/113/32 36/114/34 35/450/329
f 39/117/36 40/118/37 42/119/39 41/451/330
f 45/122/41 46/123/42 48/124/44 47/452/331
f 56/128/51 58/453/332 59/129/279 57/127/52
f 62/131/280 64/454/333 65/134/60 63/130/58
f 67/133/62 68/455/334 69/135/281 66/132/61
f 18/35/18 41/33/38 71/38/66 23/36/269
f 47/155/43 7/163/291 60/170/274 80/154/75
f 29/175/28 90/176/85 61/184/275 3/174/298
f 97/51/92 35/190/33 12/203/12 16/50/16
f 111/457/106 112/456/107 114/206/109 113/207/108
f 69/459/64 70/214/304 119/215/114 121/458/116
f 173/274/168 176/277/171 182/68/177 177/69/172
f 169/461/164 170/460/165 172/311/167 171/312/166
f 194/317/189 208/318/203 201/319/196 199/462/194
f 204/322/199 210/323/205 51/324/287 49/463/270
f 53/327/273 212/328/207 56/329/290 55/464/289
f 65/334/302 216/335/211 68/336/63 67/465/303
f 70/339/304 218/340/213 126/341/306 22/466/271
f 132/344/307 220/345/215 141/346/308 136/467/335
f 252/417/315 248/418/315 247/421/317 253/422/317
f 25/429/320 29/468/336 30/433/321 255/428/248
f 33/435/322 35/469/337 36/438/323 257/434/250
f 39/440/324 41/470/338 42/443/325 259/439/252
f 45/445/326 47/471/339 48/448/327 261/444/254
f 110/53/105 109/54/104 112/456/107 111/457/106
f 270/474/260 269/473/262 267/472/260
f 271/477/258 265/476/258 263/475/256
f 268/480/261 272/479/259 266/478/259
f 264/483/257 273/482/257 262/481/255
f 263/487/340 265/486/341 264/485/341 262/484/340
f 267/489/342 266/488/342 264/485/341 265/486/341
f 269/491/343 268/490/343 266/488/342 267/489/342
f 265/476/258 271/477/258 270/474/260 267/472/260
f 272/495/344 268/494/345 269/493/345 270/492/344
f 273/497/346 272/495/344 270/492/344 271/496/346
f 263/499/347 262/498/347 273/497/346 271/496/346
f 264/483/257 266/478/259 272/479/259 273/482/257
f 275/503/263 276/502/263 277/501/263 274/500/263
f 279/507/264 280/506/264 281/505/264 278/504/264
f 283/511/265 284/510/265 285/509/265 282/508/265
f 287/515/266 288/514/266 289/513/266 286/512/266
f 288/519/348 278/518/348 281/517/348 289/516/348
f 281/517/349 280/521/349 286/520/349 289/516/349
f 280/521/350 279/523/350 287/522/350 286/520/350
f 285/527/351 275/526/351 274/525/351 282/524/351
f 274/525/352 277/529/352 283/528/352 282/524/352
f 277/529/353 276/531/353 284/530/353 283/528/353
# 312 elements

