# Created by Metasequoia

mtllib weapon_mount_twin_pl12.mtl

v -0.041776 0.620592 -0.251379
v -0.041776 0.654506 -0.303611
v -0.041776 0.654050 -0.508713
v -0.041776 0.619278 -0.529022
v -0.041776 0.586545 -0.504301
v -0.041776 0.584835 -0.312441
v -0.281586 0.498958 -0.068344
v -0.281586 0.522179 -0.116158
v -0.281586 0.521263 -0.262853
v -0.281586 0.497709 -0.280507
v -0.281586 0.476454 -0.259765
v -0.281586 0.474417 -0.122636
v 0.041776 0.620592 -0.251379
v 0.041776 0.654506 -0.303611
v 0.041776 0.654050 -0.508713
v 0.041776 0.619278 -0.529022
v 0.041776 0.586545 -0.504301
v 0.041776 0.584835 -0.312441
v 0.281586 0.498958 -0.068344
v 0.281586 0.522179 -0.116158
v 0.281586 0.521263 -0.262853
v 0.281586 0.497709 -0.280507
v 0.281586 0.476454 -0.259765
v 0.281586 0.474417 -0.122636
v -0.041776 0.620592 0.355630
v -0.041776 0.654506 0.300452
v -0.041776 0.654050 0.083783
v -0.041776 0.619278 0.062328
v -0.041776 0.586545 0.088444
v -0.041776 0.584835 0.291124
v -0.281586 0.498958 0.690964
v -0.281586 0.522179 0.647346
v -0.281586 0.521263 0.513528
v -0.281586 0.497709 0.497423
v -0.281586 0.476454 0.516344
v -0.281586 0.474417 0.641436
v 0.041776 0.620592 0.355630
v 0.041776 0.654506 0.300452
v 0.041776 0.654050 0.083783
v 0.041776 0.619278 0.062328
v 0.041776 0.586545 0.088444
v 0.041776 0.584835 0.291124
v 0.281586 0.498958 0.690964
v 0.281586 0.522179 0.647346
v 0.281586 0.521263 0.513528
v 0.281586 0.497709 0.497423
v 0.281586 0.476454 0.516344
v 0.281586 0.474417 0.641436
v -0.079229 0.831524 -0.670266
v -0.111047 0.831524 -0.683513
v -0.120887 0.831524 -0.698220
v -0.124214 0.831524 -0.715285
v -0.120887 0.831524 -0.732653
v -0.111047 0.831524 -0.747068
v -0.079229 0.831524 -0.760316
v -0.043233 0.795037 -0.670266
v -0.043233 0.795037 -0.760316
v -0.056562 0.819840 -0.760316
v -0.056562 0.819840 -0.670266
v -0.079229 0.850907 -0.670266
v -0.111047 0.850907 -0.683513
v -0.120887 0.850907 -0.698220
v -0.124214 0.850907 -0.715285
v -0.120887 0.850907 -0.732653
v -0.111047 0.850907 -0.747068
v -0.079229 0.850907 -0.760316
v -0.043233 0.850907 -0.670266
v -0.043233 0.850907 -0.760316
v -0.056562 0.850907 -0.760316
v -0.056562 0.850907 -0.670266
v -0.079229 0.831524 -0.014483
v -0.111047 0.831524 -0.027731
v -0.120887 0.831524 -0.042438
v -0.124214 0.831524 -0.059502
v -0.120887 0.831524 -0.076870
v -0.111047 0.831524 -0.091285
v -0.079229 0.831524 -0.104533
v -0.043233 0.795037 -0.014483
v -0.043233 0.795037 -0.104533
v -0.056562 0.819840 -0.104533
v -0.056562 0.819840 -0.014483
v -0.079229 0.850907 -0.014483
v -0.111047 0.850907 -0.027731
v -0.120887 0.850907 -0.042438
v -0.124214 0.850907 -0.059502
v -0.120887 0.850907 -0.076870
v -0.111047 0.850907 -0.091285
v -0.079229 0.850907 -0.104533
v -0.043233 0.850907 -0.014483
v -0.043233 0.850907 -0.104533
v -0.056562 0.850907 -0.104533
v -0.056562 0.850907 -0.014483
v 0.000000 0.844247 0.072754
v 0.000000 0.844247 -0.805845
v -0.044075 0.844247 -0.782461
v -0.044075 0.844247 -0.009931
v -0.007202 0.844247 0.067461
v -0.044075 0.844247 0.006994
v 0.000000 0.578875 0.643938
v 0.000000 0.578875 -0.676673
v -0.044075 0.578875 -0.653289
v -0.044075 0.578875 0.561253
v -0.007202 0.578875 0.638645
v -0.044075 0.578875 0.578177
v -0.044075 0.770493 -0.784058
v 0.000000 0.770493 -0.807442
v 0.044074 0.844247 -0.782461
v 0.044074 0.844247 -0.009931
v 0.007201 0.844247 0.067461
v 0.044074 0.844247 0.006994
v 0.044074 0.578875 -0.653289
v 0.044074 0.578875 0.561253
v 0.007201 0.578875 0.638645
v 0.044074 0.578875 0.578177
v 0.044074 0.770493 -0.784058
v 0.312182 0.543070 0.792097
v 0.312182 0.543070 -0.754054
v 0.348282 0.543070 -0.714580
v 0.348282 0.543070 0.745724
v 0.312182 0.449041 0.903077
v 0.312182 0.449041 -0.840513
v 0.348282 0.449041 -0.801040
v 0.348282 0.449041 0.860579
v 0.348282 0.496426 -0.778104
v 0.312182 0.496426 -0.817576
v 0.276084 0.543070 -0.714580
v 0.276084 0.543070 0.745724
v 0.276084 0.449041 -0.801040
v 0.276084 0.449041 0.860579
v 0.276084 0.496426 -0.778104
v 0.348282 0.496426 0.820668
v 0.276084 0.496426 0.820668
v 0.312182 0.496426 0.865012
v 0.079229 0.831524 -0.670266
v 0.111047 0.831524 -0.683513
v 0.120887 0.831524 -0.698220
v 0.124214 0.831524 -0.715285
v 0.120887 0.831524 -0.732653
v 0.111047 0.831524 -0.747068
v 0.079229 0.831524 -0.760316
v 0.043233 0.795037 -0.670266
v 0.043233 0.795037 -0.760316
v 0.056562 0.819840 -0.760316
v 0.056562 0.819840 -0.670266
v 0.079229 0.850907 -0.670266
v 0.111047 0.850907 -0.683513
v 0.120887 0.850907 -0.698220
v 0.124214 0.850907 -0.715285
v 0.120887 0.850907 -0.732653
v 0.111047 0.850907 -0.747068
v 0.079229 0.850907 -0.760316
v 0.043233 0.850907 -0.670266
v 0.043233 0.850907 -0.760316
v 0.056562 0.850907 -0.760316
v 0.056562 0.850907 -0.670266
v 0.079229 0.831524 -0.014483
v 0.111047 0.831524 -0.027731
v 0.120887 0.831524 -0.042438
v 0.124214 0.831524 -0.059502
v 0.120887 0.831524 -0.076870
v 0.111047 0.831524 -0.091285
v 0.079229 0.831524 -0.104533
v 0.043233 0.795037 -0.014483
v 0.043233 0.795037 -0.104533
v 0.056562 0.819840 -0.104533
v 0.056562 0.819840 -0.014483
v 0.079229 0.850907 -0.014483
v 0.111047 0.850907 -0.027731
v 0.120887 0.850907 -0.042438
v 0.124214 0.850907 -0.059502
v 0.120887 0.850907 -0.076870
v 0.111047 0.850907 -0.091285
v 0.079229 0.850907 -0.104533
v 0.043233 0.850907 -0.014483
v 0.043233 0.850907 -0.104533
v 0.056562 0.850907 -0.104533
v 0.056562 0.850907 -0.014483
v -0.312182 0.543070 0.792097
v -0.312182 0.543070 -0.754054
v -0.348282 0.543070 -0.714580
v -0.348282 0.543070 0.745724
v -0.312182 0.449041 0.903077
v -0.312182 0.449041 -0.840513
v -0.348282 0.449041 -0.801040
v -0.348282 0.449041 0.860579
v -0.348282 0.496426 -0.778104
v -0.312182 0.496426 -0.817576
v -0.276084 0.543070 -0.714580
v -0.276084 0.543070 0.745724
v -0.276084 0.449041 -0.801040
v -0.276084 0.449041 0.860579
v -0.276084 0.496426 -0.778104
v -0.348282 0.496426 0.820668
v -0.276084 0.496426 0.820668
v -0.312182 0.496426 0.865012
v 0.235028 0.437508 -0.654381
v 0.235028 0.362637 -0.654381
v 0.390110 0.437508 -0.654381
v 0.390110 0.362637 -0.654381
v 0.390110 0.437508 -0.824031
v 0.390110 0.362637 -0.824031
v 0.235028 0.437508 -0.824031
v 0.235028 0.362637 -0.824031
v 0.235028 0.437508 0.717154
v 0.235028 0.362637 0.717154
v 0.390110 0.437508 0.717154
v 0.390110 0.362637 0.717154
v 0.390110 0.437508 0.886804
v 0.390110 0.362637 0.886804
v 0.235028 0.437508 0.886804
v 0.235028 0.362637 0.886804
v 0.312568 0.423136 1.499318
v 0.312568 0.423136 -1.522857
v 0.240373 0.423136 -1.484962
v 0.240373 0.423136 1.454799
v 0.312568 0.235079 1.605858
v 0.312568 0.235079 -1.605858
v 0.240373 0.235079 -1.567964
v 0.240373 0.235079 1.565060
v 0.240373 0.329848 -1.545945
v 0.312568 0.329848 -1.583839
v 0.384765 0.423136 -1.484962
v 0.384765 0.423136 1.454799
v 0.384765 0.235079 -1.567964
v 0.384765 0.235079 1.565060
v 0.384765 0.329848 -1.545945
v 0.240373 0.329848 1.526746
v 0.384765 0.329848 1.526746
v 0.312568 0.329848 1.569316
v 0.285545 0.483233 -0.711637
v 0.285545 0.316912 -0.711637
v 0.339593 0.483233 -0.711637
v 0.339593 0.316912 -0.711637
v 0.339593 0.483233 -0.766774
v 0.339593 0.316912 -0.766774
v 0.285545 0.483233 -0.766774
v 0.285545 0.316912 -0.766774
v 0.285545 0.483233 0.774411
v 0.285545 0.316912 0.774411
v 0.339593 0.483233 0.774411
v 0.339593 0.316912 0.774411
v 0.339593 0.483233 0.829547
v 0.339593 0.316912 0.829547
v 0.285545 0.483233 0.829547
v 0.285545 0.316912 0.829547
v -0.235028 0.437508 -0.654381
v -0.235028 0.362637 -0.654381
v -0.390110 0.437508 -0.654381
v -0.390110 0.362637 -0.654381
v -0.390110 0.437508 -0.824031
v -0.390110 0.362637 -0.824031
v -0.235028 0.437508 -0.824031
v -0.235028 0.362637 -0.824031
v -0.235028 0.437508 0.717154
v -0.235028 0.362637 0.717154
v -0.390110 0.437508 0.717154
v -0.390110 0.362637 0.717154
v -0.390110 0.437508 0.886804
v -0.390110 0.362637 0.886804
v -0.235028 0.437508 0.886804
v -0.235028 0.362637 0.886804
v -0.312569 0.423136 1.499318
v -0.312569 0.423136 -1.522857
v -0.240373 0.423136 -1.484962
v -0.240373 0.423136 1.454799
v -0.312569 0.235079 1.605858
v -0.312569 0.235079 -1.605858
v -0.240373 0.235079 -1.567964
v -0.240373 0.235079 1.565060
v -0.240373 0.329848 -1.545945
v -0.312569 0.329848 -1.583839
v -0.384765 0.423136 -1.484962
v -0.384765 0.423136 1.454799
v -0.384765 0.235079 -1.567964
v -0.384765 0.235079 1.565060
v -0.384765 0.329848 -1.545945
v -0.240373 0.329848 1.526746
v -0.384765 0.329848 1.526746
v -0.312569 0.329848 1.569316
v -0.285545 0.483233 -0.711637
v -0.285545 0.316912 -0.711637
v -0.339593 0.483233 -0.711637
v -0.339593 0.316912 -0.711637
v -0.339593 0.483233 -0.766774
v -0.339593 0.316912 -0.766774
v -0.285545 0.483233 -0.766774
v -0.285545 0.316912 -0.766774
v -0.285545 0.483233 0.774411
v -0.285545 0.316912 0.774411
v -0.339593 0.483233 0.774411
v -0.339593 0.316912 0.774411
v -0.339593 0.483233 0.829547
v -0.339593 0.316912 0.829547
v -0.285545 0.483233 0.829547
v -0.285545 0.316912 0.829547
v 0.055345 -0.144338 -2.096735
v 0.227497 0.028402 -2.003390
v 0.017979 -0.185398 -2.014021
v 0.021227 -0.188649 -2.014021
v 0.235030 0.020869 -2.003390
v 0.062289 -0.151279 -2.096735
v 0.176686 -0.029941 -1.654805
v 0.570539 0.356971 -2.096735
v 0.398391 0.184231 -2.003390
v 0.607909 0.398033 -2.014021
v 0.604658 0.401282 -2.014021
v 0.390858 0.191764 -2.003390
v 0.563595 0.363915 -2.096735
v 0.449201 0.242574 -1.654805
v 0.062289 0.363915 -2.096735
v 0.235030 0.191764 -2.003390
v 0.021227 0.401282 -2.014021
v 0.017979 0.398033 -2.014021
v 0.227497 0.184231 -2.003390
v 0.055345 0.356971 -2.096735
v 0.176686 0.242574 -1.654805
v 0.563595 -0.151279 -2.096735
v 0.390858 0.020869 -2.003390
v 0.604658 -0.188649 -2.014021
v 0.607909 -0.185398 -2.014021
v 0.398391 0.028402 -2.003390
v 0.570539 -0.144338 -2.096735
v 0.449201 -0.029941 -1.654805
v 0.401196 0.180871 -0.207007
v 0.394327 0.187702 0.329898
v 0.599638 0.393010 -0.207007
v 0.387498 0.194571 -0.207007
v 0.224689 0.031762 -0.207007
v 0.231558 0.024934 0.329898
v 0.026250 -0.180378 -0.207007
v 0.238390 0.018064 -0.207007
v 0.238390 0.194571 -0.207007
v 0.231558 0.187702 0.329898
v 0.026250 0.393010 -0.207007
v 0.224689 0.180871 -0.207007
v 0.387498 0.018064 -0.207007
v 0.394327 0.024934 0.329898
v 0.599638 -0.180378 -0.207007
v 0.401196 0.031762 -0.207007
v 0.282406 0.234303 1.514928
v 0.289532 0.243018 1.514928
v 0.289532 0.229723 1.514928
v 0.336374 0.243018 1.514928
v 0.343482 0.234303 1.514928
v 0.336374 0.229723 1.514928
v 0.282406 0.234303 1.454073
v 0.289532 0.229723 1.454073
v 0.289532 0.243018 1.454073
v 0.336374 0.243018 1.454073
v 0.336374 0.229723 1.454073
v 0.343482 0.234303 1.454073
v 0.282406 0.234303 0.067428
v 0.289532 0.243018 0.067428
v 0.289532 0.229723 0.067428
v 0.336374 0.243018 0.067428
v 0.343482 0.234303 0.067428
v 0.336374 0.229723 0.067428
v 0.282406 0.234303 0.006277
v 0.289532 0.229723 0.006277
v 0.289532 0.243018 0.006277
v 0.336374 0.243018 0.006277
v 0.336374 0.229723 0.006277
v 0.343482 0.234303 0.006277
v 0.282406 0.234303 -1.146823
v 0.289532 0.243018 -1.146823
v 0.289532 0.229723 -1.146823
v 0.336371 0.243018 -1.146823
v 0.343482 0.234303 -1.146823
v 0.336371 0.229723 -1.146823
v 0.282406 0.234303 -1.208266
v 0.289532 0.229723 -1.208266
v 0.289532 0.243018 -1.208266
v 0.336371 0.243018 -1.208266
v 0.336371 0.229723 -1.208266
v 0.343482 0.234303 -1.208266
v 0.312907 0.172748 -2.027021
v 0.279728 0.163847 -2.027021
v 0.346156 0.163847 -2.027021
v 0.370474 0.139532 -2.027021
v 0.255413 0.139532 -2.027021
v 0.379372 0.106279 -2.027021
v 0.319022 -0.021372 0.931791
v 0.306863 -0.021372 0.931791
v 0.306863 -0.006973 0.931791
v 0.319022 -0.006973 0.931791
v 0.338292 -0.026026 0.842578
v 0.287593 -0.026026 0.842578
v 0.338292 -0.006973 0.842578
v 0.338292 -0.006973 -1.931308
v 0.338292 -0.026026 -1.931308
v 0.287593 -0.026026 -1.931308
v 0.287593 -0.006973 0.842578
v 0.287593 -0.006973 -1.931308
v 0.261026 0.016364 -2.066014
v 0.251535 -0.000030 -2.018749
v 0.312981 -0.016498 -2.018749
v 0.312981 0.002480 -2.066014
v 0.251535 -0.000030 0.107454
v 0.312981 -0.016498 0.107454
v 0.222992 0.054398 -2.066014
v 0.206595 0.044908 -2.018749
v 0.206595 0.044908 0.107454
v 0.209108 0.106279 -2.066014
v 0.190127 0.106279 -2.018749
v 0.190127 0.106279 0.107454
v 0.222992 0.158234 -2.066014
v 0.206595 0.167725 -2.018749
v 0.206595 0.167725 0.107454
v 0.261026 0.196269 -2.066014
v 0.251535 0.212665 -2.018749
v 0.251535 0.212665 0.107454
v 0.312981 0.210152 -2.066014
v 0.312981 0.229134 -2.018749
v 0.312981 0.229134 0.107454
v 0.364862 0.196269 -2.066014
v 0.374349 0.212665 -2.018749
v 0.374353 0.212665 0.107454
v 0.402896 0.158234 -2.066014
v 0.419290 0.167725 -2.018749
v 0.419290 0.167725 0.107454
v 0.416780 0.106279 -2.066014
v 0.435758 0.106279 -2.018749
v 0.435758 0.106279 0.107454
v 0.419290 0.044908 -2.018749
v 0.419290 0.044908 0.107454
v 0.402896 0.054398 -2.066014
v 0.364862 0.016364 -2.066014
v 0.374349 -0.000030 -2.018749
v 0.374353 -0.000030 0.107454
v 0.251535 -0.000030 2.281220
v 0.312981 -0.016498 2.281220
v 0.206598 0.044908 2.281220
v 0.190127 0.106354 2.281220
v 0.206598 0.167725 2.281220
v 0.251535 0.212665 2.281220
v 0.312981 0.229134 2.281220
v 0.374353 0.212665 2.281220
v 0.419290 0.167725 2.281220
v 0.435758 0.106354 2.281220
v 0.419290 0.044908 2.281220
v 0.374353 -0.000030 2.281220
v 0.231263 0.024636 -1.700891
v 0.394625 0.187997 -1.700891
v 0.231263 0.187997 -1.700891
v 0.394625 0.024636 -1.700891
v 0.336371 0.222559 -1.146823
v 0.336371 0.222559 -1.208266
v 0.289532 0.222559 -1.146823
v 0.289532 0.222559 -1.208266
v 0.336374 0.221970 1.514928
v 0.336374 0.221970 1.454073
v 0.289532 0.221970 1.514928
v 0.289532 0.221970 1.454073
v 0.336374 0.222559 0.067428
v 0.336374 0.222559 0.006277
v 0.289532 0.222559 0.067428
v 0.289532 0.222559 0.006277
v 0.312981 0.192207 -2.066014
v 0.355886 0.180687 -2.066014
v 0.269999 0.180687 -2.066014
v 0.238573 0.149262 -2.066014
v 0.227053 0.106279 -2.066014
v 0.246512 0.106279 -2.027021
v 0.387312 0.149262 -2.066014
v 0.370474 0.073104 -2.027021
v 0.398832 0.106279 -2.066014
v 0.387312 0.063371 -2.066014
v 0.255413 0.073104 -2.027021
v 0.346156 0.048786 -2.027021
v 0.238573 0.063371 -2.066014
v 0.355886 0.031948 -2.066014
v 0.269999 0.031948 -2.066014
v 0.279728 0.048786 -2.027021
v 0.312907 0.039888 -2.027021
v 0.312981 0.020429 -2.066014
v 0.312981 0.106354 2.688881
v 0.350904 0.040552 2.514000
v 0.312981 0.030397 2.514000
v 0.378709 0.068357 2.514000
v 0.388863 0.106354 2.514000
v 0.378709 0.144276 2.514000
v 0.350904 0.172081 2.514000
v 0.312981 0.182236 2.514000
v 0.274984 0.172081 2.514000
v 0.247180 0.144276 2.514000
v 0.237025 0.106354 2.514000
v 0.247180 0.068357 2.514000
v 0.274984 0.040552 2.514000
v 0.260288 0.015111 2.408834
v 0.312981 0.001004 2.408834
v 0.221736 0.053660 2.408834
v 0.207631 0.106354 2.408834
v 0.221736 0.158973 2.408834
v 0.260288 0.197525 2.408834
v 0.312981 0.211629 2.408834
v 0.365601 0.197525 2.408834
v 0.404150 0.158973 2.408834
v 0.418257 0.106354 2.408834
v 0.404150 0.053660 2.408834
v 0.365601 0.015111 2.408834
v -0.055345 -0.144338 -2.412971
v -0.227497 0.028402 -2.319626
v -0.017979 -0.185398 -2.330257
v -0.021227 -0.188649 -2.330257
v -0.235030 0.020869 -2.319626
v -0.062289 -0.151279 -2.412971
v -0.176686 -0.029941 -1.971041
v -0.570539 0.356971 -2.412971
v -0.398391 0.184231 -2.319626
v -0.607909 0.398033 -2.330257
v -0.604658 0.401282 -2.330257
v -0.390858 0.191764 -2.319626
v -0.563595 0.363915 -2.412971
v -0.449201 0.242574 -1.971041
v -0.062289 0.363915 -2.412971
v -0.235030 0.191764 -2.319626
v -0.021227 0.401282 -2.330257
v -0.017979 0.398033 -2.330257
v -0.227497 0.184231 -2.319626
v -0.055345 0.356971 -2.412971
v -0.176686 0.242574 -1.971041
v -0.563595 -0.151279 -2.412971
v -0.390858 0.020869 -2.319626
v -0.604658 -0.188649 -2.330257
v -0.607909 -0.185398 -2.330257
v -0.398391 0.028402 -2.319626
v -0.570539 -0.144338 -2.412971
v -0.449201 -0.029941 -1.971041
v -0.401196 0.180871 -0.523243
v -0.394327 0.187702 0.013662
v -0.599638 0.393010 -0.523243
v -0.387498 0.194571 -0.523243
v -0.224689 0.031762 -0.523243
v -0.231558 0.024934 0.013662
v -0.026250 -0.180378 -0.523243
v -0.238390 0.018064 -0.523243
v -0.238390 0.194571 -0.523243
v -0.231558 0.187702 0.013662
v -0.026250 0.393010 -0.523243
v -0.224689 0.180871 -0.523243
v -0.387498 0.018064 -0.523243
v -0.394327 0.024934 0.013662
v -0.599638 -0.180378 -0.523243
v -0.401196 0.031762 -0.523243
v -0.282406 0.234303 1.198692
v -0.289532 0.243018 1.198692
v -0.289532 0.229723 1.198692
v -0.336374 0.243018 1.198692
v -0.343482 0.234303 1.198692
v -0.336374 0.229723 1.198692
v -0.282406 0.234303 1.137837
v -0.289532 0.229723 1.137837
v -0.289532 0.243018 1.137837
v -0.336374 0.243018 1.137837
v -0.336374 0.229723 1.137837
v -0.343482 0.234303 1.137837
v -0.282406 0.234303 -0.248808
v -0.289532 0.243018 -0.248808
v -0.289532 0.229723 -0.248808
v -0.336374 0.243018 -0.248808
v -0.343482 0.234303 -0.248808
v -0.336374 0.229723 -0.248808
v -0.282406 0.234303 -0.309959
v -0.289532 0.229723 -0.309959
v -0.289532 0.243018 -0.309959
v -0.336374 0.243018 -0.309959
v -0.336374 0.229723 -0.309959
v -0.343482 0.234303 -0.309959
v -0.282406 0.234303 -1.463059
v -0.289532 0.243018 -1.463059
v -0.289532 0.229723 -1.463059
v -0.336371 0.243018 -1.463059
v -0.343482 0.234303 -1.463059
v -0.336371 0.229723 -1.463059
v -0.282406 0.234303 -1.524502
v -0.289532 0.229723 -1.524502
v -0.289532 0.243018 -1.524502
v -0.336371 0.243018 -1.524502
v -0.336371 0.229723 -1.524502
v -0.343482 0.234303 -1.524502
v -0.312907 0.172748 -2.343257
v -0.279728 0.163847 -2.343257
v -0.346156 0.163847 -2.343257
v -0.370474 0.139532 -2.343257
v -0.255413 0.139532 -2.343257
v -0.379372 0.106279 -2.343257
v -0.319022 -0.021372 0.615555
v -0.306863 -0.021372 0.615555
v -0.306863 -0.006973 0.615555
v -0.319022 -0.006973 0.615555
v -0.338292 -0.026026 0.526342
v -0.287593 -0.026026 0.526342
v -0.338292 -0.006973 0.526342
v -0.338292 -0.006973 -2.247544
v -0.338292 -0.026026 -2.247544
v -0.287593 -0.026026 -2.247544
v -0.287593 -0.006973 0.526342
v -0.287593 -0.006973 -2.247544
v -0.261026 0.016364 -2.382250
v -0.251535 -0.000030 -2.334985
v -0.312981 -0.016498 -2.334985
v -0.312981 0.002480 -2.382250
v -0.251535 -0.000030 -0.208782
v -0.312981 -0.016498 -0.208782
v -0.222992 0.054398 -2.382250
v -0.206595 0.044908 -2.334985
v -0.206595 0.044908 -0.208782
v -0.209108 0.106279 -2.382250
v -0.190127 0.106279 -2.334985
v -0.190127 0.106279 -0.208782
v -0.222992 0.158234 -2.382250
v -0.206595 0.167725 -2.334985
v -0.206595 0.167725 -0.208782
v -0.261026 0.196269 -2.382250
v -0.251535 0.212665 -2.334985
v -0.251535 0.212665 -0.208782
v -0.312981 0.210152 -2.382250
v -0.312981 0.229134 -2.334985
v -0.312981 0.229134 -0.208782
v -0.364862 0.196269 -2.382250
v -0.374349 0.212665 -2.334985
v -0.374353 0.212665 -0.208782
v -0.402896 0.158234 -2.382250
v -0.419290 0.167725 -2.334985
v -0.419290 0.167725 -0.208782
v -0.416780 0.106279 -2.382250
v -0.435758 0.106279 -2.334985
v -0.435758 0.106279 -0.208782
v -0.419290 0.044908 -2.334985
v -0.419290 0.044908 -0.208782
v -0.402896 0.054398 -2.382250
v -0.364862 0.016364 -2.382250
v -0.374349 -0.000030 -2.334985
v -0.374353 -0.000030 -0.208782
v -0.251535 -0.000030 1.964984
v -0.312981 -0.016498 1.964984
v -0.206598 0.044908 1.964984
v -0.190127 0.106354 1.964984
v -0.206598 0.167725 1.964984
v -0.251535 0.212665 1.964984
v -0.312981 0.229134 1.964984
v -0.374353 0.212665 1.964984
v -0.419290 0.167725 1.964984
v -0.435758 0.106354 1.964984
v -0.419290 0.044908 1.964984
v -0.374353 -0.000030 1.964984
v -0.231263 0.024636 -2.017127
v -0.394625 0.187997 -2.017127
v -0.231263 0.187997 -2.017127
v -0.394625 0.024636 -2.017127
v -0.336371 0.222559 -1.463059
v -0.336371 0.222559 -1.524502
v -0.289532 0.222559 -1.463059
v -0.289532 0.222559 -1.524502
v -0.336374 0.221970 1.198692
v -0.336374 0.221970 1.137837
v -0.289532 0.221970 1.198692
v -0.289532 0.221970 1.137837
v -0.336374 0.222559 -0.248808
v -0.336374 0.222559 -0.309959
v -0.289532 0.222559 -0.248808
v -0.289532 0.222559 -0.309959
v -0.312981 0.192207 -2.382250
v -0.355886 0.180687 -2.382250
v -0.269999 0.180687 -2.382250
v -0.238573 0.149262 -2.382250
v -0.227053 0.106279 -2.382250
v -0.246512 0.106279 -2.343257
v -0.387312 0.149262 -2.382250
v -0.370474 0.073104 -2.343257
v -0.398832 0.106279 -2.382250
v -0.387312 0.063371 -2.382250
v -0.255413 0.073104 -2.343257
v -0.346156 0.048786 -2.343257
v -0.238573 0.063371 -2.382250
v -0.355886 0.031948 -2.382250
v -0.269999 0.031948 -2.382250
v -0.279728 0.048786 -2.343257
v -0.312907 0.039888 -2.343257
v -0.312981 0.020429 -2.382250
v -0.312981 0.106354 2.372645
v -0.350904 0.040552 2.197764
v -0.312981 0.030397 2.197764
v -0.378709 0.068357 2.197764
v -0.388863 0.106354 2.197764
v -0.378709 0.144276 2.197764
v -0.350904 0.172081 2.197764
v -0.312981 0.182236 2.197764
v -0.274984 0.172081 2.197764
v -0.247180 0.144276 2.197764
v -0.237025 0.106354 2.197764
v -0.247180 0.068357 2.197764
v -0.274984 0.040552 2.197764
v -0.260288 0.015111 2.092598
v -0.312981 0.001004 2.092598
v -0.221736 0.053660 2.092598
v -0.207631 0.106354 2.092598
v -0.221736 0.158973 2.092598
v -0.260288 0.197525 2.092598
v -0.312981 0.211629 2.092598
v -0.365601 0.197525 2.092598
v -0.404150 0.158973 2.092598
v -0.418257 0.106354 2.092598
v -0.404150 0.053660 2.092598
v -0.365601 0.015111 2.092598
# 705 vertices

vt 0.90705 0.85148
vt 0.79290 0.89103
vt 0.71820 0.85440
vt 0.96070 0.87773
vt 0.97360 0.75920
vt 0.96410 0.75825
vt 0.95480 0.75920
vt 0.00908 0.82613
vt 0.00908 0.84610
vt 0.44736 0.84610
vt 0.78205 0.79395
vt 0.95325 0.80805
vt 0.89755 0.83670
vt 0.70400 0.83390
vt 0.89545 0.84485
vt 0.70305 0.84492
vt 0.80760 0.78460
vt 0.97480 0.79990
vt 0.97850 0.89085
vt 0.81220 0.90720
vt 0.98140 0.76180
vt 0.94700 0.76180
vt 0.98880 0.77755
vt 0.93970 0.77755
vt 0.93970 0.78525
vt 0.98880 0.78525
vt 0.98880 0.77045
vt 0.93970 0.77045
vt 0.58767 0.67615
vt 0.95048 0.67489
vt 0.92987 0.68615
vt 0.58767 0.68515
vt 0.95696 0.67489
vt 0.93690 0.68618
vt 0.73870 0.77432
vt 0.48626 0.84610
vt 0.48892 0.84610
vt 0.74136 0.77432
vt 0.07896 0.77432
vt 0.69981 0.77432
vt 0.07918 0.77405
vt 0.01758 0.82613
vt 0.08741 0.77405
vt 0.00908 0.84645
vt 0.01758 0.84645
vt 0.70831 0.77432
vt 0.45587 0.84610
vt 0.08948 0.81747
vt 0.08129 0.80938
vt 0.08796 0.80938
vt 0.09636 0.81747
vt 0.08111 0.80960
vt 0.56711 0.80960
vt 0.55785 0.81747
vt 0.11754 0.82677
vt 0.51314 0.82677
vt 0.57407 0.81747
vt 0.58287 0.80960
vt 0.57056 0.80960
vt 0.56140 0.81747
vt 0.52890 0.82677
vt 0.51659 0.82677
vt 0.12443 0.82705
vt 0.11754 0.82705
vt 0.59334 0.67615
vt 0.95614 0.67489
vt 0.93554 0.68615
vt 0.59334 0.68515
vt 0.41383 0.61033
vt 0.49384 0.61033
vt 0.49384 0.57200
vt 0.41383 0.57200
vt 0.19285 0.51534
vt 0.19642 0.51534
vt 0.19206 0.50320
vt 0.18861 0.50320
vt 0.18851 0.50353
vt 0.84506 0.51534
vt 0.84838 0.50353
vt 0.20740 0.52673
vt 0.82895 0.52673
vt 0.85026 0.51534
vt 0.85343 0.50353
vt 0.83400 0.52673
vt 0.21096 0.52673
vt 0.19821 0.51760
vt 0.83814 0.51787
vt 0.82812 0.52672
vt 0.20576 0.52668
vt 0.67298 0.53551
vt 0.70210 0.53551
vt 0.70210 0.52114
vt 0.67298 0.52114
vt 0.76330 0.43245
vt 0.76330 0.47135
vt 0.80970 0.42925
vt 0.70570 0.42925
vt 0.75160 0.47150
vt 0.75160 0.43245
vt 0.93320 0.47885
vt 0.81310 0.42835
vt 0.81160 0.42880
vt 0.76560 0.43340
vt 0.76580 0.47195
vt 0.81290 0.43025
vt 0.70620 0.43025
vt 0.75350 0.47195
vt 0.75380 0.43340
vt 0.93990 0.47920
vt 0.81670 0.42920
vt 0.81490 0.42965
vt 0.63260 0.16115
vt 0.62660 0.29269
vt 0.77970 0.16115
vt 0.63260 0.15460
vt 0.63260 0.15965
vt 0.77970 0.15725
vt 0.63260 0.01760
vt 0.63326 0.14823
vt 0.77471 0.14906
vt 0.62720 0.16065
vt 0.62770 0.29285
vt 0.77940 0.16115
vt 0.62720 0.15440
vt 0.62720 0.15915
vt 0.77574 0.15878
vt 0.62720 0.02125
vt 0.62786 0.14803
vt 0.78671 0.14876
vt 0.81110 0.30290
vt 0.81600 0.30560
vt 0.81600 0.30145
vt 0.84580 0.30560
vt 0.85020 0.30290
vt 0.84580 0.30145
vt 0.89320 0.30290
vt 0.88830 0.30145
vt 0.88830 0.30560
vt 0.85850 0.30560
vt 0.85850 0.30145
vt 0.85360 0.30290
vt 0.81180 0.30280
vt 0.81620 0.30545
vt 0.81620 0.30130
vt 0.84650 0.30545
vt 0.85090 0.30280
vt 0.84650 0.30130
vt 0.89290 0.30280
vt 0.88850 0.30130
vt 0.88850 0.30545
vt 0.85820 0.30545
vt 0.85820 0.30130
vt 0.85380 0.30280
vt 0.81150 0.30270
vt 0.81640 0.30565
vt 0.81640 0.30125
vt 0.84620 0.30565
vt 0.85110 0.30270
vt 0.84620 0.30125
vt 0.89310 0.30270
vt 0.88870 0.30125
vt 0.88870 0.30565
vt 0.85890 0.30565
vt 0.85890 0.30125
vt 0.85400 0.30270
vt 0.38430 0.41885
vt 0.36750 0.42105
vt 0.40160 0.42105
vt 0.41430 0.42710
vt 0.35480 0.42710
vt 0.41970 0.43540
vt 0.97900 0.25455
vt 0.97360 0.25455
vt 0.97410 0.25605
vt 0.97900 0.25610
vt 0.98680 0.24510
vt 0.96580 0.24510
vt 0.98530 0.25495
vt 0.99460 0.24510
vt 0.99460 0.00545
vt 0.98680 0.00545
vt 0.96580 0.00545
vt 0.95800 0.24510
vt 0.96780 0.25495
vt 0.95800 0.00545
vt 0.98680 0.00350
vt 0.96580 0.00350
vt 0.59160 0.00290
vt 0.59160 0.01300
vt 0.61700 0.01300
vt 0.61700 0.00290
vt 0.59160 0.36790
vt 0.61700 0.36790
vt 0.56670 0.00290
vt 0.56670 0.01300
vt 0.56670 0.36790
vt 0.54130 0.00290
vt 0.54130 0.01300
vt 0.54130 0.36790
vt 0.51590 0.00290
vt 0.51590 0.01300
vt 0.51590 0.36790
vt 0.49100 0.00290
vt 0.49100 0.01300
vt 0.49100 0.36790
vt 0.46560 0.00290
vt 0.46560 0.01300
vt 0.46560 0.36790
vt 0.44050 0.00290
vt 0.44050 0.01300
vt 0.44050 0.36790
vt 0.41510 0.00290
vt 0.41510 0.01300
vt 0.41510 0.36790
vt 0.38990 0.00290
vt 0.38990 0.01300
vt 0.38990 0.36790
vt 0.36480 0.01300
vt 0.36480 0.36790
vt 0.36480 0.00290
vt 0.33940 0.00290
vt 0.33940 0.01300
vt 0.33940 0.36790
vt 0.31430 0.00290
vt 0.31430 0.01300
vt 0.31430 0.36790
vt 0.28580 0.00365
vt 0.28560 0.46534
vt 0.31110 0.46534
vt 0.31110 0.00365
vt 0.26030 0.00365
vt 0.26030 0.46534
vt 0.23510 0.00365
vt 0.23500 0.46534
vt 0.20970 0.00365
vt 0.20970 0.46534
vt 0.18440 0.00365
vt 0.18430 0.46534
vt 0.15900 0.00365
vt 0.15900 0.46534
vt 0.13370 0.00365
vt 0.13370 0.46534
vt 0.10840 0.00365
vt 0.10830 0.46534
vt 0.08300 0.00365
vt 0.08300 0.46534
vt 0.05770 0.00365
vt 0.05760 0.46534
vt 0.03240 0.00365
vt 0.03230 0.46534
vt 0.00700 0.00365
vt 0.00700 0.46534
vt 0.80820 0.42785
vt 0.76180 0.43030
vt 0.76230 0.43170
vt 0.80870 0.42850
vt 0.89750 0.48770
vt 0.93120 0.47930
vt 0.75990 0.43245
vt 0.75500 0.43245
vt 0.75500 0.47150
vt 0.75990 0.47135
vt 0.58360 0.47945
vt 0.61730 0.48770
vt 0.76380 0.43115
vt 0.76480 0.43265
vt 0.81220 0.42935
vt 0.81190 0.42875
vt 0.90360 0.48800
vt 0.93820 0.47980
vt 0.75700 0.47195
vt 0.76230 0.47195
vt 0.76200 0.43340
vt 0.75730 0.43340
vt 0.58130 0.47980
vt 0.61570 0.48800
vt 0.81980 0.32640
vt 0.82420 0.32640
vt 0.82420 0.30685
vt 0.81980 0.30685
vt 0.82960 0.32640
vt 0.82960 0.30685
vt 0.83690 0.32640
vt 0.83690 0.30685
vt 0.86720 0.32640
vt 0.86720 0.30685
vt 0.87400 0.32640
vt 0.87450 0.30685
vt 0.87990 0.32640
vt 0.87990 0.30685
vt 0.88430 0.32640
vt 0.88430 0.30685
vt 0.81940 0.32660
vt 0.82430 0.32660
vt 0.82430 0.30705
vt 0.81940 0.30705
vt 0.82970 0.32660
vt 0.82970 0.30705
vt 0.83700 0.32660
vt 0.83700 0.30705
vt 0.86730 0.32660
vt 0.86730 0.30705
vt 0.87410 0.32660
vt 0.87410 0.30705
vt 0.87950 0.32660
vt 0.87950 0.30705
vt 0.88490 0.32660
vt 0.88490 0.30705
vt 0.82060 0.32620
vt 0.82500 0.32620
vt 0.82500 0.30670
vt 0.82060 0.30670
vt 0.83040 0.32620
vt 0.83090 0.30670
vt 0.83770 0.32620
vt 0.83770 0.30670
vt 0.86800 0.32620
vt 0.86800 0.30670
vt 0.87530 0.32620
vt 0.87530 0.30670
vt 0.88070 0.32620
vt 0.88070 0.30670
vt 0.88510 0.32620
vt 0.88510 0.30670
vt 0.84580 0.29875
vt 0.81600 0.29875
vt 0.88830 0.29875
vt 0.85850 0.29875
vt 0.84650 0.29885
vt 0.81620 0.29885
vt 0.88850 0.29885
vt 0.85820 0.29885
vt 0.84620 0.29905
vt 0.81640 0.29905
vt 0.88870 0.29905
vt 0.85890 0.29905
vt 0.38430 0.40645
vt 0.41380 0.41030
vt 0.41970 0.40495
vt 0.38430 0.40030
vt 0.34930 0.40495
vt 0.35520 0.41030
vt 0.32300 0.41775
vt 0.33340 0.42085
vt 0.31300 0.43540
vt 0.32530 0.43540
vt 0.34930 0.43540
vt 0.43560 0.42085
vt 0.44610 0.41775
vt 0.41430 0.44365
vt 0.44330 0.43540
vt 0.43560 0.44995
vt 0.35480 0.44365
vt 0.40160 0.44970
vt 0.33340 0.44995
vt 0.32300 0.45305
vt 0.45560 0.43540
vt 0.41380 0.46050
vt 0.35520 0.46050
vt 0.36750 0.44970
vt 0.38430 0.45190
vt 0.44610 0.45305
vt 0.41970 0.46580
vt 0.34930 0.46580
vt 0.38430 0.46435
vt 0.38430 0.47045
vt 0.48615 0.47104
vt 0.49544 0.46296
vt 0.48615 0.46171
vt 0.50225 0.46637
vt 0.50474 0.47104
vt 0.50225 0.47570
vt 0.49544 0.47911
vt 0.48615 0.48036
vt 0.47684 0.47911
vt 0.47003 0.47570
vt 0.46754 0.47104
vt 0.47003 0.46637
vt 0.47684 0.46296
vt 0.47324 0.45983
vt 0.48615 0.45810
vt 0.48615 0.45595
vt 0.47110 0.45798
vt 0.46009 0.46349
vt 0.46380 0.46457
vt 0.45606 0.47104
vt 0.46034 0.47104
vt 0.46009 0.47858
vt 0.46380 0.47750
vt 0.47110 0.48410
vt 0.47324 0.48224
vt 0.48615 0.48612
vt 0.48615 0.48397
vt 0.50118 0.48410
vt 0.49904 0.48224
vt 0.51219 0.47858
vt 0.50848 0.47750
vt 0.51622 0.47104
vt 0.51194 0.47104
vt 0.51219 0.46349
vt 0.50848 0.46457
vt 0.50118 0.45798
vt 0.49904 0.45983
# 403 texture vertices

vn -0.07972 0.86791 0.49028
vn -0.29863 0.91918 0.25678
vn -0.67623 0.67316 -0.29927
vn -0.75556 0.36221 -0.54583
vn 0.41034 -0.91190 -0.00813
vn 0.49213 -0.86277 0.11592
vn 0.40984 -0.91209 -0.01084
vn 0.52956 -0.82924 0.17870
vn 0.07972 0.86791 0.49028
vn 0.29863 0.91918 0.25678
vn 0.67623 0.67316 -0.29927
vn 0.75556 0.36221 -0.54583
vn -0.41034 -0.91190 -0.00813
vn -0.49213 -0.86277 0.11592
vn -0.40984 -0.91209 -0.01084
vn -0.52956 -0.82924 0.17870
vn 0.24083 0.84234 0.48215
vn -0.13769 0.95407 0.26606
vn -0.74800 0.62421 -0.22551
vn -0.86103 -0.09509 -0.49959
vn 0.40580 -0.91393 -0.00771
vn 0.53383 -0.83959 0.10055
vn 0.40297 -0.91514 -0.01132
vn 0.59349 -0.78964 0.15566
vn -0.24083 0.84234 0.48215
vn 0.13769 0.95407 0.26606
vn 0.74800 0.62421 -0.22551
vn 0.86103 -0.09509 -0.49959
vn -0.40580 -0.91393 -0.00771
vn -0.53383 -0.83959 0.10055
vn -0.40297 -0.91514 -0.01132
vn -0.59349 -0.78964 0.15566
vn -0.23573 -0.97182 0.00000
vn -0.63486 0.00000 0.77263
vn 0.00000 -1.00000 0.00000
vn -0.63126 0.00000 -0.77557
vn -0.88086 -0.47337 0.00000
vn -0.70101 -0.71315 0.00000
vn 0.00000 1.00000 0.00000
vn -0.23573 -0.97182 0.00000
vn -0.63487 0.00000 0.77262
vn 0.00000 -1.00000 0.00000
vn -0.63126 0.00000 -0.77557
vn -0.88086 -0.47337 0.00000
vn -0.70101 -0.71315 0.00000
vn 0.00000 1.00000 0.00000
vn 0.00001 0.99028 0.13906
vn -1.00000 0.00000 0.00000
vn -0.30306 0.91605 0.26269
vn -0.30419 0.93438 0.18550
vn 0.00000 -0.89481 -0.44645
vn -0.23049 -0.87072 -0.43443
vn 0.00000 -0.29016 -0.95698
vn 1.00000 0.00000 0.00000
vn 0.30307 0.91605 0.26268
vn 0.30419 0.93438 0.18550
vn 0.23049 -0.87072 -0.43443
vn -0.00001 0.96773 0.25198
vn -0.00001 0.95878 -0.28413
vn 0.29669 0.91561 -0.27134
vn 0.30175 0.92262 0.24023
vn 0.90697 0.27595 -0.31821
vn 0.63688 0.50510 -0.58246
vn -0.29671 0.91561 -0.27134
vn -0.30176 0.92262 0.24023
vn -0.90698 0.27594 -0.31820
vn 0.90264 0.32565 0.28140
vn -0.90265 0.32565 0.28139
vn -0.62546 0.59038 0.51014
vn 0.23573 -0.97182 0.00000
vn 0.63486 0.00000 0.77263
vn 0.63126 0.00000 -0.77557
vn 0.88086 -0.47337 0.00000
vn 0.70101 -0.71315 0.00000
vn 0.23573 -0.97182 0.00000
vn 0.63487 0.00000 0.77262
vn 0.63126 0.00000 -0.77557
vn 0.88086 -0.47337 0.00000
vn 0.70101 -0.71315 0.00000
vn 0.00001 0.96773 0.25198
vn 0.00001 0.95878 -0.28413
vn -0.29669 0.91561 -0.27134
vn -0.30175 0.92262 0.24023
vn -0.90697 0.27595 -0.31821
vn -0.63688 0.50510 -0.58246
vn 0.29671 0.91561 -0.27134
vn 0.30176 0.92262 0.24023
vn 0.90698 0.27594 -0.31820
vn -0.90264 0.32565 0.28140
vn 0.90265 0.32565 0.28139
vn 0.62546 0.59038 0.51014
vn 0.00000 0.00000 1.00000
vn 0.00000 0.00000 -1.00000
vn -0.00000 0.90705 0.42103
vn -0.00000 0.89063 -0.45472
vn -0.00001 0.36727 0.93011
vn -0.00001 0.22631 -0.97405
vn -0.45522 0.20151 -0.86728
vn -0.43434 0.35582 -0.82749
vn -0.00001 0.39503 -0.91867
vn 0.45521 0.20151 -0.86728
vn 0.43433 0.35583 -0.82749
vn -0.00001 0.49235 0.87040
vn 0.00000 0.90705 0.42103
vn 0.00000 0.89063 -0.45472
vn 0.00000 0.36727 0.93011
vn 0.00000 0.22631 -0.97405
vn 0.45522 0.20151 -0.86728
vn 0.43433 0.35582 -0.82749
vn 0.00000 0.39503 -0.91867
vn -0.45522 0.20151 -0.86728
vn -0.43433 0.35582 -0.82749
vn 0.00000 0.49235 0.87040
vn -0.71462 0.69910 0.02421
vn -0.71226 0.70169 0.01768
vn 0.70169 -0.71226 0.01767
vn 0.69909 -0.71462 0.02419
vn -0.60167 -0.60112 0.52597
vn 0.71462 -0.69910 0.02419
vn 0.71226 -0.70169 0.01767
vn -0.70169 0.71226 0.01768
vn -0.69910 0.71462 0.02423
vn 0.60121 0.60158 0.52597
vn 0.69909 0.71462 0.02422
vn 0.70169 0.71226 0.01768
vn -0.71226 -0.70169 0.01768
vn -0.71462 -0.69909 0.02423
vn -0.60149 0.60130 0.52597
vn -0.69910 -0.71461 0.02420
vn -0.70169 -0.71226 0.01767
vn 0.71226 0.70169 0.01766
vn 0.71461 0.69910 0.02418
vn 0.60139 -0.60140 0.52597
vn 0.73017 -0.68303 0.01803
vn -0.73018 0.68302 0.01803
vn 0.68302 0.73018 0.01803
vn -0.68302 -0.73017 0.01803
vn 0.00000 -0.99966 0.02606
vn 0.99435 0.00000 0.10617
vn -0.99435 0.00000 0.10617
vn -0.46395 -0.80388 -0.37219
vn -0.49084 -0.85029 -0.18997
vn 0.00016 -0.98178 -0.19001
vn 0.00015 -0.92813 -0.37225
vn -0.50002 -0.86602 0.00000
vn 0.00015 -1.00000 -0.00000
vn -0.80379 -0.46410 -0.37221
vn -0.85020 -0.49099 -0.18998
vn -0.86595 -0.50013 0.00000
vn -0.92812 -0.00015 -0.37227
vn -0.98178 -0.00016 -0.19002
vn -1.00000 -0.00008 0.00000
vn -0.80386 0.46395 -0.37223
vn -0.85028 0.49084 -0.18999
vn -0.86599 0.50006 -0.00000
vn -0.46395 0.80385 -0.37226
vn -0.49085 0.85027 -0.19001
vn -0.50003 0.86601 0.00000
vn 0.00016 0.92810 -0.37233
vn 0.00016 0.98177 -0.19005
vn 0.00015 1.00000 -0.00000
vn 0.46409 0.80378 -0.37222
vn 0.49099 0.85020 -0.18998
vn 0.50017 0.86593 -0.00000
vn 0.80387 0.46396 -0.37221
vn 0.85028 0.49084 -0.18998
vn 0.86600 0.50005 -0.00000
vn 0.92813 -0.00016 -0.37225
vn 0.98178 -0.00016 -0.19001
vn 1.00000 -0.00008 0.00000
vn 0.85020 -0.49099 -0.18995
vn 0.86595 -0.50012 0.00000
vn 0.80380 -0.46411 -0.37216
vn 0.46409 -0.80380 -0.37218
vn 0.49098 -0.85021 -0.18996
vn 0.50016 -0.86594 -0.00000
vn -0.49883 -0.86402 0.06808
vn 0.00016 -0.99768 0.06809
vn -0.86399 -0.49888 0.06808
vn -0.99768 0.00008 0.06808
vn -0.86396 0.49894 0.06807
vn -0.49884 0.86402 0.06808
vn 0.00016 0.99768 0.06809
vn 0.49898 0.86393 0.06808
vn 0.86397 0.49892 0.06807
vn 0.99768 0.00008 0.06808
vn 0.86400 -0.49886 0.06808
vn 0.49897 -0.86394 0.06808
vn -0.70987 0.70425 0.01114
vn 0.70987 -0.70424 0.01114
vn 0.70424 0.70987 0.01114
vn -0.70425 -0.70987 0.01114
vn 0.89482 0.00023 -0.44642
vn -0.89483 0.00023 -0.44641
vn -0.77487 0.44758 -0.44637
vn 0.77487 0.44758 -0.44637
vn -0.44744 0.77489 -0.44649
vn 0.44749 0.77497 -0.44629
vn 0.00004 0.89482 -0.44643
vn 0.77427 -0.44686 0.44814
vn 0.47115 -0.81612 0.33461
vn 0.00021 -0.94235 0.33463
vn 0.81626 -0.47096 0.33455
vn 0.94241 0.00022 0.33445
vn 0.81618 0.47116 0.33446
vn 0.47117 0.81617 0.33446
vn 0.00021 0.94241 0.33446
vn -0.47097 0.81625 0.33456
vn -0.81613 0.47114 0.33461
vn -0.94235 0.00022 0.33462
vn -0.81621 -0.47094 0.33470
vn -0.47094 -0.81620 0.33470
vn -0.48948 -0.84806 0.20299
vn 0.00018 -0.97918 0.20300
vn -0.84806 -0.48949 0.20299
vn -0.97918 0.00018 0.20299
vn -0.84797 0.48964 0.20298
vn -0.48948 0.84806 0.20300
vn 0.00018 0.97918 0.20300
vn 0.48964 0.84797 0.20299
vn 0.84798 0.48963 0.20298
vn 0.97918 0.00018 0.20298
vn 0.84806 -0.48948 0.20299
vn 0.48964 -0.84797 0.20298
vn 0.71462 0.69910 0.02421
vn 0.71226 0.70169 0.01768
vn -0.70169 -0.71226 0.01767
vn -0.69909 -0.71462 0.02419
vn 0.60167 -0.60112 0.52597
vn -0.71462 -0.69910 0.02419
vn -0.71226 -0.70169 0.01767
vn 0.70169 0.71226 0.01768
vn 0.69910 0.71462 0.02423
vn -0.60121 0.60158 0.52597
vn -0.69909 0.71462 0.02422
vn -0.70169 0.71226 0.01768
vn 0.71226 -0.70169 0.01768
vn 0.71462 -0.69909 0.02423
vn 0.60149 0.60130 0.52597
vn 0.69910 -0.71461 0.02420
vn 0.70169 -0.71226 0.01767
vn -0.71226 0.70169 0.01766
vn -0.71461 0.69910 0.02418
vn -0.60139 -0.60140 0.52597
vn -0.73017 -0.68303 0.01803
vn 0.73018 0.68302 0.01803
vn -0.68302 0.73018 0.01803
vn 0.68302 -0.73017 0.01803
vn 0.00000 -0.99966 0.02606
vn 0.46395 -0.80386 -0.37223
vn 0.49084 -0.85028 -0.18999
vn -0.00016 -0.98178 -0.19003
vn -0.00016 -0.92812 -0.37228
vn 0.50002 -0.86602 0.00000
vn -0.00015 -1.00000 -0.00000
vn 0.80378 -0.46409 -0.37224
vn 0.85020 -0.49099 -0.18999
vn 0.86595 -0.50013 0.00000
vn 0.92811 -0.00015 -0.37230
vn 0.98178 -0.00015 -0.19004
vn 1.00000 -0.00008 0.00000
vn 0.80386 0.46395 -0.37223
vn 0.85028 0.49084 -0.18999
vn 0.86599 0.50006 -0.00000
vn 0.46395 0.80385 -0.37226
vn 0.49085 0.85027 -0.19001
vn 0.50003 0.86601 0.00000
vn -0.00016 0.92810 -0.37233
vn -0.00016 0.98177 -0.19005
vn -0.00015 1.00000 -0.00000
vn -0.46409 0.80378 -0.37222
vn -0.49099 0.85020 -0.18998
vn -0.50017 0.86593 -0.00000
vn -0.80387 0.46396 -0.37221
vn -0.85028 0.49084 -0.18998
vn -0.86600 0.50005 -0.00000
vn -0.92813 -0.00016 -0.37225
vn -0.98178 -0.00016 -0.19001
vn -1.00000 -0.00008 0.00000
vn -0.85020 -0.49099 -0.18995
vn -0.86595 -0.50012 0.00000
vn -0.80380 -0.46411 -0.37216
vn -0.46409 -0.80380 -0.37218
vn -0.49098 -0.85021 -0.18996
vn -0.50016 -0.86594 -0.00000
vn 0.49883 -0.86402 0.06808
vn -0.00016 -0.99768 0.06809
vn 0.86399 -0.49888 0.06808
vn 0.99768 0.00008 0.06809
vn 0.86396 0.49894 0.06808
vn 0.49884 0.86402 0.06808
vn -0.00016 0.99768 0.06810
vn -0.49898 0.86393 0.06808
vn -0.86397 0.49892 0.06807
vn -0.99768 0.00008 0.06809
vn -0.86400 -0.49886 0.06808
vn -0.49897 -0.86394 0.06808
vn 0.70987 0.70425 0.01114
vn -0.70987 -0.70424 0.01114
vn -0.70424 0.70987 0.01114
vn 0.70425 -0.70987 0.01114
vn -0.89482 0.00023 -0.44643
vn 0.89483 0.00023 -0.44641
vn 0.77487 0.44758 -0.44637
vn -0.77486 0.44758 -0.44638
vn 0.44743 0.77489 -0.44649
vn -0.44749 0.77497 -0.44629
vn -0.00004 0.89482 -0.44643
vn -0.77427 -0.44686 0.44814
vn -0.47115 -0.81612 0.33461
vn -0.00021 -0.94235 0.33463
vn -0.81626 -0.47096 0.33455
vn -0.94241 0.00022 0.33445
vn -0.81617 0.47116 0.33446
vn -0.47117 0.81617 0.33446
vn -0.00021 0.94241 0.33446
vn 0.47097 0.81625 0.33456
vn 0.81613 0.47114 0.33461
vn 0.94235 0.00022 0.33462
vn 0.81621 -0.47094 0.33470
vn 0.47094 -0.81620 0.33470
vn 0.48948 -0.84806 0.20300
vn -0.00018 -0.97918 0.20300
vn 0.84806 -0.48949 0.20299
vn 0.97918 0.00018 0.20300
vn 0.84797 0.48964 0.20299
vn 0.48948 0.84806 0.20300
vn -0.00018 0.97918 0.20301
vn -0.48964 0.84796 0.20299
vn -0.84797 0.48963 0.20298
vn -0.97918 0.00018 0.20299
vn -0.84806 -0.48948 0.20299
vn -0.48964 -0.84797 0.20298
vn -0.42167 -0.59199 -0.68684
vn 0.61891 -0.69783 0.36053
vn 0.42167 -0.59199 -0.68684
vn -0.61891 -0.69783 0.36053
vn -0.72884 -0.44156 -0.52328
vn 0.73788 -0.59776 0.31340
vn 0.72884 -0.44156 -0.52328
vn -0.73788 -0.59776 0.31340
vn -0.92334 0.00000 -0.38399
vn -1.00000 0.00000 0.00164
vn -0.92449 0.00000 0.38121
vn -0.92334 0.00000 -0.38399
vn -1.00000 0.00000 0.00164
vn -0.92449 0.00000 0.38121
vn -0.19599 0.00000 -0.98061
vn -0.19598 0.00000 0.98061
vn -0.19599 0.00000 -0.98061
vn -0.19599 0.00000 0.98061
vn -0.43718 0.81564 0.37895
vn 0.00002 0.90690 0.42135
vn -0.45272 -0.25872 -0.85330
vn 0.00000 0.02165 -0.99977
vn -0.46859 0.01912 -0.88321
vn 0.43720 0.81563 0.37894
vn 0.45272 -0.25872 -0.85329
vn 0.46860 0.01912 -0.88321
vn -0.88557 0.42126 0.19572
vn 0.88557 0.42126 0.19572
vn 0.70145 0.31052 -0.64152
vn 0.92235 0.16833 -0.34776
vn -0.92235 0.16833 -0.34775
vn -0.70147 0.31052 -0.64150
vn -0.63690 0.50509 -0.58245
vn 0.91665 0.25390 0.30870
vn -0.91665 0.25389 0.30869
vn -0.68050 0.46547 0.56591
vn 0.62544 0.59039 0.51016
vn 0.68048 0.46548 0.56593
vn 0.92334 0.00000 -0.38399
vn 1.00000 0.00000 0.00164
vn 0.92449 0.00000 0.38121
vn 0.92334 0.00000 -0.38399
vn 1.00000 0.00000 0.00164
vn 0.92449 0.00000 0.38121
vn 0.19599 0.00000 -0.98061
vn 0.19598 0.00000 0.98061
vn 0.19599 0.00000 -0.98061
vn 0.19599 0.00000 0.98061
vn -0.92235 0.16833 -0.34776
vn -0.70145 0.31052 -0.64152
vn 0.92235 0.16833 -0.34775
vn 0.63690 0.50509 -0.58245
vn 0.70147 0.31052 -0.64150
vn -0.91665 0.25390 0.30870
vn 0.91665 0.25389 0.30869
vn 0.68050 0.46547 0.56591
vn -0.62544 0.59039 0.51016
vn -0.68048 0.46548 0.56593
vn 0.45639 0.43808 0.77446
vn 0.47305 0.32358 0.81946
vn -0.45640 0.43808 0.77446
vn -0.24609 0.87915 0.40808
vn -0.47306 0.32358 0.81946
vn 0.24608 0.87916 0.40808
vn -0.40224 0.50095 -0.76633
vn 0.40223 0.50095 -0.76633
vn -0.47306 0.32358 0.81946
vn -0.45639 0.43808 0.77446
vn 0.24608 0.87916 0.40808
vn 0.45639 0.43808 0.77446
vn 0.47306 0.32358 0.81946
vn -0.24608 0.87916 0.40808
vn 0.40223 0.50095 -0.76633
vn -0.40223 0.50095 -0.76633
vn -0.68302 0.73018 0.01803
vn 0.68302 -0.73017 0.01803
vn -0.73018 -0.68302 0.01803
vn 0.73017 0.68302 0.01803
vn 0.00000 -0.99864 0.05210
vn 0.97746 0.00000 0.21113
vn -0.97746 0.00000 0.21113
vn -0.58738 -0.58724 -0.55689
vn 0.25274 0.25280 -0.93393
vn 0.70424 -0.70987 0.01114
vn 0.58722 0.58740 -0.55690
vn -0.25277 -0.25277 -0.93392
vn -0.70425 0.70987 0.01114
vn -0.58736 0.58727 -0.55689
vn 0.25277 -0.25277 -0.93393
vn -0.70987 -0.70424 0.01114
vn 0.58724 -0.58737 -0.55690
vn -0.25274 0.25280 -0.93392
vn 0.70987 0.70424 0.01114
vn 0.87792 -0.47881 0.00000
vn 0.54148 -0.84071 0.00000
vn 0.42884 0.90338 0.00000
vn 0.77481 0.63220 0.00000
vn -0.42837 0.90360 0.00000
vn -0.77415 0.63300 0.00000
vn -0.54067 -0.84123 0.00000
vn -0.87769 -0.47923 0.00000
vn 0.87796 -0.47873 0.00000
vn 0.54164 -0.84061 0.00000
vn 0.42893 0.90334 0.00000
vn 0.77493 0.63204 0.00000
vn -0.54067 -0.84123 0.00000
vn -0.87769 -0.47923 0.00000
vn 0.77493 0.63204 0.00000
vn -0.42837 0.90360 0.00000
vn -0.77415 0.63300 0.00000
vn -0.54067 -0.84123 0.00000
vn -0.87769 -0.47923 0.00000
vn 0.77497 -0.44739 -0.44639
vn 0.44750 -0.77496 -0.44629
vn 0.00004 -0.89481 -0.44645
vn -0.44745 -0.77488 -0.44649
vn -0.77498 -0.44738 -0.44638
vn 0.00014 0.89403 0.44800
vn -0.77408 -0.44689 0.44843
vn 0.68302 0.73018 0.01803
vn -0.68302 -0.73017 0.01803
vn 0.73018 -0.68302 0.01803
vn -0.73017 0.68302 0.01803
vn 0.00000 -0.99864 0.05210
vn 0.58739 -0.58725 -0.55688
vn -0.25274 0.25280 -0.93393
vn -0.70424 -0.70987 0.01114
vn -0.58722 0.58740 -0.55689
vn 0.25277 -0.25277 -0.93392
vn 0.70425 0.70987 0.01114
vn 0.58736 0.58727 -0.55688
vn -0.25277 -0.25277 -0.93393
vn 0.70987 -0.70424 0.01114
vn -0.58724 -0.58737 -0.55690
vn 0.25274 0.25280 -0.93392
vn -0.70987 0.70424 0.01114
vn -0.87792 -0.47881 0.00000
vn -0.54148 -0.84071 0.00000
vn -0.77481 0.63220 0.00000
vn -0.42884 0.90338 0.00000
vn 0.42837 0.90360 0.00000
vn 0.77415 0.63300 0.00000
vn 0.54067 -0.84123 0.00000
vn 0.87769 -0.47923 0.00000
vn -0.87796 -0.47873 0.00000
vn -0.54164 -0.84061 0.00000
vn -0.77493 0.63204 0.00000
vn -0.42893 0.90334 0.00000
vn 0.54067 -0.84123 0.00000
vn 0.87769 -0.47923 0.00000
vn -0.77494 0.63204 0.00000
vn -0.42893 0.90334 0.00000
vn -0.44750 -0.77496 -0.44629
vn -0.77497 -0.44739 -0.44639
vn -0.00004 -0.89481 -0.44645
vn 0.44745 -0.77488 -0.44649
vn 0.77498 -0.44738 -0.44638
vn -0.00014 0.89403 0.44800
vn 0.77408 -0.44689 0.44843
# 492 normal vertices

g vehicle#twin_pylon_001_169_2
usemtl 939ad3eb-60d4-44ee-8ac4-38606db
f 5/3/5 6/2/6 11/1/7
f 11/1/7 6/2/6 12/4/8
f 18/2/14 17/3/13 23/1/15
f 18/2/14 23/1/15 24/4/16
f 29/3/21 30/2/22 35/1/23
f 35/1/23 30/2/22 36/4/24
f 42/2/30 41/3/29 47/1/31
f 42/2/30 47/1/31 48/4/32
f 51/7/35 52/6/35 53/5/35
f 64/5/39 63/6/39 62/7/39
f 73/7/35 74/6/42 75/5/35
f 86/5/39 85/6/46 84/7/39
f 96/10/48 95/9/48 105/8/48
f 115/8/54 107/9/54 108/10/54
f 96/10/48 95/9/48 105/8/48
f 115/8/54 107/9/54 108/10/54
f 3/14/3 9/13/3 8/12/2 2/11/2
f 15/14/11 14/11/10 20/12/10 21/13/11
f 27/14/19 33/13/19 32/12/18 26/11/18
f 39/14/27 38/11/26 44/12/26 45/13/27
f 4/16/4 10/15/4 9/13/3 3/14/3
f 11/1/334 10/15/334 4/16/334 5/3/334
f 2/11/2 8/12/2 7/18/1 1/17/1
f 6/2/6 1/20/335 7/19/335 12/4/8
f 21/13/11 22/15/12 16/16/12 15/14/11
f 16/16/336 22/15/336 23/1/336 17/3/336
f 19/18/9 20/12/10 14/11/10 13/17/9
f 19/19/337 13/20/337 18/2/14 24/4/16
f 28/16/20 34/15/20 33/13/19 27/14/19
f 35/1/338 34/15/20 28/16/20 29/3/338
f 26/11/18 32/12/18 31/18/17 25/17/17
f 30/2/22 25/20/339 31/19/339 36/4/24
f 45/13/27 46/15/28 40/16/28 39/14/27
f 40/16/28 46/15/28 47/1/340 41/3/340
f 43/18/25 44/12/26 38/11/26 37/17/25
f 43/19/341 37/20/341 42/2/30 48/4/32
f 53/5/342 64/5/342 65/21/36 54/21/36
f 52/6/343 63/6/343 64/5/342 53/5/342
f 51/7/344 62/7/344 63/6/343 52/6/343
f 61/22/34 62/7/344 51/7/344 50/22/34
f 75/5/345 86/5/345 87/21/43 76/21/43
f 74/6/346 85/6/346 86/5/345 75/5/345
f 73/7/347 84/7/347 85/6/346 74/6/346
f 83/22/41 84/7/347 73/7/347 72/22/41
f 57/26/37 56/25/37 59/24/38 58/23/38
f 67/25/39 68/26/39 69/23/39 70/24/39
f 58/23/38 59/24/38 49/28/33 55/27/33
f 70/24/39 69/23/39 66/27/39 60/28/39
f 66/27/348 69/23/93 58/23/93 55/27/348
f 60/28/349 49/28/349 59/24/92 70/24/92
f 54/21/35 55/27/33 49/28/33 50/22/35
f 60/28/39 66/27/39 65/21/39 61/22/39
f 66/27/348 55/27/348 54/21/36 65/21/36
f 61/22/34 50/22/34 49/28/349 60/28/349
f 79/26/44 78/25/44 81/24/45 80/23/45
f 89/25/39 90/26/39 91/23/39 92/24/39
f 80/23/45 81/24/45 71/28/40 77/27/40
f 92/24/39 91/23/39 88/27/39 82/28/39
f 88/27/350 91/23/93 80/23/93 77/27/350
f 82/28/351 71/28/351 81/24/92 92/24/92
f 76/21/35 77/27/40 71/28/40 72/22/35
f 82/28/39 88/27/39 87/21/39 83/22/39
f 88/27/350 77/27/350 76/21/43 87/21/43
f 83/22/41 72/22/41 71/28/351 82/28/351
f 95/32/39 96/31/39 93/30/47 94/29/39
f 98/34/50 97/33/49 93/30/47 96/31/39
f 101/32/52 100/29/51 99/30/35 102/31/35
f 104/34/35 102/31/35 99/30/35 103/33/35
f 99/38/353 93/37/47 97/36/49 103/35/352
f 102/40/48 96/10/48 105/8/48 101/39/48
f 101/43/52 105/42/354 106/8/53 100/41/51
f 95/45/356 94/44/355 106/8/53 105/42/354
f 107/32/39 94/29/39 93/30/47 108/31/39
f 93/30/47 109/33/55 110/34/56 108/31/39
f 99/30/35 100/29/51 111/32/57 112/31/35
f 114/34/35 113/33/35 99/30/35 112/31/35
f 99/38/353 113/35/357 109/36/55 93/37/47
f 111/39/54 115/8/54 108/10/54 112/40/54
f 106/8/53 115/42/358 111/43/57 100/41/51
f 107/45/359 115/42/358 106/8/53 94/44/355
f 95/32/39 96/31/39 93/30/47 94/29/39
f 98/34/50 97/33/49 93/30/47 96/31/39
f 101/32/52 100/29/51 99/30/35 102/31/35
f 104/34/35 102/31/35 99/30/35 103/33/35
f 99/38/353 93/37/47 97/36/49 103/35/352
f 102/40/48 96/10/48 105/8/48 101/39/48
f 101/43/52 105/42/354 106/8/53 100/41/51
f 95/45/356 94/44/355 106/8/53 105/42/354
f 107/32/39 94/29/39 93/30/47 108/31/39
f 93/30/47 109/33/55 110/34/56 108/31/39
f 99/30/35 100/29/51 111/32/57 112/31/35
f 114/34/35 113/33/35 99/30/35 112/31/35
f 99/38/353 113/35/357 109/36/55 93/37/47
f 111/39/54 115/8/54 108/10/54 112/40/54
f 106/8/53 115/42/358 111/43/57 100/41/51
f 107/45/359 115/42/358 106/8/53 94/44/355
f 50/22/35 51/7/35 53/5/35 54/21/35
f 61/22/39 65/21/39 64/5/39 62/7/39
f 72/22/35 73/7/35 75/5/35 76/21/35
f 83/22/39 87/21/39 86/5/39 84/7/39
f 69/23/93 68/26/93 57/26/93 58/23/93
f 70/24/92 59/24/92 56/25/92 67/25/92
f 91/23/93 90/26/93 79/26/93 80/23/93
f 92/24/92 81/24/92 78/25/92 89/25/92
f 98/47/50 104/46/360 103/35/352 97/36/49
f 110/47/56 109/36/55 113/35/357 114/46/361
f 98/47/50 104/46/360 103/35/352 97/36/49
f 110/47/56 109/36/55 113/35/357 114/46/361
f 104/46/360 98/47/48 96/10/48 102/40/48
f 114/46/361 112/40/54 108/10/54 110/47/54
f 104/46/360 98/47/48 96/10/48 102/40/48
f 114/46/361 112/40/54 108/10/54 110/47/54
f 116/30/58 119/31/61 118/32/60 117/29/59
f 120/30/35 121/29/35 122/32/35 123/31/35
f 124/51/62 122/50/363 121/49/362 125/48/63
f 116/30/58 117/29/59 126/32/64 127/31/65
f 128/32/35 121/29/35 120/30/35 129/31/35
f 130/51/66 125/48/366 121/49/365 128/50/364
f 124/48/62 131/54/67 123/53/367 122/52/363
f 119/56/54 131/54/67 124/48/62 118/55/54
f 132/54/68 130/48/66 128/52/364 129/53/368
f 126/55/48 130/48/66 132/54/68 127/56/48
f 132/60/68 129/59/368 120/58/369 133/57/69
f 133/57/370 131/60/67 119/62/61 116/61/58
f 131/60/67 133/57/370 120/58/371 123/59/367
f 133/57/69 116/61/58 127/62/65 132/60/68
f 125/48/63 117/64/59 118/63/60 124/51/62
f 125/48/366 130/51/66 126/63/64 117/64/59
f 137/6/35 136/7/35 138/5/35
f 148/6/39 149/5/39 147/7/39
f 159/6/42 158/7/35 160/5/35
f 170/6/46 171/5/39 169/7/39
f 150/21/72 149/5/372 138/5/372 139/21/72
f 149/5/372 148/6/373 137/6/373 138/5/372
f 148/6/373 147/7/374 136/7/374 137/6/373
f 136/7/374 147/7/374 146/22/71 135/22/71
f 172/21/77 171/5/375 160/5/375 161/21/77
f 171/5/375 170/6/376 159/6/376 160/5/375
f 170/6/376 169/7/377 158/7/377 159/6/376
f 158/7/377 169/7/377 168/22/76 157/22/76
f 144/24/74 141/25/73 142/26/73 143/23/74
f 154/23/39 153/26/39 152/25/39 155/24/39
f 134/28/70 144/24/74 143/23/74 140/27/70
f 151/27/39 154/23/39 155/24/39 145/28/39
f 143/23/93 154/23/93 151/27/378 140/27/378
f 144/24/92 134/28/379 145/28/379 155/24/92
f 134/28/70 140/27/70 139/21/35 135/22/35
f 150/21/39 151/27/39 145/28/39 146/22/39
f 139/21/72 140/27/378 151/27/378 150/21/72
f 134/28/379 135/22/71 146/22/71 145/28/379
f 166/24/79 163/25/78 164/26/78 165/23/79
f 176/23/39 175/26/39 174/25/39 177/24/39
f 156/28/75 166/24/79 165/23/79 162/27/75
f 173/27/39 176/23/39 177/24/39 167/28/39
f 165/23/93 176/23/93 173/27/380 162/27/380
f 166/24/92 156/28/381 167/28/381 177/24/92
f 156/28/75 162/27/75 161/21/35 157/22/35
f 172/21/39 173/27/39 167/28/39 168/22/39
f 161/21/77 162/27/380 173/27/380 172/21/77
f 156/28/381 157/22/76 168/22/76 167/28/381
f 138/5/35 136/7/35 135/22/35 139/21/35
f 149/5/39 150/21/39 146/22/39 147/7/39
f 160/5/35 158/7/35 157/22/35 161/21/35
f 171/5/39 172/21/39 168/22/39 169/7/39
f 142/26/93 153/26/93 154/23/93 143/23/93
f 141/25/92 144/24/92 155/24/92 152/25/92
f 164/26/93 175/26/93 176/23/93 165/23/93
f 163/25/92 166/24/92 177/24/92 174/25/92
f 180/68/82 181/67/83 178/66/80 179/65/81
f 184/68/35 183/65/35 182/66/35 185/67/35
f 183/49/383 184/50/382 186/51/84 187/48/85
f 188/68/86 179/65/81 178/66/80 189/67/87
f 182/66/35 183/65/35 190/68/35 191/67/35
f 183/49/386 187/48/385 192/51/88 190/50/384
f 185/53/387 193/54/89 186/48/84 184/52/382
f 186/48/84 193/54/89 181/56/48 180/55/48
f 190/52/384 192/48/88 194/54/90 191/53/388
f 194/54/90 192/48/88 188/55/54 189/56/54
f 182/58/389 191/59/388 194/60/90 195/57/91
f 181/62/83 193/60/89 195/57/390 178/61/80
f 182/58/391 195/57/390 193/60/89 185/59/387
f 189/62/87 178/61/80 195/57/91 194/60/90
f 180/63/82 179/64/81 187/48/85 186/51/84
f 188/63/86 192/51/88 187/48/385 179/64/81
f 197/72/92 199/71/92 198/70/92 196/69/92
f 199/72/54 201/71/54 200/70/54 198/69/54
f 201/72/93 203/71/93 202/70/93 200/69/93
f 203/72/48 197/71/48 196/70/48 202/69/48
f 196/72/39 198/71/39 200/70/39 202/69/39
f 203/72/35 201/71/35 199/70/35 197/69/35
f 206/70/93 207/71/93 205/72/93 204/69/93
f 208/70/54 209/71/54 207/72/54 206/69/54
f 210/70/92 211/71/92 209/72/92 208/69/92
f 204/70/48 205/71/48 211/72/48 210/69/48
f 208/70/39 206/71/39 204/72/39 210/69/39
f 207/70/35 209/71/35 211/72/35 205/69/35
f 217/76/97 218/75/98 220/74/99 221/73/100
f 217/76/97 221/73/100 226/74/102 224/75/101
f 219/79/48 227/78/48 220/73/48 218/77/48
f 220/73/48 227/78/48 215/81/48 214/80/48
f 224/77/54 226/73/54 228/78/54 225/79/54
f 228/78/54 226/73/54 222/80/54 223/81/54
f 216/83/96 225/79/393 228/78/392 229/82/103
f 215/81/395 227/78/394 229/82/103 212/84/94
f 216/83/96 229/82/103 227/78/394 219/79/396
f 223/81/397 212/84/94 229/82/103 228/78/392
f 214/85/398 213/80/95 221/73/100 220/74/99
f 222/85/399 226/74/102 221/73/100 213/80/95
f 214/89/39 215/88/395 212/87/94 213/86/95
f 222/89/39 213/86/95 212/87/94 223/88/397
f 218/89/35 217/86/35 216/87/35 219/88/35
f 216/87/35 217/86/35 224/89/35 225/88/35
f 231/93/92 233/92/92 232/91/92 230/90/92
f 233/93/54 235/92/54 234/91/54 232/90/54
f 235/93/93 237/92/93 236/91/93 234/90/93
f 237/93/48 231/92/48 230/91/48 236/90/48
f 230/93/39 232/92/39 234/91/39 236/90/39
f 237/93/35 235/92/35 233/91/35 231/90/35
f 240/91/93 241/92/93 239/93/93 238/90/93
f 242/91/54 243/92/54 241/93/54 240/90/54
f 244/91/92 245/92/92 243/93/92 242/90/92
f 238/91/48 239/92/48 245/93/48 244/90/48
f 242/91/39 240/92/39 238/93/39 244/90/39
f 241/91/35 243/92/35 245/93/35 239/90/35
f 248/70/92 249/71/92 247/72/92 246/69/92
f 250/70/48 251/71/48 249/72/48 248/69/48
f 252/70/93 253/71/93 251/72/93 250/69/93
f 246/70/54 247/71/54 253/72/54 252/69/54
f 250/70/39 248/71/39 246/72/39 252/69/39
f 249/70/35 251/71/35 253/72/35 247/69/35
f 255/72/93 257/71/93 256/70/93 254/69/93
f 257/72/48 259/71/48 258/70/48 256/69/48
f 259/72/92 261/71/92 260/70/92 258/69/92
f 261/72/54 255/71/54 254/70/54 260/69/54
f 254/72/39 256/71/39 258/70/39 260/69/39
f 261/72/35 259/71/35 257/70/35 255/69/35
f 270/74/109 268/75/108 267/76/107 271/73/110
f 276/74/112 271/73/110 267/76/107 274/75/111
f 270/73/54 277/78/54 269/79/54 268/77/54
f 265/81/54 277/78/54 270/73/54 264/80/54
f 278/78/48 276/73/48 274/77/48 275/79/48
f 272/80/48 276/73/48 278/78/48 273/81/48
f 278/78/401 275/79/400 266/83/106 279/82/113
f 279/82/113 277/78/403 265/81/402 262/84/104
f 277/78/403 279/82/113 266/83/106 269/79/404
f 279/82/113 262/84/104 273/81/405 278/78/401
f 271/73/110 263/80/105 264/85/406 270/74/109
f 271/73/110 276/74/112 272/85/407 263/80/105
f 262/87/104 265/88/402 264/89/39 263/86/105
f 262/87/104 263/86/105 272/89/39 273/88/405
f 266/87/35 267/86/35 268/89/35 269/88/35
f 274/89/35 267/86/35 266/87/35 275/88/35
f 282/91/92 283/92/92 281/93/92 280/90/92
f 284/91/48 285/92/48 283/93/48 282/90/48
f 286/91/93 287/92/93 285/93/93 284/90/93
f 280/91/54 281/92/54 287/93/54 286/90/54
f 284/91/39 282/92/39 280/93/39 286/90/39
f 283/91/35 285/92/35 287/93/35 281/90/35
f 289/93/93 291/92/93 290/91/93 288/90/93
f 291/93/48 293/92/48 292/91/48 290/90/48
f 293/93/92 295/92/92 294/91/92 292/90/92
f 295/93/54 289/92/54 288/91/54 294/90/54
f 288/93/39 290/92/39 292/91/39 294/90/39
f 295/93/35 293/92/35 291/91/35 289/90/35
g CH_PL_12_M4
usemtl mat1
f 298/96/115 297/95/115 296/94/114
f 301/99/117 300/98/116 299/97/116
f 298/102/118 299/101/118 302/100/118
f 305/96/120 304/95/120 303/94/119
f 308/99/122 307/98/121 306/97/121
f 305/102/123 306/101/123 309/100/123
f 312/105/125 311/104/125 310/103/124
f 315/108/127 314/107/126 313/106/126
f 312/111/128 313/110/128 316/109/128
f 319/105/130 318/104/130 317/103/129
f 322/108/132 321/107/131 320/106/131
f 319/111/133 320/110/133 323/109/133
f 326/114/134 325/113/134 324/112/134
f 326/117/93 324/116/93 327/115/93
f 326/120/408 327/119/408 325/118/408
f 330/114/135 329/113/135 328/112/135
f 330/117/93 328/116/93 331/115/93
f 330/120/409 331/119/409 329/118/409
f 334/123/136 333/122/136 332/121/136
f 334/126/93 332/125/93 335/124/93
f 334/129/410 335/128/410 333/127/410
f 338/123/137 337/122/137 336/121/137
f 338/126/93 336/125/93 339/124/93
f 338/129/411 339/128/411 337/127/411
f 342/132/92 341/131/92 340/130/92
f 345/135/92 344/134/92 343/133/92
f 348/138/93 347/137/93 346/136/93
f 351/141/93 350/140/93 349/139/93
f 354/144/92 353/143/92 352/142/92
f 357/147/92 356/146/92 355/145/92
f 360/150/93 359/149/93 358/148/93
f 363/153/93 362/152/93 361/151/93
f 366/156/92 365/155/92 364/154/92
f 369/159/92 368/158/92 367/157/92
f 372/162/93 371/161/93 370/160/93
f 375/165/93 374/164/93 373/163/93
f 378/168/93 377/167/93 376/166/93
f 381/171/93 380/170/93 379/169/93
f 385/175/92 384/174/92 383/173/92 382/172/92
f 382/172/412 383/173/412 387/177/138 386/176/138
f 386/176/139 388/179/139 385/178/413 382/172/413
f 386/176/139 390/181/54 389/180/54 388/179/139
f 390/181/35 386/176/138 387/177/138 391/182/35
f 387/177/140 383/173/414 384/184/414 392/183/140
f 391/182/48 387/177/140 392/183/140 393/185/48
f 390/181/93 391/182/93 393/187/93 389/186/93
f 397/191/144 396/190/143 395/189/142 394/188/141
f 396/190/143 399/193/146 398/192/145 395/189/142
f 395/189/142 401/195/148 400/194/147 394/188/141
f 395/189/142 398/192/145 402/196/149 401/195/148
f 401/195/148 404/198/151 403/197/150 400/194/147
f 401/195/148 402/196/149 405/199/152 404/198/151
f 403/197/150 404/198/151 407/201/154 406/200/153
f 404/198/151 405/199/152 408/202/155 407/201/154
f 406/200/153 407/201/154 410/204/157 409/203/156
f 407/201/154 408/202/155 411/205/158 410/204/157
f 410/204/157 413/207/160 412/206/159 409/203/156
f 410/204/157 411/205/158 414/208/161 413/207/160
f 412/206/159 413/207/160 416/210/163 415/209/162
f 413/207/160 414/208/161 417/211/164 416/210/163
f 416/210/163 419/213/166 418/212/165 415/209/162
f 416/210/163 417/211/164 420/214/167 419/213/166
f 419/213/166 422/216/169 421/215/168 418/212/165
f 422/216/169 419/213/166 420/214/167 423/217/170
f 423/217/170 425/219/172 424/218/171 422/216/169
f 421/215/168 422/216/169 424/218/171 426/220/173
f 426/220/173 424/218/171 428/222/175 427/221/174
f 424/218/171 425/219/172 429/223/176 428/222/175
f 428/222/175 396/225/143 397/224/144 427/221/174
f 428/222/175 429/223/176 399/226/146 396/225/143
f 399/230/146 431/229/178 430/228/177 398/227/145
f 398/227/145 430/228/177 432/232/179 402/231/149
f 402/231/149 432/232/179 433/234/180 405/233/152
f 405/233/152 433/234/180 434/236/181 408/235/155
f 408/235/155 434/236/181 435/238/182 411/237/158
f 411/237/158 435/238/182 436/240/183 414/239/161
f 414/239/161 436/240/183 437/242/184 417/241/164
f 417/241/164 437/242/184 438/244/185 420/243/167
f 438/244/185 439/246/186 423/245/170 420/243/167
f 439/246/186 440/248/187 425/247/172 423/245/170
f 425/247/172 440/248/187 441/250/188 429/249/176
f 431/252/178 399/251/146 429/249/176 441/250/188
f 298/256/415 296/255/415 301/254/415 299/253/415
f 298/96/115 302/258/189 442/257/189 297/95/115
f 297/262/416 300/261/416 301/260/416 296/259/416
f 299/97/116 300/98/116 442/264/417 302/263/417
f 306/253/418 305/256/418 303/255/418 308/254/418
f 305/96/120 309/258/190 443/257/190 304/95/120
f 308/260/419 303/259/419 304/262/419 307/261/419
f 306/97/121 307/98/121 443/264/420 309/263/420
f 313/268/421 312/267/421 310/266/421 315/265/421
f 312/105/125 316/270/191 444/269/191 311/104/125
f 315/274/422 310/273/422 311/272/422 314/271/422
f 313/106/126 314/107/126 444/276/423 316/275/423
f 319/267/424 317/266/424 322/265/424 320/268/424
f 319/105/130 323/270/192 445/269/192 318/104/130
f 322/274/425 317/273/425 318/272/425 321/271/425
f 320/106/131 321/107/131 445/276/426 323/275/426
f 447/280/54 374/279/427 369/278/427 446/277/54
f 374/279/427 375/282/428 368/281/428 369/278/427
f 368/281/430 375/282/430 373/284/429 367/283/429
f 373/284/429 372/286/431 365/285/431 367/283/429
f 372/286/431 370/288/432 364/287/432 365/285/431
f 370/288/433 371/290/434 366/289/434 364/287/433
f 366/289/434 371/290/434 449/292/48 448/291/48
f 451/296/54 350/295/435 345/294/435 450/293/54
f 350/295/435 351/298/436 344/297/436 345/294/435
f 344/297/438 351/298/438 349/300/437 343/299/437
f 349/300/437 348/302/431 341/301/431 343/299/437
f 348/302/431 346/304/432 340/303/432 341/301/431
f 346/304/439 347/306/440 342/305/440 340/303/439
f 342/305/440 347/306/440 453/308/48 452/307/48
f 455/312/54 362/311/435 357/310/435 454/309/54
f 362/311/435 363/314/436 356/313/436 357/310/435
f 356/313/441 363/314/441 361/316/437 355/315/437
f 361/316/437 360/318/442 353/317/442 355/315/437
f 360/318/442 358/320/443 352/319/443 353/317/442
f 358/320/444 359/322/445 354/321/445 352/319/444
f 354/321/445 359/322/445 457/324/48 456/323/48
f 452/326/92 450/325/92 345/135/92 342/132/92
f 342/132/92 345/135/92 343/133/92 341/131/92
f 347/137/93 348/138/93 349/139/93 350/140/93
f 347/137/93 350/140/93 451/328/93 453/327/93
f 456/330/92 454/329/92 357/147/92 354/144/92
f 354/144/92 357/147/92 355/145/92 353/143/92
f 359/149/93 360/150/93 361/151/93 362/152/93
f 359/149/93 362/152/93 455/332/93 457/331/93
f 448/334/92 446/333/92 369/159/92 366/156/92
f 366/156/92 369/159/92 367/157/92 365/155/92
f 371/161/93 372/162/93 373/163/93 374/164/93
f 371/161/93 374/164/93 447/336/93 449/335/93
f 412/340/93 415/339/93 459/338/93 458/337/93
f 412/340/93 458/337/93 460/342/93 409/341/93
f 409/341/93 460/342/93 461/344/93 406/343/93
f 460/342/447 377/167/447 380/170/446 461/344/446
f 460/342/447 458/337/448 376/166/448 377/167/447
f 459/338/449 378/168/449 376/166/448 458/337/448
f 377/167/93 378/168/93 379/169/93 380/170/93
f 461/344/93 462/346/93 403/345/93 406/343/93
f 461/344/446 380/170/446 463/347/193 462/346/193
f 459/338/93 415/339/93 418/349/93 464/348/93
f 459/338/449 464/348/450 379/169/450 378/168/449
f 380/170/93 381/171/93 465/350/93 463/347/93
f 381/171/194 379/169/450 464/348/450 466/351/194
f 381/171/194 466/351/194 467/352/195 465/350/195
f 463/347/93 465/350/93 469/354/93 468/353/93
f 463/347/193 468/353/196 470/355/196 462/346/193
f 403/345/93 462/346/93 470/355/93 400/356/93
f 464/348/93 418/349/93 421/357/93 466/351/93
f 465/350/195 467/352/195 471/358/197 469/354/197
f 468/353/196 473/360/198 472/359/198 470/355/196
f 468/353/93 469/354/93 474/361/93 473/360/93
f 467/352/93 466/351/93 421/357/93 426/362/93
f 467/352/93 426/362/93 427/363/93 471/358/93
f 400/356/93 470/355/93 472/359/93 394/364/93
f 471/358/197 475/365/199 474/361/199 469/354/197
f 474/361/199 475/365/199 472/359/198 473/360/198
f 472/359/93 475/365/93 397/366/93 394/364/93
f 471/358/93 427/363/93 397/366/93 475/365/93
f 478/369/202 477/368/201 476/367/200
f 477/368/201 479/370/203 476/367/200
f 479/370/203 480/371/204 476/367/200
f 480/371/204 481/372/205 476/367/200
f 481/372/205 482/373/206 476/367/451
f 482/373/206 483/374/207 476/367/451
f 483/374/207 484/375/208 476/367/451
f 484/375/208 485/376/209 476/367/451
f 485/376/209 486/377/210 476/367/452
f 486/377/210 487/378/211 476/367/452
f 487/378/211 488/379/212 476/367/452
f 488/379/212 478/369/202 476/367/452
f 430/383/177 431/382/178 490/381/214 489/380/213
f 430/383/177 489/380/213 491/385/215 432/384/179
f 489/380/213 488/379/212 487/378/211 491/385/215
f 489/380/213 490/381/214 478/369/202 488/379/212
f 432/384/179 491/385/215 492/387/216 433/386/180
f 491/385/215 487/378/211 486/377/210 492/387/216
f 492/387/216 493/389/217 434/388/181 433/386/180
f 493/389/217 492/387/216 486/377/210 485/376/209
f 493/389/217 494/391/218 435/390/182 434/388/181
f 493/389/217 485/376/209 484/375/208 494/391/218
f 435/390/182 494/391/218 495/393/219 436/392/183
f 494/391/218 484/375/208 483/374/207 495/393/219
f 495/393/219 496/395/220 437/394/184 436/392/183
f 483/374/207 482/373/206 496/395/220 495/393/219
f 437/394/184 496/395/220 497/397/221 438/396/185
f 496/395/220 482/373/206 481/372/205 497/397/221
f 438/396/185 497/397/221 498/399/222 439/398/186
f 497/397/221 481/372/205 480/371/204 498/399/222
f 498/399/222 499/401/223 440/400/187 439/398/186
f 480/371/204 479/370/203 499/401/223 498/399/222
f 499/401/223 500/403/224 441/402/188 440/400/187
f 500/403/224 499/401/223 479/370/203 477/368/201
f 441/402/188 500/403/224 490/381/214 431/382/178
f 500/403/224 477/368/201 478/369/202 490/381/214
g CH_PL_12_M5
f 501/94/225 502/95/226 503/96/226
f 504/97/227 505/98/227 506/99/228
f 507/100/229 504/101/229 503/102/229
f 508/94/230 509/95/231 510/96/231
f 511/97/232 512/98/232 513/99/233
f 514/100/234 511/101/234 510/102/234
f 515/103/235 516/104/236 517/105/236
f 518/106/237 519/107/237 520/108/238
f 521/109/239 518/110/239 517/111/239
f 522/103/240 523/104/241 524/105/241
f 525/106/242 526/107/242 527/108/243
f 528/109/244 525/110/244 524/111/244
f 529/112/245 530/113/245 531/114/245
f 532/115/93 529/116/93 531/117/93
f 530/118/453 532/119/453 531/120/453
f 533/112/246 534/113/246 535/114/246
f 536/115/93 533/116/93 535/117/93
f 534/118/454 536/119/454 535/120/454
f 537/121/247 538/122/247 539/123/247
f 540/124/93 537/125/93 539/126/93
f 538/127/455 540/128/455 539/129/455
f 541/121/248 542/122/248 543/123/248
f 544/124/93 541/125/93 543/126/93
f 542/127/456 544/128/456 543/129/456
f 545/130/92 546/131/92 547/132/92
f 548/133/92 549/134/92 550/135/92
f 551/136/93 552/137/93 553/138/93
f 554/139/93 555/140/93 556/141/93
f 557/142/92 558/143/92 559/144/92
f 560/145/92 561/146/92 562/147/92
f 563/148/93 564/149/93 565/150/93
f 566/151/93 567/152/93 568/153/93
f 569/154/92 570/155/92 571/156/92
f 572/157/92 573/158/92 574/159/92
f 575/160/93 576/161/93 577/162/93
f 578/163/93 579/164/93 580/165/93
f 581/166/93 582/167/93 583/168/93
f 584/169/93 585/170/93 586/171/93
f 587/172/92 588/173/92 589/174/92 590/175/92
f 591/176/249 592/177/249 588/173/457 587/172/457
f 587/172/414 590/178/414 593/179/140 591/176/140
f 593/179/140 594/180/48 595/181/48 591/176/140
f 596/182/35 592/177/249 591/176/249 595/181/35
f 597/183/139 589/184/413 588/173/413 592/177/139
f 598/185/54 597/183/139 592/177/139 596/182/54
f 594/186/93 598/187/93 596/182/93 595/181/93
f 599/188/250 600/189/251 601/190/252 602/191/253
f 600/189/251 603/192/254 604/193/255 601/190/252
f 599/188/250 605/194/256 606/195/257 600/189/251
f 606/195/257 607/196/258 603/192/254 600/189/251
f 605/194/256 608/197/259 609/198/260 606/195/257
f 609/198/260 610/199/261 607/196/258 606/195/257
f 611/200/262 612/201/263 609/198/260 608/197/259
f 612/201/263 613/202/264 610/199/261 609/198/260
f 614/203/265 615/204/266 612/201/263 611/200/262
f 615/204/266 616/205/267 613/202/264 612/201/263
f 614/203/265 617/206/268 618/207/269 615/204/266
f 618/207/269 619/208/270 616/205/267 615/204/266
f 620/209/271 621/210/272 618/207/269 617/206/268
f 621/210/272 622/211/273 619/208/270 618/207/269
f 620/209/271 623/212/274 624/213/275 621/210/272
f 624/213/275 625/214/276 622/211/273 621/210/272
f 623/212/274 626/215/277 627/216/278 624/213/275
f 628/217/279 625/214/276 624/213/275 627/216/278
f 627/216/278 629/218/280 630/219/281 628/217/279
f 631/220/282 629/218/280 627/216/278 626/215/277
f 632/221/283 633/222/284 629/218/280 631/220/282
f 633/222/284 634/223/285 630/219/281 629/218/280
f 632/221/283 602/224/253 601/225/252 633/222/284
f 601/225/252 604/226/255 634/223/285 633/222/284
f 603/227/254 635/228/286 636/229/287 604/230/255
f 607/231/258 637/232/288 635/228/286 603/227/254
f 610/233/261 638/234/289 637/232/288 607/231/258
f 613/235/264 639/236/290 638/234/289 610/233/261
f 616/237/267 640/238/291 639/236/290 613/235/264
f 619/239/270 641/240/292 640/238/291 616/237/267
f 622/241/273 642/242/293 641/240/292 619/239/270
f 625/243/276 643/244/294 642/242/293 622/241/273
f 625/243/276 628/245/279 644/246/295 643/244/294
f 628/245/279 630/247/281 645/248/296 644/246/295
f 634/249/285 646/250/297 645/248/296 630/247/281
f 646/250/297 634/249/285 604/251/255 636/252/287
f 504/253/458 506/254/458 501/255/458 503/256/458
f 502/95/226 647/257/298 507/258/298 503/96/226
f 501/259/459 506/260/459 505/261/459 502/262/459
f 507/263/460 647/264/460 505/98/227 504/97/227
f 513/254/461 508/255/461 510/256/461 511/253/461
f 509/95/231 648/257/299 514/258/299 510/96/231
f 512/261/462 509/262/462 508/259/462 513/260/462
f 514/263/463 648/264/463 512/98/232 511/97/232
f 520/265/464 515/266/464 517/267/464 518/268/464
f 516/104/236 649/269/300 521/270/300 517/105/236
f 519/271/465 516/272/465 515/273/465 520/274/465
f 521/275/466 649/276/466 519/107/237 518/106/237
f 525/268/467 527/265/467 522/266/467 524/267/467
f 523/104/241 650/269/301 528/270/301 524/105/241
f 526/271/468 523/272/468 522/273/468 527/274/468
f 528/275/469 650/276/469 526/107/242 525/106/242
f 651/277/48 574/278/470 579/279/470 652/280/48
f 574/278/470 573/281/471 580/282/471 579/279/470
f 572/283/473 578/284/473 580/282/472 573/281/472
f 572/283/473 570/285/474 577/286/474 578/284/473
f 570/285/474 569/287/475 575/288/475 577/286/474
f 569/287/476 571/289/477 576/290/477 575/288/476
f 653/291/54 654/292/54 576/290/477 571/289/477
f 655/293/48 550/294/478 555/295/478 656/296/48
f 550/294/478 549/297/479 556/298/479 555/295/478
f 548/299/481 554/300/481 556/298/480 549/297/480
f 548/299/481 546/301/474 553/302/474 554/300/481
f 546/301/474 545/303/475 551/304/475 553/302/474
f 545/303/482 547/305/483 552/306/483 551/304/482
f 657/307/54 658/308/54 552/306/483 547/305/483
f 659/309/48 562/310/478 567/311/478 660/312/48
f 562/310/478 561/313/479 568/314/479 567/311/478
f 560/315/485 566/316/485 568/314/484 561/313/484
f 560/315/485 558/317/474 565/318/474 566/316/485
f 558/317/474 557/319/475 563/320/475 565/318/474
f 557/319/482 559/321/483 564/322/483 563/320/482
f 661/323/54 662/324/54 564/322/483 559/321/483
f 547/132/92 550/135/92 655/325/92 657/326/92
f 546/131/92 548/133/92 550/135/92 547/132/92
f 555/140/93 554/139/93 553/138/93 552/137/93
f 658/327/93 656/328/93 555/140/93 552/137/93
f 559/144/92 562/147/92 659/329/92 661/330/92
f 558/143/92 560/145/92 562/147/92 559/144/92
f 567/152/93 566/151/93 565/150/93 564/149/93
f 662/331/93 660/332/93 567/152/93 564/149/93
f 571/156/92 574/159/92 651/333/92 653/334/92
f 570/155/92 572/157/92 574/159/92 571/156/92
f 579/164/93 578/163/93 577/162/93 576/161/93
f 654/335/93 652/336/93 579/164/93 576/161/93
f 663/337/93 664/338/93 620/339/93 617/340/93
f 614/341/93 665/342/93 663/337/93 617/340/93
f 611/343/93 666/344/93 665/342/93 614/341/93
f 666/344/487 585/170/487 582/167/486 665/342/486
f 582/167/486 581/166/488 663/337/488 665/342/486
f 663/337/488 581/166/488 583/168/489 664/338/489
f 585/170/93 584/169/93 583/168/93 582/167/93
f 611/343/93 608/345/93 667/346/93 666/344/93
f 667/346/302 668/347/302 585/170/487 666/344/487
f 669/348/93 623/349/93 620/339/93 664/338/93
f 583/168/489 584/169/490 669/348/490 664/338/489
f 668/347/93 670/350/93 586/171/93 585/170/93
f 671/351/303 669/348/490 584/169/490 586/171/303
f 670/350/304 672/352/304 671/351/303 586/171/303
f 673/353/93 674/354/93 670/350/93 668/347/93
f 667/346/302 675/355/305 673/353/305 668/347/302
f 605/356/93 675/355/93 667/346/93 608/345/93
f 671/351/93 626/357/93 623/349/93 669/348/93
f 674/354/306 676/358/306 672/352/304 670/350/304
f 675/355/305 677/359/307 678/360/307 673/353/305
f 678/360/93 679/361/93 674/354/93 673/353/93
f 631/362/93 626/357/93 671/351/93 672/352/93
f 676/358/93 632/363/93 631/362/93 672/352/93
f 599/364/93 677/359/93 675/355/93 605/356/93
f 674/354/306 679/361/308 680/365/308 676/358/306
f 678/360/307 677/359/307 680/365/308 679/361/308
f 599/364/93 602/366/93 680/365/93 677/359/93
f 680/365/93 602/366/93 632/363/93 676/358/93
f 681/367/309 682/368/310 683/369/311
f 681/367/309 684/370/312 682/368/310
f 681/367/309 685/371/313 684/370/312
f 681/367/309 686/372/314 685/371/313
f 681/367/491 687/373/315 686/372/314
f 681/367/491 688/374/316 687/373/315
f 681/367/491 689/375/317 688/374/316
f 681/367/491 690/376/318 689/375/317
f 681/367/492 691/377/319 690/376/318
f 681/367/492 692/378/320 691/377/319
f 681/367/492 693/379/321 692/378/320
f 681/367/492 683/369/311 693/379/321
f 694/380/322 695/381/323 636/382/287 635/383/286
f 637/384/288 696/385/324 694/380/322 635/383/286
f 696/385/324 692/378/320 693/379/321 694/380/322
f 693/379/321 683/369/311 695/381/323 694/380/322
f 638/386/289 697/387/325 696/385/324 637/384/288
f 697/387/325 691/377/319 692/378/320 696/385/324
f 638/386/289 639/388/290 698/389/326 697/387/325
f 690/376/318 691/377/319 697/387/325 698/389/326
f 639/388/290 640/390/291 699/391/327 698/389/326
f 699/391/327 689/375/317 690/376/318 698/389/326
f 641/392/292 700/393/328 699/391/327 640/390/291
f 700/393/328 688/374/316 689/375/317 699/391/327
f 641/392/292 642/394/293 701/395/329 700/393/328
f 700/393/328 701/395/329 687/373/315 688/374/316
f 643/396/294 702/397/330 701/395/329 642/394/293
f 702/397/330 686/372/314 687/373/315 701/395/329
f 644/398/295 703/399/331 702/397/330 643/396/294
f 703/399/331 685/371/313 686/372/314 702/397/330
f 644/398/295 645/400/296 704/401/332 703/399/331
f 703/399/331 704/401/332 684/370/312 685/371/313
f 645/400/296 646/402/297 705/403/333 704/401/332
f 682/368/310 684/370/312 704/401/332 705/403/333
f 636/382/287 695/381/323 705/403/333 646/402/297
f 695/381/323 683/369/311 682/368/310 705/403/333
# 654 elements

