# Created by Metasequoia

mtllib weapon_mount_twin_pl12.mtl

v -0.121059 0.539634 -0.819610
v -0.169677 0.539634 -0.839853
v -0.184712 0.539634 -0.862324
v -0.189795 0.539634 -0.888399
v -0.184712 0.539634 -0.914936
v -0.169677 0.539634 -0.936962
v -0.121059 0.539634 -0.957204
v -0.066059 0.483883 -0.819610
v -0.066059 0.483883 -0.957204
v -0.086425 0.521781 -0.957204
v -0.086425 0.521781 -0.819610
v -0.121059 0.569250 -0.819610
v -0.169677 0.569250 -0.839853
v -0.184712 0.569250 -0.862324
v -0.189795 0.569250 -0.888399
v -0.184712 0.569250 -0.914936
v -0.169677 0.569250 -0.936962
v -0.121059 0.569250 -0.957204
v -0.066059 0.569250 -0.819610
v -0.066059 0.569250 -0.957204
v -0.086425 0.569250 -0.957204
v -0.086425 0.569250 -0.819610
v -0.121059 0.539634 0.182406
v -0.169677 0.539634 0.162164
v -0.184712 0.539634 0.139692
v -0.189795 0.539634 0.113618
v -0.184712 0.539634 0.087080
v -0.169677 0.539634 0.065055
v -0.121059 0.539634 0.044811
v -0.066059 0.483883 0.182406
v -0.066059 0.483883 0.044811
v -0.086425 0.521781 0.044811
v -0.086425 0.521781 0.182406
v -0.121059 0.569250 0.182406
v -0.169677 0.569250 0.162164
v -0.184712 0.569250 0.139692
v -0.189795 0.569250 0.113618
v -0.184712 0.569250 0.087080
v -0.169677 0.569250 0.065055
v -0.121059 0.569250 0.044811
v -0.066059 0.569250 0.182406
v -0.066059 0.569250 0.044811
v -0.086425 0.569250 0.044811
v -0.086425 0.569250 0.182406
v -0.000388 0.560322 0.840708
v -0.000388 0.560322 -1.418064
v 0.067965 0.560322 -1.360397
v 0.067965 0.560322 0.772961
v -0.000388 0.316553 1.002838
v -0.000388 0.316553 -1.544372
v 0.067965 0.316553 -1.486706
v 0.067965 0.316553 0.940753
v 0.067965 0.439398 -1.453199
v -0.000388 0.439398 -1.510863
v -0.068739 0.560322 -1.360397
v -0.068739 0.560322 0.772961
v -0.068739 0.316553 -1.486706
v -0.068739 0.316553 0.940753
v -0.068739 0.439398 -1.453199
v 0.067965 0.439398 0.882447
v -0.068739 0.439398 0.882447
v -0.000388 0.439398 0.947230
v 0.121059 0.539634 -0.819610
v 0.169677 0.539634 -0.839853
v 0.184712 0.539634 -0.862324
v 0.189795 0.539634 -0.888399
v 0.184712 0.539634 -0.914936
v 0.169677 0.539634 -0.936962
v 0.121059 0.539634 -0.957204
v 0.066059 0.483883 -0.819610
v 0.066059 0.483883 -0.957204
v 0.086425 0.521781 -0.957204
v 0.086425 0.521781 -0.819610
v 0.121059 0.569250 -0.819610
v 0.169677 0.569250 -0.839853
v 0.184712 0.569250 -0.862324
v 0.189795 0.569250 -0.888399
v 0.184712 0.569250 -0.914936
v 0.169677 0.569250 -0.936962
v 0.121059 0.569250 -0.957204
v 0.066059 0.569250 -0.819610
v 0.066059 0.569250 -0.957204
v 0.086425 0.569250 -0.957204
v 0.086425 0.569250 -0.819610
v 0.121059 0.539634 0.182406
v 0.169677 0.539634 0.162164
v 0.184712 0.539634 0.139692
v 0.189795 0.539634 0.113618
v 0.184712 0.539634 0.087080
v 0.169677 0.539634 0.065055
v 0.121059 0.539634 0.044811
v 0.066059 0.483883 0.182406
v 0.066059 0.483883 0.044811
v 0.086425 0.521781 0.044811
v 0.086425 0.521781 0.182406
v 0.121059 0.569250 0.182406
v 0.169677 0.569250 0.162164
v 0.184712 0.569250 0.139692
v 0.189795 0.569250 0.113618
v 0.184712 0.569250 0.087080
v 0.169677 0.569250 0.065055
v 0.121059 0.569250 0.044811
v 0.066059 0.569250 0.182406
v 0.066059 0.569250 0.044811
v 0.086425 0.569250 0.044811
v 0.086425 0.569250 0.182406
v -0.077542 0.321656 -0.956430
v -0.077542 0.246785 -0.956430
v 0.077540 0.321656 -0.956430
v 0.077540 0.246785 -0.956430
v 0.077540 0.321656 -1.126080
v 0.077540 0.246785 -1.126080
v -0.077542 0.321656 -1.126080
v -0.077542 0.246785 -1.126080
v -0.077542 0.321656 0.415105
v -0.077542 0.246785 0.415105
v 0.077540 0.321656 0.415105
v 0.077540 0.246785 0.415105
v 0.077540 0.321656 0.584755
v 0.077540 0.246785 0.584755
v -0.077542 0.321656 0.584755
v -0.077542 0.246785 0.584755
v -0.000002 0.307284 1.197269
v -0.000002 0.307284 -1.824906
v -0.072197 0.307284 -1.787011
v -0.072197 0.307284 1.152750
v -0.000002 0.119227 1.303809
v -0.000002 0.119227 -1.907906
v -0.072197 0.119227 -1.870013
v -0.072197 0.119227 1.263011
v -0.072197 0.213996 -1.847994
v -0.000002 0.213996 -1.885888
v 0.072195 0.307284 -1.787011
v 0.072195 0.307284 1.152750
v 0.072195 0.119227 -1.870013
v 0.072195 0.119227 1.263011
v 0.072195 0.213996 -1.847994
v -0.072197 0.213996 1.224697
v 0.072195 0.213996 1.224697
v -0.000002 0.213996 1.267267
v -0.027025 0.367381 -1.013686
v -0.027025 0.201060 -1.013686
v 0.027023 0.367381 -1.013686
v 0.027023 0.201060 -1.013686
v 0.027023 0.367381 -1.068823
v 0.027023 0.201060 -1.068823
v -0.027025 0.367381 -1.068823
v -0.027025 0.201060 -1.068823
v -0.027025 0.367381 0.472362
v -0.027025 0.201060 0.472362
v 0.027023 0.367381 0.472362
v 0.027023 0.201060 0.472362
v 0.027023 0.367381 0.527498
v 0.027023 0.201060 0.527498
v -0.027025 0.367381 0.527498
v -0.027025 0.201060 0.527498
v -0.257599 -0.258024 -2.392808
v -0.085447 -0.085284 -2.299463
v -0.294965 -0.299084 -2.310094
v -0.291717 -0.302335 -2.310094
v -0.077914 -0.092817 -2.299463
v -0.250655 -0.264965 -2.392808
v -0.136258 -0.143627 -1.950878
v 0.257595 0.243285 -2.392808
v 0.085447 0.070545 -2.299463
v 0.294965 0.284347 -2.310094
v 0.291714 0.287596 -2.310094
v 0.077914 0.078078 -2.299463
v 0.250651 0.250229 -2.392808
v 0.136257 0.128888 -1.950878
v -0.250655 0.250229 -2.392808
v -0.077914 0.078078 -2.299463
v -0.291717 0.287596 -2.310094
v -0.294965 0.284347 -2.310094
v -0.085447 0.070545 -2.299463
v -0.257599 0.243285 -2.392808
v -0.136258 0.128888 -1.950878
v 0.250651 -0.264965 -2.392808
v 0.077914 -0.092817 -2.299463
v 0.291714 -0.302335 -2.310094
v 0.294965 -0.299084 -2.310094
v 0.085447 -0.085284 -2.299463
v 0.257595 -0.258024 -2.392808
v 0.136257 -0.143627 -1.950878
v 0.088252 0.067185 -0.503080
v 0.081383 0.074016 0.033825
v 0.286694 0.279324 -0.503080
v 0.074554 0.080885 -0.503080
v -0.088255 -0.081924 -0.503080
v -0.081386 -0.088752 0.033825
v -0.286694 -0.294064 -0.503080
v -0.074554 -0.095622 -0.503080
v -0.074554 0.080885 -0.503080
v -0.081386 0.074016 0.033825
v -0.286694 0.279324 -0.503080
v -0.088255 0.067185 -0.503080
v 0.074554 -0.095622 -0.503080
v 0.081383 -0.088752 0.033825
v 0.286694 -0.294064 -0.503080
v 0.088252 -0.081924 -0.503080
v -0.030538 0.120617 1.218855
v -0.023412 0.129332 1.218855
v -0.023412 0.116037 1.218855
v 0.023430 0.129332 1.218855
v 0.030538 0.120617 1.218855
v 0.023430 0.116037 1.218855
v -0.030538 0.120617 1.158000
v -0.023412 0.116037 1.158000
v -0.023412 0.129332 1.158000
v 0.023430 0.129332 1.158000
v 0.023430 0.116037 1.158000
v 0.030538 0.120617 1.158000
v -0.030538 0.120617 -0.228645
v -0.023412 0.129332 -0.228645
v -0.023412 0.116037 -0.228645
v 0.023430 0.129332 -0.228645
v 0.030538 0.120617 -0.228645
v 0.023430 0.116037 -0.228645
v -0.030538 0.120617 -0.289796
v -0.023412 0.116037 -0.289796
v -0.023412 0.129332 -0.289796
v 0.023430 0.129332 -0.289796
v 0.023430 0.116037 -0.289796
v 0.030538 0.120617 -0.289796
v -0.030538 0.120617 -1.442896
v -0.023412 0.129332 -1.442896
v -0.023412 0.116037 -1.442896
v 0.023427 0.129332 -1.442896
v 0.030538 0.120617 -1.442896
v 0.023427 0.116037 -1.442896
v -0.030538 0.120617 -1.504339
v -0.023412 0.116037 -1.504339
v -0.023412 0.129332 -1.504339
v 0.023427 0.129332 -1.504339
v 0.023427 0.116037 -1.504339
v 0.030538 0.120617 -1.504339
v -0.000037 0.059062 -2.323094
v -0.033216 0.050161 -2.323094
v 0.033212 0.050161 -2.323094
v 0.057530 0.025846 -2.323094
v -0.057531 0.025846 -2.323094
v 0.066428 -0.007407 -2.323094
v 0.006078 -0.135058 0.635718
v -0.006081 -0.135058 0.635718
v -0.006081 -0.120659 0.635718
v 0.006078 -0.120659 0.635718
v 0.025348 -0.139712 0.546505
v -0.025351 -0.139712 0.546505
v 0.025348 -0.120659 0.546505
v 0.025348 -0.120659 -2.227381
v 0.025348 -0.139712 -2.227381
v -0.025351 -0.139712 -2.227381
v -0.025351 -0.120659 0.546505
v -0.025351 -0.120659 -2.227381
v -0.051918 -0.097322 -2.362087
v -0.061409 -0.113716 -2.314822
v 0.000037 -0.130184 -2.314822
v 0.000037 -0.111206 -2.362087
v -0.061409 -0.113716 -0.188619
v 0.000037 -0.130184 -0.188619
v -0.089952 -0.059288 -2.362087
v -0.106349 -0.068778 -2.314822
v -0.106349 -0.068778 -0.188619
v -0.103836 -0.007407 -2.362087
v -0.122817 -0.007407 -2.314822
v -0.122817 -0.007407 -0.188619
v -0.089952 0.044548 -2.362087
v -0.106349 0.054039 -2.314822
v -0.106349 0.054039 -0.188619
v -0.051918 0.082583 -2.362087
v -0.061409 0.098979 -2.314822
v -0.061409 0.098979 -0.188619
v 0.000037 0.096466 -2.362087
v 0.000037 0.115448 -2.314822
v 0.000037 0.115448 -0.188619
v 0.051918 0.082583 -2.362087
v 0.061405 0.098979 -2.314822
v 0.061409 0.098979 -0.188619
v 0.089952 0.044548 -2.362087
v 0.106346 0.054039 -2.314822
v 0.106346 0.054039 -0.188619
v 0.103836 -0.007407 -2.362087
v 0.122814 -0.007407 -2.314822
v 0.122814 -0.007407 -0.188619
v 0.106346 -0.068778 -2.314822
v 0.106346 -0.068778 -0.188619
v 0.089952 -0.059288 -2.362087
v 0.051918 -0.097322 -2.362087
v 0.061405 -0.113716 -2.314822
v 0.061409 -0.113716 -0.188619
v -0.061409 -0.113716 1.985147
v 0.000037 -0.130184 1.985147
v -0.106346 -0.068778 1.985147
v -0.122817 -0.007332 1.985147
v -0.106346 0.054039 1.985147
v -0.061409 0.098979 1.985147
v 0.000037 0.115448 1.985147
v 0.061409 0.098979 1.985147
v 0.106346 0.054039 1.985147
v 0.122814 -0.007332 1.985147
v 0.106346 -0.068778 1.985147
v 0.061409 -0.113716 1.985147
v -0.081681 -0.089050 -1.996964
v 0.081681 0.074311 -1.996964
v -0.081681 0.074311 -1.996964
v 0.081681 -0.089050 -1.996964
v 0.023427 0.108873 -1.442896
v 0.023427 0.108873 -1.504339
v -0.023412 0.108873 -1.442896
v -0.023412 0.108873 -1.504339
v 0.023430 0.108284 1.218855
v 0.023430 0.108284 1.158000
v -0.023412 0.108284 1.218855
v -0.023412 0.108284 1.158000
v 0.023430 0.108873 -0.228645
v 0.023430 0.108873 -0.289796
v -0.023412 0.108873 -0.228645
v -0.023412 0.108873 -0.289796
v 0.000037 0.078521 -2.362087
v 0.042942 0.067001 -2.362087
v -0.042945 0.067001 -2.362087
v -0.074371 0.035576 -2.362087
v -0.085891 -0.007407 -2.362087
v -0.066432 -0.007407 -2.323094
v 0.074368 0.035576 -2.362087
v 0.057530 -0.040582 -2.323094
v 0.085888 -0.007407 -2.362087
v 0.074368 -0.050315 -2.362087
v -0.057531 -0.040582 -2.323094
v 0.033212 -0.064900 -2.323094
v -0.074371 -0.050315 -2.362087
v 0.042942 -0.081738 -2.362087
v -0.042945 -0.081738 -2.362087
v -0.033216 -0.064900 -2.323094
v -0.000037 -0.073798 -2.323094
v 0.000037 -0.093257 -2.362087
v 0.000037 -0.007332 2.392808
v 0.037960 -0.073134 2.217927
v 0.000037 -0.083289 2.217927
v 0.065765 -0.045329 2.217927
v 0.075919 -0.007332 2.217927
v 0.065765 0.030590 2.217927
v 0.037960 0.058395 2.217927
v 0.000037 0.068550 2.217927
v -0.037960 0.058395 2.217927
v -0.065764 0.030590 2.217927
v -0.075919 -0.007332 2.217927
v -0.065764 -0.045329 2.217927
v -0.037960 -0.073134 2.217927
v -0.052656 -0.098575 2.112761
v 0.000037 -0.112682 2.112761
v -0.091208 -0.060026 2.112761
v -0.105313 -0.007332 2.112761
v -0.091208 0.045287 2.112761
v -0.052656 0.083839 2.112761
v 0.000037 0.097943 2.112761
v 0.052657 0.083839 2.112761
v 0.091206 0.045287 2.112761
v 0.105313 -0.007332 2.112761
v 0.091206 -0.060026 2.112761
v 0.052657 -0.098575 2.112761
# 361 vertices

vt 0.97360 0.75920
vt 0.96410 0.75825
vt 0.95480 0.75920
vt 0.98140 0.76180
vt 0.94700 0.76180
vt 0.98880 0.77755
vt 0.93970 0.77755
vt 0.93970 0.78525
vt 0.98880 0.78525
vt 0.98880 0.77045
vt 0.93970 0.77045
vt 0.58767 0.67615
vt 0.58767 0.68515
vt 0.92987 0.68615
vt 0.95048 0.67489
vt 0.08948 0.81747
vt 0.08129 0.80938
vt 0.08796 0.80938
vt 0.09636 0.81747
vt 0.08111 0.80960
vt 0.56711 0.80960
vt 0.55785 0.81747
vt 0.11754 0.82677
vt 0.51314 0.82677
vt 0.57407 0.81747
vt 0.58287 0.80960
vt 0.57056 0.80960
vt 0.56140 0.81747
vt 0.52890 0.82677
vt 0.51659 0.82677
vt 0.12443 0.82705
vt 0.11754 0.82705
vt 0.41383 0.61033
vt 0.49384 0.61033
vt 0.49384 0.57200
vt 0.41383 0.57200
vt 0.19285 0.51534
vt 0.19642 0.51534
vt 0.19206 0.50320
vt 0.18861 0.50320
vt 0.18851 0.50353
vt 0.84506 0.51534
vt 0.84838 0.50353
vt 0.20740 0.52673
vt 0.82895 0.52673
vt 0.85026 0.51534
vt 0.85343 0.50353
vt 0.83400 0.52673
vt 0.21096 0.52673
vt 0.19821 0.51760
vt 0.83814 0.51787
vt 0.82812 0.52672
vt 0.20576 0.52668
vt 0.67298 0.53551
vt 0.70210 0.53551
vt 0.70210 0.52114
vt 0.67298 0.52114
vt 0.76330 0.43245
vt 0.76330 0.47135
vt 0.80970 0.42925
vt 0.70570 0.42925
vt 0.75160 0.47150
vt 0.75160 0.43245
vt 0.93320 0.47885
vt 0.81310 0.42835
vt 0.81160 0.42880
vt 0.76560 0.43340
vt 0.76580 0.47195
vt 0.81290 0.43025
vt 0.70620 0.43025
vt 0.75350 0.47195
vt 0.75380 0.43340
vt 0.93990 0.47920
vt 0.81670 0.42920
vt 0.81490 0.42965
vt 0.63260 0.16115
vt 0.62660 0.29269
vt 0.77970 0.16115
vt 0.63260 0.15460
vt 0.63260 0.15965
vt 0.77970 0.15725
vt 0.63260 0.01760
vt 0.63326 0.14823
vt 0.77471 0.14906
vt 0.62720 0.16065
vt 0.62770 0.29285
vt 0.77940 0.16115
vt 0.62720 0.15440
vt 0.62720 0.15915
vt 0.77574 0.15878
vt 0.62720 0.02125
vt 0.62786 0.14803
vt 0.78671 0.14876
vt 0.81110 0.30290
vt 0.81600 0.30560
vt 0.81600 0.30145
vt 0.84580 0.30560
vt 0.85020 0.30290
vt 0.84580 0.30145
vt 0.89320 0.30290
vt 0.88830 0.30145
vt 0.88830 0.30560
vt 0.85850 0.30560
vt 0.85850 0.30145
vt 0.85360 0.30290
vt 0.81180 0.30280
vt 0.81620 0.30545
vt 0.81620 0.30130
vt 0.84650 0.30545
vt 0.85090 0.30280
vt 0.84650 0.30130
vt 0.89290 0.30280
vt 0.88850 0.30130
vt 0.88850 0.30545
vt 0.85820 0.30545
vt 0.85820 0.30130
vt 0.85380 0.30280
vt 0.81150 0.30270
vt 0.81640 0.30565
vt 0.81640 0.30125
vt 0.84620 0.30565
vt 0.85110 0.30270
vt 0.84620 0.30125
vt 0.89310 0.30270
vt 0.88870 0.30125
vt 0.88870 0.30565
vt 0.85890 0.30565
vt 0.85890 0.30125
vt 0.85400 0.30270
vt 0.38430 0.41885
vt 0.36750 0.42105
vt 0.40160 0.42105
vt 0.41430 0.42710
vt 0.35480 0.42710
vt 0.41970 0.43540
vt 0.97900 0.25455
vt 0.97360 0.25455
vt 0.97410 0.25605
vt 0.97900 0.25610
vt 0.98680 0.24510
vt 0.96580 0.24510
vt 0.98530 0.25495
vt 0.99460 0.24510
vt 0.99460 0.00545
vt 0.98680 0.00545
vt 0.96580 0.00545
vt 0.95800 0.24510
vt 0.96780 0.25495
vt 0.95800 0.00545
vt 0.98680 0.00350
vt 0.96580 0.00350
vt 0.59160 0.00290
vt 0.59160 0.01300
vt 0.61700 0.01300
vt 0.61700 0.00290
vt 0.59160 0.36790
vt 0.61700 0.36790
vt 0.56670 0.00290
vt 0.56670 0.01300
vt 0.56670 0.36790
vt 0.54130 0.00290
vt 0.54130 0.01300
vt 0.54130 0.36790
vt 0.51590 0.00290
vt 0.51590 0.01300
vt 0.51590 0.36790
vt 0.49100 0.00290
vt 0.49100 0.01300
vt 0.49100 0.36790
vt 0.46560 0.00290
vt 0.46560 0.01300
vt 0.46560 0.36790
vt 0.44050 0.00290
vt 0.44050 0.01300
vt 0.44050 0.36790
vt 0.41510 0.00290
vt 0.41510 0.01300
vt 0.41510 0.36790
vt 0.38990 0.00290
vt 0.38990 0.01300
vt 0.38990 0.36790
vt 0.36480 0.01300
vt 0.36480 0.36790
vt 0.36480 0.00290
vt 0.33940 0.00290
vt 0.33940 0.01300
vt 0.33940 0.36790
vt 0.31430 0.00290
vt 0.31430 0.01300
vt 0.31430 0.36790
vt 0.28580 0.00365
vt 0.28560 0.46534
vt 0.31110 0.46534
vt 0.31110 0.00365
vt 0.26030 0.00365
vt 0.26030 0.46534
vt 0.23510 0.00365
vt 0.23500 0.46534
vt 0.20970 0.00365
vt 0.20970 0.46534
vt 0.18440 0.00365
vt 0.18430 0.46534
vt 0.15900 0.00365
vt 0.15900 0.46534
vt 0.13370 0.00365
vt 0.13370 0.46534
vt 0.10840 0.00365
vt 0.10830 0.46534
vt 0.08300 0.00365
vt 0.08300 0.46534
vt 0.05770 0.00365
vt 0.05760 0.46534
vt 0.03240 0.00365
vt 0.03230 0.46534
vt 0.00700 0.00365
vt 0.00700 0.46534
vt 0.80820 0.42785
vt 0.76180 0.43030
vt 0.76230 0.43170
vt 0.80870 0.42850
vt 0.89750 0.48770
vt 0.93120 0.47930
vt 0.75990 0.43245
vt 0.75500 0.43245
vt 0.75500 0.47150
vt 0.75990 0.47135
vt 0.58360 0.47945
vt 0.61730 0.48770
vt 0.76380 0.43115
vt 0.76480 0.43265
vt 0.81220 0.42935
vt 0.81190 0.42875
vt 0.90360 0.48800
vt 0.93820 0.47980
vt 0.75700 0.47195
vt 0.76230 0.47195
vt 0.76200 0.43340
vt 0.75730 0.43340
vt 0.58130 0.47980
vt 0.61570 0.48800
vt 0.81980 0.32640
vt 0.82420 0.32640
vt 0.82420 0.30685
vt 0.81980 0.30685
vt 0.82960 0.32640
vt 0.82960 0.30685
vt 0.83690 0.32640
vt 0.83690 0.30685
vt 0.86720 0.32640
vt 0.86720 0.30685
vt 0.87400 0.32640
vt 0.87450 0.30685
vt 0.87990 0.32640
vt 0.87990 0.30685
vt 0.88430 0.32640
vt 0.88430 0.30685
vt 0.81940 0.32660
vt 0.82430 0.32660
vt 0.82430 0.30705
vt 0.81940 0.30705
vt 0.82970 0.32660
vt 0.82970 0.30705
vt 0.83700 0.32660
vt 0.83700 0.30705
vt 0.86730 0.32660
vt 0.86730 0.30705
vt 0.87410 0.32660
vt 0.87410 0.30705
vt 0.87950 0.32660
vt 0.87950 0.30705
vt 0.88490 0.32660
vt 0.88490 0.30705
vt 0.82060 0.32620
vt 0.82500 0.32620
vt 0.82500 0.30670
vt 0.82060 0.30670
vt 0.83040 0.32620
vt 0.83090 0.30670
vt 0.83770 0.32620
vt 0.83770 0.30670
vt 0.86800 0.32620
vt 0.86800 0.30670
vt 0.87530 0.32620
vt 0.87530 0.30670
vt 0.88070 0.32620
vt 0.88070 0.30670
vt 0.88510 0.32620
vt 0.88510 0.30670
vt 0.84580 0.29875
vt 0.81600 0.29875
vt 0.88830 0.29875
vt 0.85850 0.29875
vt 0.84650 0.29885
vt 0.81620 0.29885
vt 0.88850 0.29885
vt 0.85820 0.29885
vt 0.84620 0.29905
vt 0.81640 0.29905
vt 0.88870 0.29905
vt 0.85890 0.29905
vt 0.38430 0.40645
vt 0.41380 0.41030
vt 0.41970 0.40495
vt 0.38430 0.40030
vt 0.34930 0.40495
vt 0.35520 0.41030
vt 0.32300 0.41775
vt 0.33340 0.42085
vt 0.31300 0.43540
vt 0.32530 0.43540
vt 0.34930 0.43540
vt 0.43560 0.42085
vt 0.44610 0.41775
vt 0.41430 0.44365
vt 0.44330 0.43540
vt 0.43560 0.44995
vt 0.35480 0.44365
vt 0.40160 0.44970
vt 0.33340 0.44995
vt 0.32300 0.45305
vt 0.45560 0.43540
vt 0.41380 0.46050
vt 0.35520 0.46050
vt 0.36750 0.44970
vt 0.38430 0.45190
vt 0.44610 0.45305
vt 0.41970 0.46580
vt 0.34930 0.46580
vt 0.38430 0.46435
vt 0.38430 0.47045
vt 0.48615 0.47104
vt 0.49544 0.46296
vt 0.48615 0.46171
vt 0.50225 0.46637
vt 0.50474 0.47104
vt 0.50225 0.47570
vt 0.49544 0.47911
vt 0.48615 0.48036
vt 0.47684 0.47911
vt 0.47003 0.47570
vt 0.46754 0.47104
vt 0.47003 0.46637
vt 0.47684 0.46296
vt 0.47324 0.45983
vt 0.48615 0.45810
vt 0.48615 0.45595
vt 0.47110 0.45798
vt 0.46009 0.46349
vt 0.46380 0.46457
vt 0.45606 0.47104
vt 0.46034 0.47104
vt 0.46009 0.47858
vt 0.46380 0.47750
vt 0.47110 0.48410
vt 0.47324 0.48224
vt 0.48615 0.48612
vt 0.48615 0.48397
vt 0.50118 0.48410
vt 0.49904 0.48224
vt 0.51219 0.47858
vt 0.50848 0.47750
vt 0.51622 0.47104
vt 0.51194 0.47104
vt 0.51219 0.46349
vt 0.50848 0.46457
vt 0.50118 0.45798
vt 0.49904 0.45983
# 367 texture vertices

vn -0.23573 -0.97182 0.00000
vn -0.63486 0.00000 0.77262
vn 0.00000 -1.00000 0.00000
vn -0.63127 0.00000 -0.77557
vn -0.88086 -0.47338 0.00000
vn -0.70101 -0.71315 0.00000
vn 0.00000 1.00000 0.00000
vn -0.23573 -0.97182 0.00000
vn -0.63487 0.00000 0.77262
vn -0.63127 0.00000 -0.77556
vn -0.88086 -0.47338 0.00000
vn -0.70101 -0.71315 0.00000
vn -0.00000 0.93084 0.36542
vn 0.33384 0.87744 0.34445
vn 0.89636 0.19968 -0.39582
vn 0.60165 0.35976 -0.71316
vn -0.33385 0.87744 0.34445
vn -0.89636 0.19967 -0.39581
vn 0.90064 0.24024 0.36211
vn -0.90065 0.24024 0.36210
vn -0.61951 0.43397 0.65412
vn 0.23573 -0.97182 0.00000
vn 0.63486 0.00000 0.77262
vn 0.63127 0.00000 -0.77557
vn 0.88086 -0.47338 0.00000
vn 0.70101 -0.71315 0.00000
vn 0.23573 -0.97182 0.00000
vn 0.63487 0.00000 0.77262
vn 0.63127 0.00000 -0.77556
vn 0.88086 -0.47338 0.00000
vn 0.70101 -0.71315 0.00000
vn 0.00000 0.00000 1.00000
vn 1.00000 0.00000 0.00000
vn 0.00000 0.00000 -1.00000
vn -0.00000 0.90705 0.42103
vn -0.00000 0.89063 -0.45472
vn -1.00000 0.00000 0.00000
vn -0.00001 0.36728 0.93011
vn -0.00001 0.22631 -0.97405
vn -0.45522 0.20151 -0.86728
vn -0.43434 0.35582 -0.82749
vn -0.00001 0.39503 -0.91867
vn 0.45521 0.20151 -0.86728
vn 0.43433 0.35582 -0.82750
vn -0.00001 0.49235 0.87040
vn -0.71462 0.69910 0.02421
vn -0.71226 0.70169 0.01768
vn 0.70169 -0.71226 0.01767
vn 0.69909 -0.71462 0.02419
vn -0.60167 -0.60112 0.52597
vn 0.71462 -0.69910 0.02419
vn 0.71226 -0.70169 0.01767
vn -0.70169 0.71226 0.01768
vn -0.69910 0.71462 0.02423
vn 0.60121 0.60158 0.52597
vn 0.69909 0.71462 0.02422
vn 0.70169 0.71226 0.01768
vn -0.71226 -0.70169 0.01768
vn -0.71462 -0.69909 0.02423
vn -0.60149 0.60130 0.52597
vn -0.69910 -0.71461 0.02420
vn -0.70169 -0.71226 0.01767
vn 0.71226 0.70169 0.01766
vn 0.71461 0.69910 0.02418
vn 0.60140 -0.60140 0.52597
vn 0.73017 -0.68303 0.01803
vn -0.73018 0.68302 0.01803
vn 0.68302 0.73018 0.01803
vn -0.68302 -0.73017 0.01803
vn 0.00000 -0.99966 0.02606
vn 0.99435 0.00000 0.10617
vn -0.99435 0.00000 0.10617
vn -0.46395 -0.80386 -0.37223
vn -0.49084 -0.85028 -0.18999
vn 0.00016 -0.98178 -0.19001
vn 0.00016 -0.92813 -0.37225
vn -0.50002 -0.86602 0.00000
vn 0.00015 -1.00000 -0.00000
vn -0.80379 -0.46409 -0.37221
vn -0.85020 -0.49099 -0.18998
vn -0.86595 -0.50013 0.00000
vn -0.92812 -0.00015 -0.37228
vn -0.98178 -0.00016 -0.19003
vn -1.00000 -0.00008 0.00000
vn -0.80386 0.46395 -0.37224
vn -0.85028 0.49084 -0.18999
vn -0.86599 0.50006 -0.00000
vn -0.46395 0.80386 -0.37224
vn -0.49085 0.85028 -0.18999
vn -0.50003 0.86601 0.00000
vn 0.00016 0.92812 -0.37227
vn 0.00016 0.98178 -0.19002
vn 0.00015 1.00000 -0.00000
vn 0.46410 0.80379 -0.37220
vn 0.49099 0.85020 -0.18997
vn 0.50017 0.86593 -0.00000
vn 0.80386 0.46396 -0.37222
vn 0.85028 0.49084 -0.18998
vn 0.86600 0.50005 -0.00000
vn 0.92813 -0.00016 -0.37226
vn 0.98178 -0.00016 -0.19002
vn 1.00000 -0.00008 -0.00000
vn 0.85020 -0.49099 -0.18996
vn 0.86595 -0.50012 0.00000
vn 0.80380 -0.46411 -0.37217
vn 0.46410 -0.80381 -0.37216
vn 0.49098 -0.85021 -0.18995
vn 0.50016 -0.86594 -0.00000
vn -0.49883 -0.86402 0.06808
vn 0.00016 -0.99768 0.06809
vn -0.86399 -0.49888 0.06808
vn -0.99768 0.00008 0.06808
vn -0.86396 0.49894 0.06807
vn -0.49884 0.86402 0.06808
vn 0.00016 0.99768 0.06809
vn 0.49898 0.86393 0.06808
vn 0.86397 0.49892 0.06807
vn 0.99768 0.00008 0.06809
vn 0.86400 -0.49886 0.06808
vn 0.49897 -0.86394 0.06808
vn -0.70987 0.70425 0.01114
vn 0.70987 -0.70424 0.01114
vn 0.70424 0.70987 0.01114
vn -0.70425 -0.70987 0.01114
vn 0.89481 0.00023 -0.44644
vn -0.89482 0.00023 -0.44643
vn -0.77487 0.44758 -0.44637
vn 0.77486 0.44758 -0.44639
vn -0.44743 0.77489 -0.44649
vn 0.44749 0.77497 -0.44630
vn 0.00004 0.89481 -0.44644
vn 0.77427 -0.44686 0.44814
vn 0.47115 -0.81612 0.33461
vn 0.00021 -0.94235 0.33462
vn 0.81625 -0.47096 0.33455
vn 0.94241 0.00022 0.33446
vn 0.81618 0.47116 0.33446
vn 0.47117 0.81617 0.33446
vn 0.00021 0.94241 0.33445
vn -0.47097 0.81625 0.33455
vn -0.81613 0.47114 0.33461
vn -0.94235 0.00022 0.33463
vn -0.81621 -0.47094 0.33470
vn -0.47095 -0.81621 0.33469
vn -0.48948 -0.84806 0.20299
vn 0.00018 -0.97918 0.20300
vn -0.84805 -0.48949 0.20300
vn -0.97918 0.00019 0.20300
vn -0.84797 0.48964 0.20298
vn -0.48948 0.84806 0.20300
vn 0.00018 0.97918 0.20300
vn 0.48964 0.84797 0.20299
vn 0.84798 0.48963 0.20298
vn 0.97918 0.00019 0.20299
vn 0.84806 -0.48948 0.20300
vn 0.48964 -0.84797 0.20299
vn -0.92334 0.00000 -0.38399
vn -1.00000 0.00000 0.00164
vn -0.92449 0.00000 0.38121
vn -0.92333 0.00000 -0.38400
vn -1.00000 0.00000 0.00164
vn -0.92449 0.00000 0.38121
vn -0.19599 0.00000 -0.98061
vn -0.19599 0.00000 0.98061
vn -0.19600 0.00000 -0.98060
vn -0.19599 0.00000 0.98061
vn 0.63125 0.20409 -0.74825
vn 0.90312 0.11299 -0.41426
vn -0.90312 0.11299 -0.41425
vn -0.63126 0.20409 -0.74824
vn -0.60166 0.35976 -0.71315
vn 0.90664 0.17743 0.38279
vn 0.88210 0.28679 -0.37370
vn -0.90664 0.17743 0.38278
vn -0.88210 0.28678 -0.37370
vn -0.64400 0.32173 0.69409
vn 0.61950 0.43398 0.65413
vn 0.64398 0.32173 0.69410
vn 0.55620 0.50595 -0.65928
vn -0.55621 0.50595 -0.65928
vn 0.92334 0.00000 -0.38399
vn 1.00000 0.00000 0.00164
vn 0.92449 0.00000 0.38121
vn 0.92333 0.00000 -0.38400
vn 1.00000 0.00000 0.00164
vn 0.92449 0.00000 0.38121
vn 0.19599 0.00000 -0.98061
vn 0.19599 0.00000 0.98061
vn 0.19600 0.00000 -0.98060
vn 0.19599 0.00000 0.98061
vn 0.45639 0.43808 0.77446
vn 0.47305 0.32358 0.81946
vn -0.45640 0.43808 0.77446
vn -0.24609 0.87915 0.40808
vn -0.47306 0.32358 0.81945
vn 0.24608 0.87916 0.40808
vn -0.40224 0.50095 -0.76633
vn 0.40223 0.50095 -0.76633
vn -0.68302 0.73018 0.01803
vn 0.68302 -0.73017 0.01803
vn -0.73018 -0.68302 0.01803
vn 0.73017 0.68302 0.01803
vn 0.00000 -0.99864 0.05210
vn 0.97746 0.00000 0.21113
vn -0.97746 0.00000 0.21113
vn -0.58738 -0.58724 -0.55689
vn 0.25274 0.25280 -0.93392
vn 0.70424 -0.70987 0.01114
vn 0.58722 0.58740 -0.55690
vn -0.25277 -0.25277 -0.93392
vn -0.70425 0.70987 0.01114
vn -0.58736 0.58727 -0.55689
vn 0.25277 -0.25277 -0.93392
vn -0.70987 -0.70424 0.01114
vn 0.58725 -0.58737 -0.55690
vn -0.25275 0.25280 -0.93392
vn 0.70987 0.70424 0.01114
vn 0.87792 -0.47881 0.00000
vn 0.54148 -0.84071 0.00000
vn 0.42884 0.90338 0.00000
vn 0.77481 0.63220 0.00000
vn -0.42837 0.90360 0.00000
vn -0.77415 0.63300 0.00000
vn -0.54067 -0.84123 0.00000
vn -0.87769 -0.47923 0.00000
vn 0.87796 -0.47873 0.00000
vn 0.54164 -0.84061 0.00000
vn 0.42893 0.90334 0.00000
vn 0.77494 0.63204 0.00000
vn -0.42837 0.90360 0.00000
vn -0.77415 0.63300 0.00000
vn -0.54067 -0.84123 0.00000
vn -0.87769 -0.47923 0.00000
vn 0.42893 0.90334 0.00000
vn 0.77494 0.63204 0.00000
vn 0.77497 -0.44738 -0.44640
vn 0.44750 -0.77496 -0.44630
vn 0.00004 -0.89480 -0.44646
vn -0.44745 -0.77488 -0.44650
vn -0.77497 -0.44738 -0.44641
vn 0.00014 0.89403 0.44800
vn -0.77408 -0.44689 0.44843
# 242 normal vertices

g vehicle#twin_pylon_001_169_2
usemtl 939ad3eb-60d4-44ee-8ac4-38606db
f 3/3/3 4/2/3 5/1/3
f 16/1/7 15/2/7 14/3/7
f 25/3/3 26/2/3 27/1/3
f 38/1/7 37/2/7 36/3/7
f 5/1/157 16/1/157 17/4/4 6/4/4
f 4/2/158 15/2/158 16/1/157 5/1/157
f 3/3/159 14/3/159 15/2/158 4/2/158
f 13/5/2 14/3/159 3/3/159 2/5/2
f 27/1/160 38/1/160 39/4/10 28/4/10
f 26/2/161 37/2/161 38/1/160 27/1/160
f 25/3/162 36/3/162 37/2/161 26/2/161
f 35/5/9 36/3/162 25/3/162 24/5/9
f 9/9/5 8/8/5 11/7/6 10/6/6
f 19/8/7 20/9/7 21/6/7 22/7/7
f 10/6/6 11/7/6 1/11/1 7/10/1
f 22/7/7 21/6/7 18/10/7 12/11/7
f 18/10/163 21/6/34 10/6/34 7/10/163
f 12/11/164 1/11/164 11/7/32 22/7/32
f 6/4/3 7/10/1 1/11/1 2/5/3
f 12/11/7 18/10/7 17/4/7 13/5/7
f 18/10/163 7/10/163 6/4/4 17/4/4
f 13/5/2 2/5/2 1/11/164 12/11/164
f 31/9/11 30/8/11 33/7/12 32/6/12
f 41/8/7 42/9/7 43/6/7 44/7/7
f 32/6/12 33/7/12 23/11/8 29/10/8
f 44/7/7 43/6/7 40/10/7 34/11/7
f 40/10/165 43/6/34 32/6/34 29/10/165
f 34/11/166 23/11/166 33/7/32 44/7/32
f 28/4/3 29/10/8 23/11/8 24/5/3
f 34/11/7 40/10/7 39/4/7 35/5/7
f 40/10/165 29/10/165 28/4/10 39/4/10
f 35/5/9 24/5/9 23/11/166 34/11/166
f 2/5/3 3/3/3 5/1/3 6/4/3
f 13/5/7 17/4/7 16/1/7 14/3/7
f 24/5/3 25/3/3 27/1/3 28/4/3
f 35/5/7 39/4/7 38/1/7 36/3/7
f 21/6/34 20/9/34 9/9/34 10/6/34
f 22/7/32 11/7/32 8/8/32 19/8/32
f 43/6/34 42/9/34 31/9/34 32/6/34
f 44/7/32 33/7/32 30/8/32 41/8/32
f 45/15/13 48/14/14 47/13/7 46/12/7
f 49/15/3 50/12/3 51/13/3 52/14/3
f 53/19/15 51/18/168 50/17/167 54/16/16
f 45/15/13 46/12/7 55/13/7 56/14/17
f 57/13/3 50/12/3 49/15/3 58/14/3
f 59/19/18 54/16/171 50/17/170 57/18/169
f 53/16/15 60/22/19 52/21/172 51/20/168
f 48/24/33 60/22/19 53/16/15 47/23/173
f 61/22/20 59/16/18 57/20/169 58/21/174
f 55/23/175 59/16/18 61/22/20 56/24/37
f 61/28/20 58/27/174 49/26/176 62/25/21
f 62/25/177 60/28/19 48/30/14 45/29/13
f 60/28/19 62/25/177 49/26/178 52/27/172
f 62/25/21 45/29/13 56/30/17 61/28/20
f 54/16/16 46/32/179 47/31/173 53/19/15
f 54/16/171 59/19/18 55/31/175 46/32/180
f 66/2/3 65/3/3 67/1/3
f 77/2/7 78/1/7 76/3/7
f 88/2/3 87/3/3 89/1/3
f 99/2/7 100/1/7 98/3/7
f 79/4/24 78/1/181 67/1/181 68/4/24
f 78/1/181 77/2/182 66/2/182 67/1/181
f 77/2/182 76/3/183 65/3/183 66/2/182
f 65/3/183 76/3/183 75/5/23 64/5/23
f 101/4/29 100/1/184 89/1/184 90/4/29
f 100/1/184 99/2/185 88/2/185 89/1/184
f 99/2/185 98/3/186 87/3/186 88/2/185
f 87/3/186 98/3/186 97/5/28 86/5/28
f 73/7/26 70/8/25 71/9/25 72/6/26
f 83/6/7 82/9/7 81/8/7 84/7/7
f 63/11/22 73/7/26 72/6/26 69/10/22
f 80/10/7 83/6/7 84/7/7 74/11/7
f 72/6/34 83/6/34 80/10/187 69/10/187
f 73/7/32 63/11/188 74/11/188 84/7/32
f 63/11/22 69/10/22 68/4/3 64/5/3
f 79/4/7 80/10/7 74/11/7 75/5/7
f 68/4/24 69/10/187 80/10/187 79/4/24
f 63/11/188 64/5/23 75/5/23 74/11/188
f 95/7/31 92/8/30 93/9/30 94/6/31
f 105/6/7 104/9/7 103/8/7 106/7/7
f 85/11/27 95/7/31 94/6/31 91/10/27
f 102/10/7 105/6/7 106/7/7 96/11/7
f 94/6/34 105/6/34 102/10/189 91/10/189
f 95/7/32 85/11/190 96/11/190 106/7/32
f 85/11/27 91/10/27 90/4/3 86/5/3
f 101/4/7 102/10/7 96/11/7 97/5/7
f 90/4/29 91/10/189 102/10/189 101/4/29
f 85/11/190 86/5/28 97/5/28 96/11/190
f 67/1/3 65/3/3 64/5/3 68/4/3
f 78/1/7 79/4/7 75/5/7 76/3/7
f 89/1/3 87/3/3 86/5/3 90/4/3
f 100/1/7 101/4/7 97/5/7 98/3/7
f 71/9/34 82/9/34 83/6/34 72/6/34
f 70/8/32 73/7/32 84/7/32 81/8/32
f 93/9/34 104/9/34 105/6/34 94/6/34
f 92/8/32 95/7/32 106/7/32 103/8/32
f 108/36/32 110/35/32 109/34/32 107/33/32
f 110/36/33 112/35/33 111/34/33 109/33/33
f 112/36/34 114/35/34 113/34/34 111/33/34
f 114/36/37 108/35/37 107/34/37 113/33/37
f 107/36/7 109/35/7 111/34/7 113/33/7
f 114/36/3 112/35/3 110/34/3 108/33/3
f 117/34/34 118/35/34 116/36/34 115/33/34
f 119/34/33 120/35/33 118/36/33 117/33/33
f 121/34/32 122/35/32 120/36/32 119/33/32
f 115/34/37 116/35/37 122/36/37 121/33/37
f 119/34/7 117/35/7 115/36/7 121/33/7
f 118/34/3 120/35/3 122/36/3 116/33/3
f 128/40/39 129/39/40 131/38/41 132/37/42
f 128/40/39 132/37/42 137/38/44 135/39/43
f 130/43/37 138/42/37 131/37/37 129/41/37
f 131/37/37 138/42/37 126/45/37 125/44/37
f 135/41/33 137/37/33 139/42/33 136/43/33
f 139/42/33 137/37/33 133/44/33 134/45/33
f 127/47/38 136/43/192 139/42/191 140/46/45
f 126/45/194 138/42/193 140/46/45 123/48/35
f 127/47/38 140/46/45 138/42/193 130/43/195
f 134/45/196 123/48/35 140/46/45 139/42/191
f 125/49/197 124/44/36 132/37/42 131/38/41
f 133/49/198 137/38/44 132/37/42 124/44/36
f 125/53/7 126/52/194 123/51/35 124/50/36
f 133/53/7 124/50/36 123/51/35 134/52/196
f 129/53/3 128/50/3 127/51/3 130/52/3
f 127/51/3 128/50/3 135/53/3 136/52/3
f 142/57/32 144/56/32 143/55/32 141/54/32
f 144/57/33 146/56/33 145/55/33 143/54/33
f 146/57/34 148/56/34 147/55/34 145/54/34
f 148/57/37 142/56/37 141/55/37 147/54/37
f 141/57/7 143/56/7 145/55/7 147/54/7
f 148/57/3 146/56/3 144/55/3 142/54/3
f 151/55/34 152/56/34 150/57/34 149/54/34
f 153/55/33 154/56/33 152/57/33 151/54/33
f 155/55/32 156/56/32 154/57/32 153/54/32
f 149/55/37 150/56/37 156/57/37 155/54/37
f 153/55/7 151/56/7 149/57/7 155/54/7
f 152/55/3 154/56/3 156/57/3 150/54/3
g CH_PL_12_M4
f 159/60/47 158/59/47 157/58/46
f 162/63/49 161/62/48 160/61/48
f 159/66/50 160/65/50 163/64/50
f 166/60/52 165/59/52 164/58/51
f 169/63/54 168/62/53 167/61/53
f 166/66/55 167/65/55 170/64/55
f 173/69/57 172/68/57 171/67/56
f 176/72/59 175/71/58 174/70/58
f 173/75/60 174/74/60 177/73/60
f 180/69/62 179/68/62 178/67/61
f 183/72/64 182/71/63 181/70/63
f 180/75/65 181/74/65 184/73/65
f 187/78/66 186/77/66 185/76/66
f 187/81/34 185/80/34 188/79/34
f 187/84/199 188/83/199 186/82/199
f 191/78/67 190/77/67 189/76/67
f 191/81/34 189/80/34 192/79/34
f 191/84/200 192/83/200 190/82/200
f 195/87/68 194/86/68 193/85/68
f 195/90/34 193/89/34 196/88/34
f 195/93/201 196/92/201 194/91/201
f 199/87/69 198/86/69 197/85/69
f 199/90/34 197/89/34 200/88/34
f 199/93/202 200/92/202 198/91/202
f 203/96/32 202/95/32 201/94/32
f 206/99/32 205/98/32 204/97/32
f 209/102/34 208/101/34 207/100/34
f 212/105/34 211/104/34 210/103/34
f 215/108/32 214/107/32 213/106/32
f 218/111/32 217/110/32 216/109/32
f 221/114/34 220/113/34 219/112/34
f 224/117/34 223/116/34 222/115/34
f 227/120/32 226/119/32 225/118/32
f 230/123/32 229/122/32 228/121/32
f 233/126/34 232/125/34 231/124/34
f 236/129/34 235/128/34 234/127/34
f 239/132/34 238/131/34 237/130/34
f 242/135/34 241/134/34 240/133/34
f 246/139/32 245/138/32 244/137/32 243/136/32
f 243/136/203 244/137/203 248/141/70 247/140/70
f 247/140/71 249/143/71 246/142/204 243/136/204
f 247/140/71 251/145/33 250/144/33 249/143/71
f 251/145/3 247/140/70 248/141/70 252/146/3
f 248/141/72 244/137/205 245/148/205 253/147/72
f 252/146/37 248/141/72 253/147/72 254/149/37
f 251/145/34 252/146/34 254/151/34 250/150/34
f 258/155/76 257/154/75 256/153/74 255/152/73
f 257/154/75 260/157/78 259/156/77 256/153/74
f 256/153/74 262/159/80 261/158/79 255/152/73
f 256/153/74 259/156/77 263/160/81 262/159/80
f 262/159/80 265/162/83 264/161/82 261/158/79
f 262/159/80 263/160/81 266/163/84 265/162/83
f 264/161/82 265/162/83 268/165/86 267/164/85
f 265/162/83 266/163/84 269/166/87 268/165/86
f 267/164/85 268/165/86 271/168/89 270/167/88
f 268/165/86 269/166/87 272/169/90 271/168/89
f 271/168/89 274/171/92 273/170/91 270/167/88
f 271/168/89 272/169/90 275/172/93 274/171/92
f 273/170/91 274/171/92 277/174/95 276/173/94
f 274/171/92 275/172/93 278/175/96 277/174/95
f 277/174/95 280/177/98 279/176/97 276/173/94
f 277/174/95 278/175/96 281/178/99 280/177/98
f 280/177/98 283/180/101 282/179/100 279/176/97
f 283/180/101 280/177/98 281/178/99 284/181/102
f 284/181/102 286/183/104 285/182/103 283/180/101
f 282/179/100 283/180/101 285/182/103 287/184/105
f 287/184/105 285/182/103 289/186/107 288/185/106
f 285/182/103 286/183/104 290/187/108 289/186/107
f 289/186/107 257/189/75 258/188/76 288/185/106
f 289/186/107 290/187/108 260/190/78 257/189/75
f 260/194/78 292/193/110 291/192/109 259/191/77
f 259/191/77 291/192/109 293/196/111 263/195/81
f 263/195/81 293/196/111 294/198/112 266/197/84
f 266/197/84 294/198/112 295/200/113 269/199/87
f 269/199/87 295/200/113 296/202/114 272/201/90
f 272/201/90 296/202/114 297/204/115 275/203/93
f 275/203/93 297/204/115 298/206/116 278/205/96
f 278/205/96 298/206/116 299/208/117 281/207/99
f 299/208/117 300/210/118 284/209/102 281/207/99
f 300/210/118 301/212/119 286/211/104 284/209/102
f 286/211/104 301/212/119 302/214/120 290/213/108
f 292/216/110 260/215/78 290/213/108 302/214/120
f 159/220/206 157/219/206 162/218/206 160/217/206
f 159/60/47 163/222/121 303/221/121 158/59/47
f 158/226/207 161/225/207 162/224/207 157/223/207
f 160/61/48 161/62/48 303/228/208 163/227/208
f 167/217/209 166/220/209 164/219/209 169/218/209
f 166/60/52 170/222/122 304/221/122 165/59/52
f 169/224/210 164/223/210 165/226/210 168/225/210
f 167/61/53 168/62/53 304/228/211 170/227/211
f 174/232/212 173/231/212 171/230/212 176/229/212
f 173/69/57 177/234/123 305/233/123 172/68/57
f 176/238/213 171/237/213 172/236/213 175/235/213
f 174/70/58 175/71/58 305/240/214 177/239/214
f 180/231/215 178/230/215 183/229/215 181/232/215
f 180/69/62 184/234/124 306/233/124 179/68/62
f 183/238/216 178/237/216 179/236/216 182/235/216
f 181/70/63 182/71/63 306/240/217 184/239/217
f 308/244/33 235/243/218 230/242/218 307/241/33
f 235/243/218 236/246/219 229/245/219 230/242/218
f 229/245/221 236/246/221 234/248/220 228/247/220
f 234/248/220 233/250/222 226/249/222 228/247/220
f 233/250/222 231/252/223 225/251/223 226/249/222
f 231/252/224 232/254/225 227/253/225 225/251/224
f 227/253/225 232/254/225 310/256/37 309/255/37
f 312/260/33 211/259/226 206/258/226 311/257/33
f 211/259/226 212/262/227 205/261/227 206/258/226
f 205/261/229 212/262/229 210/264/228 204/263/228
f 210/264/228 209/266/230 202/265/230 204/263/228
f 209/266/230 207/268/231 201/267/231 202/265/230
f 207/268/232 208/270/233 203/269/233 201/267/232
f 203/269/233 208/270/233 314/272/37 313/271/37
f 316/276/33 223/275/226 218/274/226 315/273/33
f 223/275/226 224/278/227 217/277/227 218/274/226
f 217/277/235 224/278/235 222/280/234 216/279/234
f 222/280/234 221/282/222 214/281/222 216/279/234
f 221/282/222 219/284/223 213/283/223 214/281/222
f 219/284/224 220/286/225 215/285/225 213/283/224
f 215/285/225 220/286/225 318/288/37 317/287/37
f 313/290/32 311/289/32 206/99/32 203/96/32
f 203/96/32 206/99/32 204/97/32 202/95/32
f 208/101/34 209/102/34 210/103/34 211/104/34
f 208/101/34 211/104/34 312/292/34 314/291/34
f 317/294/32 315/293/32 218/111/32 215/108/32
f 215/108/32 218/111/32 216/109/32 214/107/32
f 220/113/34 221/114/34 222/115/34 223/116/34
f 220/113/34 223/116/34 316/296/34 318/295/34
f 309/298/32 307/297/32 230/123/32 227/120/32
f 227/120/32 230/123/32 228/121/32 226/119/32
f 232/125/34 233/126/34 234/127/34 235/128/34
f 232/125/34 235/128/34 308/300/34 310/299/34
f 273/304/34 276/303/34 320/302/34 319/301/34
f 273/304/34 319/301/34 321/306/34 270/305/34
f 270/305/34 321/306/34 322/308/34 267/307/34
f 321/306/237 238/131/237 241/134/236 322/308/236
f 321/306/237 319/301/238 237/130/238 238/131/237
f 320/302/239 239/132/239 237/130/238 319/301/238
f 238/131/34 239/132/34 240/133/34 241/134/34
f 322/308/34 323/310/34 264/309/34 267/307/34
f 322/308/236 241/134/236 324/311/125 323/310/125
f 320/302/34 276/303/34 279/313/34 325/312/34
f 320/302/239 325/312/240 240/133/240 239/132/239
f 241/134/34 242/135/34 326/314/34 324/311/34
f 242/135/126 240/133/240 325/312/240 327/315/126
f 242/135/126 327/315/126 328/316/127 326/314/127
f 324/311/34 326/314/34 330/318/34 329/317/34
f 324/311/125 329/317/128 331/319/128 323/310/125
f 264/309/34 323/310/34 331/319/34 261/320/34
f 325/312/34 279/313/34 282/321/34 327/315/34
f 326/314/127 328/316/127 332/322/129 330/318/129
f 329/317/128 334/324/130 333/323/130 331/319/128
f 329/317/34 330/318/34 335/325/34 334/324/34
f 328/316/34 327/315/34 282/321/34 287/326/34
f 328/316/34 287/326/34 288/327/34 332/322/34
f 261/320/34 331/319/34 333/323/34 255/328/34
f 332/322/129 336/329/131 335/325/131 330/318/129
f 335/325/131 336/329/131 333/323/130 334/324/130
f 333/323/34 336/329/34 258/330/34 255/328/34
f 332/322/34 288/327/34 258/330/34 336/329/34
f 339/333/134 338/332/133 337/331/132
f 338/332/133 340/334/135 337/331/132
f 340/334/135 341/335/136 337/331/132
f 341/335/136 342/336/137 337/331/132
f 342/336/137 343/337/138 337/331/241
f 343/337/138 344/338/139 337/331/241
f 344/338/139 345/339/140 337/331/241
f 345/339/140 346/340/141 337/331/241
f 346/340/141 347/341/142 337/331/242
f 347/341/142 348/342/143 337/331/242
f 348/342/143 349/343/144 337/331/242
f 349/343/144 339/333/134 337/331/242
f 291/347/109 292/346/110 351/345/146 350/344/145
f 291/347/109 350/344/145 352/349/147 293/348/111
f 350/344/145 349/343/144 348/342/143 352/349/147
f 350/344/145 351/345/146 339/333/134 349/343/144
f 293/348/111 352/349/147 353/351/148 294/350/112
f 352/349/147 348/342/143 347/341/142 353/351/148
f 353/351/148 354/353/149 295/352/113 294/350/112
f 354/353/149 353/351/148 347/341/142 346/340/141
f 354/353/149 355/355/150 296/354/114 295/352/113
f 354/353/149 346/340/141 345/339/140 355/355/150
f 296/354/114 355/355/150 356/357/151 297/356/115
f 355/355/150 345/339/140 344/338/139 356/357/151
f 356/357/151 357/359/152 298/358/116 297/356/115
f 344/338/139 343/337/138 357/359/152 356/357/151
f 298/358/116 357/359/152 358/361/153 299/360/117
f 357/359/152 343/337/138 342/336/137 358/361/153
f 299/360/117 358/361/153 359/363/154 300/362/118
f 358/361/153 342/336/137 341/335/136 359/363/154
f 359/363/154 360/365/155 301/364/119 300/362/118
f 341/335/136 340/334/135 360/365/155 359/363/154
f 360/365/155 361/367/156 302/366/120 301/364/119
f 361/367/156 360/365/155 340/334/135 338/332/133
f 302/366/120 361/367/156 351/345/146 292/346/110
f 361/367/156 338/332/133 339/333/134 351/345/146
# 331 elements

