# Created by Metasequoia

mtllib weapon_mount_twin_pl15.mtl

v -0.041776 0.620592 -0.251379
v -0.041776 0.654506 -0.303611
v -0.041776 0.654050 -0.508713
v -0.041776 0.619278 -0.529022
v -0.041776 0.586545 -0.504301
v -0.041776 0.584835 -0.312441
v -0.281586 0.498958 -0.068344
v -0.281586 0.522179 -0.116158
v -0.281586 0.521263 -0.262853
v -0.281586 0.497709 -0.280507
v -0.281586 0.476454 -0.259765
v -0.281586 0.474417 -0.122636
v 0.041776 0.620592 -0.251379
v 0.041776 0.654506 -0.303611
v 0.041776 0.654050 -0.508713
v 0.041776 0.619278 -0.529022
v 0.041776 0.586545 -0.504301
v 0.041776 0.584835 -0.312441
v 0.281586 0.498958 -0.068344
v 0.281586 0.522179 -0.116158
v 0.281586 0.521263 -0.262853
v 0.281586 0.497709 -0.280507
v 0.281586 0.476454 -0.259765
v 0.281586 0.474417 -0.122636
v -0.041776 0.620592 0.355630
v -0.041776 0.654506 0.300452
v -0.041776 0.654050 0.083783
v -0.041776 0.619278 0.062328
v -0.041776 0.586545 0.088444
v -0.041776 0.584835 0.291124
v -0.281586 0.498958 0.690964
v -0.281586 0.522179 0.647346
v -0.281586 0.521263 0.513528
v -0.281586 0.497709 0.497423
v -0.281586 0.476454 0.516344
v -0.281586 0.474417 0.641436
v 0.041776 0.620592 0.355630
v 0.041776 0.654506 0.300452
v 0.041776 0.654050 0.083783
v 0.041776 0.619278 0.062328
v 0.041776 0.586545 0.088444
v 0.041776 0.584835 0.291124
v 0.281586 0.498958 0.690964
v 0.281586 0.522179 0.647346
v 0.281586 0.521263 0.513528
v 0.281586 0.497709 0.497423
v 0.281586 0.476454 0.516344
v 0.281586 0.474417 0.641436
v -0.079229 0.831524 -0.670266
v -0.111047 0.831524 -0.683513
v -0.120887 0.831524 -0.698220
v -0.124214 0.831524 -0.715285
v -0.120887 0.831524 -0.732653
v -0.111047 0.831524 -0.747068
v -0.079229 0.831524 -0.760316
v -0.043233 0.795037 -0.670266
v -0.043233 0.795037 -0.760316
v -0.056562 0.819840 -0.760316
v -0.056562 0.819840 -0.670266
v -0.079229 0.850907 -0.670266
v -0.111047 0.850907 -0.683513
v -0.120887 0.850907 -0.698220
v -0.124214 0.850907 -0.715285
v -0.120887 0.850907 -0.732653
v -0.111047 0.850907 -0.747068
v -0.079229 0.850907 -0.760316
v -0.043233 0.850907 -0.670266
v -0.043233 0.850907 -0.760316
v -0.056562 0.850907 -0.760316
v -0.056562 0.850907 -0.670266
v -0.079229 0.831524 -0.014483
v -0.111047 0.831524 -0.027731
v -0.120887 0.831524 -0.042438
v -0.124214 0.831524 -0.059502
v -0.120887 0.831524 -0.076870
v -0.111047 0.831524 -0.091285
v -0.079229 0.831524 -0.104533
v -0.043233 0.795037 -0.014483
v -0.043233 0.795037 -0.104533
v -0.056562 0.819840 -0.104533
v -0.056562 0.819840 -0.014483
v -0.079229 0.850907 -0.014483
v -0.111047 0.850907 -0.027731
v -0.120887 0.850907 -0.042438
v -0.124214 0.850907 -0.059502
v -0.120887 0.850907 -0.076870
v -0.111047 0.850907 -0.091285
v -0.079229 0.850907 -0.104533
v -0.043233 0.850907 -0.014483
v -0.043233 0.850907 -0.104533
v -0.056562 0.850907 -0.104533
v -0.056562 0.850907 -0.014483
v 0.000000 0.844247 0.072754
v 0.000000 0.844247 -0.805845
v -0.044075 0.844247 -0.782461
v -0.044075 0.844247 -0.009931
v -0.007202 0.844247 0.067461
v -0.044075 0.844247 0.006994
v 0.000000 0.578875 0.643938
v 0.000000 0.578875 -0.676673
v -0.044075 0.578875 -0.653289
v -0.044075 0.578875 0.561253
v -0.007202 0.578875 0.638645
v -0.044075 0.578875 0.578177
v -0.044075 0.770493 -0.784058
v 0.000000 0.770493 -0.807442
v 0.044074 0.844247 -0.782461
v 0.044074 0.844247 -0.009931
v 0.007201 0.844247 0.067461
v 0.044074 0.844247 0.006994
v 0.044074 0.578875 -0.653289
v 0.044074 0.578875 0.561253
v 0.007201 0.578875 0.638645
v 0.044074 0.578875 0.578177
v 0.044074 0.770493 -0.784058
v 0.312182 0.543070 0.792097
v 0.312182 0.543070 -0.754054
v 0.348282 0.543070 -0.714580
v 0.348282 0.543070 0.745724
v 0.312182 0.449041 0.903077
v 0.312182 0.449041 -0.840513
v 0.348282 0.449041 -0.801040
v 0.348282 0.449041 0.860579
v 0.348282 0.496426 -0.778104
v 0.312182 0.496426 -0.817576
v 0.276084 0.543070 -0.714580
v 0.276084 0.543070 0.745724
v 0.276084 0.449041 -0.801040
v 0.276084 0.449041 0.860579
v 0.276084 0.496426 -0.778104
v 0.348282 0.496426 0.820668
v 0.276084 0.496426 0.820668
v 0.312182 0.496426 0.865012
v 0.079229 0.831524 -0.670266
v 0.111047 0.831524 -0.683513
v 0.120887 0.831524 -0.698220
v 0.124214 0.831524 -0.715285
v 0.120887 0.831524 -0.732653
v 0.111047 0.831524 -0.747068
v 0.079229 0.831524 -0.760316
v 0.043233 0.795037 -0.670266
v 0.043233 0.795037 -0.760316
v 0.056562 0.819840 -0.760316
v 0.056562 0.819840 -0.670266
v 0.079229 0.850907 -0.670266
v 0.111047 0.850907 -0.683513
v 0.120887 0.850907 -0.698220
v 0.124214 0.850907 -0.715285
v 0.120887 0.850907 -0.732653
v 0.111047 0.850907 -0.747068
v 0.079229 0.850907 -0.760316
v 0.043233 0.850907 -0.670266
v 0.043233 0.850907 -0.760316
v 0.056562 0.850907 -0.760316
v 0.056562 0.850907 -0.670266
v 0.079229 0.831524 -0.014483
v 0.111047 0.831524 -0.027731
v 0.120887 0.831524 -0.042438
v 0.124214 0.831524 -0.059502
v 0.120887 0.831524 -0.076870
v 0.111047 0.831524 -0.091285
v 0.079229 0.831524 -0.104533
v 0.043233 0.795037 -0.014483
v 0.043233 0.795037 -0.104533
v 0.056562 0.819840 -0.104533
v 0.056562 0.819840 -0.014483
v 0.079229 0.850907 -0.014483
v 0.111047 0.850907 -0.027731
v 0.120887 0.850907 -0.042438
v 0.124214 0.850907 -0.059502
v 0.120887 0.850907 -0.076870
v 0.111047 0.850907 -0.091285
v 0.079229 0.850907 -0.104533
v 0.043233 0.850907 -0.014483
v 0.043233 0.850907 -0.104533
v 0.056562 0.850907 -0.104533
v 0.056562 0.850907 -0.014483
v -0.312182 0.543070 0.792097
v -0.312182 0.543070 -0.754054
v -0.348282 0.543070 -0.714580
v -0.348282 0.543070 0.745724
v -0.312182 0.449041 0.903077
v -0.312182 0.449041 -0.840513
v -0.348282 0.449041 -0.801040
v -0.348282 0.449041 0.860579
v -0.348282 0.496426 -0.778104
v -0.312182 0.496426 -0.817576
v -0.276084 0.543070 -0.714580
v -0.276084 0.543070 0.745724
v -0.276084 0.449041 -0.801040
v -0.276084 0.449041 0.860579
v -0.276084 0.496426 -0.778104
v -0.348282 0.496426 0.820668
v -0.276084 0.496426 0.820668
v -0.312182 0.496426 0.865012
v 0.235028 0.437508 -0.654381
v 0.235028 0.362637 -0.654381
v 0.390110 0.437508 -0.654381
v 0.390110 0.362637 -0.654381
v 0.390110 0.437508 -0.824031
v 0.390110 0.362637 -0.824031
v 0.235028 0.437508 -0.824031
v 0.235028 0.362637 -0.824031
v 0.235028 0.437508 0.717154
v 0.235028 0.362637 0.717154
v 0.390110 0.437508 0.717154
v 0.390110 0.362637 0.717154
v 0.390110 0.437508 0.886804
v 0.390110 0.362637 0.886804
v 0.235028 0.437508 0.886804
v 0.235028 0.362637 0.886804
v 0.312568 0.423136 1.499318
v 0.312568 0.423136 -1.522857
v 0.240373 0.423136 -1.484962
v 0.240373 0.423136 1.454799
v 0.312568 0.235079 1.605858
v 0.312568 0.235079 -1.605858
v 0.240373 0.235079 -1.567964
v 0.240373 0.235079 1.565060
v 0.240373 0.329848 -1.545945
v 0.312568 0.329848 -1.583839
v 0.384765 0.423136 -1.484962
v 0.384765 0.423136 1.454799
v 0.384765 0.235079 -1.567964
v 0.384765 0.235079 1.565060
v 0.384765 0.329848 -1.545945
v 0.240373 0.329848 1.526746
v 0.384765 0.329848 1.526746
v 0.312568 0.329848 1.569316
v 0.285545 0.483233 -0.711637
v 0.285545 0.316912 -0.711637
v 0.339593 0.483233 -0.711637
v 0.339593 0.316912 -0.711637
v 0.339593 0.483233 -0.766774
v 0.339593 0.316912 -0.766774
v 0.285545 0.483233 -0.766774
v 0.285545 0.316912 -0.766774
v 0.285545 0.483233 0.774411
v 0.285545 0.316912 0.774411
v 0.339593 0.483233 0.774411
v 0.339593 0.316912 0.774411
v 0.339593 0.483233 0.829547
v 0.339593 0.316912 0.829547
v 0.285545 0.483233 0.829547
v 0.285545 0.316912 0.829547
v -0.235028 0.437508 -0.654381
v -0.235028 0.362637 -0.654381
v -0.390110 0.437508 -0.654381
v -0.390110 0.362637 -0.654381
v -0.390110 0.437508 -0.824031
v -0.390110 0.362637 -0.824031
v -0.235028 0.437508 -0.824031
v -0.235028 0.362637 -0.824031
v -0.235028 0.437508 0.717154
v -0.235028 0.362637 0.717154
v -0.390110 0.437508 0.717154
v -0.390110 0.362637 0.717154
v -0.390110 0.437508 0.886804
v -0.390110 0.362637 0.886804
v -0.235028 0.437508 0.886804
v -0.235028 0.362637 0.886804
v -0.312569 0.423136 1.499318
v -0.312569 0.423136 -1.522857
v -0.240373 0.423136 -1.484962
v -0.240373 0.423136 1.454799
v -0.312569 0.235079 1.605858
v -0.312569 0.235079 -1.605858
v -0.240373 0.235079 -1.567964
v -0.240373 0.235079 1.565060
v -0.240373 0.329848 -1.545945
v -0.312569 0.329848 -1.583839
v -0.384765 0.423136 -1.484962
v -0.384765 0.423136 1.454799
v -0.384765 0.235079 -1.567964
v -0.384765 0.235079 1.565060
v -0.384765 0.329848 -1.545945
v -0.240373 0.329848 1.526746
v -0.384765 0.329848 1.526746
v -0.312569 0.329848 1.569316
v -0.285545 0.483233 -0.711637
v -0.285545 0.316912 -0.711637
v -0.339593 0.483233 -0.711637
v -0.339593 0.316912 -0.711637
v -0.339593 0.483233 -0.766774
v -0.339593 0.316912 -0.766774
v -0.285545 0.483233 -0.766774
v -0.285545 0.316912 -0.766774
v -0.285545 0.483233 0.774411
v -0.285545 0.316912 0.774411
v -0.339593 0.483233 0.774411
v -0.339593 0.316912 0.774411
v -0.339593 0.483233 0.829547
v -0.339593 0.316912 0.829547
v -0.285545 0.483233 0.829547
v -0.285545 0.316912 0.829547
v 0.281267 0.239093 1.545763
v 0.288536 0.247982 1.545763
v 0.288536 0.234422 1.545763
v 0.336314 0.247982 1.545763
v 0.343564 0.239093 1.545763
v 0.336314 0.234422 1.545763
v 0.281267 0.239093 1.483692
v 0.288536 0.234422 1.483692
v 0.288536 0.247982 1.483692
v 0.336314 0.247982 1.483692
v 0.336314 0.234422 1.483692
v 0.343564 0.239093 1.483692
v 0.281267 0.239093 0.069359
v 0.288536 0.247982 0.069359
v 0.288536 0.234422 0.069359
v 0.336314 0.247982 0.069359
v 0.343564 0.239093 0.069359
v 0.336314 0.234422 0.069359
v 0.281267 0.239093 0.006982
v 0.288536 0.234422 0.006982
v 0.288536 0.247982 0.006982
v 0.336314 0.247982 0.006982
v 0.336314 0.234422 0.006982
v 0.343564 0.239093 0.006982
v 0.281267 0.239093 -1.196548
v 0.288536 0.247982 -1.196548
v 0.288536 0.234422 -1.196548
v 0.336311 0.247982 -1.196548
v 0.343564 0.239093 -1.196548
v 0.336311 0.234422 -1.196548
v 0.281267 0.239093 -1.259219
v 0.288536 0.234422 -1.259219
v 0.288536 0.247982 -1.259219
v 0.336311 0.247982 -1.259219
v 0.336311 0.234422 -1.259219
v 0.343564 0.239093 -1.259219
v 0.312377 0.176309 -2.066933
v 0.278536 0.167230 -2.066933
v 0.346291 0.167230 -2.066933
v 0.371095 0.142429 -2.066933
v 0.253736 0.142429 -2.066933
v 0.380171 0.108512 -2.066933
v 0.318615 -0.021688 0.950984
v 0.306213 -0.021688 0.950984
v 0.306213 -0.007002 0.950984
v 0.318615 -0.007002 0.950984
v 0.338270 -0.026435 0.859980
v 0.286558 -0.026435 0.859980
v 0.338270 -0.007002 0.859980
v 0.338269 -0.007002 -1.969296
v 0.338269 -0.026435 -1.969296
v 0.286558 -0.026435 -1.969296
v 0.286558 -0.007002 0.859980
v 0.286558 -0.007002 -1.969296
v 0.269038 0.033395 -2.108210
v 0.249780 0.000080 -2.058492
v 0.312453 -0.016717 -2.058492
v 0.312446 0.021795 -2.108210
v 0.249780 0.000080 0.110175
v 0.312453 -0.016717 0.110175
v 0.237260 0.065173 -2.108210
v 0.203942 0.045915 -2.058492
v 0.203942 0.045915 0.110175
v 0.225661 0.108519 -2.108210
v 0.187145 0.108512 -2.058492
v 0.187145 0.108512 0.110175
v 0.237260 0.151928 -2.108210
v 0.203942 0.171185 -2.058492
v 0.203942 0.171185 0.110175
v 0.269038 0.183705 -2.108210
v 0.249780 0.217023 -2.058492
v 0.249780 0.217023 0.110175
v 0.312446 0.195305 -2.108210
v 0.312453 0.233821 -2.058492
v 0.312453 0.233821 0.110175
v 0.355793 0.183705 -2.108210
v 0.375047 0.217023 -2.058492
v 0.375051 0.217023 0.110175
v 0.387570 0.151928 -2.108210
v 0.420885 0.171185 -2.058492
v 0.420885 0.171185 0.110175
v 0.399170 0.108519 -2.108210
v 0.437682 0.108512 -2.058492
v 0.437683 0.108512 0.110175
v 0.420885 0.045915 -2.058492
v 0.420885 0.045915 0.110175
v 0.387570 0.065173 -2.108210
v 0.355793 0.033395 -2.108210
v 0.375047 0.000080 -2.058492
v 0.375051 0.000080 0.110175
v 0.249781 0.000080 2.327352
v 0.312454 -0.016717 2.327352
v 0.203946 0.045915 2.327352
v 0.187145 0.108588 2.327352
v 0.203946 0.171185 2.327352
v 0.249781 0.217023 2.327352
v 0.312454 0.233821 2.327352
v 0.375051 0.217023 2.327352
v 0.420886 0.171185 2.327352
v 0.437683 0.108588 2.327352
v 0.420886 0.045915 2.327352
v 0.375051 0.000080 2.327352
v 0.336311 0.227115 -1.196548
v 0.336311 0.227115 -1.259219
v 0.288536 0.227115 -1.196548
v 0.288536 0.227115 -1.259219
v 0.336314 0.226514 1.545763
v 0.336314 0.226514 1.483692
v 0.288536 0.226514 1.545763
v 0.288536 0.226514 1.483692
v 0.336314 0.227115 0.069359
v 0.336314 0.227115 0.006982
v 0.288536 0.227115 0.069359
v 0.288536 0.227115 0.006982
v 0.312446 0.180312 -2.108210
v 0.348294 0.170687 -2.108210
v 0.276535 0.170687 -2.108210
v 0.250278 0.144431 -2.108210
v 0.240654 0.108519 -2.108210
v 0.244657 0.108512 -2.066933
v 0.374550 0.144431 -2.108210
v 0.371095 0.074674 -2.066933
v 0.384175 0.108519 -2.108210
v 0.374550 0.072669 -2.108210
v 0.253736 0.074674 -2.066933
v 0.346291 0.049871 -2.066933
v 0.250278 0.072669 -2.108210
v 0.348294 0.046416 -2.108210
v 0.276535 0.046416 -2.108210
v 0.278536 0.049871 -2.066933
v 0.312377 0.040795 -2.066933
v 0.312446 0.036791 -2.108210
v 0.212531 0.030285 -1.910247
v 0.218331 0.014466 -1.919887
v 0.228350 0.024485 -1.919887
v 0.217502 0.035295 -1.910247
v 0.212531 0.040266 -1.895787
v 0.209971 0.037706 -1.895787
v 0.212531 0.030285 -1.866854
v 0.218331 0.014466 -1.857216
v 0.212531 0.040266 -1.881315
v 0.209971 0.037706 -1.881315
v 0.217502 0.035295 -1.866854
v 0.228350 0.024485 -1.857216
v 0.234151 0.008669 -1.866854
v 0.234151 0.008669 -1.910247
v 0.239160 0.013640 -1.910247
v 0.239160 0.013640 -1.866854
v 0.241568 0.006105 -1.881315
v 0.241568 0.006105 -1.895787
v 0.244131 0.008669 -1.895787
v 0.244132 0.008669 -1.881315
v 0.396481 0.192615 -1.919887
v 0.407325 0.181805 -1.910247
v 0.412297 0.186815 -1.910247
v 0.406499 0.202634 -1.919887
v 0.412297 0.176834 -1.895787
v 0.414860 0.179397 -1.895787
v 0.412297 0.186815 -1.866854
v 0.406499 0.202634 -1.857216
v 0.412297 0.176834 -1.881315
v 0.414860 0.179397 -1.881315
v 0.407325 0.181805 -1.866854
v 0.396481 0.192615 -1.857216
v 0.390680 0.208435 -1.866854
v 0.390680 0.208435 -1.910247
v 0.385671 0.203463 -1.910247
v 0.385671 0.203463 -1.866854
v 0.383259 0.210995 -1.881315
v 0.383259 0.210995 -1.895787
v 0.380699 0.208435 -1.895787
v 0.380699 0.208435 -1.881315
v 0.228350 0.192615 -1.919887
v 0.239160 0.203463 -1.910247
v 0.234151 0.208435 -1.910247
v 0.218331 0.202634 -1.919887
v 0.244131 0.208435 -1.895787
v 0.241568 0.210995 -1.895787
v 0.234151 0.208435 -1.866854
v 0.218331 0.202634 -1.857216
v 0.244132 0.208435 -1.881315
v 0.241568 0.210995 -1.881315
v 0.239160 0.203463 -1.866854
v 0.228350 0.192615 -1.857216
v 0.212531 0.186815 -1.866854
v 0.212531 0.186815 -1.910247
v 0.217502 0.181805 -1.910247
v 0.217502 0.181805 -1.866854
v 0.209971 0.179397 -1.881315
v 0.209971 0.179397 -1.895787
v 0.212531 0.176834 -1.895787
v 0.212531 0.176834 -1.881315
v 0.390680 0.008669 -1.910247
v 0.406499 0.014466 -1.919887
v 0.396481 0.024485 -1.919887
v 0.385671 0.013640 -1.910247
v 0.380699 0.008669 -1.895787
v 0.383259 0.006105 -1.895787
v 0.390680 0.008669 -1.866854
v 0.406499 0.014466 -1.857216
v 0.380699 0.008669 -1.881315
v 0.383259 0.006105 -1.881315
v 0.385671 0.013640 -1.866854
v 0.396481 0.024485 -1.857216
v 0.412297 0.030285 -1.866854
v 0.412297 0.030285 -1.910247
v 0.407325 0.035295 -1.910247
v 0.407325 0.035295 -1.866854
v 0.414860 0.037706 -1.881315
v 0.414860 0.037706 -1.895787
v 0.412297 0.040266 -1.895787
v 0.412297 0.040266 -1.881315
v 0.105452 0.322596 -2.014946
v 0.232945 0.195704 -2.014946
v 0.103567 0.320711 -1.801443
v 0.100254 0.317398 -1.801443
v 0.225261 0.188021 -2.014946
v 0.098370 0.315514 -2.014946
v 0.194045 0.226921 -1.575547
v 0.222398 0.184594 -0.400219
v 0.236372 0.198568 -0.400219
v 0.116170 0.304795 -0.337166
v 0.229103 0.191862 -1.573979
v 0.229404 0.191562 0.283842
v 0.116889 0.304076 0.006778
v 0.526460 -0.098414 -2.014946
v 0.524575 -0.100298 -1.801443
v 0.399569 0.029080 -2.014946
v 0.521263 -0.103611 -1.801443
v 0.519378 -0.105496 -2.014946
v 0.391886 0.021396 -2.014946
v 0.430786 -0.009820 -1.575547
v 0.388459 0.018532 -0.400219
v 0.508660 -0.087695 -0.337166
v 0.402433 0.032506 -0.400219
v 0.395728 0.025238 -1.573979
v 0.507941 -0.086976 0.006778
v 0.395427 0.025538 0.283842
v 0.526460 0.315514 -2.014946
v 0.399569 0.188021 -2.014946
v 0.524575 0.317398 -1.801443
v 0.521263 0.320711 -1.801443
v 0.391886 0.195704 -2.014946
v 0.519378 0.322596 -2.014946
v 0.430786 0.226921 -1.575547
v 0.388459 0.198568 -0.400219
v 0.402433 0.184594 -0.400219
v 0.508660 0.304795 -0.337166
v 0.395728 0.191862 -1.573979
v 0.395427 0.191562 0.283842
v 0.507941 0.304076 0.006778
v 0.105452 -0.105496 -2.014946
v 0.103567 -0.103611 -1.801443
v 0.232945 0.021396 -2.014946
v 0.100254 -0.100298 -1.801443
v 0.098370 -0.098413 -2.014946
v 0.225261 0.029079 -2.014946
v 0.194045 -0.009820 -1.575547
v 0.222398 0.032507 -0.400219
v 0.116170 -0.087695 -0.337166
v 0.236372 0.018532 -0.400219
v 0.229103 0.025238 -1.573979
v 0.116889 -0.086976 0.006778
v 0.229404 0.025538 0.283842
v 0.312454 0.108588 2.743159
v 0.351134 0.041472 2.564787
v 0.312454 0.031114 2.564787
v 0.379494 0.069832 2.564787
v 0.389851 0.108588 2.564787
v 0.379494 0.147268 2.564787
v 0.351134 0.175628 2.564787
v 0.312454 0.185986 2.564787
v 0.273698 0.175628 2.564787
v 0.245338 0.147268 2.564787
v 0.234980 0.108588 2.564787
v 0.245338 0.069832 2.564787
v 0.273698 0.041472 2.564787
v 0.258708 0.015523 2.457514
v 0.312454 0.001134 2.457514
v 0.219386 0.054842 2.457514
v 0.204999 0.108588 2.457514
v 0.219386 0.162258 2.457514
v 0.258708 0.201581 2.457514
v 0.312454 0.215966 2.457514
v 0.366124 0.201581 2.457514
v 0.405443 0.162258 2.457514
v 0.419832 0.108588 2.457514
v 0.405443 0.054842 2.457514
v 0.366124 0.015523 2.457514
v -0.288791 0.234422 1.290911
v -0.288791 0.247982 1.290911
v -0.281522 0.239093 1.290911
v -0.336569 0.234422 1.290911
v -0.343819 0.239093 1.290911
v -0.336569 0.247982 1.290911
v -0.288791 0.247982 1.228840
v -0.288791 0.234422 1.228840
v -0.281522 0.239093 1.228840
v -0.343819 0.239093 1.228840
v -0.336569 0.234422 1.228840
v -0.336569 0.247982 1.228840
v -0.288791 0.234422 -0.185492
v -0.288791 0.247982 -0.185492
v -0.281522 0.239093 -0.185492
v -0.336569 0.234422 -0.185492
v -0.343819 0.239093 -0.185492
v -0.336569 0.247982 -0.185492
v -0.288791 0.247982 -0.247869
v -0.288791 0.234422 -0.247869
v -0.281522 0.239093 -0.247869
v -0.343819 0.239093 -0.247869
v -0.336569 0.234422 -0.247869
v -0.336569 0.247982 -0.247869
v -0.288791 0.234422 -1.451400
v -0.288791 0.247982 -1.451400
v -0.281522 0.239093 -1.451400
v -0.336566 0.234422 -1.451400
v -0.343819 0.239093 -1.451400
v -0.336566 0.247982 -1.451400
v -0.288791 0.247982 -1.514071
v -0.288791 0.234422 -1.514071
v -0.281522 0.239093 -1.514071
v -0.343819 0.239093 -1.514071
v -0.336566 0.234422 -1.514071
v -0.336566 0.247982 -1.514071
v -0.346546 0.167230 -2.321781
v -0.278791 0.167230 -2.321781
v -0.312632 0.176309 -2.321781
v -0.380426 0.108512 -2.321781
v -0.253991 0.142429 -2.321781
v -0.371350 0.142429 -2.321781
v -0.318870 -0.007002 0.696133
v -0.306468 -0.007002 0.696133
v -0.306468 -0.021688 0.696133
v -0.318870 -0.021688 0.696133
v -0.286813 -0.026435 0.605129
v -0.338525 -0.026435 0.605129
v -0.338525 -0.007002 0.605129
v -0.338524 -0.026435 -2.224148
v -0.338524 -0.007002 -2.224148
v -0.286813 -0.026435 -2.224148
v -0.286813 -0.007002 0.605129
v -0.286813 -0.007002 -2.224148
v -0.312701 0.021795 -2.363056
v -0.312708 -0.016717 -2.313340
v -0.250035 0.000080 -2.313340
v -0.269293 0.033395 -2.363056
v -0.312708 -0.016717 -0.144676
v -0.250035 0.000080 -0.144676
v -0.204197 0.045915 -2.313340
v -0.237515 0.065173 -2.363056
v -0.204197 0.045915 -0.144676
v -0.187400 0.108512 -2.313340
v -0.225916 0.108519 -2.363056
v -0.187400 0.108512 -0.144676
v -0.204197 0.171185 -2.313340
v -0.237515 0.151928 -2.363056
v -0.204197 0.171185 -0.144676
v -0.250035 0.217023 -2.313340
v -0.269293 0.183705 -2.363056
v -0.250035 0.217023 -0.144676
v -0.312708 0.233821 -2.313340
v -0.312701 0.195305 -2.363056
v -0.312708 0.233821 -0.144676
v -0.375302 0.217023 -2.313340
v -0.356048 0.183705 -2.363056
v -0.375306 0.217023 -0.144676
v -0.421140 0.171185 -2.313340
v -0.387825 0.151928 -2.363056
v -0.421140 0.171185 -0.144676
v -0.437937 0.108512 -2.313340
v -0.399425 0.108519 -2.363056
v -0.437938 0.108512 -0.144676
v -0.421140 0.045915 -0.144676
v -0.421140 0.045915 -2.313340
v -0.387825 0.065173 -2.363056
v -0.375302 0.000080 -2.313340
v -0.356048 0.033395 -2.363056
v -0.375306 0.000080 -0.144676
v -0.312709 -0.016717 2.072505
v -0.250036 0.000080 2.072505
v -0.204201 0.045915 2.072505
v -0.187400 0.108588 2.072505
v -0.204201 0.171185 2.072505
v -0.250036 0.217023 2.072505
v -0.312709 0.233821 2.072505
v -0.375306 0.217023 2.072505
v -0.421141 0.171185 2.072505
v -0.437938 0.108588 2.072505
v -0.421141 0.045915 2.072505
v -0.375306 0.000080 2.072505
v -0.336566 0.227115 -1.514071
v -0.336566 0.227115 -1.451400
v -0.288791 0.227115 -1.514071
v -0.288791 0.227115 -1.451400
v -0.336569 0.226514 1.228840
v -0.336569 0.226514 1.290911
v -0.288791 0.226514 1.228840
v -0.288791 0.226514 1.290911
v -0.336569 0.227115 -0.247869
v -0.336569 0.227115 -0.185492
v -0.288791 0.227115 -0.247869
v -0.288791 0.227115 -0.185492
v -0.348549 0.170687 -2.363056
v -0.312701 0.180312 -2.363056
v -0.276790 0.170687 -2.363056
v -0.250533 0.144431 -2.363056
v -0.240909 0.108519 -2.363056
v -0.244912 0.108512 -2.321781
v -0.374805 0.144431 -2.363056
v -0.371350 0.074674 -2.321781
v -0.384430 0.108519 -2.363056
v -0.374805 0.072669 -2.363056
v -0.346546 0.049871 -2.321781
v -0.253991 0.074674 -2.321781
v -0.250533 0.072669 -2.363056
v -0.348549 0.046416 -2.363056
v -0.278791 0.049871 -2.321781
v -0.276790 0.046416 -2.363056
v -0.312632 0.040795 -2.321781
v -0.312701 0.036791 -2.363056
v -0.217757 0.035295 -2.165098
v -0.228605 0.024485 -2.174738
v -0.218586 0.014466 -2.174738
v -0.212786 0.030285 -2.165098
v -0.210226 0.037706 -2.150638
v -0.212786 0.040266 -2.150638
v -0.218586 0.014466 -2.112067
v -0.212786 0.030285 -2.121706
v -0.210226 0.037706 -2.136167
v -0.212786 0.040266 -2.136167
v -0.217757 0.035295 -2.121706
v -0.228605 0.024485 -2.112067
v -0.234406 0.008669 -2.165098
v -0.234406 0.008669 -2.121706
v -0.239415 0.013640 -2.165098
v -0.239415 0.013640 -2.121706
v -0.241823 0.006105 -2.150638
v -0.241823 0.006105 -2.136167
v -0.244386 0.008669 -2.150638
v -0.244387 0.008669 -2.136167
v -0.406754 0.202634 -2.174738
v -0.412552 0.186815 -2.165098
v -0.407580 0.181805 -2.165098
v -0.396736 0.192615 -2.174738
v -0.415115 0.179397 -2.150638
v -0.412552 0.176834 -2.150638
v -0.406754 0.202634 -2.112067
v -0.412552 0.186815 -2.121706
v -0.415115 0.179397 -2.136167
v -0.412552 0.176834 -2.136167
v -0.407580 0.181805 -2.121706
v -0.396736 0.192615 -2.112067
v -0.390935 0.208435 -2.165098
v -0.390935 0.208435 -2.121706
v -0.385926 0.203463 -2.165098
v -0.385926 0.203463 -2.121706
v -0.383514 0.210995 -2.150638
v -0.383514 0.210995 -2.136167
v -0.380954 0.208435 -2.150638
v -0.380954 0.208435 -2.136167
v -0.218586 0.202634 -2.174738
v -0.234406 0.208435 -2.165098
v -0.239415 0.203463 -2.165098
v -0.228605 0.192615 -2.174738
v -0.241823 0.210995 -2.150638
v -0.244386 0.208435 -2.150638
v -0.218586 0.202634 -2.112067
v -0.234406 0.208435 -2.121706
v -0.241823 0.210995 -2.136167
v -0.244387 0.208435 -2.136167
v -0.239415 0.203463 -2.121706
v -0.228605 0.192615 -2.112067
v -0.212786 0.186815 -2.165098
v -0.212786 0.186815 -2.121706
v -0.217757 0.181805 -2.165098
v -0.217757 0.181805 -2.121706
v -0.210226 0.179397 -2.150638
v -0.210226 0.179397 -2.136167
v -0.212786 0.176834 -2.150638
v -0.212786 0.176834 -2.136167
v -0.385926 0.013640 -2.165098
v -0.396736 0.024485 -2.174738
v -0.406754 0.014466 -2.174738
v -0.390935 0.008669 -2.165098
v -0.383514 0.006105 -2.150638
v -0.380954 0.008669 -2.150638
v -0.406754 0.014466 -2.112067
v -0.390935 0.008669 -2.121706
v -0.383514 0.006105 -2.136167
v -0.380954 0.008669 -2.136167
v -0.385926 0.013640 -2.121706
v -0.396736 0.024485 -2.112067
v -0.412552 0.030285 -2.165098
v -0.412552 0.030285 -2.121706
v -0.407580 0.035295 -2.165098
v -0.407580 0.035295 -2.121706
v -0.415115 0.037706 -2.150638
v -0.415115 0.037706 -2.136167
v -0.412552 0.040266 -2.150638
v -0.412552 0.040266 -2.136167
v -0.103822 0.320711 -2.056294
v -0.233200 0.195704 -2.269795
v -0.105707 0.322596 -2.269795
v -0.098625 0.315514 -2.269795
v -0.225516 0.188021 -2.269795
v -0.100509 0.317398 -2.056294
v -0.194300 0.226921 -1.830399
v -0.116425 0.304795 -0.592017
v -0.236627 0.198568 -0.655070
v -0.222653 0.184594 -0.655070
v -0.229358 0.191862 -1.828831
v -0.117144 0.304076 -0.248073
v -0.229659 0.191562 0.028992
v -0.399824 0.029080 -2.269795
v -0.524831 -0.100298 -2.056294
v -0.526716 -0.098414 -2.269795
v -0.392141 0.021396 -2.269795
v -0.519634 -0.105496 -2.269795
v -0.521519 -0.103611 -2.056294
v -0.431041 -0.009820 -1.830399
v -0.402688 0.032506 -0.655070
v -0.508916 -0.087695 -0.592017
v -0.388714 0.018532 -0.655070
v -0.395983 0.025238 -1.828831
v -0.395682 0.025538 0.028992
v -0.508197 -0.086976 -0.248073
v -0.524831 0.317398 -2.056294
v -0.399824 0.188021 -2.269795
v -0.526716 0.315514 -2.269795
v -0.519634 0.322596 -2.269795
v -0.392141 0.195704 -2.269795
v -0.521519 0.320711 -2.056294
v -0.431041 0.226921 -1.830399
v -0.508916 0.304795 -0.592017
v -0.402688 0.184594 -0.655070
v -0.388714 0.198568 -0.655070
v -0.395983 0.191862 -1.828831
v -0.508197 0.304076 -0.248073
v -0.395682 0.191562 0.028992
v -0.233200 0.021396 -2.269795
v -0.103822 -0.103611 -2.056294
v -0.105707 -0.105496 -2.269795
v -0.225516 0.029079 -2.269795
v -0.098625 -0.098413 -2.269795
v -0.100509 -0.100298 -2.056294
v -0.194300 -0.009820 -1.830399
v -0.236627 0.018532 -0.655070
v -0.116425 -0.087695 -0.592017
v -0.222653 0.032507 -0.655070
v -0.229358 0.025238 -1.828831
v -0.229659 0.025538 0.028992
v -0.117144 -0.086976 -0.248073
v -0.312709 0.031114 2.309941
v -0.351389 0.041472 2.309941
v -0.312709 0.108588 2.488313
v -0.379749 0.069832 2.309941
v -0.390106 0.108588 2.309941
v -0.379749 0.147268 2.309941
v -0.351389 0.175628 2.309941
v -0.312709 0.185986 2.309941
v -0.273953 0.175628 2.309941
v -0.245593 0.147268 2.309941
v -0.235235 0.108588 2.309941
v -0.245593 0.069832 2.309941
v -0.273953 0.041472 2.309941
v -0.312709 0.001134 2.202668
v -0.258963 0.015523 2.202668
v -0.219641 0.054842 2.202668
v -0.205254 0.108588 2.202668
v -0.219641 0.162258 2.202668
v -0.258963 0.201581 2.202668
v -0.312709 0.215966 2.202668
v -0.366379 0.201581 2.202668
v -0.405698 0.162258 2.202668
v -0.420087 0.108588 2.202668
v -0.405698 0.054842 2.202668
v -0.366379 0.015523 2.202668
# 873 vertices

vt 0.90705 0.85148
vt 0.79290 0.89103
vt 0.71820 0.85440
vt 0.96070 0.87773
vt 0.97360 0.75920
vt 0.96410 0.75825
vt 0.95480 0.75920
vt 0.00908 0.82613
vt 0.00908 0.84610
vt 0.44736 0.84610
vt 0.78205 0.79395
vt 0.95325 0.80805
vt 0.89755 0.83670
vt 0.70400 0.83390
vt 0.89545 0.84485
vt 0.70305 0.84492
vt 0.80760 0.78460
vt 0.97480 0.79990
vt 0.97850 0.89085
vt 0.81220 0.90720
vt 0.98140 0.76180
vt 0.94700 0.76180
vt 0.98880 0.77755
vt 0.93970 0.77755
vt 0.93970 0.78525
vt 0.98880 0.78525
vt 0.98880 0.77045
vt 0.93970 0.77045
vt 0.58767 0.67615
vt 0.95048 0.67489
vt 0.92987 0.68615
vt 0.58767 0.68515
vt 0.95696 0.67489
vt 0.93690 0.68618
vt 0.73870 0.77432
vt 0.48626 0.84610
vt 0.48892 0.84610
vt 0.74136 0.77432
vt 0.07896 0.77432
vt 0.69981 0.77432
vt 0.07918 0.77405
vt 0.01758 0.82613
vt 0.08741 0.77405
vt 0.00908 0.84645
vt 0.01758 0.84645
vt 0.70831 0.77432
vt 0.45587 0.84610
vt 0.08948 0.81747
vt 0.08129 0.80938
vt 0.08796 0.80938
vt 0.09636 0.81747
vt 0.08111 0.80960
vt 0.56711 0.80960
vt 0.55785 0.81747
vt 0.11754 0.82677
vt 0.51314 0.82677
vt 0.57407 0.81747
vt 0.58287 0.80960
vt 0.57056 0.80960
vt 0.56140 0.81747
vt 0.52890 0.82677
vt 0.51659 0.82677
vt 0.12443 0.82705
vt 0.11754 0.82705
vt 0.59334 0.67615
vt 0.95614 0.67489
vt 0.93554 0.68615
vt 0.59334 0.68515
vt 0.41383 0.61033
vt 0.49384 0.61033
vt 0.49384 0.57200
vt 0.41383 0.57200
vt 0.19285 0.51534
vt 0.19642 0.51534
vt 0.19206 0.50320
vt 0.18861 0.50320
vt 0.18851 0.50353
vt 0.84506 0.51534
vt 0.84838 0.50353
vt 0.20740 0.52673
vt 0.82895 0.52673
vt 0.85026 0.51534
vt 0.85343 0.50353
vt 0.83400 0.52673
vt 0.21096 0.52673
vt 0.19821 0.51760
vt 0.83814 0.51787
vt 0.82812 0.52672
vt 0.20576 0.52668
vt 0.67298 0.53551
vt 0.70210 0.53551
vt 0.70210 0.52114
vt 0.67298 0.52114
vt 0.81110 0.30290
vt 0.81600 0.30560
vt 0.81600 0.30145
vt 0.84580 0.30560
vt 0.85020 0.30290
vt 0.84580 0.30145
vt 0.89320 0.30290
vt 0.88830 0.30145
vt 0.88830 0.30560
vt 0.85850 0.30560
vt 0.85850 0.30145
vt 0.85360 0.30290
vt 0.81180 0.30280
vt 0.81620 0.30545
vt 0.81620 0.30130
vt 0.84650 0.30545
vt 0.85090 0.30280
vt 0.84650 0.30130
vt 0.89290 0.30280
vt 0.88850 0.30130
vt 0.88850 0.30545
vt 0.85820 0.30545
vt 0.85820 0.30130
vt 0.85380 0.30280
vt 0.81150 0.30270
vt 0.81640 0.30565
vt 0.81640 0.30125
vt 0.84620 0.30565
vt 0.85110 0.30270
vt 0.84620 0.30125
vt 0.89310 0.30270
vt 0.88870 0.30125
vt 0.88870 0.30565
vt 0.85890 0.30565
vt 0.85890 0.30125
vt 0.85400 0.30270
vt 0.38430 0.41885
vt 0.36750 0.42105
vt 0.40160 0.42105
vt 0.41430 0.42710
vt 0.35480 0.42710
vt 0.41970 0.43540
vt 0.97900 0.25455
vt 0.97360 0.25455
vt 0.97410 0.25605
vt 0.97900 0.25610
vt 0.98680 0.24510
vt 0.96580 0.24510
vt 0.98530 0.25495
vt 0.99460 0.24510
vt 0.99460 0.00545
vt 0.98680 0.00545
vt 0.96580 0.00545
vt 0.95800 0.24510
vt 0.96780 0.25495
vt 0.95800 0.00545
vt 0.98680 0.00350
vt 0.96580 0.00350
vt 0.59160 0.00290
vt 0.59160 0.00304
vt 0.61700 0.00304
vt 0.61700 0.00290
vt 0.59160 0.36790
vt 0.61700 0.36790
vt 0.56670 0.00290
vt 0.56670 0.00304
vt 0.56670 0.36790
vt 0.54130 0.00290
vt 0.54130 0.00304
vt 0.54130 0.36790
vt 0.51590 0.00290
vt 0.51590 0.00304
vt 0.51590 0.36790
vt 0.49100 0.00290
vt 0.49100 0.00304
vt 0.49100 0.36790
vt 0.46560 0.00290
vt 0.46560 0.00304
vt 0.46560 0.36790
vt 0.44050 0.00290
vt 0.44050 0.00304
vt 0.44050 0.36790
vt 0.41510 0.00290
vt 0.41510 0.00304
vt 0.41510 0.36790
vt 0.38990 0.00290
vt 0.38990 0.00304
vt 0.38990 0.36790
vt 0.36480 0.00304
vt 0.36480 0.36790
vt 0.36480 0.00290
vt 0.33940 0.00290
vt 0.33940 0.00304
vt 0.33940 0.36790
vt 0.31430 0.00290
vt 0.31430 0.00304
vt 0.31430 0.36790
vt 0.28580 0.00365
vt 0.28560 0.46293
vt 0.30944 0.46293
vt 0.30944 0.00365
vt 0.26030 0.00365
vt 0.26030 0.46293
vt 0.23510 0.00365
vt 0.23500 0.46293
vt 0.20970 0.00365
vt 0.20970 0.46293
vt 0.18440 0.00365
vt 0.18430 0.46293
vt 0.15900 0.00365
vt 0.15900 0.46293
vt 0.13370 0.00365
vt 0.13370 0.46293
vt 0.10840 0.00365
vt 0.10830 0.46293
vt 0.08300 0.00365
vt 0.08300 0.46293
vt 0.05770 0.00365
vt 0.05760 0.46293
vt 0.03240 0.00365
vt 0.03230 0.46293
vt 0.00700 0.00365
vt 0.00700 0.46293
vt 0.81980 0.32640
vt 0.82420 0.32640
vt 0.82420 0.30685
vt 0.81980 0.30685
vt 0.82960 0.32640
vt 0.82960 0.30685
vt 0.83690 0.32640
vt 0.83690 0.30685
vt 0.86720 0.32640
vt 0.86720 0.30685
vt 0.87400 0.32640
vt 0.87450 0.30685
vt 0.87990 0.32640
vt 0.87990 0.30685
vt 0.88430 0.32640
vt 0.88430 0.30685
vt 0.81940 0.32660
vt 0.82430 0.32660
vt 0.82430 0.30705
vt 0.81940 0.30705
vt 0.82970 0.32660
vt 0.82970 0.30705
vt 0.83700 0.32660
vt 0.83700 0.30705
vt 0.86730 0.32660
vt 0.86730 0.30705
vt 0.87410 0.32660
vt 0.87410 0.30705
vt 0.87950 0.32660
vt 0.87950 0.30705
vt 0.88490 0.32660
vt 0.88490 0.30705
vt 0.82060 0.32620
vt 0.82500 0.32620
vt 0.82500 0.30670
vt 0.82060 0.30670
vt 0.83040 0.32620
vt 0.83090 0.30670
vt 0.83770 0.32620
vt 0.83770 0.30670
vt 0.86800 0.32620
vt 0.86800 0.30670
vt 0.87530 0.32620
vt 0.87530 0.30670
vt 0.88070 0.32620
vt 0.88070 0.30670
vt 0.88510 0.32620
vt 0.88510 0.30670
vt 0.84580 0.29875
vt 0.81600 0.29875
vt 0.88830 0.29875
vt 0.85850 0.29875
vt 0.84650 0.29885
vt 0.81620 0.29885
vt 0.88850 0.29885
vt 0.85820 0.29885
vt 0.84620 0.29905
vt 0.81640 0.29905
vt 0.88870 0.29905
vt 0.85890 0.29905
vt 0.38430 0.40645
vt 0.41380 0.41030
vt 0.41970 0.40495
vt 0.38430 0.40030
vt 0.34930 0.40495
vt 0.35520 0.41030
vt 0.32300 0.41775
vt 0.33340 0.42085
vt 0.31300 0.43540
vt 0.32530 0.43540
vt 0.34930 0.43540
vt 0.43560 0.42085
vt 0.44610 0.41775
vt 0.41430 0.44365
vt 0.44330 0.43540
vt 0.43560 0.44995
vt 0.35480 0.44365
vt 0.40160 0.44970
vt 0.33340 0.44995
vt 0.32300 0.45305
vt 0.45560 0.43540
vt 0.41380 0.46050
vt 0.35520 0.46050
vt 0.36750 0.44970
vt 0.38430 0.45190
vt 0.44610 0.45305
vt 0.41970 0.46580
vt 0.34930 0.46580
vt 0.38430 0.46435
vt 0.38430 0.47045
vt 0.66320 0.41365
vt 0.65630 0.41555
vt 0.66070 0.41730
vt 0.66560 0.41450
vt 0.66810 0.41090
vt 0.66660 0.41080
vt 0.66320 0.40490
vt 0.65630 0.40305
vt 0.66810 0.40760
vt 0.66660 0.40775
vt 0.66560 0.40400
vt 0.66070 0.40120
vt 0.65000 0.40490
vt 0.65000 0.41365
vt 0.64760 0.41455
vt 0.65200 0.41730
vt 0.65200 0.40120
vt 0.64760 0.40400
vt 0.64660 0.40775
vt 0.64660 0.41080
vt 0.64510 0.41090
vt 0.64510 0.40765
vt 0.62660 0.41055
vt 0.63100 0.40775
vt 0.62900 0.40680
vt 0.62220 0.40875
vt 0.63340 0.40415
vt 0.63190 0.40400
vt 0.62900 0.39815
vt 0.62220 0.39620
vt 0.63340 0.40085
vt 0.63190 0.40095
vt 0.63100 0.39725
vt 0.62660 0.39440
vt 0.61530 0.39815
vt 0.61530 0.40680
vt 0.61340 0.40775
vt 0.61780 0.41055
vt 0.61780 0.39440
vt 0.61340 0.39725
vt 0.61240 0.40095
vt 0.61240 0.40400
vt 0.61090 0.40415
vt 0.61090 0.40085
vt 0.76560 0.43340
vt 0.76580 0.47195
vt 0.81290 0.43025
vt 0.70620 0.43025
vt 0.75350 0.47195
vt 0.75380 0.43340
vt 0.93990 0.47920
vt 0.81670 0.42920
vt 0.81490 0.42965
vt 0.66124 0.06532
vt 0.65174 0.06532
vt 0.65614 0.14757
vt 0.76380 0.43115
vt 0.76480 0.43265
vt 0.81220 0.42935
vt 0.81190 0.42875
vt 0.90360 0.48800
vt 0.93820 0.47980
vt 0.75700 0.47195
vt 0.76230 0.47195
vt 0.76200 0.43340
vt 0.75730 0.43340
vt 0.58130 0.47980
vt 0.61570 0.48800
vt 0.62720 0.16065
vt 0.62770 0.29285
vt 0.73945 0.19797
vt 0.78250 0.16065
vt 0.74527 0.11368
vt 0.62720 0.02125
vt 0.62720 0.15014
vt 0.78832 0.15004
vt 0.48964 0.47391
vt 0.49940 0.46607
vt 0.48964 0.46486
vt 0.50657 0.46938
vt 0.50918 0.47391
vt 0.50657 0.47842
vt 0.49940 0.48174
vt 0.48964 0.48295
vt 0.47985 0.48174
vt 0.47269 0.47842
vt 0.47007 0.47391
vt 0.47269 0.46938
vt 0.47985 0.46607
vt 0.47606 0.46304
vt 0.48964 0.46136
vt 0.48964 0.45928
vt 0.47381 0.46124
vt 0.46223 0.46659
vt 0.46613 0.46763
vt 0.45799 0.47391
vt 0.46250 0.47391
vt 0.46223 0.48122
vt 0.46613 0.48018
vt 0.47381 0.48657
vt 0.47606 0.48477
vt 0.48964 0.48853
vt 0.48964 0.48645
vt 0.50545 0.48657
vt 0.50319 0.48477
vt 0.51702 0.48122
vt 0.51312 0.48018
vt 0.52126 0.47391
vt 0.51675 0.47391
vt 0.51702 0.46659
vt 0.51312 0.46763
vt 0.50545 0.46124
vt 0.50319 0.46304
# 419 texture vertices

vn -0.07972 0.86791 0.49028
vn -0.29863 0.91918 0.25678
vn -0.67623 0.67316 -0.29927
vn -0.75556 0.36221 -0.54583
vn 0.41034 -0.91190 -0.00813
vn 0.49213 -0.86277 0.11592
vn 0.40984 -0.91209 -0.01084
vn 0.52956 -0.82924 0.17870
vn 0.07972 0.86791 0.49028
vn 0.29863 0.91918 0.25678
vn 0.67623 0.67316 -0.29927
vn 0.75556 0.36221 -0.54583
vn -0.41034 -0.91190 -0.00813
vn -0.49213 -0.86277 0.11592
vn -0.40984 -0.91209 -0.01084
vn -0.52956 -0.82924 0.17870
vn 0.24083 0.84234 0.48215
vn -0.13769 0.95407 0.26606
vn -0.74800 0.62421 -0.22551
vn -0.86103 -0.09509 -0.49959
vn 0.40580 -0.91393 -0.00771
vn 0.53383 -0.83959 0.10055
vn 0.40297 -0.91514 -0.01132
vn 0.59349 -0.78964 0.15566
vn -0.24083 0.84234 0.48215
vn 0.13769 0.95407 0.26606
vn 0.74800 0.62421 -0.22551
vn 0.86103 -0.09509 -0.49959
vn -0.40580 -0.91393 -0.00771
vn -0.53383 -0.83959 0.10055
vn -0.40297 -0.91514 -0.01132
vn -0.59349 -0.78964 0.15566
vn -0.23573 -0.97182 0.00000
vn -0.63486 0.00000 0.77263
vn 0.00000 -1.00000 0.00000
vn -0.63126 0.00000 -0.77557
vn -0.88086 -0.47337 0.00000
vn -0.70101 -0.71315 0.00000
vn 0.00000 1.00000 0.00000
vn -0.23573 -0.97182 0.00000
vn -0.63487 0.00000 0.77262
vn 0.00000 -1.00000 0.00000
vn -0.63126 0.00000 -0.77557
vn -0.88086 -0.47337 0.00000
vn -0.70101 -0.71315 0.00000
vn 0.00000 1.00000 0.00000
vn 0.00001 0.99028 0.13906
vn -1.00000 0.00000 0.00000
vn -0.30306 0.91605 0.26269
vn -0.30419 0.93438 0.18550
vn 0.00000 -0.89481 -0.44645
vn -0.23049 -0.87072 -0.43443
vn 0.00000 -0.29016 -0.95698
vn 1.00000 0.00000 0.00000
vn 0.30307 0.91605 0.26268
vn 0.30419 0.93438 0.18550
vn 0.23049 -0.87072 -0.43443
vn -0.00001 0.96773 0.25198
vn -0.00001 0.95878 -0.28413
vn 0.29669 0.91561 -0.27134
vn 0.30175 0.92262 0.24023
vn 0.90697 0.27595 -0.31821
vn 0.63688 0.50510 -0.58246
vn -0.29671 0.91561 -0.27134
vn -0.30176 0.92262 0.24023
vn -0.90698 0.27594 -0.31820
vn 0.90264 0.32565 0.28140
vn -0.90265 0.32565 0.28139
vn -0.62546 0.59038 0.51014
vn 0.23573 -0.97182 0.00000
vn 0.63486 0.00000 0.77263
vn 0.63126 0.00000 -0.77557
vn 0.88086 -0.47337 0.00000
vn 0.70101 -0.71315 0.00000
vn 0.23573 -0.97182 0.00000
vn 0.63487 0.00000 0.77262
vn 0.63126 0.00000 -0.77557
vn 0.88086 -0.47337 0.00000
vn 0.70101 -0.71315 0.00000
vn 0.00001 0.96773 0.25198
vn 0.00001 0.95878 -0.28413
vn -0.29669 0.91561 -0.27134
vn -0.30175 0.92262 0.24023
vn -0.90697 0.27595 -0.31821
vn -0.63688 0.50510 -0.58246
vn 0.29671 0.91561 -0.27134
vn 0.30176 0.92262 0.24023
vn 0.90698 0.27594 -0.31820
vn -0.90264 0.32565 0.28140
vn 0.90265 0.32565 0.28139
vn 0.62546 0.59038 0.51014
vn 0.00000 0.00000 1.00000
vn 0.00000 0.00000 -1.00000
vn -0.00000 0.90705 0.42103
vn -0.00000 0.89063 -0.45472
vn -0.00001 0.36727 0.93011
vn -0.00001 0.22631 -0.97405
vn -0.45522 0.20151 -0.86728
vn -0.43434 0.35582 -0.82749
vn -0.00001 0.39503 -0.91867
vn 0.45521 0.20151 -0.86728
vn 0.43433 0.35583 -0.82749
vn -0.00001 0.49235 0.87040
vn 0.00000 0.90705 0.42103
vn 0.00000 0.89063 -0.45472
vn 0.00000 0.36727 0.93011
vn 0.00000 0.22631 -0.97405
vn 0.45522 0.20151 -0.86728
vn 0.43433 0.35582 -0.82749
vn 0.00000 0.39503 -0.91867
vn -0.45522 0.20151 -0.86728
vn -0.43433 0.35582 -0.82749
vn 0.00000 0.49235 0.87040
vn 0.00000 -0.99966 0.02605
vn 0.99435 0.00000 0.10616
vn 1.00000 0.00000 -0.00000
vn -0.99435 0.00000 0.10616
vn -0.21769 -0.37719 -0.90019
vn -0.47272 -0.81888 -0.32554
vn 0.00015 -0.94552 -0.32557
vn 0.00007 -0.43550 -0.90019
vn -0.50001 -0.86602 0.00000
vn 0.00015 -1.00000 -0.00000
vn -0.37717 -0.21777 -0.90018
vn -0.81880 -0.47287 -0.32552
vn -0.86594 -0.50014 0.00000
vn -0.43552 -0.00007 -0.90018
vn -0.94553 -0.00015 -0.32555
vn -1.00000 -0.00008 0.00000
vn -0.37719 0.21770 -0.90018
vn -0.81888 0.47272 -0.32553
vn -0.86599 0.50006 -0.00000
vn -0.21770 0.37719 -0.90018
vn -0.47273 0.81888 -0.32553
vn -0.50003 0.86601 0.00000
vn 0.00007 0.43552 -0.90018
vn 0.00015 0.94553 -0.32555
vn 0.00015 1.00000 -0.00000
vn 0.21777 0.37717 -0.90018
vn 0.47287 0.81880 -0.32551
vn 0.50018 0.86592 -0.00000
vn 0.37721 0.21771 -0.90018
vn 0.81889 0.47272 -0.32551
vn 0.86600 0.50005 -0.00000
vn 0.43554 -0.00007 -0.90017
vn 0.94553 -0.00015 -0.32553
vn 1.00000 -0.00008 -0.00000
vn 0.81881 -0.47287 -0.32550
vn 0.86595 -0.50013 0.00000
vn 0.37718 -0.21778 -0.90017
vn 0.21777 -0.37716 -0.90018
vn 0.47286 -0.81880 -0.32552
vn 0.50016 -0.86594 -0.00000
vn -0.49883 -0.86402 0.06808
vn 0.00016 -0.99768 0.06809
vn -0.86399 -0.49889 0.06808
vn -0.99768 0.00008 0.06809
vn -0.86396 0.49894 0.06807
vn -0.49884 0.86401 0.06808
vn 0.00016 0.99768 0.06809
vn 0.49899 0.86393 0.06808
vn 0.86397 0.49892 0.06808
vn 0.99768 0.00008 0.06809
vn 0.86400 -0.49887 0.06808
vn 0.49897 -0.86394 0.06808
vn 0.99534 0.00025 -0.09643
vn -0.99534 0.00025 -0.09641
vn -0.86189 0.49785 -0.09637
vn 0.86189 0.49785 -0.09639
vn -0.49770 0.86197 -0.09650
vn 0.49774 0.86197 -0.09627
vn 0.00003 0.99534 -0.09641
vn -0.52759 0.52553 -0.66743
vn -0.37766 0.37619 -0.84608
vn -0.68969 0.68842 -0.22453
vn -0.94215 -0.33519 0.00000
vn -0.70704 -0.70717 0.00000
vn -0.68969 0.68842 0.22452
vn -0.52757 0.52552 0.66746
vn -0.37761 0.37614 0.84613
vn -0.33541 -0.94207 0.00000
vn 0.52560 -0.52754 -0.66741
vn 0.52555 -0.52755 0.66745
vn -0.32672 -0.94512 0.00000
vn 0.68850 -0.68960 -0.22455
vn 0.68847 -0.68964 0.22452
vn 0.37769 -0.37624 -0.84604
vn 0.52758 -0.52556 -0.66742
vn 0.68967 -0.68843 -0.22454
vn 0.94209 0.33537 0.00000
vn 0.70717 0.70705 0.00000
vn 0.68967 -0.68843 0.22453
vn 0.52756 -0.52555 0.66744
vn 0.37764 -0.37619 0.84609
vn 0.33522 0.94214 0.00000
vn -0.52557 0.52751 -0.66746
vn -0.52556 0.52750 0.66748
vn 0.32611 0.94533 0.00000
vn -0.68844 0.68965 -0.22456
vn -0.68845 0.68965 0.22454
vn 0.37622 0.37761 -0.84609
vn 0.52549 0.52764 -0.66742
vn 0.68811 0.69000 -0.22452
vn -0.33528 0.94212 0.00000
vn -0.70712 0.70709 0.00000
vn 0.68808 0.69004 0.22449
vn 0.52544 0.52765 0.66746
vn 0.37616 0.37756 0.84614
vn -0.94213 0.33525 0.00000
vn -0.52770 -0.52545 -0.66741
vn -0.52768 -0.52544 0.66743
vn -0.94529 0.32623 0.00000
vn -0.69000 -0.68811 -0.22450
vn -0.69000 -0.68811 0.22449
vn -0.52568 -0.52742 -0.66745
vn -0.37626 -0.37767 -0.84605
vn -0.68883 -0.68925 -0.22458
vn 0.33534 -0.94210 0.00000
vn 0.70709 -0.70713 0.00000
vn -0.68884 -0.68926 0.22457
vn -0.52567 -0.52740 0.66747
vn -0.37620 -0.37761 0.84610
vn 0.94211 -0.33531 0.00000
vn 0.52747 0.52565 -0.66744
vn 0.52745 0.52563 0.66746
vn 0.94521 -0.32645 0.00000
vn 0.68936 0.68873 -0.22457
vn 0.68936 0.68873 0.22456
vn 0.70538 0.70872 0.01249
vn 0.70564 0.70846 0.01233
vn -0.70847 -0.70563 0.01233
vn -0.70872 -0.70538 0.01248
vn -0.61252 0.61252 0.49964
vn -0.25910 0.25910 -0.93045
vn 0.70590 0.70821 0.01218
vn 0.68903 0.72459 0.01444
vn 0.67577 0.73707 0.00731
vn 0.70872 0.70537 0.01248
vn 0.70847 0.70563 0.01233
vn -0.70564 -0.70847 0.01233
vn -0.70538 -0.70872 0.01249
vn 0.61261 -0.61243 0.49964
vn 0.25910 -0.25910 -0.93045
vn 0.70822 0.70589 0.01218
vn 0.73707 0.67578 0.00731
vn 0.72459 0.68903 0.01444
vn 0.70872 -0.70538 0.01248
vn 0.70847 -0.70563 0.01233
vn -0.70564 0.70846 0.01233
vn -0.70538 0.70872 0.01249
vn 0.61261 0.61243 0.49964
vn 0.25910 0.25910 -0.93045
vn 0.70822 -0.70589 0.01218
vn 0.72459 -0.68903 0.01444
vn 0.73707 -0.67578 0.00731
vn 0.70538 -0.70872 0.01248
vn 0.70564 -0.70847 0.01233
vn -0.70847 0.70564 0.01233
vn -0.70872 0.70538 0.01248
vn -0.61252 -0.61252 0.49965
vn -0.25911 -0.25909 -0.93045
vn 0.70589 -0.70821 0.01218
vn 0.67577 -0.73707 0.00731
vn 0.68903 -0.72459 0.01444
vn 0.77427 -0.44686 0.44814
vn 0.47115 -0.81612 0.33460
vn 0.00022 -0.94235 0.33462
vn 0.81626 -0.47096 0.33454
vn 0.94241 0.00022 0.33445
vn 0.81618 0.47116 0.33446
vn 0.47117 0.81617 0.33446
vn 0.00022 0.94241 0.33445
vn -0.47096 0.81625 0.33455
vn -0.81613 0.47115 0.33460
vn -0.94235 0.00022 0.33462
vn -0.81621 -0.47095 0.33469
vn -0.47094 -0.81621 0.33469
vn -0.48948 -0.84806 0.20298
vn 0.00018 -0.97918 0.20299
vn -0.84805 -0.48949 0.20299
vn -0.97918 0.00018 0.20299
vn -0.84797 0.48964 0.20298
vn -0.48948 0.84806 0.20299
vn 0.00018 0.97918 0.20299
vn 0.48965 0.84797 0.20298
vn 0.84798 0.48963 0.20298
vn 0.97918 0.00018 0.20299
vn 0.84806 -0.48948 0.20299
vn 0.48965 -0.84797 0.20297
vn -0.99435 0.00000 0.10616
vn -1.00000 0.00000 -0.00000
vn 0.99435 0.00000 0.10616
vn -0.00007 -0.43553 -0.90017
vn -0.00015 -0.94553 -0.32554
vn 0.47271 -0.81889 -0.32553
vn 0.21770 -0.37720 -0.90018
vn -0.00015 -1.00000 -0.00000
vn 0.50001 -0.86602 0.00000
vn 0.81880 -0.47286 -0.32553
vn 0.37716 -0.21776 -0.90018
vn 0.86594 -0.50014 0.00000
vn 0.94551 -0.00015 -0.32558
vn 0.43549 -0.00008 -0.90019
vn 1.00000 -0.00008 0.00000
vn 0.81887 0.47272 -0.32556
vn 0.37717 0.21769 -0.90020
vn 0.86599 0.50006 -0.00000
vn 0.47273 0.81886 -0.32556
vn 0.21769 0.37717 -0.90020
vn 0.50003 0.86601 0.00000
vn -0.00015 0.94551 -0.32560
vn -0.00007 0.43547 -0.90020
vn -0.00015 1.00000 -0.00000
vn -0.47287 0.81879 -0.32555
vn -0.21776 0.37714 -0.90019
vn -0.50018 0.86592 -0.00000
vn -0.81887 0.47272 -0.32554
vn -0.37718 0.21769 -0.90019
vn -0.86600 0.50005 -0.00000
vn -0.94551 -0.00015 -0.32558
vn -0.43549 -0.00007 -0.90019
vn -1.00000 -0.00008 -0.00000
vn -0.86595 -0.50013 0.00000
vn -0.81880 -0.47286 -0.32554
vn -0.37715 -0.21777 -0.90019
vn -0.47286 -0.81881 -0.32551
vn -0.21777 -0.37718 -0.90017
vn -0.50016 -0.86594 -0.00000
vn -0.00016 -0.99768 0.06809
vn 0.49883 -0.86402 0.06808
vn 0.86399 -0.49889 0.06808
vn 0.99768 0.00008 0.06809
vn 0.86396 0.49894 0.06807
vn 0.49884 0.86402 0.06808
vn -0.00016 0.99768 0.06809
vn -0.49899 0.86393 0.06808
vn -0.86397 0.49892 0.06808
vn -0.99768 0.00008 0.06809
vn -0.86400 -0.49887 0.06808
vn -0.49897 -0.86394 0.06808
vn -0.99534 0.00025 -0.09644
vn 0.99534 0.00025 -0.09641
vn 0.86189 0.49785 -0.09638
vn -0.86189 0.49785 -0.09639
vn 0.49770 0.86197 -0.09650
vn -0.49774 0.86197 -0.09628
vn -0.00003 0.99534 -0.09641
vn 0.52759 0.52553 -0.66743
vn 0.37766 0.37619 -0.84608
vn 0.68969 0.68841 -0.22453
vn 0.70704 -0.70717 0.00000
vn 0.94215 -0.33519 0.00000
vn 0.68969 0.68842 0.22452
vn 0.52759 0.52553 0.66744
vn 0.37764 0.37617 0.84610
vn 0.33541 -0.94207 0.00000
vn -0.52560 -0.52754 -0.66742
vn -0.52556 -0.52757 0.66743
vn 0.32672 -0.94512 0.00000
vn -0.68850 -0.68960 -0.22455
vn -0.68847 -0.68964 0.22452
vn -0.37769 -0.37624 -0.84604
vn -0.52758 -0.52556 -0.66742
vn -0.68967 -0.68843 -0.22455
vn -0.70717 0.70705 0.00000
vn -0.94209 0.33537 0.00000
vn -0.68967 -0.68843 0.22453
vn -0.52757 -0.52556 0.66742
vn -0.37767 -0.37622 0.84607
vn -0.33522 0.94214 0.00000
vn 0.52557 0.52751 -0.66746
vn 0.52557 0.52751 0.66746
vn -0.32611 0.94533 0.00000
vn 0.68844 0.68965 -0.22456
vn 0.68844 0.68966 0.22454
vn -0.37622 0.37761 -0.84609
vn -0.52549 0.52764 -0.66742
vn -0.68810 0.69000 -0.22452
vn 0.70712 0.70709 0.00000
vn 0.33528 0.94212 0.00000
vn -0.68808 0.69004 0.22449
vn -0.52545 0.52766 0.66744
vn -0.37619 0.37759 0.84611
vn 0.94213 0.33525 0.00000
vn 0.52770 -0.52545 -0.66741
vn 0.52770 -0.52545 0.66741
vn 0.94529 0.32623 0.00000
vn 0.69000 -0.68811 -0.22450
vn 0.69000 -0.68811 0.22449
vn 0.52568 -0.52742 -0.66745
vn 0.37626 -0.37767 -0.84605
vn 0.68883 -0.68926 -0.22458
vn -0.70709 -0.70713 0.00000
vn -0.33534 -0.94210 0.00000
vn 0.68883 -0.68926 0.22457
vn 0.52568 -0.52741 0.66746
vn 0.37623 -0.37764 0.84607
vn -0.94211 -0.33531 0.00000
vn -0.52746 0.52565 -0.66744
vn -0.52746 0.52564 0.66744
vn -0.94521 -0.32645 0.00000
vn -0.68936 0.68873 -0.22458
vn -0.68936 0.68874 0.22456
vn -0.70564 0.70846 0.01233
vn -0.70538 0.70872 0.01249
vn 0.70872 -0.70538 0.01248
vn 0.70847 -0.70563 0.01233
vn 0.61252 0.61252 0.49965
vn 0.25910 0.25910 -0.93045
vn -0.70590 0.70821 0.01218
vn -0.67577 0.73707 0.00731
vn -0.68903 0.72459 0.01444
vn -0.70847 0.70563 0.01233
vn -0.70872 0.70538 0.01248
vn 0.70564 -0.70847 0.01233
vn 0.70538 -0.70872 0.01248
vn -0.61260 -0.61243 0.49965
vn -0.25910 -0.25910 -0.93045
vn -0.70821 0.70589 0.01218
vn -0.72459 0.68903 0.01444
vn -0.73707 0.67578 0.00731
vn -0.70847 -0.70563 0.01233
vn -0.70872 -0.70538 0.01248
vn 0.70538 0.70872 0.01248
vn 0.70564 0.70846 0.01233
vn -0.61260 0.61244 0.49964
vn -0.25910 0.25910 -0.93045
vn -0.70822 -0.70589 0.01218
vn -0.73707 -0.67578 0.00731
vn -0.72459 -0.68903 0.01444
vn -0.70564 -0.70847 0.01233
vn -0.70538 -0.70872 0.01249
vn 0.70847 0.70564 0.01233
vn 0.70872 0.70538 0.01248
vn 0.61252 -0.61252 0.49965
vn 0.25911 -0.25909 -0.93045
vn -0.70589 -0.70821 0.01218
vn -0.68903 -0.72459 0.01444
vn -0.67577 -0.73707 0.00731
vn -0.00022 -0.94235 0.33462
vn -0.47115 -0.81613 0.33459
vn -0.77427 -0.44686 0.44814
vn -0.81626 -0.47096 0.33454
vn -0.94241 0.00022 0.33445
vn -0.81618 0.47116 0.33446
vn -0.47117 0.81617 0.33446
vn -0.00022 0.94241 0.33446
vn 0.47096 0.81625 0.33455
vn 0.81612 0.47115 0.33461
vn 0.94235 0.00022 0.33462
vn 0.81621 -0.47095 0.33469
vn 0.47094 -0.81621 0.33469
vn -0.00018 -0.97918 0.20299
vn 0.48948 -0.84806 0.20299
vn 0.84805 -0.48949 0.20298
vn 0.97918 0.00018 0.20299
vn 0.84797 0.48964 0.20298
vn 0.48948 0.84806 0.20299
vn -0.00018 0.97918 0.20300
vn -0.48965 0.84797 0.20298
vn -0.84798 0.48963 0.20298
vn -0.97918 0.00018 0.20299
vn -0.84806 -0.48948 0.20299
vn -0.48965 -0.84797 0.20297
vn -0.42167 -0.59199 -0.68684
vn 0.61891 -0.69783 0.36053
vn 0.42167 -0.59199 -0.68684
vn -0.61891 -0.69783 0.36053
vn -0.72884 -0.44156 -0.52328
vn 0.73788 -0.59776 0.31340
vn 0.72884 -0.44156 -0.52328
vn -0.73788 -0.59776 0.31340
vn -0.92334 0.00000 -0.38399
vn -1.00000 0.00000 0.00164
vn -0.92449 0.00000 0.38121
vn -0.92334 0.00000 -0.38399
vn -1.00000 0.00000 0.00164
vn -0.92449 0.00000 0.38121
vn -0.19599 0.00000 -0.98061
vn -0.19598 0.00000 0.98061
vn -0.19599 0.00000 -0.98061
vn -0.19599 0.00000 0.98061
vn -0.43718 0.81564 0.37895
vn 0.00002 0.90690 0.42135
vn -0.45272 -0.25872 -0.85330
vn 0.00000 0.02165 -0.99977
vn -0.46859 0.01912 -0.88321
vn 0.43720 0.81563 0.37894
vn 0.45272 -0.25872 -0.85329
vn 0.46860 0.01912 -0.88321
vn -0.88557 0.42126 0.19572
vn 0.88557 0.42126 0.19572
vn 0.70145 0.31052 -0.64152
vn 0.92235 0.16833 -0.34776
vn -0.92235 0.16833 -0.34775
vn -0.70147 0.31052 -0.64150
vn -0.63690 0.50509 -0.58245
vn 0.91665 0.25390 0.30870
vn -0.91665 0.25389 0.30869
vn -0.68050 0.46547 0.56591
vn 0.62544 0.59039 0.51016
vn 0.68048 0.46548 0.56593
vn 0.92334 0.00000 -0.38399
vn 1.00000 0.00000 0.00164
vn 0.92449 0.00000 0.38121
vn 0.92334 0.00000 -0.38399
vn 1.00000 0.00000 0.00164
vn 0.92449 0.00000 0.38121
vn 0.19599 0.00000 -0.98061
vn 0.19598 0.00000 0.98061
vn 0.19599 0.00000 -0.98061
vn 0.19599 0.00000 0.98061
vn -0.92235 0.16833 -0.34776
vn -0.70145 0.31052 -0.64152
vn 0.92235 0.16833 -0.34775
vn 0.63690 0.50509 -0.58245
vn 0.70147 0.31052 -0.64150
vn -0.91665 0.25390 0.30870
vn 0.91665 0.25389 0.30869
vn 0.68050 0.46547 0.56591
vn -0.62544 0.59039 0.51016
vn -0.68048 0.46548 0.56593
vn 0.45639 0.43808 0.77446
vn 0.47305 0.32358 0.81946
vn -0.45640 0.43808 0.77446
vn -0.24609 0.87915 0.40808
vn -0.47306 0.32358 0.81946
vn 0.24608 0.87916 0.40808
vn -0.40224 0.50095 -0.76633
vn 0.40223 0.50095 -0.76633
vn -0.47306 0.32358 0.81946
vn -0.45639 0.43808 0.77446
vn 0.24608 0.87916 0.40808
vn 0.45639 0.43808 0.77446
vn 0.47306 0.32358 0.81946
vn -0.24608 0.87916 0.40808
vn 0.40223 0.50095 -0.76633
vn -0.40223 0.50095 -0.76633
vn 0.00000 -0.99864 0.05209
vn 0.97746 0.00000 0.21111
vn -0.97746 0.00000 0.21111
vn 0.87791 -0.47883 0.00000
vn 0.54144 -0.84074 0.00000
vn 0.42883 0.90338 0.00000
vn 0.77480 0.63220 0.00000
vn -0.42835 0.90361 0.00000
vn -0.77412 0.63304 0.00000
vn -0.54060 -0.84128 0.00000
vn -0.87767 -0.47927 0.00000
vn 0.87795 -0.47875 0.00000
vn 0.54160 -0.84063 0.00000
vn 0.42893 0.90334 0.00000
vn 0.77493 0.63204 0.00000
vn -0.77412 0.63304 0.00000
vn -0.54060 -0.84128 0.00000
vn 0.42893 0.90334 0.00000
vn 0.77493 0.63204 0.00000
vn -0.42835 0.90361 0.00000
vn -0.77412 0.63304 0.00000
vn -0.54060 -0.84128 0.00000
vn -0.87767 -0.47927 0.00000
vn 0.86202 -0.49763 -0.09641
vn 0.49776 -0.86196 -0.09627
vn 0.00003 -0.99534 -0.09642
vn -0.49772 -0.86195 -0.09650
vn -0.86202 -0.49763 -0.09639
vn 0.37624 -0.37768 -0.84605
vn 0.37619 -0.37762 0.84610
vn -0.37623 0.37761 -0.84609
vn -0.37617 0.37755 0.84614
vn -0.37766 -0.37619 -0.84608
vn -0.37761 -0.37614 0.84613
vn 0.37770 0.37624 -0.84604
vn 0.37764 0.37619 0.84609
vn -0.94533 -0.32611 0.00000
vn 0.94517 0.32657 0.00000
vn -0.32627 0.94528 0.00000
vn 0.32656 -0.94518 0.00000
vn -0.68305 0.68305 0.25862
vn -0.70711 0.70711 0.00000
vn -0.70822 -0.70589 0.01218
vn 0.66226 0.74928 0.00018
vn -0.73707 -0.67578 0.00731
vn -0.72459 -0.68903 0.01444
vn -0.74927 -0.66226 0.00018
vn 0.68312 -0.68298 0.25862
vn 0.70716 -0.70706 0.00000
vn -0.70589 -0.70821 0.01218
vn 0.74927 0.66226 0.00018
vn -0.67577 -0.73707 0.00731
vn -0.68903 -0.72459 0.01444
vn -0.66226 -0.74927 0.00018
vn 0.68312 0.68298 0.25862
vn 0.70716 0.70706 0.00000
vn -0.70590 0.70821 0.01218
vn 0.74927 -0.66226 0.00018
vn -0.67577 0.73707 0.00731
vn -0.68903 0.72459 0.01444
vn -0.66226 0.74927 0.00018
vn -0.68306 -0.68304 0.25862
vn -0.70713 -0.70708 -0.00000
vn -0.70821 0.70589 0.01218
vn 0.66226 -0.74928 0.00018
vn -0.73707 0.67578 0.00731
vn -0.72459 0.68903 0.01444
vn -0.74927 0.66226 0.00018
vn 0.00015 0.89403 0.44800
vn -0.77408 -0.44689 0.44843
vn -0.97746 0.00000 0.21111
vn 0.97746 0.00000 0.21111
vn -0.87791 -0.47883 0.00000
vn -0.54144 -0.84074 0.00000
vn -0.77480 0.63220 0.00000
vn -0.42883 0.90338 0.00000
vn 0.42835 0.90362 0.00000
vn 0.77412 0.63304 0.00000
vn 0.54060 -0.84128 0.00000
vn 0.87767 -0.47927 0.00000
vn -0.87795 -0.47875 0.00000
vn -0.54160 -0.84063 0.00000
vn -0.77493 0.63204 0.00000
vn -0.42893 0.90334 0.00000
vn 0.54060 -0.84128 0.00000
vn 0.87767 -0.47927 0.00000
vn -0.87795 -0.47875 0.00000
vn -0.54160 -0.84063 0.00000
vn -0.77493 0.63204 0.00000
vn -0.42893 0.90334 0.00000
vn -0.49776 -0.86196 -0.09628
vn -0.86202 -0.49763 -0.09641
vn -0.00003 -0.99534 -0.09641
vn 0.49772 -0.86195 -0.09649
vn 0.86202 -0.49763 -0.09639
vn -0.37624 -0.37768 -0.84605
vn -0.37622 -0.37765 0.84607
vn 0.37623 0.37761 -0.84609
vn 0.37620 0.37758 0.84611
vn 0.37766 -0.37619 -0.84608
vn 0.37764 -0.37617 0.84610
vn -0.37769 0.37624 -0.84604
vn -0.37767 0.37622 0.84607
vn 0.94533 -0.32611 0.00000
vn -0.94517 0.32657 0.00000
vn 0.32627 0.94528 0.00000
vn -0.32656 -0.94518 0.00000
vn 0.68305 0.68305 0.25862
vn 0.70711 0.70711 0.00000
vn 0.70822 -0.70589 0.01218
vn -0.66226 0.74928 0.00018
vn 0.73707 -0.67578 0.00731
vn 0.72459 -0.68903 0.01444
vn 0.74927 -0.66226 0.00018
vn -0.68312 -0.68298 0.25862
vn -0.70715 -0.70706 0.00000
vn 0.70589 -0.70821 0.01218
vn -0.74927 0.66226 0.00018
vn 0.68903 -0.72459 0.01444
vn 0.67577 -0.73707 0.00731
vn 0.66226 -0.74928 0.00018
vn -0.68312 0.68298 0.25862
vn -0.70715 0.70706 0.00000
vn 0.70590 0.70821 0.01218
vn -0.74927 -0.66226 0.00018
vn 0.67577 0.73707 0.00731
vn 0.68903 0.72459 0.01444
vn 0.66226 0.74928 0.00018
vn 0.68306 -0.68304 0.25862
vn 0.70713 -0.70708 -0.00000
vn 0.70821 0.70589 0.01218
vn -0.66226 -0.74928 0.00018
vn 0.72459 0.68903 0.01444
vn 0.73707 0.67578 0.00731
vn 0.74927 0.66226 0.00018
vn -0.00015 0.89403 0.44801
vn 0.77408 -0.44689 0.44843
# 675 normal vertices

g vehicle#twin_pylon_001_169_2
usemtl 939ad3eb-60d4-44ee-8ac4-38606db
f 5/3/5 6/2/6 11/1/7
f 11/1/7 6/2/6 12/4/8
f 18/2/14 17/3/13 23/1/15
f 18/2/14 23/1/15 24/4/16
f 29/3/21 30/2/22 35/1/23
f 35/1/23 30/2/22 36/4/24
f 42/2/30 41/3/29 47/1/31
f 42/2/30 47/1/31 48/4/32
f 51/7/35 52/6/35 53/5/35
f 64/5/39 63/6/39 62/7/39
f 73/7/35 74/6/42 75/5/35
f 86/5/39 85/6/46 84/7/39
f 96/10/48 95/9/48 105/8/48
f 115/8/54 107/9/54 108/10/54
f 96/10/48 95/9/48 105/8/48
f 115/8/54 107/9/54 108/10/54
f 3/14/3 9/13/3 8/12/2 2/11/2
f 15/14/11 14/11/10 20/12/10 21/13/11
f 27/14/19 33/13/19 32/12/18 26/11/18
f 39/14/27 38/11/26 44/12/26 45/13/27
f 4/16/4 10/15/4 9/13/3 3/14/3
f 11/1/465 10/15/465 4/16/465 5/3/465
f 2/11/2 8/12/2 7/18/1 1/17/1
f 6/2/6 1/20/466 7/19/466 12/4/8
f 21/13/11 22/15/12 16/16/12 15/14/11
f 16/16/467 22/15/467 23/1/467 17/3/467
f 19/18/9 20/12/10 14/11/10 13/17/9
f 19/19/468 13/20/468 18/2/14 24/4/16
f 28/16/20 34/15/20 33/13/19 27/14/19
f 35/1/469 34/15/20 28/16/20 29/3/469
f 26/11/18 32/12/18 31/18/17 25/17/17
f 30/2/22 25/20/470 31/19/470 36/4/24
f 45/13/27 46/15/28 40/16/28 39/14/27
f 40/16/28 46/15/28 47/1/471 41/3/471
f 43/18/25 44/12/26 38/11/26 37/17/25
f 43/19/472 37/20/472 42/2/30 48/4/32
f 53/5/473 64/5/473 65/21/36 54/21/36
f 52/6/474 63/6/474 64/5/473 53/5/473
f 51/7/475 62/7/475 63/6/474 52/6/474
f 61/22/34 62/7/475 51/7/475 50/22/34
f 75/5/476 86/5/476 87/21/43 76/21/43
f 74/6/477 85/6/477 86/5/476 75/5/476
f 73/7/478 84/7/478 85/6/477 74/6/477
f 83/22/41 84/7/478 73/7/478 72/22/41
f 57/26/37 56/25/37 59/24/38 58/23/38
f 67/25/39 68/26/39 69/23/39 70/24/39
f 58/23/38 59/24/38 49/28/33 55/27/33
f 70/24/39 69/23/39 66/27/39 60/28/39
f 66/27/479 69/23/93 58/23/93 55/27/479
f 60/28/480 49/28/480 59/24/92 70/24/92
f 54/21/35 55/27/33 49/28/33 50/22/35
f 60/28/39 66/27/39 65/21/39 61/22/39
f 66/27/479 55/27/479 54/21/36 65/21/36
f 61/22/34 50/22/34 49/28/480 60/28/480
f 79/26/44 78/25/44 81/24/45 80/23/45
f 89/25/39 90/26/39 91/23/39 92/24/39
f 80/23/45 81/24/45 71/28/40 77/27/40
f 92/24/39 91/23/39 88/27/39 82/28/39
f 88/27/481 91/23/93 80/23/93 77/27/481
f 82/28/482 71/28/482 81/24/92 92/24/92
f 76/21/35 77/27/40 71/28/40 72/22/35
f 82/28/39 88/27/39 87/21/39 83/22/39
f 88/27/481 77/27/481 76/21/43 87/21/43
f 83/22/41 72/22/41 71/28/482 82/28/482
f 95/32/39 96/31/39 93/30/47 94/29/39
f 98/34/50 97/33/49 93/30/47 96/31/39
f 101/32/52 100/29/51 99/30/35 102/31/35
f 104/34/35 102/31/35 99/30/35 103/33/35
f 99/38/484 93/37/47 97/36/49 103/35/483
f 102/40/48 96/10/48 105/8/48 101/39/48
f 101/43/52 105/42/485 106/8/53 100/41/51
f 95/45/487 94/44/486 106/8/53 105/42/485
f 107/32/39 94/29/39 93/30/47 108/31/39
f 93/30/47 109/33/55 110/34/56 108/31/39
f 99/30/35 100/29/51 111/32/57 112/31/35
f 114/34/35 113/33/35 99/30/35 112/31/35
f 99/38/484 113/35/488 109/36/55 93/37/47
f 111/39/54 115/8/54 108/10/54 112/40/54
f 106/8/53 115/42/489 111/43/57 100/41/51
f 107/45/490 115/42/489 106/8/53 94/44/486
f 95/32/39 96/31/39 93/30/47 94/29/39
f 98/34/50 97/33/49 93/30/47 96/31/39
f 101/32/52 100/29/51 99/30/35 102/31/35
f 104/34/35 102/31/35 99/30/35 103/33/35
f 99/38/484 93/37/47 97/36/49 103/35/483
f 102/40/48 96/10/48 105/8/48 101/39/48
f 101/43/52 105/42/485 106/8/53 100/41/51
f 95/45/487 94/44/486 106/8/53 105/42/485
f 107/32/39 94/29/39 93/30/47 108/31/39
f 93/30/47 109/33/55 110/34/56 108/31/39
f 99/30/35 100/29/51 111/32/57 112/31/35
f 114/34/35 113/33/35 99/30/35 112/31/35
f 99/38/484 113/35/488 109/36/55 93/37/47
f 111/39/54 115/8/54 108/10/54 112/40/54
f 106/8/53 115/42/489 111/43/57 100/41/51
f 107/45/490 115/42/489 106/8/53 94/44/486
f 50/22/35 51/7/35 53/5/35 54/21/35
f 61/22/39 65/21/39 64/5/39 62/7/39
f 72/22/35 73/7/35 75/5/35 76/21/35
f 83/22/39 87/21/39 86/5/39 84/7/39
f 69/23/93 68/26/93 57/26/93 58/23/93
f 70/24/92 59/24/92 56/25/92 67/25/92
f 91/23/93 90/26/93 79/26/93 80/23/93
f 92/24/92 81/24/92 78/25/92 89/25/92
f 98/47/50 104/46/491 103/35/483 97/36/49
f 110/47/56 109/36/55 113/35/488 114/46/492
f 98/47/50 104/46/491 103/35/483 97/36/49
f 110/47/56 109/36/55 113/35/488 114/46/492
f 104/46/491 98/47/48 96/10/48 102/40/48
f 114/46/492 112/40/54 108/10/54 110/47/54
f 104/46/491 98/47/48 96/10/48 102/40/48
f 114/46/492 112/40/54 108/10/54 110/47/54
f 116/30/58 119/31/61 118/32/60 117/29/59
f 120/30/35 121/29/35 122/32/35 123/31/35
f 124/51/62 122/50/494 121/49/493 125/48/63
f 116/30/58 117/29/59 126/32/64 127/31/65
f 128/32/35 121/29/35 120/30/35 129/31/35
f 130/51/66 125/48/497 121/49/496 128/50/495
f 124/48/62 131/54/67 123/53/498 122/52/494
f 119/56/54 131/54/67 124/48/62 118/55/54
f 132/54/68 130/48/66 128/52/495 129/53/499
f 126/55/48 130/48/66 132/54/68 127/56/48
f 132/60/68 129/59/499 120/58/500 133/57/69
f 133/57/501 131/60/67 119/62/61 116/61/58
f 131/60/67 133/57/501 120/58/502 123/59/498
f 133/57/69 116/61/58 127/62/65 132/60/68
f 125/48/63 117/64/59 118/63/60 124/51/62
f 125/48/497 130/51/66 126/63/64 117/64/59
f 137/6/35 136/7/35 138/5/35
f 148/6/39 149/5/39 147/7/39
f 159/6/42 158/7/35 160/5/35
f 170/6/46 171/5/39 169/7/39
f 150/21/72 149/5/503 138/5/503 139/21/72
f 149/5/503 148/6/504 137/6/504 138/5/503
f 148/6/504 147/7/505 136/7/505 137/6/504
f 136/7/505 147/7/505 146/22/71 135/22/71
f 172/21/77 171/5/506 160/5/506 161/21/77
f 171/5/506 170/6/507 159/6/507 160/5/506
f 170/6/507 169/7/508 158/7/508 159/6/507
f 158/7/508 169/7/508 168/22/76 157/22/76
f 144/24/74 141/25/73 142/26/73 143/23/74
f 154/23/39 153/26/39 152/25/39 155/24/39
f 134/28/70 144/24/74 143/23/74 140/27/70
f 151/27/39 154/23/39 155/24/39 145/28/39
f 143/23/93 154/23/93 151/27/509 140/27/509
f 144/24/92 134/28/510 145/28/510 155/24/92
f 134/28/70 140/27/70 139/21/35 135/22/35
f 150/21/39 151/27/39 145/28/39 146/22/39
f 139/21/72 140/27/509 151/27/509 150/21/72
f 134/28/510 135/22/71 146/22/71 145/28/510
f 166/24/79 163/25/78 164/26/78 165/23/79
f 176/23/39 175/26/39 174/25/39 177/24/39
f 156/28/75 166/24/79 165/23/79 162/27/75
f 173/27/39 176/23/39 177/24/39 167/28/39
f 165/23/93 176/23/93 173/27/511 162/27/511
f 166/24/92 156/28/512 167/28/512 177/24/92
f 156/28/75 162/27/75 161/21/35 157/22/35
f 172/21/39 173/27/39 167/28/39 168/22/39
f 161/21/77 162/27/511 173/27/511 172/21/77
f 156/28/512 157/22/76 168/22/76 167/28/512
f 138/5/35 136/7/35 135/22/35 139/21/35
f 149/5/39 150/21/39 146/22/39 147/7/39
f 160/5/35 158/7/35 157/22/35 161/21/35
f 171/5/39 172/21/39 168/22/39 169/7/39
f 142/26/93 153/26/93 154/23/93 143/23/93
f 141/25/92 144/24/92 155/24/92 152/25/92
f 164/26/93 175/26/93 176/23/93 165/23/93
f 163/25/92 166/24/92 177/24/92 174/25/92
f 180/68/82 181/67/83 178/66/80 179/65/81
f 184/68/35 183/65/35 182/66/35 185/67/35
f 183/49/514 184/50/513 186/51/84 187/48/85
f 188/68/86 179/65/81 178/66/80 189/67/87
f 182/66/35 183/65/35 190/68/35 191/67/35
f 183/49/517 187/48/516 192/51/88 190/50/515
f 185/53/518 193/54/89 186/48/84 184/52/513
f 186/48/84 193/54/89 181/56/48 180/55/48
f 190/52/515 192/48/88 194/54/90 191/53/519
f 194/54/90 192/48/88 188/55/54 189/56/54
f 182/58/520 191/59/519 194/60/90 195/57/91
f 181/62/83 193/60/89 195/57/521 178/61/80
f 182/58/522 195/57/521 193/60/89 185/59/518
f 189/62/87 178/61/80 195/57/91 194/60/90
f 180/63/82 179/64/81 187/48/85 186/51/84
f 188/63/86 192/51/88 187/48/516 179/64/81
f 197/72/92 199/71/92 198/70/92 196/69/92
f 199/72/54 201/71/54 200/70/54 198/69/54
f 201/72/93 203/71/93 202/70/93 200/69/93
f 203/72/48 197/71/48 196/70/48 202/69/48
f 196/72/39 198/71/39 200/70/39 202/69/39
f 203/72/35 201/71/35 199/70/35 197/69/35
f 206/70/93 207/71/93 205/72/93 204/69/93
f 208/70/54 209/71/54 207/72/54 206/69/54
f 210/70/92 211/71/92 209/72/92 208/69/92
f 204/70/48 205/71/48 211/72/48 210/69/48
f 208/70/39 206/71/39 204/72/39 210/69/39
f 207/70/35 209/71/35 211/72/35 205/69/35
f 217/76/97 218/75/98 220/74/99 221/73/100
f 217/76/97 221/73/100 226/74/102 224/75/101
f 219/79/48 227/78/48 220/73/48 218/77/48
f 220/73/48 227/78/48 215/81/48 214/80/48
f 224/77/54 226/73/54 228/78/54 225/79/54
f 228/78/54 226/73/54 222/80/54 223/81/54
f 216/83/96 225/79/524 228/78/523 229/82/103
f 215/81/526 227/78/525 229/82/103 212/84/94
f 216/83/96 229/82/103 227/78/525 219/79/527
f 223/81/528 212/84/94 229/82/103 228/78/523
f 214/85/529 213/80/95 221/73/100 220/74/99
f 222/85/530 226/74/102 221/73/100 213/80/95
f 214/89/39 215/88/526 212/87/94 213/86/95
f 222/89/39 213/86/95 212/87/94 223/88/528
f 218/89/35 217/86/35 216/87/35 219/88/35
f 216/87/35 217/86/35 224/89/35 225/88/35
f 231/93/92 233/92/92 232/91/92 230/90/92
f 233/93/54 235/92/54 234/91/54 232/90/54
f 235/93/93 237/92/93 236/91/93 234/90/93
f 237/93/48 231/92/48 230/91/48 236/90/48
f 230/93/39 232/92/39 234/91/39 236/90/39
f 237/93/35 235/92/35 233/91/35 231/90/35
f 240/91/93 241/92/93 239/93/93 238/90/93
f 242/91/54 243/92/54 241/93/54 240/90/54
f 244/91/92 245/92/92 243/93/92 242/90/92
f 238/91/48 239/92/48 245/93/48 244/90/48
f 242/91/39 240/92/39 238/93/39 244/90/39
f 241/91/35 243/92/35 245/93/35 239/90/35
f 248/70/92 249/71/92 247/72/92 246/69/92
f 250/70/48 251/71/48 249/72/48 248/69/48
f 252/70/93 253/71/93 251/72/93 250/69/93
f 246/70/54 247/71/54 253/72/54 252/69/54
f 250/70/39 248/71/39 246/72/39 252/69/39
f 249/70/35 251/71/35 253/72/35 247/69/35
f 255/72/93 257/71/93 256/70/93 254/69/93
f 257/72/48 259/71/48 258/70/48 256/69/48
f 259/72/92 261/71/92 260/70/92 258/69/92
f 261/72/54 255/71/54 254/70/54 260/69/54
f 254/72/39 256/71/39 258/70/39 260/69/39
f 261/72/35 259/71/35 257/70/35 255/69/35
f 270/74/109 268/75/108 267/76/107 271/73/110
f 276/74/112 271/73/110 267/76/107 274/75/111
f 270/73/54 277/78/54 269/79/54 268/77/54
f 265/81/54 277/78/54 270/73/54 264/80/54
f 278/78/48 276/73/48 274/77/48 275/79/48
f 272/80/48 276/73/48 278/78/48 273/81/48
f 278/78/532 275/79/531 266/83/106 279/82/113
f 279/82/113 277/78/534 265/81/533 262/84/104
f 277/78/534 279/82/113 266/83/106 269/79/535
f 279/82/113 262/84/104 273/81/536 278/78/532
f 271/73/110 263/80/105 264/85/537 270/74/109
f 271/73/110 276/74/112 272/85/538 263/80/105
f 262/87/104 265/88/533 264/89/39 263/86/105
f 262/87/104 263/86/105 272/89/39 273/88/536
f 266/87/35 267/86/35 268/89/35 269/88/35
f 274/89/35 267/86/35 266/87/35 275/88/35
f 282/91/92 283/92/92 281/93/92 280/90/92
f 284/91/48 285/92/48 283/93/48 282/90/48
f 286/91/93 287/92/93 285/93/93 284/90/93
f 280/91/54 281/92/54 287/93/54 286/90/54
f 284/91/39 282/92/39 280/93/39 286/90/39
f 283/91/35 285/92/35 287/93/35 281/90/35
f 289/93/93 291/92/93 290/91/93 288/90/93
f 291/93/48 293/92/48 292/91/48 290/90/48
f 293/93/92 295/92/92 294/91/92 292/90/92
f 295/93/54 289/92/54 288/91/54 294/90/54
f 288/93/39 290/92/39 292/91/39 294/90/39
f 295/93/35 293/92/35 291/91/35 289/90/35
g obj2
f 298/96/92 297/95/92 296/94/92
f 301/99/92 300/98/92 299/97/92
f 304/102/93 303/101/93 302/100/93
f 307/105/93 306/104/93 305/103/93
f 310/108/92 309/107/92 308/106/92
f 313/111/92 312/110/92 311/109/92
f 316/114/93 315/113/93 314/112/93
f 319/117/93 318/116/93 317/115/93
f 322/120/92 321/119/92 320/118/92
f 325/123/92 324/122/92 323/121/92
f 328/126/93 327/125/93 326/124/93
f 331/129/93 330/128/93 329/127/93
f 334/132/93 333/131/93 332/130/93
f 337/135/93 336/134/93 335/133/93
f 341/139/92 340/138/92 339/137/92 338/136/92
f 338/136/539 339/137/539 343/141/114 342/140/114
f 342/140/115 344/143/115 341/142/540 338/136/540
f 342/140/115 346/145/116 345/144/116 344/143/115
f 346/145/35 342/140/114 343/141/114 347/146/35
f 343/141/117 339/137/541 340/148/541 348/147/117
f 347/146/48 343/141/117 348/147/117 349/149/48
f 346/145/93 347/146/93 349/151/93 345/150/93
f 353/155/121 352/154/120 351/153/119 350/152/118
f 352/154/120 355/157/123 354/156/122 351/153/119
f 351/153/119 357/159/125 356/158/124 350/152/118
f 351/153/119 354/156/122 358/160/126 357/159/125
f 357/159/125 360/162/128 359/161/127 356/158/124
f 357/159/125 358/160/126 361/163/129 360/162/128
f 359/161/127 360/162/128 363/165/131 362/164/130
f 360/162/128 361/163/129 364/166/132 363/165/131
f 362/164/130 363/165/131 366/168/134 365/167/133
f 363/165/131 364/166/132 367/169/135 366/168/134
f 366/168/134 369/171/137 368/170/136 365/167/133
f 366/168/134 367/169/135 370/172/138 369/171/137
f 368/170/136 369/171/137 372/174/140 371/173/139
f 369/171/137 370/172/138 373/175/141 372/174/140
f 372/174/140 375/177/143 374/176/142 371/173/139
f 372/174/140 373/175/141 376/178/144 375/177/143
f 375/177/143 378/180/146 377/179/145 374/176/142
f 378/180/146 375/177/143 376/178/144 379/181/147
f 379/181/147 381/183/149 380/182/148 378/180/146
f 377/179/145 378/180/146 380/182/148 382/184/150
f 382/184/150 380/182/148 384/186/152 383/185/151
f 380/182/148 381/183/149 385/187/153 384/186/152
f 384/186/152 352/189/120 353/188/121 383/185/151
f 384/186/152 385/187/153 355/190/123 352/189/120
f 355/194/123 387/193/155 386/192/154 354/191/122
f 354/191/122 386/192/154 388/196/156 358/195/126
f 358/195/126 388/196/156 389/198/157 361/197/129
f 361/197/129 389/198/157 390/200/158 364/199/132
f 364/199/132 390/200/158 391/202/159 367/201/135
f 367/201/135 391/202/159 392/204/160 370/203/138
f 370/203/138 392/204/160 393/206/161 373/205/141
f 373/205/141 393/206/161 394/208/162 376/207/144
f 394/208/162 395/210/163 379/209/147 376/207/144
f 395/210/163 396/212/164 381/211/149 379/209/147
f 381/211/149 396/212/164 397/214/165 385/213/153
f 387/216/155 355/215/123 385/213/153 397/214/165
f 399/220/54 330/219/542 325/218/542 398/217/54
f 330/219/542 331/222/543 324/221/543 325/218/542
f 324/221/545 331/222/545 329/224/544 323/223/544
f 329/224/544 328/226/546 321/225/546 323/223/544
f 328/226/546 326/228/547 320/227/547 321/225/546
f 326/228/548 327/230/549 322/229/549 320/227/548
f 322/229/549 327/230/549 401/232/48 400/231/48
f 403/236/54 306/235/550 301/234/550 402/233/54
f 306/235/550 307/238/551 300/237/551 301/234/550
f 300/237/553 307/238/553 305/240/552 299/239/552
f 305/240/552 304/242/546 297/241/546 299/239/552
f 304/242/546 302/244/554 296/243/554 297/241/546
f 302/244/555 303/246/549 298/245/549 296/243/555
f 298/245/549 303/246/549 405/248/48 404/247/48
f 407/252/54 318/251/550 313/250/550 406/249/54
f 318/251/550 319/254/551 312/253/551 313/250/550
f 312/253/557 319/254/557 317/256/556 311/255/556
f 317/256/556 316/258/558 309/257/558 311/255/556
f 316/258/558 314/260/559 308/259/559 309/257/558
f 314/260/560 315/262/561 310/261/561 308/259/560
f 310/261/561 315/262/561 409/264/48 408/263/48
f 404/266/92 402/265/92 301/99/92 298/96/92
f 298/96/92 301/99/92 299/97/92 297/95/92
f 303/101/93 304/102/93 305/103/93 306/104/93
f 303/101/93 306/104/93 403/268/93 405/267/93
f 408/270/92 406/269/92 313/111/92 310/108/92
f 310/108/92 313/111/92 311/109/92 309/107/92
f 315/113/93 316/114/93 317/115/93 318/116/93
f 315/113/93 318/116/93 407/272/93 409/271/93
f 400/274/92 398/273/92 325/123/92 322/120/92
f 322/120/92 325/123/92 323/121/92 321/119/92
f 327/125/93 328/126/93 329/127/93 330/128/93
f 327/125/93 330/128/93 399/276/93 401/275/93
f 368/280/136 371/279/139 411/278/93 410/277/93
f 368/280/136 410/277/93 412/282/93 365/281/133
f 365/281/133 412/282/93 413/284/93 362/283/130
f 412/282/563 333/131/563 336/134/562 413/284/562
f 412/282/563 410/277/564 332/130/564 333/131/563
f 411/278/565 334/132/565 332/130/564 410/277/564
f 333/131/93 334/132/93 335/133/93 336/134/93
f 413/284/93 414/286/93 359/285/127 362/283/130
f 413/284/562 336/134/562 415/287/166 414/286/166
f 411/278/93 371/279/139 374/289/142 416/288/93
f 411/278/565 416/288/566 335/133/566 334/132/565
f 336/134/93 337/135/93 417/290/93 415/287/93
f 337/135/167 335/133/566 416/288/566 418/291/167
f 337/135/167 418/291/167 419/292/168 417/290/168
f 415/287/93 417/290/93 421/294/93 420/293/93
f 415/287/166 420/293/169 422/295/169 414/286/166
f 359/285/127 414/286/93 422/295/93 356/296/124
f 416/288/93 374/289/142 377/297/145 418/291/93
f 417/290/168 419/292/168 423/298/170 421/294/170
f 420/293/169 425/300/171 424/299/171 422/295/169
f 420/293/93 421/294/93 426/301/93 425/300/93
f 419/292/93 418/291/93 377/297/145 382/302/150
f 419/292/93 382/302/150 383/303/151 423/298/93
f 356/296/124 422/295/93 424/299/93 350/304/118
f 423/298/170 427/305/172 426/301/172 421/294/170
f 426/301/172 427/305/172 424/299/171 425/300/171
f 424/299/93 427/305/93 353/306/121 350/304/118
f 423/298/93 383/303/151 353/306/121 427/305/93
f 431/310/173 430/309/174 429/308/174 428/307/173
f 428/307/173 433/312/175 432/311/175 431/310/173
f 428/307/176 429/308/177 435/314/177 434/313/176
f 433/312/175 437/316/178 436/315/178 432/311/175
f 434/313/179 438/317/179 436/315/178 437/316/178
f 438/317/179 434/313/179 435/314/180 439/318/180
f 435/314/177 429/308/177 441/320/181 440/319/181
f 429/308/567 430/322/567 442/321/182 441/320/182
f 435/314/568 440/319/183 443/324/183 439/323/568
f 441/320/181 445/326/184 444/325/184 440/319/181
f 441/320/182 442/321/182 446/327/185 445/326/185
f 440/319/183 444/325/186 447/328/186 443/324/183
f 445/326/185 446/327/185 447/328/186 444/325/186
f 451/314/187 450/319/188 449/324/188 448/323/187
f 450/319/188 453/325/189 452/328/189 449/324/188
f 450/319/190 451/314/191 455/308/191 454/320/190
f 453/325/189 457/326/192 456/327/192 452/328/189
f 454/320/193 458/321/193 456/327/192 457/326/192
f 458/321/193 454/320/193 455/308/194 459/322/194
f 455/308/191 451/314/191 461/313/195 460/307/195
f 451/314/569 448/318/569 462/317/196 461/313/196
f 455/308/570 460/307/197 463/310/197 459/309/570
f 461/313/195 465/316/198 464/312/198 460/307/195
f 461/313/196 462/317/196 466/315/199 465/316/199
f 460/307/197 464/312/200 467/311/200 463/310/197
f 465/316/199 466/315/199 467/311/200 464/312/200
f 471/332/201 470/331/202 469/330/202 468/329/201
f 470/331/202 473/334/203 472/333/203 469/330/202
f 470/331/204 471/332/205 475/336/205 474/335/204
f 473/334/203 477/338/206 476/337/206 472/333/203
f 474/335/207 478/339/207 476/337/206 477/338/206
f 478/339/207 474/335/207 475/336/208 479/340/208
f 475/336/205 471/332/205 481/342/209 480/341/209
f 471/332/571 468/344/571 482/343/210 481/342/210
f 475/336/572 480/341/211 483/346/211 479/345/572
f 481/342/209 485/348/212 484/347/212 480/341/209
f 481/342/210 482/343/210 486/349/213 485/348/213
f 480/341/211 484/347/214 487/350/214 483/346/211
f 485/348/213 486/349/213 487/350/214 484/347/214
f 491/346/215 490/345/216 489/336/216 488/341/215
f 488/341/215 493/347/217 492/350/217 491/346/215
f 488/341/218 489/336/219 495/332/219 494/342/218
f 493/347/217 497/348/220 496/349/220 492/350/217
f 494/342/221 498/343/221 496/349/220 497/348/220
f 498/343/221 494/342/221 495/332/222 499/344/222
f 495/332/219 489/336/219 501/335/223 500/331/223
f 489/336/573 490/340/573 502/339/224 501/335/224
f 495/332/574 500/331/225 503/330/225 499/329/574
f 501/335/223 505/338/226 504/334/226 500/331/223
f 501/335/224 502/339/224 506/337/227 505/338/227
f 500/331/225 504/334/228 507/333/228 503/330/225
f 505/338/227 506/337/227 507/333/228 504/334/228
f 433/312/575 428/307/176 434/313/176 437/316/575
f 453/325/576 450/319/190 454/320/190 457/326/576
f 473/334/577 470/331/204 474/335/204 477/338/577
f 493/347/578 488/341/218 494/342/218 497/348/578
f 510/353/230 509/352/230 508/351/229
f 513/356/232 512/355/231 511/354/231
f 510/359/579 511/358/579 514/357/233
f 517/362/234 516/361/234 515/360/234
f 511/366/579 510/365/579 508/364/580 513/363/580
f 510/353/230 514/368/235 518/367/235 509/352/230
f 513/372/93 508/371/93 509/370/93 512/369/93
f 511/354/231 512/355/231 518/374/581 514/373/581
f 520/377/237 519/376/236 516/375/237
f 516/375/237 517/378/582 520/377/237
f 515/381/583 519/380/584 520/379/583
f 520/379/583 517/382/585 515/381/583
f 523/352/239 522/353/239 521/351/238
f 526/355/240 525/356/241 524/354/240
f 524/358/586 522/359/586 527/357/242
f 530/361/243 529/362/243 528/360/243
f 521/364/587 522/365/586 524/366/586 525/363/587
f 531/367/244 527/368/244 522/353/239 523/352/239
f 523/370/93 521/371/93 525/372/93 526/369/93
f 531/374/588 526/355/240 524/354/240 527/373/588
f 533/376/246 532/377/245 530/375/245
f 529/378/589 530/375/245 532/377/245
f 533/380/591 528/381/590 532/379/590
f 529/382/592 532/379/590 528/381/590
f 536/353/248 535/352/248 534/351/247
f 539/356/250 538/355/249 537/354/249
f 536/359/593 537/358/593 540/357/251
f 543/362/252 542/361/252 541/360/252
f 537/366/593 536/365/593 534/364/594 539/363/594
f 536/353/248 540/368/253 544/367/253 535/352/248
f 539/372/93 534/371/93 535/370/93 538/369/93
f 537/354/249 538/355/249 544/374/595 540/373/595
f 546/377/255 545/376/254 542/375/255
f 542/375/255 543/378/596 546/377/255
f 541/381/597 545/380/598 546/379/597
f 546/379/597 543/382/599 541/381/597
f 549/352/257 548/353/257 547/351/256
f 552/355/258 551/356/259 550/354/258
f 550/358/600 548/359/600 553/357/260
f 556/361/261 555/362/261 554/360/261
f 547/364/601 548/365/600 550/366/600 551/363/601
f 557/367/262 553/368/262 548/353/257 549/352/257
f 549/370/93 547/371/93 551/372/93 552/369/93
f 557/374/602 552/355/258 550/354/258 553/373/602
f 559/376/264 558/377/263 556/375/263
f 555/378/603 556/375/263 558/377/263
f 559/380/605 554/381/604 558/379/604
f 555/382/606 558/379/604 554/381/604
f 562/385/267 561/384/266 560/383/265
f 561/384/266 563/386/268 560/383/265
f 563/386/268 564/387/269 560/383/265
f 564/387/269 565/388/270 560/383/265
f 565/388/270 566/389/271 560/383/607
f 566/389/271 567/390/272 560/383/607
f 567/390/272 568/391/273 560/383/607
f 568/391/273 569/392/274 560/383/607
f 569/392/274 570/393/275 560/383/608
f 570/393/275 571/394/276 560/383/608
f 571/394/276 572/395/277 560/383/608
f 572/395/277 562/385/267 560/383/608
f 386/399/154 387/398/155 574/397/279 573/396/278
f 386/399/154 573/396/278 575/401/280 388/400/156
f 573/396/278 572/395/277 571/394/276 575/401/280
f 573/396/278 574/397/279 562/385/267 572/395/277
f 388/400/156 575/401/280 576/403/281 389/402/157
f 575/401/280 571/394/276 570/393/275 576/403/281
f 576/403/281 577/405/282 390/404/158 389/402/157
f 577/405/282 576/403/281 570/393/275 569/392/274
f 577/405/282 578/407/283 391/406/159 390/404/158
f 577/405/282 569/392/274 568/391/273 578/407/283
f 391/406/159 578/407/283 579/409/284 392/408/160
f 578/407/283 568/391/273 567/390/272 579/409/284
f 579/409/284 580/411/285 393/410/161 392/408/160
f 567/390/272 566/389/271 580/411/285 579/409/284
f 393/410/161 580/411/285 581/413/286 394/412/162
f 580/411/285 566/389/271 565/388/270 581/413/286
f 394/412/162 581/413/286 582/415/287 395/414/163
f 581/413/286 565/388/270 564/387/269 582/415/287
f 582/415/287 583/417/288 396/416/164 395/414/163
f 564/387/269 563/386/268 583/417/288 582/415/287
f 583/417/288 584/419/289 397/418/165 396/416/164
f 584/419/289 583/417/288 563/386/268 561/384/266
f 397/418/165 584/419/289 574/397/279 387/398/155
f 584/419/289 561/384/266 562/385/267 574/397/279
g obj3
f 587/94/92 586/95/92 585/96/92
f 590/97/92 589/98/92 588/99/92
f 593/100/93 592/101/93 591/102/93
f 596/103/93 595/104/93 594/105/93
f 599/106/92 598/107/92 597/108/92
f 602/109/92 601/110/92 600/111/92
f 605/112/93 604/113/93 603/114/93
f 608/115/93 607/116/93 606/117/93
f 611/118/92 610/119/92 609/120/92
f 614/121/92 613/122/92 612/123/92
f 617/124/93 616/125/93 615/126/93
f 620/127/93 619/128/93 618/129/93
f 623/130/93 622/131/93 621/132/93
f 626/133/93 625/134/93 624/135/93
f 630/136/92 629/137/92 628/138/92 627/139/92
f 632/140/114 631/141/114 629/137/539 630/136/539
f 630/136/609 627/142/609 633/143/290 632/140/290
f 633/143/290 635/144/291 634/145/291 632/140/290
f 636/146/35 631/141/114 632/140/114 634/145/35
f 637/147/292 628/148/610 629/137/610 631/141/292
f 638/149/54 637/147/292 631/141/292 636/146/54
f 635/150/93 638/151/93 636/146/93 634/145/93
f 642/152/296 641/153/295 640/154/294 639/155/293
f 641/153/295 644/156/298 643/157/297 640/154/294
f 642/152/296 646/158/300 645/159/299 641/153/295
f 645/159/299 647/160/301 644/156/298 641/153/295
f 646/158/300 649/161/303 648/162/302 645/159/299
f 648/162/302 650/163/304 647/160/301 645/159/299
f 652/164/306 651/165/305 648/162/302 649/161/303
f 651/165/305 653/166/307 650/163/304 648/162/302
f 655/167/309 654/168/308 651/165/305 652/164/306
f 654/168/308 656/169/310 653/166/307 651/165/305
f 655/167/309 658/170/312 657/171/311 654/168/308
f 657/171/311 659/172/313 656/169/310 654/168/308
f 661/173/315 660/174/314 657/171/311 658/170/312
f 660/174/314 662/175/316 659/172/313 657/171/311
f 661/173/315 664/176/318 663/177/317 660/174/314
f 663/177/317 665/178/319 662/175/316 660/174/314
f 664/176/318 667/179/321 666/180/320 663/177/317
f 668/181/322 665/178/319 663/177/317 666/180/320
f 666/180/320 670/182/324 669/183/323 668/181/322
f 671/184/325 670/182/324 666/180/320 667/179/321
f 673/185/327 672/186/326 670/182/324 671/184/325
f 672/186/326 674/187/328 669/183/323 670/182/324
f 673/185/327 639/188/293 640/189/294 672/186/326
f 640/189/294 643/190/297 674/187/328 672/186/326
f 644/191/298 676/192/330 675/193/329 643/194/297
f 647/195/301 677/196/331 676/192/330 644/191/298
f 650/197/304 678/198/332 677/196/331 647/195/301
f 653/199/307 679/200/333 678/198/332 650/197/304
f 656/201/310 680/202/334 679/200/333 653/199/307
f 659/203/313 681/204/335 680/202/334 656/201/310
f 662/205/316 682/206/336 681/204/335 659/203/313
f 665/207/319 683/208/337 682/206/336 662/205/316
f 665/207/319 668/209/322 684/210/338 683/208/337
f 668/209/322 669/211/323 685/212/339 684/210/338
f 674/213/328 686/214/340 685/212/339 669/211/323
f 686/214/340 674/213/328 643/215/297 675/216/329
f 688/217/48 612/218/611 619/219/611 687/220/48
f 612/218/611 613/221/612 618/222/612 619/219/611
f 614/223/614 620/224/614 618/222/613 613/221/613
f 614/223/614 610/225/615 615/226/615 620/224/614
f 610/225/615 611/227/616 617/228/616 615/226/615
f 611/227/617 609/229/618 616/230/618 617/228/617
f 690/231/54 689/232/54 616/230/618 609/229/618
f 692/233/48 588/234/619 595/235/619 691/236/48
f 588/234/619 589/237/620 594/238/620 595/235/619
f 590/239/622 596/240/622 594/238/621 589/237/621
f 590/239/622 586/241/615 591/242/615 596/240/622
f 586/241/615 587/243/616 593/244/616 591/242/615
f 587/243/623 585/245/624 592/246/624 593/244/623
f 694/247/54 693/248/54 592/246/624 585/245/624
f 696/249/48 600/250/625 607/251/625 695/252/48
f 600/250/625 601/253/626 606/254/626 607/251/625
f 602/255/628 608/256/628 606/254/627 601/253/627
f 602/255/628 598/257/615 603/258/615 608/256/628
f 598/257/615 599/259/616 605/260/616 603/258/615
f 599/259/617 597/261/618 604/262/618 605/260/617
f 698/263/54 697/264/54 604/262/618 597/261/618
f 585/96/92 588/99/92 692/265/92 694/266/92
f 586/95/92 590/97/92 588/99/92 585/96/92
f 595/104/93 596/103/93 591/102/93 592/101/93
f 693/267/93 691/268/93 595/104/93 592/101/93
f 597/108/92 600/111/92 696/269/92 698/270/92
f 598/107/92 602/109/92 600/111/92 597/108/92
f 607/116/93 608/115/93 603/114/93 604/113/93
f 697/271/93 695/272/93 607/116/93 604/113/93
f 609/120/92 612/123/92 688/273/92 690/274/92
f 610/119/92 614/121/92 612/123/92 609/120/92
f 619/128/93 620/127/93 615/126/93 616/125/93
f 689/275/93 687/276/93 619/128/93 616/125/93
f 700/277/93 699/278/93 661/279/315 658/280/312
f 655/281/309 701/282/93 700/277/93 658/280/312
f 652/283/306 702/284/93 701/282/93 655/281/309
f 702/284/630 625/134/630 622/131/629 701/282/629
f 622/131/629 623/130/631 700/277/631 701/282/629
f 700/277/631 623/130/631 621/132/632 699/278/632
f 625/134/93 626/133/93 621/132/93 622/131/93
f 652/283/306 649/285/303 703/286/93 702/284/93
f 703/286/341 704/287/341 625/134/630 702/284/630
f 705/288/93 664/289/318 661/279/315 699/278/93
f 621/132/632 626/133/633 705/288/633 699/278/632
f 704/287/93 706/290/93 624/135/93 625/134/93
f 707/291/342 705/288/633 626/133/633 624/135/342
f 706/290/343 708/292/343 707/291/342 624/135/342
f 710/293/93 709/294/93 706/290/93 704/287/93
f 703/286/341 711/295/344 710/293/344 704/287/341
f 646/296/300 711/295/93 703/286/93 649/285/303
f 707/291/93 667/297/321 664/289/318 705/288/93
f 709/294/345 712/298/345 708/292/343 706/290/343
f 711/295/344 714/299/346 713/300/346 710/293/344
f 713/300/93 715/301/93 709/294/93 710/293/93
f 671/302/325 667/297/321 707/291/93 708/292/93
f 712/298/93 673/303/327 671/302/325 708/292/93
f 642/304/296 714/299/93 711/295/93 646/296/300
f 709/294/345 715/301/347 716/305/347 712/298/345
f 713/300/346 714/299/346 716/305/347 715/301/347
f 642/304/296 639/306/293 716/305/93 714/299/93
f 716/305/93 639/306/293 673/303/327 712/298/93
f 720/307/348 719/308/349 718/309/349 717/310/348
f 717/310/348 722/311/350 721/312/350 720/307/348
f 724/313/352 723/314/351 719/308/351 720/307/352
f 722/311/350 726/315/353 725/316/353 721/312/350
f 725/316/353 726/315/353 727/317/354 724/313/354
f 728/318/355 723/314/355 724/313/354 727/317/354
f 730/319/356 729/320/356 719/308/351 723/314/351
f 729/320/357 731/321/357 718/322/634 719/308/634
f 728/323/635 732/324/358 730/319/358 723/314/635
f 730/319/356 734/325/359 733/326/359 729/320/356
f 733/326/360 735/327/360 731/321/357 729/320/357
f 732/324/358 736/328/361 734/325/361 730/319/358
f 734/325/361 736/328/361 735/327/360 733/326/360
f 740/323/362 739/324/363 738/319/363 737/314/362
f 739/324/363 742/328/364 741/325/364 738/319/363
f 744/320/366 743/308/365 737/314/365 738/319/366
f 742/328/364 746/327/367 745/326/367 741/325/364
f 745/326/367 746/327/367 747/321/368 744/320/368
f 748/322/369 743/308/369 744/320/368 747/321/368
f 750/307/370 749/313/370 737/314/365 743/308/365
f 749/313/371 751/317/371 740/318/636 737/314/636
f 748/309/637 752/310/372 750/307/372 743/308/637
f 750/307/370 754/312/373 753/316/373 749/313/370
f 753/316/374 755/315/374 751/317/371 749/313/371
f 752/310/372 756/311/375 754/312/375 750/307/372
f 754/312/375 756/311/375 755/315/374 753/316/374
f 760/329/376 759/330/377 758/331/377 757/332/376
f 759/330/377 762/333/378 761/334/378 758/331/377
f 764/335/380 763/336/379 757/332/379 758/331/380
f 762/333/378 766/337/381 765/338/381 761/334/378
f 765/338/381 766/337/381 767/339/382 764/335/382
f 768/340/383 763/336/383 764/335/382 767/339/382
f 770/341/384 769/342/384 757/332/379 763/336/379
f 769/342/385 771/343/385 760/344/638 757/332/638
f 768/345/639 772/346/386 770/341/386 763/336/639
f 770/341/384 774/347/387 773/348/387 769/342/384
f 773/348/388 775/349/388 771/343/385 769/342/385
f 772/346/386 776/350/389 774/347/389 770/341/386
f 774/347/389 776/350/389 775/349/388 773/348/388
f 780/341/390 779/336/391 778/345/391 777/346/390
f 777/346/390 782/350/392 781/347/392 780/341/390
f 784/342/394 783/332/393 779/336/393 780/341/394
f 782/350/392 786/349/395 785/348/395 781/347/392
f 785/348/395 786/349/395 787/343/396 784/342/396
f 788/344/397 783/332/397 784/342/396 787/343/396
f 790/331/398 789/335/398 779/336/393 783/332/393
f 789/335/399 791/339/399 778/340/640 779/336/640
f 788/329/641 792/330/400 790/331/400 783/332/641
f 790/331/398 794/334/401 793/338/401 789/335/398
f 793/338/402 795/337/402 791/339/399 789/335/399
f 792/330/400 796/333/403 794/334/403 790/331/400
f 794/334/403 796/333/403 795/337/402 793/338/402
f 725/316/642 724/313/352 720/307/352 721/312/642
f 745/326/643 744/320/366 738/319/366 741/325/643
f 765/338/644 764/335/380 758/331/380 761/334/644
f 785/348/645 784/342/394 780/341/394 781/347/645
f 799/351/405 798/352/404 797/353/404
f 802/354/407 801/355/407 800/356/406
f 803/357/408 802/358/646 797/359/646
f 806/360/409 805/361/409 804/362/409
f 800/363/647 799/364/647 797/365/646 802/366/646
f 798/352/404 807/367/410 803/368/410 797/353/404
f 801/369/93 798/370/93 799/371/93 800/372/93
f 803/373/648 807/374/648 801/355/407 802/354/407
f 805/375/411 809/376/412 808/377/411
f 808/377/411 804/378/649 805/375/411
f 808/379/650 809/380/651 806/381/650
f 806/381/650 804/382/652 808/379/650
f 812/351/414 811/353/413 810/352/413
f 815/354/415 814/356/416 813/355/415
f 816/357/417 811/359/653 815/358/653
f 819/360/418 818/362/418 817/361/418
f 814/363/654 815/366/653 811/365/653 812/364/654
f 810/352/413 811/353/413 816/368/419 820/367/419
f 813/369/93 814/372/93 812/371/93 810/370/93
f 816/373/655 815/354/415 813/355/415 820/374/655
f 817/375/421 822/377/421 821/376/420
f 822/377/421 817/375/421 818/378/656
f 822/379/658 819/381/658 821/380/657
f 819/381/658 822/379/658 818/382/659
f 825/351/423 824/352/422 823/353/422
f 828/354/425 827/355/425 826/356/424
f 829/357/426 828/358/660 823/359/660
f 832/360/427 831/361/427 830/362/427
f 826/363/661 825/364/661 823/365/660 828/366/660
f 824/352/422 833/367/428 829/368/428 823/353/422
f 827/369/93 824/370/93 825/371/93 826/372/93
f 829/373/662 833/374/662 827/355/425 828/354/425
f 831/375/429 835/376/430 834/377/429
f 834/377/429 830/378/663 831/375/429
f 834/379/664 835/380/665 832/381/664
f 832/381/664 830/382/666 834/379/664
f 838/351/432 837/353/431 836/352/431
f 841/354/433 840/356/434 839/355/433
f 842/357/435 837/359/667 841/358/667
f 845/360/436 844/362/436 843/361/436
f 840/363/668 841/366/667 837/365/667 838/364/668
f 836/352/431 837/353/431 842/368/437 846/367/437
f 839/369/93 840/372/93 838/371/93 836/370/93
f 842/373/669 841/354/433 839/355/433 846/374/669
f 843/375/439 848/377/439 847/376/438
f 848/377/439 843/375/439 844/378/670
f 848/379/672 845/381/672 847/380/671
f 845/381/672 848/379/672 844/382/673
f 851/383/442 850/384/441 849/385/440
f 851/383/442 852/386/443 850/384/441
f 851/383/442 853/387/444 852/386/443
f 851/383/442 854/388/445 853/387/444
f 851/383/674 855/389/446 854/388/445
f 851/383/674 856/390/447 855/389/446
f 851/383/674 857/391/448 856/390/447
f 851/383/674 858/392/449 857/391/448
f 851/383/675 859/393/450 858/392/449
f 851/383/675 860/394/451 859/393/450
f 851/383/675 861/395/452 860/394/451
f 851/383/675 849/385/440 861/395/452
f 863/396/454 862/397/453 675/398/329 676/399/330
f 677/400/331 864/401/455 863/396/454 676/399/330
f 864/401/455 860/394/451 861/395/452 863/396/454
f 861/395/452 849/385/440 862/397/453 863/396/454
f 678/402/332 865/403/456 864/401/455 677/400/331
f 865/403/456 859/393/450 860/394/451 864/401/455
f 678/402/332 679/404/333 866/405/457 865/403/456
f 858/392/449 859/393/450 865/403/456 866/405/457
f 679/404/333 680/406/334 867/407/458 866/405/457
f 867/407/458 857/391/448 858/392/449 866/405/457
f 681/408/335 868/409/459 867/407/458 680/406/334
f 868/409/459 856/390/447 857/391/448 867/407/458
f 681/408/335 682/410/336 869/411/460 868/409/459
f 868/409/459 869/411/460 855/389/446 856/390/447
f 683/412/337 870/413/461 869/411/460 682/410/336
f 870/413/461 854/388/445 855/389/446 869/411/460
f 684/414/338 871/415/462 870/413/461 683/412/337
f 871/415/462 853/387/444 854/388/445 870/413/461
f 684/414/338 685/416/339 872/417/463 871/415/462
f 871/415/462 872/417/463 852/386/443 853/387/444
f 685/416/339 686/418/340 873/419/464 872/417/463
f 850/384/441 852/386/443 872/417/463 873/419/464
f 675/398/329 862/397/453 873/419/464 686/418/340
f 862/397/453 849/385/440 850/384/441 873/419/464
# 782 elements

