# Created by Metasequoia

mtllib weapon_mount_pl15.mtl

v -0.121059 0.539634 -0.819610
v -0.169677 0.539634 -0.839853
v -0.184712 0.539634 -0.862324
v -0.189795 0.539634 -0.888399
v -0.184712 0.539634 -0.914936
v -0.169677 0.539634 -0.936962
v -0.121059 0.539634 -0.957204
v -0.066059 0.483883 -0.819610
v -0.066059 0.483883 -0.957204
v -0.086425 0.521781 -0.957204
v -0.086425 0.521781 -0.819610
v -0.121059 0.569250 -0.819610
v -0.169677 0.569250 -0.839853
v -0.184712 0.569250 -0.862324
v -0.189795 0.569250 -0.888399
v -0.184712 0.569250 -0.914936
v -0.169677 0.569250 -0.936962
v -0.121059 0.569250 -0.957204
v -0.066059 0.569250 -0.819610
v -0.066059 0.569250 -0.957204
v -0.086425 0.569250 -0.957204
v -0.086425 0.569250 -0.819610
v -0.121059 0.539634 0.182406
v -0.169677 0.539634 0.162164
v -0.184712 0.539634 0.139692
v -0.189795 0.539634 0.113618
v -0.184712 0.539634 0.087080
v -0.169677 0.539634 0.065055
v -0.121059 0.539634 0.044811
v -0.066059 0.483883 0.182406
v -0.066059 0.483883 0.044811
v -0.086425 0.521781 0.044811
v -0.086425 0.521781 0.182406
v -0.121059 0.569250 0.182406
v -0.169677 0.569250 0.162164
v -0.184712 0.569250 0.139692
v -0.189795 0.569250 0.113618
v -0.184712 0.569250 0.087080
v -0.169677 0.569250 0.065055
v -0.121059 0.569250 0.044811
v -0.066059 0.569250 0.182406
v -0.066059 0.569250 0.044811
v -0.086425 0.569250 0.044811
v -0.086425 0.569250 0.182406
v -0.000388 0.560322 0.840708
v -0.000388 0.560322 -1.418064
v 0.067965 0.560322 -1.360397
v 0.067965 0.560322 0.772961
v -0.000388 0.316553 1.002838
v -0.000388 0.316553 -1.544372
v 0.067965 0.316553 -1.486706
v 0.067965 0.316553 0.940753
v 0.067965 0.439398 -1.453199
v -0.000388 0.439398 -1.510863
v -0.068739 0.560322 -1.360397
v -0.068739 0.560322 0.772961
v -0.068739 0.316553 -1.486706
v -0.068739 0.316553 0.940753
v -0.068739 0.439398 -1.453199
v 0.067965 0.439398 0.882447
v -0.068739 0.439398 0.882447
v -0.000388 0.439398 0.947230
v 0.121059 0.539634 -0.819610
v 0.169677 0.539634 -0.839853
v 0.184712 0.539634 -0.862324
v 0.189795 0.539634 -0.888399
v 0.184712 0.539634 -0.914936
v 0.169677 0.539634 -0.936962
v 0.121059 0.539634 -0.957204
v 0.066059 0.483883 -0.819610
v 0.066059 0.483883 -0.957204
v 0.086425 0.521781 -0.957204
v 0.086425 0.521781 -0.819610
v 0.121059 0.569250 -0.819610
v 0.169677 0.569250 -0.839853
v 0.184712 0.569250 -0.862324
v 0.189795 0.569250 -0.888399
v 0.184712 0.569250 -0.914936
v 0.169677 0.569250 -0.936962
v 0.121059 0.569250 -0.957204
v 0.066059 0.569250 -0.819610
v 0.066059 0.569250 -0.957204
v 0.086425 0.569250 -0.957204
v 0.086425 0.569250 -0.819610
v 0.121059 0.539634 0.182406
v 0.169677 0.539634 0.162164
v 0.184712 0.539634 0.139692
v 0.189795 0.539634 0.113618
v 0.184712 0.539634 0.087080
v 0.169677 0.539634 0.065055
v 0.121059 0.539634 0.044811
v 0.066059 0.483883 0.182406
v 0.066059 0.483883 0.044811
v 0.086425 0.521781 0.044811
v 0.086425 0.521781 0.182406
v 0.121059 0.569250 0.182406
v 0.169677 0.569250 0.162164
v 0.184712 0.569250 0.139692
v 0.189795 0.569250 0.113618
v 0.184712 0.569250 0.087080
v 0.169677 0.569250 0.065055
v 0.121059 0.569250 0.044811
v 0.066059 0.569250 0.182406
v 0.066059 0.569250 0.044811
v 0.086425 0.569250 0.044811
v 0.086425 0.569250 0.182406
v -0.077542 0.321656 -0.956430
v -0.077542 0.246785 -0.956430
v 0.077540 0.321656 -0.956430
v 0.077540 0.246785 -0.956430
v 0.077540 0.321656 -1.126080
v 0.077540 0.246785 -1.126080
v -0.077542 0.321656 -1.126080
v -0.077542 0.246785 -1.126080
v -0.077542 0.321656 0.415105
v -0.077542 0.246785 0.415105
v 0.077540 0.321656 0.415105
v 0.077540 0.246785 0.415105
v 0.077540 0.321656 0.584755
v 0.077540 0.246785 0.584755
v -0.077542 0.321656 0.584755
v -0.077542 0.246785 0.584755
v -0.000002 0.307284 1.197269
v -0.000002 0.307284 -1.824906
v -0.072197 0.307284 -1.787011
v -0.072197 0.307284 1.152750
v -0.000002 0.119227 1.303809
v -0.000002 0.119227 -1.907906
v -0.072197 0.119227 -1.870013
v -0.072197 0.119227 1.263011
v -0.072197 0.213996 -1.847994
v -0.000002 0.213996 -1.885888
v 0.072195 0.307284 -1.787011
v 0.072195 0.307284 1.152750
v 0.072195 0.119227 -1.870013
v 0.072195 0.119227 1.263011
v 0.072195 0.213996 -1.847994
v -0.072197 0.213996 1.224697
v 0.072195 0.213996 1.224697
v -0.000002 0.213996 1.267267
v -0.027025 0.367381 -1.013686
v -0.027025 0.201060 -1.013686
v 0.027023 0.367381 -1.013686
v 0.027023 0.201060 -1.013686
v 0.027023 0.367381 -1.068823
v 0.027023 0.201060 -1.068823
v -0.027025 0.367381 -1.068823
v -0.027025 0.201060 -1.068823
v -0.027025 0.367381 0.472362
v -0.027025 0.201060 0.472362
v 0.027023 0.367381 0.472362
v 0.027023 0.201060 0.472362
v 0.027023 0.367381 0.527498
v 0.027023 0.201060 0.527498
v -0.027025 0.367381 0.527498
v -0.027025 0.201060 0.527498
v -0.031190 0.123241 1.243714
v -0.023921 0.132130 1.243714
v -0.023921 0.118570 1.243714
v 0.023857 0.132130 1.243714
v 0.031107 0.123241 1.243714
v 0.023857 0.118570 1.243714
v -0.031190 0.123241 1.181643
v -0.023921 0.118570 1.181643
v -0.023921 0.132130 1.181643
v 0.023857 0.132130 1.181643
v 0.023857 0.118570 1.181643
v 0.031107 0.123241 1.181643
v -0.031190 0.123241 -0.232690
v -0.023921 0.132130 -0.232690
v -0.023921 0.118570 -0.232690
v 0.023857 0.132130 -0.232690
v 0.031107 0.123241 -0.232690
v 0.023857 0.118570 -0.232690
v -0.031190 0.123241 -0.295067
v -0.023921 0.118570 -0.295067
v -0.023921 0.132130 -0.295067
v 0.023857 0.132130 -0.295067
v 0.023857 0.118570 -0.295067
v 0.031107 0.123241 -0.295067
v -0.031190 0.123241 -1.498597
v -0.023921 0.132130 -1.498597
v -0.023921 0.118570 -1.498597
v 0.023854 0.132130 -1.498597
v 0.031107 0.123241 -1.498597
v 0.023854 0.118570 -1.498597
v -0.031190 0.123241 -1.561268
v -0.023921 0.118570 -1.561268
v -0.023921 0.132130 -1.561268
v 0.023854 0.132130 -1.561268
v 0.023854 0.118570 -1.561268
v 0.031107 0.123241 -1.561268
v -0.000080 0.060457 -2.368982
v -0.033921 0.051378 -2.368982
v 0.033834 0.051378 -2.368982
v 0.058638 0.026577 -2.368982
v -0.058721 0.026577 -2.368982
v 0.067714 -0.007340 -2.368982
v 0.006158 -0.137540 0.648935
v -0.006244 -0.137540 0.648935
v -0.006244 -0.122854 0.648935
v 0.006158 -0.122854 0.648935
v 0.025813 -0.142287 0.557931
v -0.025899 -0.142287 0.557931
v 0.025813 -0.122854 0.557931
v 0.025812 -0.122854 -2.271345
v 0.025812 -0.142287 -2.271345
v -0.025899 -0.142287 -2.271345
v -0.025899 -0.122854 0.557931
v -0.025899 -0.122854 -2.271345
v -0.043419 -0.082457 -2.410259
v -0.062677 -0.115772 -2.360541
v -0.000004 -0.132569 -2.360541
v -0.000011 -0.094057 -2.410259
v -0.062677 -0.115772 -0.191874
v -0.000004 -0.132569 -0.191874
v -0.075197 -0.050679 -2.410259
v -0.108515 -0.069937 -2.360541
v -0.108515 -0.069937 -0.191874
v -0.086796 -0.007333 -2.410259
v -0.125312 -0.007340 -2.360541
v -0.125312 -0.007340 -0.191874
v -0.075197 0.036076 -2.410259
v -0.108515 0.055333 -2.360541
v -0.108515 0.055333 -0.191874
v -0.043419 0.067853 -2.410259
v -0.062677 0.101171 -2.360541
v -0.062677 0.101171 -0.191874
v -0.000011 0.079453 -2.410259
v -0.000004 0.117969 -2.360541
v -0.000004 0.117969 -0.191874
v 0.043336 0.067853 -2.410259
v 0.062590 0.101171 -2.360541
v 0.062594 0.101171 -0.191874
v 0.075113 0.036076 -2.410259
v 0.108428 0.055333 -2.360541
v 0.108428 0.055333 -0.191874
v 0.086713 -0.007333 -2.410259
v 0.125225 -0.007340 -2.360541
v 0.125226 -0.007340 -0.191874
v 0.108428 -0.069937 -2.360541
v 0.108428 -0.069937 -0.191874
v 0.075113 -0.050679 -2.410259
v 0.043336 -0.082457 -2.410259
v 0.062590 -0.115772 -2.360541
v 0.062594 -0.115772 -0.191874
v -0.062676 -0.115772 2.025303
v -0.000003 -0.132569 2.025303
v -0.108511 -0.069937 2.025303
v -0.125312 -0.007264 2.025303
v -0.108511 0.055333 2.025303
v -0.062676 0.101171 2.025303
v -0.000003 0.117969 2.025303
v 0.062594 0.101171 2.025303
v 0.108429 0.055333 2.025303
v 0.125226 -0.007264 2.025303
v 0.108429 -0.069937 2.025303
v 0.062594 -0.115772 2.025303
v 0.023854 0.111263 -1.498597
v 0.023854 0.111263 -1.561268
v -0.023921 0.111263 -1.498597
v -0.023921 0.111263 -1.561268
v 0.023857 0.110662 1.243714
v 0.023857 0.110662 1.181643
v -0.023921 0.110662 1.243714
v -0.023921 0.110662 1.181643
v 0.023857 0.111263 -0.232690
v 0.023857 0.111263 -0.295067
v -0.023921 0.111263 -0.232690
v -0.023921 0.111263 -0.295067
v -0.000011 0.064460 -2.410259
v 0.035837 0.054835 -2.410259
v -0.035922 0.054835 -2.410259
v -0.062179 0.028579 -2.410259
v -0.071803 -0.007333 -2.410259
v -0.067800 -0.007340 -2.368982
v 0.062093 0.028579 -2.410259
v 0.058638 -0.041178 -2.368982
v 0.071718 -0.007333 -2.410259
v 0.062093 -0.043183 -2.410259
v -0.058721 -0.041178 -2.368982
v 0.033834 -0.065981 -2.368982
v -0.062179 -0.043183 -2.410259
v 0.035837 -0.069436 -2.410259
v -0.035922 -0.069436 -2.410259
v -0.033921 -0.065981 -2.368982
v -0.000080 -0.075057 -2.368982
v -0.000011 -0.079061 -2.410259
v -0.099926 -0.085567 -2.212296
v -0.094126 -0.101386 -2.221936
v -0.084107 -0.091367 -2.221936
v -0.094955 -0.080557 -2.212296
v -0.099926 -0.075586 -2.197836
v -0.102486 -0.078146 -2.197836
v -0.099926 -0.085567 -2.168903
v -0.094126 -0.101386 -2.159265
v -0.099926 -0.075586 -2.183364
v -0.102486 -0.078146 -2.183364
v -0.094955 -0.080557 -2.168903
v -0.084107 -0.091367 -2.159265
v -0.078306 -0.107183 -2.168903
v -0.078306 -0.107183 -2.212296
v -0.073297 -0.102212 -2.212296
v -0.073297 -0.102212 -2.168903
v -0.070889 -0.109747 -2.183364
v -0.070889 -0.109747 -2.197836
v -0.068326 -0.107183 -2.197836
v -0.068325 -0.107183 -2.183364
v 0.084024 0.076763 -2.221936
v 0.094868 0.065953 -2.212296
v 0.099840 0.070963 -2.212296
v 0.094042 0.086782 -2.221936
v 0.099840 0.060982 -2.197836
v 0.102403 0.063545 -2.197836
v 0.099840 0.070963 -2.168903
v 0.094042 0.086782 -2.159265
v 0.099840 0.060982 -2.183364
v 0.102403 0.063545 -2.183364
v 0.094868 0.065953 -2.168903
v 0.084024 0.076763 -2.159265
v 0.078223 0.092583 -2.168903
v 0.078223 0.092583 -2.212296
v 0.073214 0.087611 -2.212296
v 0.073214 0.087611 -2.168903
v 0.070802 0.095143 -2.183364
v 0.070802 0.095143 -2.197836
v 0.068242 0.092583 -2.197836
v 0.068242 0.092583 -2.183364
v -0.084107 0.076763 -2.221936
v -0.073297 0.087611 -2.212296
v -0.078306 0.092583 -2.212296
v -0.094126 0.086782 -2.221936
v -0.068326 0.092583 -2.197836
v -0.070889 0.095143 -2.197836
v -0.078306 0.092583 -2.168903
v -0.094126 0.086782 -2.159265
v -0.068325 0.092583 -2.183364
v -0.070889 0.095143 -2.183364
v -0.073297 0.087611 -2.168903
v -0.084107 0.076763 -2.159265
v -0.099926 0.070963 -2.168903
v -0.099926 0.070963 -2.212296
v -0.094955 0.065953 -2.212296
v -0.094955 0.065953 -2.168903
v -0.102486 0.063545 -2.183364
v -0.102486 0.063545 -2.197836
v -0.099926 0.060982 -2.197836
v -0.099926 0.060982 -2.183364
v 0.078223 -0.107183 -2.212296
v 0.094042 -0.101386 -2.221936
v 0.084024 -0.091367 -2.221936
v 0.073214 -0.102212 -2.212296
v 0.068242 -0.107183 -2.197836
v 0.070802 -0.109747 -2.197836
v 0.078223 -0.107183 -2.168903
v 0.094042 -0.101386 -2.159265
v 0.068242 -0.107183 -2.183364
v 0.070802 -0.109747 -2.183364
v 0.073214 -0.102212 -2.168903
v 0.084024 -0.091367 -2.159265
v 0.099840 -0.085567 -2.168903
v 0.099840 -0.085567 -2.212296
v 0.094868 -0.080557 -2.212296
v 0.094868 -0.080557 -2.168903
v 0.102403 -0.078146 -2.183364
v 0.102403 -0.078146 -2.197836
v 0.099840 -0.075586 -2.197836
v 0.099840 -0.075586 -2.183364
v -0.207005 0.206744 -2.316995
v -0.079512 0.079852 -2.316995
v -0.208890 0.204859 -2.103492
v -0.212203 0.201546 -2.103492
v -0.087196 0.072169 -2.316995
v -0.214087 0.199662 -2.316995
v -0.118412 0.111069 -1.877596
v -0.090059 0.068742 -0.702268
v -0.076085 0.082716 -0.702268
v -0.196287 0.188943 -0.639215
v -0.083354 0.076010 -1.876028
v -0.083053 0.075710 -0.018207
v -0.195568 0.188224 -0.295271
v 0.214004 -0.214266 -2.316995
v 0.212119 -0.216150 -2.103492
v 0.087112 -0.086772 -2.316995
v 0.208807 -0.219463 -2.103492
v 0.206922 -0.221348 -2.316995
v 0.079429 -0.094456 -2.316995
v 0.118329 -0.125672 -1.877596
v 0.076002 -0.097320 -0.702268
v 0.196204 -0.203547 -0.639215
v 0.089976 -0.083346 -0.702268
v 0.083271 -0.090614 -1.876028
v 0.195485 -0.202828 -0.295271
v 0.082970 -0.090314 -0.018207
v 0.214004 0.199662 -2.316995
v 0.087112 0.072169 -2.316995
v 0.212119 0.201546 -2.103492
v 0.208807 0.204859 -2.103492
v 0.079429 0.079852 -2.316995
v 0.206922 0.206744 -2.316995
v 0.118329 0.111069 -1.877596
v 0.076002 0.082716 -0.702268
v 0.089976 0.068742 -0.702268
v 0.196204 0.188943 -0.639215
v 0.083271 0.076010 -1.876028
v 0.082970 0.075710 -0.018207
v 0.195485 0.188224 -0.295271
v -0.207005 -0.221348 -2.316995
v -0.208890 -0.219463 -2.103492
v -0.079512 -0.094456 -2.316995
v -0.212203 -0.216150 -2.103492
v -0.214087 -0.214265 -2.316995
v -0.087196 -0.086773 -2.316995
v -0.118412 -0.125672 -1.877596
v -0.090059 -0.083345 -0.702268
v -0.196287 -0.203547 -0.639215
v -0.076085 -0.097320 -0.702268
v -0.083354 -0.090614 -1.876028
v -0.195568 -0.202828 -0.295271
v -0.083053 -0.090314 -0.018207
v -0.000003 -0.007264 2.441110
v 0.038677 -0.074380 2.262738
v -0.000003 -0.084738 2.262738
v 0.067037 -0.046020 2.262738
v 0.077394 -0.007264 2.262738
v 0.067037 0.031416 2.262738
v 0.038677 0.059776 2.262738
v -0.000003 0.070134 2.262738
v -0.038759 0.059776 2.262738
v -0.067119 0.031416 2.262738
v -0.077477 -0.007264 2.262738
v -0.067119 -0.046020 2.262738
v -0.038759 -0.074380 2.262738
v -0.053749 -0.100329 2.155465
v -0.000003 -0.114718 2.155465
v -0.093071 -0.061010 2.155465
v -0.107458 -0.007264 2.155465
v -0.093071 0.046406 2.155465
v -0.053749 0.085729 2.155465
v -0.000003 0.100114 2.155465
v 0.053667 0.085729 2.155465
v 0.092986 0.046406 2.155465
v 0.107375 -0.007264 2.155465
v 0.092986 -0.061010 2.155465
v 0.053667 -0.100329 2.155465
# 445 vertices

vt 0.97360 0.75920
vt 0.96410 0.75825
vt 0.95480 0.75920
vt 0.98140 0.76180
vt 0.94700 0.76180
vt 0.98880 0.77755
vt 0.93970 0.77755
vt 0.93970 0.78525
vt 0.98880 0.78525
vt 0.98880 0.77045
vt 0.93970 0.77045
vt 0.58767 0.67615
vt 0.58767 0.68515
vt 0.92987 0.68615
vt 0.95048 0.67489
vt 0.08948 0.81747
vt 0.08129 0.80938
vt 0.08796 0.80938
vt 0.09636 0.81747
vt 0.08111 0.80960
vt 0.56711 0.80960
vt 0.55785 0.81747
vt 0.11754 0.82677
vt 0.51314 0.82677
vt 0.57407 0.81747
vt 0.58287 0.80960
vt 0.57056 0.80960
vt 0.56140 0.81747
vt 0.52890 0.82677
vt 0.51659 0.82677
vt 0.12443 0.82705
vt 0.11754 0.82705
vt 0.41383 0.61033
vt 0.49384 0.61033
vt 0.49384 0.57200
vt 0.41383 0.57200
vt 0.19285 0.51534
vt 0.19642 0.51534
vt 0.19206 0.50320
vt 0.18861 0.50320
vt 0.18851 0.50353
vt 0.84506 0.51534
vt 0.84838 0.50353
vt 0.20740 0.52673
vt 0.82895 0.52673
vt 0.85026 0.51534
vt 0.85343 0.50353
vt 0.83400 0.52673
vt 0.21096 0.52673
vt 0.19821 0.51760
vt 0.83814 0.51787
vt 0.82812 0.52672
vt 0.20576 0.52668
vt 0.67298 0.53551
vt 0.70210 0.53551
vt 0.70210 0.52114
vt 0.67298 0.52114
vt 0.81110 0.30290
vt 0.81600 0.30560
vt 0.81600 0.30145
vt 0.84580 0.30560
vt 0.85020 0.30290
vt 0.84580 0.30145
vt 0.89320 0.30290
vt 0.88830 0.30145
vt 0.88830 0.30560
vt 0.85850 0.30560
vt 0.85850 0.30145
vt 0.85360 0.30290
vt 0.81180 0.30280
vt 0.81620 0.30545
vt 0.81620 0.30130
vt 0.84650 0.30545
vt 0.85090 0.30280
vt 0.84650 0.30130
vt 0.89290 0.30280
vt 0.88850 0.30130
vt 0.88850 0.30545
vt 0.85820 0.30545
vt 0.85820 0.30130
vt 0.85380 0.30280
vt 0.81150 0.30270
vt 0.81640 0.30565
vt 0.81640 0.30125
vt 0.84620 0.30565
vt 0.85110 0.30270
vt 0.84620 0.30125
vt 0.89310 0.30270
vt 0.88870 0.30125
vt 0.88870 0.30565
vt 0.85890 0.30565
vt 0.85890 0.30125
vt 0.85400 0.30270
vt 0.38430 0.41885
vt 0.36750 0.42105
vt 0.40160 0.42105
vt 0.41430 0.42710
vt 0.35480 0.42710
vt 0.41970 0.43540
vt 0.97900 0.25455
vt 0.97360 0.25455
vt 0.97410 0.25605
vt 0.97900 0.25610
vt 0.98680 0.24510
vt 0.96580 0.24510
vt 0.98530 0.25495
vt 0.99460 0.24510
vt 0.99460 0.00545
vt 0.98680 0.00545
vt 0.96580 0.00545
vt 0.95800 0.24510
vt 0.96780 0.25495
vt 0.95800 0.00545
vt 0.98680 0.00350
vt 0.96580 0.00350
vt 0.59160 0.00290
vt 0.59160 0.00304
vt 0.61700 0.00304
vt 0.61700 0.00290
vt 0.59160 0.36790
vt 0.61700 0.36790
vt 0.56670 0.00290
vt 0.56670 0.00304
vt 0.56670 0.36790
vt 0.54130 0.00290
vt 0.54130 0.00304
vt 0.54130 0.36790
vt 0.51590 0.00290
vt 0.51590 0.00304
vt 0.51590 0.36790
vt 0.49100 0.00290
vt 0.49100 0.00304
vt 0.49100 0.36790
vt 0.46560 0.00290
vt 0.46560 0.00304
vt 0.46560 0.36790
vt 0.44050 0.00290
vt 0.44050 0.00304
vt 0.44050 0.36790
vt 0.41510 0.00290
vt 0.41510 0.00304
vt 0.41510 0.36790
vt 0.38990 0.00290
vt 0.38990 0.00304
vt 0.38990 0.36790
vt 0.36480 0.00304
vt 0.36480 0.36790
vt 0.36480 0.00290
vt 0.33940 0.00290
vt 0.33940 0.00304
vt 0.33940 0.36790
vt 0.31430 0.00290
vt 0.31430 0.00304
vt 0.31430 0.36790
vt 0.28580 0.00365
vt 0.28560 0.46293
vt 0.30944 0.46293
vt 0.30944 0.00365
vt 0.26030 0.00365
vt 0.26030 0.46293
vt 0.23510 0.00365
vt 0.23500 0.46293
vt 0.20970 0.00365
vt 0.20970 0.46293
vt 0.18440 0.00365
vt 0.18430 0.46293
vt 0.15900 0.00365
vt 0.15900 0.46293
vt 0.13370 0.00365
vt 0.13370 0.46293
vt 0.10840 0.00365
vt 0.10830 0.46293
vt 0.08300 0.00365
vt 0.08300 0.46293
vt 0.05770 0.00365
vt 0.05760 0.46293
vt 0.03240 0.00365
vt 0.03230 0.46293
vt 0.00700 0.00365
vt 0.00700 0.46293
vt 0.81980 0.32640
vt 0.82420 0.32640
vt 0.82420 0.30685
vt 0.81980 0.30685
vt 0.82960 0.32640
vt 0.82960 0.30685
vt 0.83690 0.32640
vt 0.83690 0.30685
vt 0.86720 0.32640
vt 0.86720 0.30685
vt 0.87400 0.32640
vt 0.87450 0.30685
vt 0.87990 0.32640
vt 0.87990 0.30685
vt 0.88430 0.32640
vt 0.88430 0.30685
vt 0.81940 0.32660
vt 0.82430 0.32660
vt 0.82430 0.30705
vt 0.81940 0.30705
vt 0.82970 0.32660
vt 0.82970 0.30705
vt 0.83700 0.32660
vt 0.83700 0.30705
vt 0.86730 0.32660
vt 0.86730 0.30705
vt 0.87410 0.32660
vt 0.87410 0.30705
vt 0.87950 0.32660
vt 0.87950 0.30705
vt 0.88490 0.32660
vt 0.88490 0.30705
vt 0.82060 0.32620
vt 0.82500 0.32620
vt 0.82500 0.30670
vt 0.82060 0.30670
vt 0.83040 0.32620
vt 0.83090 0.30670
vt 0.83770 0.32620
vt 0.83770 0.30670
vt 0.86800 0.32620
vt 0.86800 0.30670
vt 0.87530 0.32620
vt 0.87530 0.30670
vt 0.88070 0.32620
vt 0.88070 0.30670
vt 0.88510 0.32620
vt 0.88510 0.30670
vt 0.84580 0.29875
vt 0.81600 0.29875
vt 0.88830 0.29875
vt 0.85850 0.29875
vt 0.84650 0.29885
vt 0.81620 0.29885
vt 0.88850 0.29885
vt 0.85820 0.29885
vt 0.84620 0.29905
vt 0.81640 0.29905
vt 0.88870 0.29905
vt 0.85890 0.29905
vt 0.38430 0.40645
vt 0.41380 0.41030
vt 0.41970 0.40495
vt 0.38430 0.40030
vt 0.34930 0.40495
vt 0.35520 0.41030
vt 0.32300 0.41775
vt 0.33340 0.42085
vt 0.31300 0.43540
vt 0.32530 0.43540
vt 0.34930 0.43540
vt 0.43560 0.42085
vt 0.44610 0.41775
vt 0.41430 0.44365
vt 0.44330 0.43540
vt 0.43560 0.44995
vt 0.35480 0.44365
vt 0.40160 0.44970
vt 0.33340 0.44995
vt 0.32300 0.45305
vt 0.45560 0.43540
vt 0.41380 0.46050
vt 0.35520 0.46050
vt 0.36750 0.44970
vt 0.38430 0.45190
vt 0.44610 0.45305
vt 0.41970 0.46580
vt 0.34930 0.46580
vt 0.38430 0.46435
vt 0.38430 0.47045
vt 0.66320 0.41365
vt 0.65630 0.41555
vt 0.66070 0.41730
vt 0.66560 0.41450
vt 0.66810 0.41090
vt 0.66660 0.41080
vt 0.66320 0.40490
vt 0.65630 0.40305
vt 0.66810 0.40760
vt 0.66660 0.40775
vt 0.66560 0.40400
vt 0.66070 0.40120
vt 0.65000 0.40490
vt 0.65000 0.41365
vt 0.64760 0.41455
vt 0.65200 0.41730
vt 0.65200 0.40120
vt 0.64760 0.40400
vt 0.64660 0.40775
vt 0.64660 0.41080
vt 0.64510 0.41090
vt 0.64510 0.40765
vt 0.62660 0.41055
vt 0.63100 0.40775
vt 0.62900 0.40680
vt 0.62220 0.40875
vt 0.63340 0.40415
vt 0.63190 0.40400
vt 0.62900 0.39815
vt 0.62220 0.39620
vt 0.63340 0.40085
vt 0.63190 0.40095
vt 0.63100 0.39725
vt 0.62660 0.39440
vt 0.61530 0.39815
vt 0.61530 0.40680
vt 0.61340 0.40775
vt 0.61780 0.41055
vt 0.61780 0.39440
vt 0.61340 0.39725
vt 0.61240 0.40095
vt 0.61240 0.40400
vt 0.61090 0.40415
vt 0.61090 0.40085
vt 0.76560 0.43340
vt 0.76580 0.47195
vt 0.81290 0.43025
vt 0.70620 0.43025
vt 0.75350 0.47195
vt 0.75380 0.43340
vt 0.93990 0.47920
vt 0.81670 0.42920
vt 0.81490 0.42965
vt 0.66124 0.06532
vt 0.65174 0.06532
vt 0.65614 0.14757
vt 0.76380 0.43115
vt 0.76480 0.43265
vt 0.81220 0.42935
vt 0.81190 0.42875
vt 0.90360 0.48800
vt 0.93820 0.47980
vt 0.75700 0.47195
vt 0.76230 0.47195
vt 0.76200 0.43340
vt 0.75730 0.43340
vt 0.58130 0.47980
vt 0.61570 0.48800
vt 0.62720 0.16065
vt 0.62770 0.29285
vt 0.73945 0.19797
vt 0.78250 0.16065
vt 0.74527 0.11368
vt 0.62720 0.02125
vt 0.62720 0.15014
vt 0.78832 0.15004
vt 0.48964 0.47391
vt 0.49940 0.46607
vt 0.48964 0.46486
vt 0.50657 0.46938
vt 0.50918 0.47391
vt 0.50657 0.47842
vt 0.49940 0.48174
vt 0.48964 0.48295
vt 0.47985 0.48174
vt 0.47269 0.47842
vt 0.47007 0.47391
vt 0.47269 0.46938
vt 0.47985 0.46607
vt 0.47606 0.46304
vt 0.48964 0.46136
vt 0.48964 0.45928
vt 0.47381 0.46124
vt 0.46223 0.46659
vt 0.46613 0.46763
vt 0.45799 0.47391
vt 0.46250 0.47391
vt 0.46223 0.48122
vt 0.46613 0.48018
vt 0.47381 0.48657
vt 0.47606 0.48477
vt 0.48964 0.48853
vt 0.48964 0.48645
vt 0.50545 0.48657
vt 0.50319 0.48477
vt 0.51702 0.48122
vt 0.51312 0.48018
vt 0.52126 0.47391
vt 0.51675 0.47391
vt 0.51702 0.46659
vt 0.51312 0.46763
vt 0.50545 0.46124
vt 0.50319 0.46304
# 383 texture vertices

vn -0.23573 -0.97182 0.00000
vn -0.63486 0.00000 0.77262
vn 0.00000 -1.00000 0.00000
vn -0.63127 0.00000 -0.77557
vn -0.88086 -0.47338 0.00000
vn -0.70101 -0.71315 0.00000
vn 0.00000 1.00000 0.00000
vn -0.23573 -0.97182 0.00000
vn -0.63487 0.00000 0.77262
vn -0.63127 0.00000 -0.77556
vn -0.88086 -0.47338 0.00000
vn -0.70101 -0.71315 0.00000
vn -0.00000 0.93084 0.36542
vn 0.33384 0.87744 0.34445
vn 0.89636 0.19968 -0.39582
vn 0.60165 0.35976 -0.71316
vn -0.33385 0.87744 0.34445
vn -0.89636 0.19967 -0.39581
vn 0.90064 0.24024 0.36211
vn -0.90065 0.24024 0.36210
vn -0.61951 0.43397 0.65412
vn 0.23573 -0.97182 0.00000
vn 0.63486 0.00000 0.77262
vn 0.63127 0.00000 -0.77557
vn 0.88086 -0.47338 0.00000
vn 0.70101 -0.71315 0.00000
vn 0.23573 -0.97182 0.00000
vn 0.63487 0.00000 0.77262
vn 0.63127 0.00000 -0.77556
vn 0.88086 -0.47338 0.00000
vn 0.70101 -0.71315 0.00000
vn 0.00000 0.00000 1.00000
vn 1.00000 0.00000 0.00000
vn 0.00000 0.00000 -1.00000
vn -0.00000 0.90705 0.42103
vn -0.00000 0.89063 -0.45472
vn -1.00000 0.00000 0.00000
vn -0.00001 0.36728 0.93011
vn -0.00001 0.22631 -0.97405
vn -0.45522 0.20151 -0.86728
vn -0.43434 0.35582 -0.82749
vn -0.00001 0.39503 -0.91867
vn 0.45521 0.20151 -0.86728
vn 0.43433 0.35582 -0.82750
vn -0.00001 0.49235 0.87040
vn 0.00000 0.00000 -1.00000
vn 0.00000 0.00000 1.00000
vn 0.00000 -0.99966 0.02605
vn 0.99435 0.00000 0.10616
vn 1.00000 0.00000 -0.00000
vn -0.99435 0.00000 0.10616
vn -0.21770 -0.37721 -0.90018
vn -0.47272 -0.81889 -0.32551
vn 0.00015 -0.94553 -0.32552
vn 0.00007 -0.43554 -0.90017
vn -0.50001 -0.86602 0.00000
vn 0.00015 -1.00000 -0.00000
vn -0.37715 -0.21776 -0.90019
vn -0.81879 -0.47287 -0.32554
vn -0.86594 -0.50014 0.00000
vn -0.43550 -0.00007 -0.90019
vn -0.94552 -0.00014 -0.32557
vn -1.00000 -0.00008 0.00000
vn -0.37719 0.21770 -0.90018
vn -0.81888 0.47272 -0.32553
vn -0.86599 0.50006 -0.00000
vn -0.21770 0.37720 -0.90018
vn -0.47273 0.81888 -0.32553
vn -0.50004 0.86601 0.00000
vn 0.00007 0.43552 -0.90018
vn 0.00015 0.94553 -0.32555
vn 0.00015 1.00000 -0.00000
vn 0.21777 0.37717 -0.90017
vn 0.47287 0.81880 -0.32551
vn 0.50018 0.86592 -0.00000
vn 0.37721 0.21771 -0.90018
vn 0.81889 0.47272 -0.32551
vn 0.86600 0.50005 -0.00000
vn 0.43552 -0.00007 -0.90018
vn 0.94553 -0.00015 -0.32555
vn 1.00000 -0.00008 -0.00000
vn 0.81880 -0.47287 -0.32552
vn 0.86595 -0.50013 0.00000
vn 0.37716 -0.21777 -0.90018
vn 0.21778 -0.37719 -0.90017
vn 0.47286 -0.81881 -0.32550
vn 0.50015 -0.86594 -0.00000
vn -0.49883 -0.86402 0.06808
vn 0.00016 -0.99768 0.06809
vn -0.86399 -0.49889 0.06808
vn -0.99768 0.00008 0.06809
vn -0.86396 0.49894 0.06808
vn -0.49884 0.86401 0.06808
vn 0.00016 0.99768 0.06810
vn 0.49899 0.86393 0.06808
vn 0.86397 0.49892 0.06807
vn 0.99768 0.00008 0.06809
vn 0.86400 -0.49887 0.06808
vn 0.49897 -0.86394 0.06808
vn 0.99534 0.00025 -0.09643
vn -0.99534 0.00025 -0.09641
vn -0.86189 0.49785 -0.09637
vn 0.86189 0.49785 -0.09638
vn -0.49770 0.86197 -0.09650
vn 0.49774 0.86197 -0.09627
vn 0.00003 0.99534 -0.09641
vn -0.52759 0.52553 -0.66743
vn -0.37766 0.37618 -0.84609
vn -0.68969 0.68841 -0.22453
vn -0.94215 -0.33519 0.00000
vn -0.70704 -0.70717 0.00000
vn -0.68969 0.68842 0.22452
vn -0.52757 0.52552 0.66746
vn -0.37760 0.37613 0.84613
vn -0.33541 -0.94207 0.00000
vn 0.52560 -0.52754 -0.66742
vn 0.52555 -0.52755 0.66745
vn -0.32673 -0.94512 0.00000
vn 0.68850 -0.68960 -0.22454
vn 0.68847 -0.68963 0.22452
vn 0.37769 -0.37624 -0.84605
vn 0.52758 -0.52556 -0.66742
vn 0.68967 -0.68843 -0.22454
vn 0.94209 0.33537 0.00000
vn 0.70717 0.70705 0.00000
vn 0.68967 -0.68843 0.22453
vn 0.52756 -0.52555 0.66744
vn 0.37764 -0.37618 0.84610
vn 0.33522 0.94214 0.00000
vn -0.52557 0.52751 -0.66746
vn -0.52556 0.52750 0.66748
vn 0.32611 0.94533 0.00000
vn -0.68845 0.68965 -0.22456
vn -0.68845 0.68965 0.22454
vn 0.37621 0.37761 -0.84610
vn 0.52549 0.52764 -0.66743
vn 0.68811 0.69000 -0.22452
vn -0.33528 0.94212 0.00000
vn -0.70712 0.70709 0.00000
vn 0.68808 0.69004 0.22449
vn 0.52544 0.52765 0.66746
vn 0.37616 0.37755 0.84614
vn -0.94213 0.33525 0.00000
vn -0.52770 -0.52545 -0.66741
vn -0.52768 -0.52543 0.66743
vn -0.94529 0.32623 0.00000
vn -0.69000 -0.68811 -0.22450
vn -0.69000 -0.68811 0.22449
vn -0.52568 -0.52742 -0.66745
vn -0.37625 -0.37766 -0.84605
vn -0.68884 -0.68925 -0.22458
vn 0.33534 -0.94210 0.00000
vn 0.70709 -0.70713 0.00000
vn -0.68884 -0.68925 0.22457
vn -0.52567 -0.52740 0.66748
vn -0.37619 -0.37761 0.84610
vn 0.94211 -0.33531 0.00000
vn 0.52747 0.52564 -0.66744
vn 0.52745 0.52563 0.66747
vn 0.94521 -0.32645 0.00000
vn 0.68936 0.68873 -0.22457
vn 0.68936 0.68873 0.22456
vn 0.70538 0.70872 0.01248
vn 0.70564 0.70846 0.01233
vn -0.70847 -0.70563 0.01233
vn -0.70872 -0.70538 0.01248
vn -0.61252 0.61252 0.49964
vn -0.25910 0.25910 -0.93045
vn 0.70590 0.70821 0.01218
vn 0.68903 0.72459 0.01444
vn 0.67577 0.73707 0.00731
vn 0.70872 0.70538 0.01248
vn 0.70847 0.70563 0.01233
vn -0.70564 -0.70847 0.01233
vn -0.70538 -0.70872 0.01249
vn 0.61260 -0.61243 0.49964
vn 0.25910 -0.25910 -0.93045
vn 0.70821 0.70589 0.01218
vn 0.73707 0.67578 0.00731
vn 0.72458 0.68903 0.01444
vn 0.70872 -0.70538 0.01248
vn 0.70847 -0.70563 0.01233
vn -0.70564 0.70846 0.01233
vn -0.70538 0.70872 0.01248
vn 0.61261 0.61243 0.49964
vn 0.25910 0.25910 -0.93045
vn 0.70822 -0.70589 0.01218
vn 0.72459 -0.68903 0.01444
vn 0.73707 -0.67578 0.00731
vn 0.70538 -0.70872 0.01249
vn 0.70564 -0.70847 0.01233
vn -0.70847 0.70564 0.01233
vn -0.70872 0.70538 0.01248
vn -0.61251 -0.61252 0.49965
vn -0.25911 -0.25909 -0.93045
vn 0.70589 -0.70821 0.01218
vn 0.67577 -0.73707 0.00731
vn 0.68903 -0.72459 0.01444
vn 0.77427 -0.44686 0.44814
vn 0.47115 -0.81613 0.33459
vn 0.00022 -0.94236 0.33461
vn 0.81626 -0.47096 0.33454
vn 0.94241 0.00022 0.33445
vn 0.81618 0.47116 0.33446
vn 0.47117 0.81617 0.33446
vn 0.00022 0.94241 0.33445
vn -0.47096 0.81625 0.33455
vn -0.81613 0.47115 0.33460
vn -0.94235 0.00022 0.33462
vn -0.81621 -0.47095 0.33469
vn -0.47094 -0.81621 0.33468
vn -0.48948 -0.84806 0.20298
vn 0.00018 -0.97918 0.20298
vn -0.84805 -0.48949 0.20298
vn -0.97918 0.00018 0.20299
vn -0.84797 0.48964 0.20298
vn -0.48948 0.84806 0.20299
vn 0.00018 0.97918 0.20300
vn 0.48965 0.84796 0.20298
vn 0.84798 0.48963 0.20298
vn 0.97918 0.00018 0.20298
vn 0.84806 -0.48948 0.20298
vn 0.48965 -0.84797 0.20297
vn -0.92334 0.00000 -0.38399
vn -1.00000 0.00000 0.00164
vn -0.92449 0.00000 0.38121
vn -0.92333 0.00000 -0.38400
vn -1.00000 0.00000 0.00164
vn -0.92449 0.00000 0.38121
vn -0.19599 0.00000 -0.98061
vn -0.19599 0.00000 0.98061
vn -0.19600 0.00000 -0.98060
vn -0.19599 0.00000 0.98061
vn 0.63125 0.20409 -0.74825
vn 0.90312 0.11299 -0.41426
vn -0.90312 0.11299 -0.41425
vn -0.63126 0.20409 -0.74824
vn -0.60166 0.35976 -0.71315
vn 0.90664 0.17743 0.38279
vn 0.88210 0.28679 -0.37370
vn -0.90664 0.17743 0.38278
vn -0.88210 0.28678 -0.37370
vn -0.64400 0.32173 0.69409
vn 0.61950 0.43398 0.65413
vn 0.64398 0.32173 0.69410
vn 0.55620 0.50595 -0.65928
vn -0.55621 0.50595 -0.65928
vn 0.92334 0.00000 -0.38399
vn 1.00000 0.00000 0.00164
vn 0.92449 0.00000 0.38121
vn 0.92333 0.00000 -0.38400
vn 1.00000 0.00000 0.00164
vn 0.92449 0.00000 0.38121
vn 0.19599 0.00000 -0.98061
vn 0.19599 0.00000 0.98061
vn 0.19600 0.00000 -0.98060
vn 0.19599 0.00000 0.98061
vn 0.45639 0.43808 0.77446
vn 0.47305 0.32358 0.81946
vn -0.45640 0.43808 0.77446
vn -0.24609 0.87915 0.40808
vn -0.47306 0.32358 0.81945
vn 0.24608 0.87916 0.40808
vn -0.40224 0.50095 -0.76633
vn 0.40223 0.50095 -0.76633
vn 0.00000 -0.99864 0.05209
vn 0.97746 0.00000 0.21111
vn -0.97746 0.00000 0.21111
vn 0.87791 -0.47883 0.00000
vn 0.54144 -0.84074 0.00000
vn 0.42884 0.90338 0.00000
vn 0.77481 0.63220 0.00000
vn -0.42835 0.90361 0.00000
vn -0.77412 0.63304 0.00000
vn -0.54060 -0.84128 0.00000
vn -0.87767 -0.47927 0.00000
vn 0.87795 -0.47875 0.00000
vn 0.54160 -0.84064 0.00000
vn 0.42893 0.90334 0.00000
vn 0.77493 0.63204 0.00000
vn -0.54060 -0.84128 0.00000
vn -0.87767 -0.47927 0.00000
vn -0.77412 0.63304 0.00000
vn 0.86202 -0.49763 -0.09640
vn 0.49776 -0.86196 -0.09627
vn 0.00003 -0.99534 -0.09642
vn -0.49772 -0.86195 -0.09650
vn -0.86202 -0.49763 -0.09639
vn 0.37623 -0.37767 -0.84606
vn 0.37618 -0.37762 0.84610
vn -0.37622 0.37760 -0.84609
vn -0.37617 0.37755 0.84614
vn -0.37766 -0.37618 -0.84608
vn -0.37760 -0.37613 0.84613
vn 0.37769 0.37623 -0.84605
vn 0.37764 0.37618 0.84610
vn -0.94533 -0.32611 0.00000
vn 0.94517 0.32657 0.00000
vn -0.32627 0.94528 0.00000
vn 0.32657 -0.94517 0.00000
vn -0.68305 0.68305 0.25862
vn -0.70711 0.70711 0.00000
vn -0.70822 -0.70589 0.01218
vn 0.66226 0.74928 0.00018
vn -0.73707 -0.67578 0.00731
vn -0.72459 -0.68903 0.01444
vn -0.74927 -0.66226 0.00018
vn 0.68312 -0.68298 0.25862
vn 0.70715 -0.70706 0.00000
vn -0.70589 -0.70821 0.01218
vn 0.74927 0.66227 0.00018
vn -0.67577 -0.73707 0.00731
vn -0.68903 -0.72459 0.01444
vn -0.66226 -0.74928 0.00018
vn 0.68312 0.68298 0.25862
vn 0.70716 0.70706 0.00000
vn -0.70590 0.70821 0.01218
vn 0.74927 -0.66226 0.00018
vn -0.67577 0.73707 0.00731
vn -0.68903 0.72459 0.01444
vn -0.66226 0.74928 0.00018
vn -0.68306 -0.68304 0.25862
vn -0.70713 -0.70708 -0.00000
vn -0.70821 0.70589 0.01218
vn 0.66226 -0.74928 0.00018
vn -0.73707 0.67578 0.00731
vn -0.72459 0.68903 0.01444
vn -0.74927 0.66226 0.00018
vn 0.00015 0.89403 0.44800
vn -0.77408 -0.44689 0.44843
# 330 normal vertices

g vehicle#twin_pylon_001_169_2
usemtl 939ad3eb-60d4-44ee-8ac4-38606db
f 3/3/3 4/2/3 5/1/3
f 16/1/7 15/2/7 14/3/7
f 25/3/3 26/2/3 27/1/3
f 38/1/7 37/2/7 36/3/7
f 5/1/224 16/1/224 17/4/4 6/4/4
f 4/2/225 15/2/225 16/1/224 5/1/224
f 3/3/226 14/3/226 15/2/225 4/2/225
f 13/5/2 14/3/226 3/3/226 2/5/2
f 27/1/227 38/1/227 39/4/10 28/4/10
f 26/2/228 37/2/228 38/1/227 27/1/227
f 25/3/229 36/3/229 37/2/228 26/2/228
f 35/5/9 36/3/229 25/3/229 24/5/9
f 9/9/5 8/8/5 11/7/6 10/6/6
f 19/8/7 20/9/7 21/6/7 22/7/7
f 10/6/6 11/7/6 1/11/1 7/10/1
f 22/7/7 21/6/7 18/10/7 12/11/7
f 18/10/230 21/6/34 10/6/34 7/10/230
f 12/11/231 1/11/231 11/7/32 22/7/32
f 6/4/3 7/10/1 1/11/1 2/5/3
f 12/11/7 18/10/7 17/4/7 13/5/7
f 18/10/230 7/10/230 6/4/4 17/4/4
f 13/5/2 2/5/2 1/11/231 12/11/231
f 31/9/11 30/8/11 33/7/12 32/6/12
f 41/8/7 42/9/7 43/6/7 44/7/7
f 32/6/12 33/7/12 23/11/8 29/10/8
f 44/7/7 43/6/7 40/10/7 34/11/7
f 40/10/232 43/6/34 32/6/34 29/10/232
f 34/11/233 23/11/233 33/7/32 44/7/32
f 28/4/3 29/10/8 23/11/8 24/5/3
f 34/11/7 40/10/7 39/4/7 35/5/7
f 40/10/232 29/10/232 28/4/10 39/4/10
f 35/5/9 24/5/9 23/11/233 34/11/233
f 2/5/3 3/3/3 5/1/3 6/4/3
f 13/5/7 17/4/7 16/1/7 14/3/7
f 24/5/3 25/3/3 27/1/3 28/4/3
f 35/5/7 39/4/7 38/1/7 36/3/7
f 21/6/34 20/9/34 9/9/34 10/6/34
f 22/7/32 11/7/32 8/8/32 19/8/32
f 43/6/34 42/9/34 31/9/34 32/6/34
f 44/7/32 33/7/32 30/8/32 41/8/32
f 45/15/13 48/14/14 47/13/7 46/12/7
f 49/15/3 50/12/3 51/13/3 52/14/3
f 53/19/15 51/18/235 50/17/234 54/16/16
f 45/15/13 46/12/7 55/13/7 56/14/17
f 57/13/3 50/12/3 49/15/3 58/14/3
f 59/19/18 54/16/238 50/17/237 57/18/236
f 53/16/15 60/22/19 52/21/239 51/20/235
f 48/24/33 60/22/19 53/16/15 47/23/240
f 61/22/20 59/16/18 57/20/236 58/21/241
f 55/23/242 59/16/18 61/22/20 56/24/37
f 61/28/20 58/27/241 49/26/243 62/25/21
f 62/25/244 60/28/19 48/30/14 45/29/13
f 60/28/19 62/25/244 49/26/245 52/27/239
f 62/25/21 45/29/13 56/30/17 61/28/20
f 54/16/16 46/32/246 47/31/240 53/19/15
f 54/16/238 59/19/18 55/31/242 46/32/247
f 66/2/3 65/3/3 67/1/3
f 77/2/7 78/1/7 76/3/7
f 88/2/3 87/3/3 89/1/3
f 99/2/7 100/1/7 98/3/7
f 79/4/24 78/1/248 67/1/248 68/4/24
f 78/1/248 77/2/249 66/2/249 67/1/248
f 77/2/249 76/3/250 65/3/250 66/2/249
f 65/3/250 76/3/250 75/5/23 64/5/23
f 101/4/29 100/1/251 89/1/251 90/4/29
f 100/1/251 99/2/252 88/2/252 89/1/251
f 99/2/252 98/3/253 87/3/253 88/2/252
f 87/3/253 98/3/253 97/5/28 86/5/28
f 73/7/26 70/8/25 71/9/25 72/6/26
f 83/6/7 82/9/7 81/8/7 84/7/7
f 63/11/22 73/7/26 72/6/26 69/10/22
f 80/10/7 83/6/7 84/7/7 74/11/7
f 72/6/34 83/6/34 80/10/254 69/10/254
f 73/7/32 63/11/255 74/11/255 84/7/32
f 63/11/22 69/10/22 68/4/3 64/5/3
f 79/4/7 80/10/7 74/11/7 75/5/7
f 68/4/24 69/10/254 80/10/254 79/4/24
f 63/11/255 64/5/23 75/5/23 74/11/255
f 95/7/31 92/8/30 93/9/30 94/6/31
f 105/6/7 104/9/7 103/8/7 106/7/7
f 85/11/27 95/7/31 94/6/31 91/10/27
f 102/10/7 105/6/7 106/7/7 96/11/7
f 94/6/34 105/6/34 102/10/256 91/10/256
f 95/7/32 85/11/257 96/11/257 106/7/32
f 85/11/27 91/10/27 90/4/3 86/5/3
f 101/4/7 102/10/7 96/11/7 97/5/7
f 90/4/29 91/10/256 102/10/256 101/4/29
f 85/11/257 86/5/28 97/5/28 96/11/257
f 67/1/3 65/3/3 64/5/3 68/4/3
f 78/1/7 79/4/7 75/5/7 76/3/7
f 89/1/3 87/3/3 86/5/3 90/4/3
f 100/1/7 101/4/7 97/5/7 98/3/7
f 71/9/34 82/9/34 83/6/34 72/6/34
f 70/8/32 73/7/32 84/7/32 81/8/32
f 93/9/34 104/9/34 105/6/34 94/6/34
f 92/8/32 95/7/32 106/7/32 103/8/32
f 108/36/32 110/35/32 109/34/32 107/33/32
f 110/36/33 112/35/33 111/34/33 109/33/33
f 112/36/34 114/35/34 113/34/34 111/33/34
f 114/36/37 108/35/37 107/34/37 113/33/37
f 107/36/7 109/35/7 111/34/7 113/33/7
f 114/36/3 112/35/3 110/34/3 108/33/3
f 117/34/34 118/35/34 116/36/34 115/33/34
f 119/34/33 120/35/33 118/36/33 117/33/33
f 121/34/32 122/35/32 120/36/32 119/33/32
f 115/34/37 116/35/37 122/36/37 121/33/37
f 119/34/7 117/35/7 115/36/7 121/33/7
f 118/34/3 120/35/3 122/36/3 116/33/3
f 128/40/39 129/39/40 131/38/41 132/37/42
f 128/40/39 132/37/42 137/38/44 135/39/43
f 130/43/37 138/42/37 131/37/37 129/41/37
f 131/37/37 138/42/37 126/45/37 125/44/37
f 135/41/33 137/37/33 139/42/33 136/43/33
f 139/42/33 137/37/33 133/44/33 134/45/33
f 127/47/38 136/43/259 139/42/258 140/46/45
f 126/45/261 138/42/260 140/46/45 123/48/35
f 127/47/38 140/46/45 138/42/260 130/43/262
f 134/45/263 123/48/35 140/46/45 139/42/258
f 125/49/264 124/44/36 132/37/42 131/38/41
f 133/49/265 137/38/44 132/37/42 124/44/36
f 125/53/7 126/52/261 123/51/35 124/50/36
f 133/53/7 124/50/36 123/51/35 134/52/263
f 129/53/3 128/50/3 127/51/3 130/52/3
f 127/51/3 128/50/3 135/53/3 136/52/3
f 142/57/32 144/56/32 143/55/32 141/54/32
f 144/57/33 146/56/33 145/55/33 143/54/33
f 146/57/34 148/56/34 147/55/34 145/54/34
f 148/57/37 142/56/37 141/55/37 147/54/37
f 141/57/7 143/56/7 145/55/7 147/54/7
f 148/57/3 146/56/3 144/55/3 142/54/3
f 151/55/34 152/56/34 150/57/34 149/54/34
f 153/55/33 154/56/33 152/57/33 151/54/33
f 155/55/32 156/56/32 154/57/32 153/54/32
f 149/55/37 150/56/37 156/57/37 155/54/37
f 153/55/7 151/56/7 149/57/7 155/54/7
f 152/55/3 154/56/3 156/57/3 150/54/3
g obj2
f 159/60/32 158/59/32 157/58/32
f 162/63/32 161/62/32 160/61/32
f 165/66/34 164/65/34 163/64/34
f 168/69/46 167/68/34 166/67/34
f 171/72/32 170/71/32 169/70/32
f 174/75/32 173/74/32 172/73/32
f 177/78/34 176/77/34 175/76/34
f 180/81/46 179/80/34 178/79/34
f 183/84/32 182/83/32 181/82/32
f 186/87/32 185/86/47 184/85/32
f 189/90/34 188/89/34 187/88/34
f 192/93/34 191/92/34 190/91/34
f 195/96/34 194/95/34 193/94/34
f 198/99/34 197/98/34 196/97/34
f 202/103/32 201/102/32 200/101/32 199/100/32
f 199/100/266 200/101/266 204/105/48 203/104/48
f 203/104/49 205/107/49 202/106/267 199/100/267
f 203/104/49 207/109/50 206/108/50 205/107/49
f 207/109/3 203/104/48 204/105/48 208/110/3
f 204/105/51 200/101/268 201/112/268 209/111/51
f 208/110/37 204/105/51 209/111/51 210/113/37
f 207/109/34 208/110/34 210/115/34 206/114/34
f 214/119/55 213/118/54 212/117/53 211/116/52
f 213/118/54 216/121/57 215/120/56 212/117/53
f 212/117/53 218/123/59 217/122/58 211/116/52
f 212/117/53 215/120/56 219/124/60 218/123/59
f 218/123/59 221/126/62 220/125/61 217/122/58
f 218/123/59 219/124/60 222/127/63 221/126/62
f 220/125/61 221/126/62 224/129/65 223/128/64
f 221/126/62 222/127/63 225/130/66 224/129/65
f 223/128/64 224/129/65 227/132/68 226/131/67
f 224/129/65 225/130/66 228/133/69 227/132/68
f 227/132/68 230/135/71 229/134/70 226/131/67
f 227/132/68 228/133/69 231/136/72 230/135/71
f 229/134/70 230/135/71 233/138/74 232/137/73
f 230/135/71 231/136/72 234/139/75 233/138/74
f 233/138/74 236/141/77 235/140/76 232/137/73
f 233/138/74 234/139/75 237/142/78 236/141/77
f 236/141/77 239/144/80 238/143/79 235/140/76
f 239/144/80 236/141/77 237/142/78 240/145/81
f 240/145/81 242/147/83 241/146/82 239/144/80
f 238/143/79 239/144/80 241/146/82 243/148/84
f 243/148/84 241/146/82 245/150/86 244/149/85
f 241/146/82 242/147/83 246/151/87 245/150/86
f 245/150/86 213/153/54 214/152/55 244/149/85
f 245/150/86 246/151/87 216/154/57 213/153/54
f 216/158/57 248/157/89 247/156/88 215/155/56
f 215/155/56 247/156/88 249/160/90 219/159/60
f 219/159/60 249/160/90 250/162/91 222/161/63
f 222/161/63 250/162/91 251/164/92 225/163/66
f 225/163/66 251/164/92 252/166/93 228/165/69
f 228/165/69 252/166/93 253/168/94 231/167/72
f 231/167/72 253/168/94 254/170/95 234/169/75
f 234/169/75 254/170/95 255/172/96 237/171/78
f 255/172/96 256/174/97 240/173/81 237/171/78
f 256/174/97 257/176/98 242/175/83 240/173/81
f 242/175/83 257/176/98 258/178/99 246/177/87
f 248/180/89 216/179/57 246/177/87 258/178/99
f 260/184/33 191/183/269 186/182/269 259/181/33
f 191/183/269 192/186/270 185/185/270 186/182/269
f 185/185/272 192/186/272 190/188/271 184/187/271
f 190/188/271 189/190/273 182/189/273 184/187/271
f 189/190/273 187/192/274 181/191/274 182/189/273
f 187/192/275 188/194/276 183/193/276 181/191/275
f 183/193/276 188/194/276 262/196/37 261/195/37
f 264/200/33 167/199/277 162/198/277 263/197/33
f 167/199/277 168/202/278 161/201/278 162/198/277
f 161/201/280 168/202/280 166/204/279 160/203/279
f 166/204/279 165/206/273 158/205/273 160/203/279
f 165/206/273 163/208/274 157/207/274 158/205/273
f 163/208/281 164/210/282 159/209/282 157/207/281
f 159/209/282 164/210/282 266/212/37 265/211/37
f 268/216/33 179/215/277 174/214/277 267/213/33
f 179/215/277 180/218/278 173/217/278 174/214/277
f 173/217/280 180/218/280 178/220/279 172/219/279
f 178/220/279 177/222/273 170/221/273 172/219/279
f 177/222/273 175/224/283 169/223/283 170/221/273
f 175/224/275 176/226/276 171/225/276 169/223/275
f 171/225/276 176/226/276 270/228/37 269/227/37
f 265/230/32 263/229/32 162/63/32 159/60/32
f 159/60/32 162/63/32 160/61/32 158/59/32
f 164/65/34 165/66/34 166/67/34 167/68/34
f 164/65/34 167/68/34 264/232/34 266/231/34
f 269/234/32 267/233/32 174/75/32 171/72/32
f 171/72/32 174/75/32 172/73/32 170/71/32
f 176/77/34 177/78/34 178/79/34 179/80/34
f 176/77/34 179/80/34 268/236/34 270/235/34
f 261/238/32 259/237/32 186/87/32 183/84/32
f 183/84/32 186/87/32 184/85/32 182/83/32
f 188/89/34 189/90/34 190/91/34 191/92/34
f 188/89/34 191/92/34 260/240/34 262/239/34
f 229/244/70 232/243/73 272/242/34 271/241/34
f 229/244/70 271/241/34 273/246/34 226/245/67
f 226/245/67 273/246/34 274/248/34 223/247/64
f 273/246/285 194/95/285 197/98/284 274/248/284
f 273/246/285 271/241/286 193/94/286 194/95/285
f 272/242/287 195/96/287 193/94/286 271/241/286
f 194/95/34 195/96/34 196/97/34 197/98/34
f 274/248/34 275/250/34 220/249/61 223/247/64
f 274/248/284 197/98/284 276/251/100 275/250/100
f 272/242/34 232/243/73 235/253/76 277/252/34
f 272/242/287 277/252/288 196/97/288 195/96/287
f 197/98/34 198/99/34 278/254/34 276/251/34
f 198/99/101 196/97/288 277/252/288 279/255/101
f 198/99/101 279/255/101 280/256/102 278/254/102
f 276/251/34 278/254/34 282/258/34 281/257/34
f 276/251/100 281/257/103 283/259/103 275/250/100
f 220/249/61 275/250/34 283/259/34 217/260/58
f 277/252/34 235/253/76 238/261/79 279/255/34
f 278/254/102 280/256/102 284/262/104 282/258/104
f 281/257/103 286/264/105 285/263/105 283/259/103
f 281/257/34 282/258/34 287/265/34 286/264/34
f 280/256/34 279/255/34 238/261/79 243/266/84
f 280/256/34 243/266/84 244/267/85 284/262/34
f 217/260/58 283/259/34 285/263/34 211/268/52
f 284/262/104 288/269/106 287/265/106 282/258/104
f 287/265/106 288/269/106 285/263/105 286/264/105
f 285/263/34 288/269/34 214/270/55 211/268/52
f 284/262/34 244/267/85 214/270/55 288/269/34
f 292/274/107 291/273/108 290/272/108 289/271/107
f 289/271/107 294/276/109 293/275/109 292/274/107
f 289/271/110 290/272/111 296/278/111 295/277/110
f 294/276/109 298/280/112 297/279/112 293/275/109
f 295/277/113 299/281/113 297/279/112 298/280/112
f 299/281/113 295/277/113 296/278/114 300/282/114
f 296/278/111 290/272/111 302/284/115 301/283/115
f 290/272/289 291/286/289 303/285/116 302/284/116
f 296/278/290 301/283/117 304/288/117 300/287/290
f 302/284/115 306/290/118 305/289/118 301/283/115
f 302/284/116 303/285/116 307/291/119 306/290/119
f 301/283/117 305/289/120 308/292/120 304/288/117
f 306/290/119 307/291/119 308/292/120 305/289/120
f 312/278/121 311/283/122 310/288/122 309/287/121
f 311/283/122 314/289/123 313/292/123 310/288/122
f 311/283/124 312/278/125 316/272/125 315/284/124
f 314/289/123 318/290/126 317/291/126 313/292/123
f 315/284/127 319/285/127 317/291/126 318/290/126
f 319/285/127 315/284/127 316/272/128 320/286/128
f 316/272/125 312/278/125 322/277/129 321/271/129
f 312/278/291 309/282/291 323/281/130 322/277/130
f 316/272/292 321/271/131 324/274/131 320/273/292
f 322/277/129 326/280/132 325/276/132 321/271/129
f 322/277/130 323/281/130 327/279/133 326/280/133
f 321/271/131 325/276/134 328/275/134 324/274/131
f 326/280/133 327/279/133 328/275/134 325/276/134
f 332/296/135 331/295/136 330/294/136 329/293/135
f 331/295/136 334/298/137 333/297/137 330/294/136
f 331/295/138 332/296/139 336/300/139 335/299/138
f 334/298/137 338/302/140 337/301/140 333/297/137
f 335/299/141 339/303/141 337/301/140 338/302/140
f 339/303/141 335/299/141 336/300/142 340/304/142
f 336/300/139 332/296/139 342/306/143 341/305/143
f 332/296/293 329/308/293 343/307/144 342/306/144
f 336/300/294 341/305/145 344/310/145 340/309/294
f 342/306/143 346/312/146 345/311/146 341/305/143
f 342/306/144 343/307/144 347/313/147 346/312/147
f 341/305/145 345/311/148 348/314/148 344/310/145
f 346/312/147 347/313/147 348/314/148 345/311/148
f 352/310/149 351/309/150 350/300/150 349/305/149
f 349/305/149 354/311/151 353/314/151 352/310/149
f 349/305/152 350/300/153 356/296/153 355/306/152
f 354/311/151 358/312/154 357/313/154 353/314/151
f 355/306/155 359/307/155 357/313/154 358/312/154
f 359/307/155 355/306/155 356/296/156 360/308/156
f 356/296/153 350/300/153 362/299/157 361/295/157
f 350/300/295 351/304/295 363/303/158 362/299/158
f 356/296/296 361/295/159 364/294/159 360/293/296
f 362/299/157 366/302/160 365/298/160 361/295/157
f 362/299/158 363/303/158 367/301/161 366/302/161
f 361/295/159 365/298/162 368/297/162 364/294/159
f 366/302/161 367/301/161 368/297/162 365/298/162
f 294/276/297 289/271/110 295/277/110 298/280/297
f 314/289/298 311/283/124 315/284/124 318/290/298
f 334/298/299 331/295/138 335/299/138 338/302/299
f 354/311/300 349/305/152 355/306/152 358/312/300
f 371/317/164 370/316/164 369/315/163
f 374/320/166 373/319/165 372/318/165
f 371/323/301 372/322/301 375/321/167
f 378/326/168 377/325/168 376/324/168
f 372/330/301 371/329/301 369/328/302 374/327/302
f 371/317/164 375/332/169 379/331/169 370/316/164
f 374/336/34 369/335/34 370/334/34 373/333/34
f 372/318/165 373/319/165 379/338/303 375/337/303
f 381/341/171 380/340/170 377/339/171
f 377/339/171 378/342/304 381/341/171
f 376/345/305 380/344/306 381/343/305
f 381/343/305 378/346/307 376/345/305
f 384/316/173 383/317/173 382/315/172
f 387/319/174 386/320/175 385/318/174
f 385/322/308 383/323/308 388/321/176
f 391/325/177 390/326/177 389/324/177
f 382/328/309 383/329/308 385/330/308 386/327/309
f 392/331/178 388/332/178 383/317/173 384/316/173
f 384/334/34 382/335/34 386/336/34 387/333/34
f 392/338/310 387/319/174 385/318/174 388/337/310
f 394/340/180 393/341/179 391/339/179
f 390/342/311 391/339/179 393/341/179
f 394/344/313 389/345/312 393/343/312
f 390/346/314 393/343/312 389/345/312
f 397/317/182 396/316/182 395/315/181
f 400/320/184 399/319/183 398/318/183
f 397/323/315 398/322/315 401/321/185
f 404/326/186 403/325/186 402/324/186
f 398/330/315 397/329/315 395/328/316 400/327/316
f 397/317/182 401/332/187 405/331/187 396/316/182
f 400/336/34 395/335/34 396/334/34 399/333/34
f 398/318/183 399/319/183 405/338/317 401/337/317
f 407/341/189 406/340/188 403/339/189
f 403/339/189 404/342/318 407/341/189
f 402/345/319 406/344/320 407/343/319
f 407/343/319 404/346/321 402/345/319
f 410/316/191 409/317/191 408/315/190
f 413/319/192 412/320/193 411/318/192
f 411/322/322 409/323/322 414/321/194
f 417/325/195 416/326/195 415/324/195
f 408/328/323 409/329/322 411/330/322 412/327/323
f 418/331/196 414/332/196 409/317/191 410/316/191
f 410/334/34 408/335/34 412/336/34 413/333/34
f 418/338/324 413/319/192 411/318/192 414/337/324
f 420/340/198 419/341/197 417/339/197
f 416/342/325 417/339/197 419/341/197
f 420/344/327 415/345/326 419/343/326
f 416/346/328 419/343/326 415/345/326
f 423/349/201 422/348/200 421/347/199
f 422/348/200 424/350/202 421/347/199
f 424/350/202 425/351/203 421/347/199
f 425/351/203 426/352/204 421/347/199
f 426/352/204 427/353/205 421/347/329
f 427/353/205 428/354/206 421/347/329
f 428/354/206 429/355/207 421/347/329
f 429/355/207 430/356/208 421/347/329
f 430/356/208 431/357/209 421/347/330
f 431/357/209 432/358/210 421/347/330
f 432/358/210 433/359/211 421/347/330
f 433/359/211 423/349/201 421/347/330
f 247/363/88 248/362/89 435/361/213 434/360/212
f 247/363/88 434/360/212 436/365/214 249/364/90
f 434/360/212 433/359/211 432/358/210 436/365/214
f 434/360/212 435/361/213 423/349/201 433/359/211
f 249/364/90 436/365/214 437/367/215 250/366/91
f 436/365/214 432/358/210 431/357/209 437/367/215
f 437/367/215 438/369/216 251/368/92 250/366/91
f 438/369/216 437/367/215 431/357/209 430/356/208
f 438/369/216 439/371/217 252/370/93 251/368/92
f 438/369/216 430/356/208 429/355/207 439/371/217
f 252/370/93 439/371/217 440/373/218 253/372/94
f 439/371/217 429/355/207 428/354/206 440/373/218
f 440/373/218 441/375/219 254/374/95 253/372/94
f 428/354/206 427/353/205 441/375/219 440/373/218
f 254/374/95 441/375/219 442/377/220 255/376/96
f 441/375/219 427/353/205 426/352/204 442/377/220
f 255/376/96 442/377/220 443/379/221 256/378/97
f 442/377/220 426/352/204 425/351/203 443/379/221
f 443/379/221 444/381/222 257/380/98 256/378/97
f 425/351/203 424/350/202 444/381/222 443/379/221
f 444/381/222 445/383/223 258/382/99 257/380/98
f 445/383/223 444/381/222 424/350/202 422/348/200
f 258/382/99 445/383/223 435/361/213 248/362/89
f 445/383/223 422/348/200 423/349/201 435/361/213
# 395 elements

